<svg id="svg" version="1.1" xmlns="http://www.w3.org/2000/svg" xmlns:xlink="http://www.w3.org/1999/xlink" width="400" height="400" viewBox="0, 0, 400,400"><g id="svgg"><path id="path0" d="M86.000 18.800 C 86.000 19.020,85.381 19.200,84.624 19.200 C 83.867 19.200,83.136 19.380,83.000 19.600 C 82.864 19.820,82.213 20.000,81.553 20.000 C 80.855 20.000,80.456 20.167,80.600 20.400 C 80.740 20.627,80.404 20.800,79.824 20.800 C 79.261 20.800,78.800 20.980,78.800 21.200 C 78.800 21.420,78.440 21.600,78.000 21.600 C 77.560 21.600,77.200 21.780,77.200 22.000 C 77.200 22.220,76.840 22.400,76.400 22.400 C 75.960 22.400,75.600 22.580,75.600 22.800 C 75.600 23.020,75.240 23.200,74.800 23.200 C 74.360 23.200,74.000 23.380,74.000 23.600 C 74.000 23.820,73.757 24.000,73.459 24.000 C 73.162 24.000,72.354 24.540,71.663 25.200 C 70.972 25.860,70.232 26.400,70.018 26.400 C 68.328 26.400,60.000 36.885,60.000 39.012 C 60.000 39.335,59.820 39.600,59.600 39.600 C 59.380 39.600,59.200 39.960,59.200 40.400 C 59.200 40.840,59.020 41.200,58.800 41.200 C 58.580 41.200,58.400 41.560,58.400 42.000 C 58.400 42.440,58.220 42.800,58.000 42.800 C 57.780 42.800,57.600 43.430,57.600 44.200 C 57.600 44.970,57.420 45.600,57.200 45.600 C 56.980 45.600,56.800 46.230,56.800 47.000 C 56.800 47.770,56.620 48.400,56.400 48.400 C 56.134 48.400,56.000 87.400,56.000 164.600 L 56.000 280.800 200.000 280.800 L 344.000 280.800 344.000 187.410 L 344.000 94.020 322.100 93.874 C 301.504 93.736,298.588 93.617,296.600 92.828 C 296.160 92.654,295.080 92.290,294.200 92.020 C 286.705 89.721,274.000 79.432,274.000 75.661 C 274.000 75.444,273.858 75.207,273.685 75.133 C 273.512 75.060,272.897 74.010,272.319 72.800 C 268.605 65.030,268.600 64.986,268.600 39.900 L 268.600 18.400 177.300 18.400 C 116.700 18.400,86.000 18.535,86.000 18.800 M174.099 107.129 C 182.341 110.993,184.100 121.962,177.461 128.099 C 169.448 135.506,156.699 130.317,156.086 119.400 C 155.555 109.937,165.556 103.124,174.099 107.129 M226.697 133.600 C 227.256 134.590,228.073 136.030,228.513 136.800 C 228.953 137.570,229.763 139.010,230.314 140.000 C 230.864 140.990,232.341 143.600,233.596 145.800 C 234.851 148.000,236.419 150.790,237.080 152.000 C 237.741 153.210,238.696 154.920,239.203 155.800 C 239.709 156.680,240.500 158.120,240.962 159.000 C 241.423 159.880,241.890 160.690,242.000 160.800 C 242.110 160.910,242.587 161.720,243.060 162.600 C 244.015 164.376,245.161 166.433,246.459 168.700 C 246.931 169.525,247.854 171.190,248.509 172.400 C 249.164 173.610,250.195 175.410,250.799 176.400 C 251.403 177.390,252.522 179.370,253.287 180.800 C 254.051 182.230,255.064 184.075,255.538 184.900 C 256.012 185.725,256.788 187.075,257.262 187.900 C 257.735 188.725,258.500 190.120,258.962 191.000 C 259.423 191.880,259.890 192.690,260.000 192.800 C 260.110 192.910,260.587 193.720,261.060 194.600 C 262.335 196.972,263.342 198.753,264.744 201.118 C 265.435 202.282,266.000 203.294,266.000 203.366 C 266.000 203.439,267.373 205.906,269.051 208.849 C 270.729 211.792,272.591 215.100,273.189 216.200 C 273.787 217.300,274.756 219.010,275.343 220.000 C 275.929 220.990,276.720 222.475,277.099 223.300 C 277.478 224.125,277.926 224.800,278.094 224.800 C 278.262 224.800,278.400 224.970,278.400 225.179 C 278.400 225.387,279.045 226.658,279.833 228.003 C 280.622 229.348,281.167 230.708,281.046 231.024 C 280.798 231.669,119.047 231.923,118.649 231.279 C 118.448 230.954,122.307 225.111,122.885 224.867 C 123.058 224.793,123.200 224.512,123.200 224.242 C 123.200 223.972,123.525 223.402,123.923 222.975 C 124.320 222.549,125.747 220.580,127.094 218.600 C 128.442 216.620,130.309 213.920,131.244 212.600 C 132.179 211.280,134.109 208.490,135.533 206.400 C 136.958 204.310,138.455 202.228,138.861 201.774 C 139.268 201.320,139.600 200.735,139.600 200.474 C 139.600 200.213,139.741 200.000,139.914 200.000 C 140.086 200.000,140.521 199.505,140.879 198.900 C 141.237 198.295,141.996 197.260,142.565 196.600 C 143.134 195.940,143.599 195.190,143.600 194.933 C 143.600 194.677,143.746 194.407,143.924 194.333 C 144.102 194.260,146.207 191.320,148.602 187.800 C 150.996 184.280,153.069 181.310,153.208 181.200 C 153.346 181.090,154.248 179.830,155.211 178.400 C 156.173 176.970,157.285 175.451,157.681 175.025 C 158.076 174.598,158.400 174.013,158.400 173.725 C 158.400 173.436,158.535 173.199,158.700 173.198 C 158.865 173.197,159.630 172.208,160.400 171.000 C 162.505 167.698,162.534 167.712,167.153 174.452 C 168.717 176.734,170.534 179.320,171.191 180.200 C 171.848 181.080,172.511 182.070,172.664 182.400 C 172.817 182.730,173.060 183.090,173.205 183.200 C 173.349 183.310,174.612 185.110,176.011 187.200 C 177.410 189.290,178.880 191.349,179.277 191.775 C 179.675 192.202,180.000 192.772,180.000 193.042 C 180.000 193.312,180.136 193.593,180.303 193.667 C 180.470 193.740,181.669 195.285,182.967 197.100 C 185.562 200.726,185.671 200.804,186.320 199.500 C 186.566 199.005,187.380 197.520,188.127 196.200 C 188.875 194.880,190.078 192.720,190.801 191.400 C 191.524 190.080,192.257 188.816,192.431 188.591 C 192.605 188.366,193.271 187.196,193.912 185.991 C 194.552 184.786,195.464 183.125,195.938 182.300 C 198.067 178.595,198.591 177.667,199.717 175.600 C 200.377 174.390,201.586 172.230,202.404 170.800 C 203.221 169.370,204.339 167.390,204.889 166.400 C 205.438 165.410,206.272 163.925,206.743 163.100 C 208.563 159.914,209.230 158.748,210.062 157.300 C 210.536 156.475,211.410 154.900,212.005 153.800 C 212.600 152.700,214.703 148.920,216.679 145.400 C 218.654 141.880,220.724 138.190,221.279 137.200 C 222.960 134.198,224.077 132.217,224.281 131.878 C 224.709 131.165,225.736 131.897,226.697 133.600 M159.121 300.299 C 161.388 300.370,164.988 300.370,167.121 300.298 C 169.255 300.226,167.400 300.168,163.000 300.168 C 158.600 300.168,156.855 300.227,159.121 300.299 M211.900 300.299 C 215.695 300.365,221.905 300.365,225.700 300.299 C 229.495 300.234,226.390 300.180,218.800 300.180 C 211.210 300.180,208.105 300.234,211.900 300.299 M274.105 300.287 C 274.714 300.379,275.614 300.377,276.105 300.282 C 276.597 300.187,276.100 300.111,275.000 300.114 C 273.900 300.117,273.497 300.195,274.105 300.287 M150.189 331.200 C 150.189 345.610,150.239 351.505,150.300 344.300 C 150.361 337.095,150.361 325.305,150.300 318.100 C 150.239 310.895,150.189 316.790,150.189 331.200 M200.189 331.200 C 200.189 345.610,200.239 351.505,200.300 344.300 C 200.361 337.095,200.361 325.305,200.300 318.100 C 200.239 310.895,200.189 316.790,200.189 331.200 M137.385 325.200 C 137.385 335.870,137.437 340.235,137.500 334.900 C 137.563 329.565,137.563 320.835,137.500 315.500 C 137.437 310.165,137.385 314.530,137.385 325.200 M267.978 315.500 L 266.600 317.000 268.100 315.622 C 268.925 314.863,269.600 314.188,269.600 314.122 C 269.600 313.816,269.262 314.104,267.978 315.500 M250.131 331.400 C 250.133 332.940,250.205 333.521,250.292 332.691 C 250.379 331.861,250.377 330.601,250.289 329.891 C 250.200 329.181,250.129 329.860,250.131 331.400 M299.701 333.400 C 299.705 334.280,299.787 334.593,299.883 334.095 C 299.979 333.598,299.975 332.878,299.875 332.495 C 299.775 332.113,299.696 332.520,299.701 333.400 M164.512 337.495 C 165.564 337.577,167.184 337.576,168.112 337.492 C 169.040 337.408,168.180 337.341,166.200 337.342 C 164.220 337.343,163.460 337.412,164.512 337.495 M214.300 337.493 C 215.235 337.577,216.765 337.577,217.700 337.493 C 218.635 337.409,217.870 337.340,216.000 337.340 C 214.130 337.340,213.365 337.409,214.300 337.493 M282.100 337.491 C 282.925 337.578,284.275 337.578,285.100 337.491 C 285.925 337.405,285.250 337.334,283.600 337.334 C 281.950 337.334,281.275 337.405,282.100 337.491 M100.101 344.200 C 100.105 345.080,100.187 345.393,100.283 344.895 C 100.379 344.398,100.375 343.678,100.275 343.295 C 100.175 342.913,100.096 343.320,100.101 344.200 M217.723 350.299 C 220.541 350.368,225.041 350.368,227.723 350.299 C 230.405 350.230,228.100 350.173,222.600 350.173 C 217.100 350.174,214.905 350.230,217.723 350.299 M274.500 350.276 C 274.885 350.376,275.515 350.376,275.900 350.276 C 276.285 350.175,275.970 350.093,275.200 350.093 C 274.430 350.093,274.115 350.175,274.500 350.276 " stroke="none" fill="#cbd3fc" fill-rule="evenodd"></path><path id="path1" d="M161.474 170.782 C 161.088 171.436,160.553 172.210,160.286 172.502 C 160.019 172.795,159.620 173.316,159.400 173.661 C 158.888 174.463,153.787 181.809,151.386 185.200 C 150.374 186.630,148.628 189.150,147.505 190.800 C 146.383 192.450,145.344 193.890,145.197 194.000 C 145.051 194.110,143.629 196.147,142.038 198.527 C 140.447 200.907,138.896 203.157,138.590 203.527 C 138.285 203.897,135.411 207.980,132.203 212.600 C 128.995 217.220,126.119 221.303,125.812 221.673 C 124.968 222.691,119.600 230.742,119.600 230.990 C 119.600 231.582,168.915 230.997,169.249 230.400 C 169.434 230.070,170.153 228.810,170.848 227.600 C 171.543 226.390,172.465 224.770,172.898 224.000 C 173.330 223.230,175.359 219.630,177.406 216.000 C 182.531 206.915,183.928 204.403,184.666 202.951 C 185.291 201.718,185.278 201.671,183.721 199.551 C 182.852 198.368,181.179 195.960,180.003 194.200 C 178.827 192.440,177.745 190.910,177.599 190.800 C 177.452 190.690,176.232 188.980,174.886 187.000 C 168.796 178.038,162.965 169.847,162.589 169.725 C 162.362 169.652,161.861 170.128,161.474 170.782 M56.000 314.800 C 56.000 336.667,56.137 348.000,56.400 348.000 C 56.620 348.000,56.800 348.990,56.800 350.200 C 56.800 351.410,56.980 352.400,57.200 352.400 C 57.782 352.400,57.691 354.697,57.100 354.935 C 56.825 355.046,57.025 355.151,57.545 355.168 C 58.356 355.195,58.467 355.366,58.321 356.359 C 58.198 357.197,58.296 357.461,58.675 357.316 C 59.006 357.189,59.200 357.426,59.200 357.957 C 59.200 358.421,59.009 358.800,58.776 358.800 C 58.543 358.800,58.459 358.972,58.589 359.183 C 58.719 359.393,59.090 359.464,59.413 359.340 C 59.788 359.196,60.000 359.362,60.000 359.800 C 60.000 360.250,59.790 360.405,59.391 360.252 C 58.897 360.062,58.860 360.165,59.197 360.794 C 59.440 361.249,59.858 361.476,60.206 361.342 C 60.533 361.217,60.800 361.299,60.800 361.524 C 60.800 361.749,60.591 362.003,60.336 362.088 C 59.989 362.204,59.986 362.438,60.324 363.021 C 60.740 363.739,60.777 363.743,60.788 363.076 C 60.795 362.667,60.985 362.467,61.227 362.617 C 61.462 362.762,61.561 363.124,61.448 363.420 C 61.315 363.767,61.447 363.880,61.820 363.737 C 62.159 363.607,62.400 363.751,62.400 364.082 C 62.400 364.394,62.760 365.036,63.200 365.508 C 63.640 365.980,64.000 366.513,64.000 366.693 C 64.000 366.872,65.425 368.435,67.166 370.166 C 69.025 372.015,70.245 373.537,70.123 373.857 C 70.008 374.155,70.099 374.400,70.324 374.400 C 70.549 374.400,70.814 374.175,70.913 373.900 C 71.035 373.561,71.350 373.690,71.893 374.300 C 72.333 374.795,72.988 375.200,73.347 375.200 C 73.706 375.200,74.000 375.380,74.000 375.600 C 74.000 375.820,74.282 376.000,74.627 376.000 C 75.072 376.000,75.180 376.232,75.000 376.800 C 74.725 377.665,75.383 377.922,75.767 377.100 C 75.953 376.700,76.047 376.700,76.233 377.100 C 76.362 377.375,76.812 377.600,77.233 377.600 C 77.655 377.600,78.000 377.845,78.000 378.145 C 78.000 378.510,78.329 378.626,79.000 378.498 C 79.833 378.339,80.005 378.465,80.032 379.253 C 80.049 379.774,80.154 379.975,80.265 379.700 C 80.376 379.425,80.912 379.200,81.457 379.200 C 82.002 379.200,82.358 379.344,82.250 379.519 C 82.142 379.695,82.218 380.100,82.420 380.419 C 82.672 380.818,82.790 380.843,82.794 380.500 C 82.797 380.212,83.310 380.000,84.000 380.000 C 84.660 380.000,85.200 380.180,85.200 380.400 C 85.200 380.620,86.201 380.800,87.424 380.800 C 88.804 380.800,89.553 380.952,89.400 381.200 C 89.235 381.466,126.129 381.600,199.776 381.600 C 273.259 381.600,310.400 381.466,310.400 381.200 C 310.400 380.978,311.467 380.800,312.800 380.800 C 314.133 380.800,315.200 380.622,315.200 380.400 C 315.200 380.180,315.830 380.000,316.600 380.000 C 317.370 380.000,318.000 379.820,318.000 379.600 C 318.000 379.380,318.450 379.200,319.000 379.200 C 319.550 379.200,320.000 378.999,320.000 378.753 C 320.000 378.493,320.416 378.386,321.000 378.498 C 321.671 378.626,322.000 378.510,322.000 378.145 C 322.000 377.845,322.281 377.600,322.624 377.600 C 322.967 377.600,323.136 377.780,323.000 378.000 C 322.864 378.220,322.943 378.400,323.176 378.400 C 323.409 378.400,323.600 378.040,323.600 377.600 C 323.600 377.160,323.780 376.800,324.000 376.800 C 324.220 376.800,324.400 376.980,324.400 377.200 C 324.400 377.420,324.580 377.600,324.800 377.600 C 325.020 377.600,325.200 377.317,325.200 376.971 C 325.200 376.163,326.163 375.200,326.971 375.200 C 327.317 375.200,327.600 375.008,327.600 374.773 C 327.600 374.531,327.989 374.443,328.500 374.569 C 328.995 374.692,329.175 374.689,328.900 374.563 C 328.253 374.266,328.253 373.601,328.900 373.598 C 329.608 373.595,336.443 366.793,336.174 366.359 C 336.053 366.161,336.113 366.000,336.309 366.000 C 336.505 366.000,336.920 365.508,337.232 364.906 C 338.084 363.264,338.863 362.449,339.388 362.651 C 339.646 362.750,340.084 362.334,340.361 361.726 C 340.710 360.960,340.732 360.577,340.432 360.477 C 339.827 360.276,339.889 359.540,340.500 359.680 C 341.105 359.819,341.261 359.425,340.936 358.577 C 340.803 358.230,340.898 357.742,341.147 357.493 C 341.396 357.244,341.600 356.626,341.600 356.120 C 341.600 355.614,341.834 355.200,342.120 355.200 C 342.478 355.200,342.589 354.765,342.476 353.800 C 342.376 352.943,342.485 352.400,342.756 352.400 C 343.027 352.400,343.200 351.545,343.200 350.200 C 343.200 348.990,343.380 348.000,343.600 348.000 C 343.863 348.000,344.000 336.667,344.000 314.800 L 344.000 281.600 200.000 281.600 L 56.000 281.600 56.000 314.800 M134.445 300.437 C 134.800 300.620,135.659 301.417,136.355 302.210 L 137.619 303.650 137.510 326.346 L 137.400 349.043 135.917 352.021 C 131.092 361.716,120.418 365.482,110.600 360.954 C 98.833 355.527,95.492 337.345,106.239 337.219 C 109.723 337.178,112.800 340.095,112.800 343.440 C 112.800 349.782,121.260 351.797,123.988 346.104 C 124.770 344.472,124.801 343.656,124.829 324.304 C 124.861 302.271,124.791 302.938,127.264 301.092 C 129.099 299.722,132.459 299.415,134.445 300.437 M171.744 299.980 C 186.562 301.889,192.986 320.738,182.637 331.938 C 178.913 335.968,174.634 337.600,167.791 337.600 L 162.800 337.600 162.800 347.805 C 162.800 355.226,162.664 358.255,162.300 358.905 C 159.085 364.657,151.416 363.950,149.983 357.769 C 149.509 355.723,149.508 306.679,149.982 304.634 C 150.431 302.698,152.613 300.434,154.446 300.001 C 156.308 299.562,168.385 299.547,171.744 299.980 M233.000 299.989 C 237.653 301.063,239.337 307.554,235.849 310.970 C 234.108 312.675,233.218 312.800,222.781 312.800 L 212.800 312.800 212.800 318.800 L 212.800 324.800 216.805 324.800 C 220.906 324.800,221.805 325.049,223.378 326.622 C 226.240 329.484,225.766 334.428,222.411 336.700 C 221.244 337.490,220.575 337.600,216.941 337.600 L 212.800 337.600 212.800 343.600 L 212.800 349.600 222.100 349.610 C 227.215 349.615,232.120 349.785,233.000 349.989 C 238.773 351.322,239.383 359.846,233.881 362.301 C 231.949 363.163,204.548 362.946,203.032 362.056 C 199.624 360.055,199.619 360.014,199.619 331.200 C 199.619 301.705,199.710 301.119,204.446 300.001 C 206.352 299.552,231.060 299.541,233.000 299.989 M282.383 301.068 C 286.479 302.588,287.600 304.054,287.600 307.889 C 287.600 312.963,283.283 315.531,278.000 313.600 C 268.329 310.065,259.128 326.522,264.023 338.600 C 264.201 339.040,264.564 340.043,264.828 340.829 C 268.873 352.844,283.352 351.514,285.843 338.900 L 286.100 337.600 282.624 337.600 C 277.239 337.600,274.800 335.604,274.800 331.200 C 274.800 325.911,276.987 324.800,287.400 324.800 C 295.897 324.800,296.311 324.868,298.335 326.600 C 302.069 329.795,300.594 340.886,295.170 350.400 C 293.603 353.150,288.918 358.177,287.500 358.630 C 287.115 358.753,286.800 359.022,286.800 359.227 C 286.800 359.432,286.530 359.600,286.200 359.600 C 285.870 359.600,285.600 359.736,285.600 359.902 C 285.600 360.173,285.101 360.420,282.200 361.589 C 279.018 362.872,273.366 363.190,270.000 362.276 C 268.329 361.822,263.654 359.719,263.200 359.217 C 263.090 359.095,262.321 358.489,261.491 357.870 C 259.582 356.448,258.352 355.218,256.930 353.309 C 256.311 352.479,255.714 351.710,255.602 351.600 C 255.491 351.490,255.158 350.970,254.862 350.445 C 254.567 349.920,253.969 348.856,253.533 348.081 C 249.694 341.245,248.682 328.232,251.348 319.958 C 256.352 304.425,269.638 296.338,282.383 301.068 M162.800 318.800 L 162.800 324.800 166.151 324.800 C 172.352 324.800,175.932 321.558,174.433 317.300 C 173.261 313.973,171.103 312.800,166.151 312.800 L 162.800 312.800 162.800 318.800 " stroke="none" fill="#5454fc" fill-rule="evenodd"></path><path id="path2" d="M269.302 40.679 C 269.481 65.295,269.728 67.040,274.083 74.518 C 274.697 75.572,275.200 76.541,275.200 76.671 C 275.200 76.800,275.517 77.197,275.904 77.553 C 276.292 77.909,277.078 78.830,277.651 79.600 C 280.886 83.948,287.123 88.479,293.200 90.896 C 293.750 91.114,294.513 91.452,294.895 91.647 C 295.277 91.841,296.121 92.000,296.771 92.000 C 297.421 92.000,298.064 92.180,298.200 92.400 C 298.336 92.620,299.257 92.800,300.246 92.800 C 301.236 92.800,302.800 92.986,303.723 93.213 C 304.790 93.476,312.225 93.585,324.174 93.513 L 342.948 93.400 306.048 56.479 L 269.149 19.558 269.302 40.679 M224.904 132.736 C 224.657 132.888,223.926 134.000,223.279 135.206 C 222.632 136.413,220.909 139.544,219.451 142.165 C 217.993 144.785,216.800 147.008,216.800 147.103 C 216.800 147.198,216.467 147.754,216.061 148.338 C 215.655 148.922,214.781 150.390,214.120 151.600 C 213.459 152.810,212.434 154.610,211.842 155.600 C 211.249 156.590,210.662 157.715,210.536 158.100 C 210.410 158.485,210.148 158.800,209.953 158.800 C 209.759 158.800,209.600 159.160,209.600 159.600 C 209.600 160.040,209.441 160.400,209.247 160.400 C 209.052 160.400,208.793 160.715,208.670 161.100 C 208.470 161.730,207.770 163.016,204.807 168.200 C 204.304 169.080,203.136 171.150,202.211 172.800 C 201.287 174.450,200.026 176.700,199.409 177.800 C 198.793 178.900,197.889 180.520,197.401 181.400 C 196.913 182.280,196.128 183.675,195.657 184.500 C 194.707 186.163,193.558 188.189,192.738 189.645 C 192.442 190.170,192.110 190.690,191.999 190.800 C 191.889 190.910,191.534 191.540,191.210 192.200 C 190.886 192.860,189.941 194.543,189.110 195.941 C 188.280 197.338,187.600 198.602,187.600 198.748 C 187.600 198.894,187.176 199.641,186.657 200.407 C 186.139 201.173,184.996 203.150,184.117 204.800 C 183.239 206.450,181.953 208.753,181.260 209.918 C 180.567 211.082,180.000 212.207,180.000 212.418 C 180.000 212.628,179.862 212.800,179.694 212.800 C 179.526 212.800,179.078 213.475,178.699 214.300 C 178.320 215.125,177.469 216.700,176.809 217.800 C 176.148 218.900,175.300 220.430,174.925 221.200 C 174.549 221.970,174.136 222.690,174.006 222.800 C 173.696 223.063,169.600 230.473,169.600 230.770 C 169.600 230.897,194.530 230.954,225.000 230.897 C 255.470 230.841,280.400 230.652,280.400 230.477 C 280.400 230.303,280.237 229.989,280.038 229.780 C 279.658 229.382,278.458 227.309,277.038 224.600 C 276.577 223.720,276.110 222.910,276.000 222.800 C 275.890 222.690,275.423 221.880,274.962 221.000 C 274.500 220.120,273.735 218.725,273.262 217.900 C 271.556 214.931,270.670 213.370,269.686 211.600 C 269.135 210.610,267.305 207.370,265.619 204.400 C 263.932 201.430,262.294 198.415,261.979 197.700 C 261.663 196.985,261.302 196.400,261.177 196.400 C 261.052 196.400,260.702 195.770,260.400 195.000 C 260.098 194.230,259.748 193.600,259.623 193.600 C 259.498 193.600,259.141 193.015,258.830 192.300 C 258.519 191.585,258.160 190.910,258.032 190.800 C 257.830 190.626,257.332 189.746,255.429 186.200 C 255.193 185.760,254.910 185.310,254.800 185.200 C 254.690 185.090,254.223 184.280,253.762 183.400 C 253.300 182.520,252.535 181.125,252.062 180.300 C 251.588 179.475,250.819 178.125,250.354 177.300 C 249.889 176.475,249.101 175.080,248.603 174.200 C 247.510 172.268,245.396 168.391,244.242 166.200 C 243.779 165.320,243.310 164.510,243.200 164.400 C 242.948 164.148,242.104 162.669,241.030 160.600 C 240.574 159.720,240.110 158.910,240.000 158.800 C 239.767 158.567,239.089 157.392,237.576 154.600 C 236.980 153.500,235.302 150.488,233.846 147.907 C 232.391 145.326,231.200 143.031,231.200 142.807 C 231.200 142.583,231.065 142.399,230.900 142.397 C 230.735 142.395,230.413 141.990,230.183 141.497 C 229.558 140.151,227.830 137.028,227.585 136.800 C 227.466 136.690,226.915 135.668,226.360 134.530 C 225.740 133.256,225.179 132.566,224.904 132.736 " stroke="none" fill="#8494fc" fill-rule="evenodd"></path><path id="path3" d="M164.680 107.206 C 159.800 109.061,156.400 113.853,156.400 118.876 C 156.400 120.677,156.563 121.274,157.895 124.341 C 159.970 129.122,166.787 132.310,171.640 130.768 C 181.324 127.692,184.332 116.291,177.169 109.819 C 175.799 108.582,174.960 108.111,171.881 106.856 C 170.267 106.198,166.902 106.361,164.680 107.206 M129.031 301.215 C 127.094 302.181,126.000 303.317,126.000 304.360 C 126.000 304.796,125.820 305.264,125.600 305.400 C 125.342 305.560,125.200 312.813,125.200 325.850 C 125.200 346.937,125.205 346.873,123.427 348.569 C 119.730 352.095,112.400 350.025,112.400 345.456 C 112.400 343.522,111.421 341.072,110.126 339.765 C 106.038 335.638,99.177 340.047,100.718 345.810 C 100.983 346.801,101.200 347.905,101.200 348.264 C 101.200 350.705,105.856 357.405,108.500 358.768 C 109.105 359.080,109.600 359.485,109.600 359.668 C 109.600 359.850,109.872 360.000,110.205 360.000 C 110.538 360.000,111.123 360.159,111.505 360.353 C 113.524 361.380,116.512 362.093,118.800 362.093 C 121.088 362.093,124.076 361.380,126.095 360.353 C 126.477 360.159,127.062 360.000,127.395 360.000 C 127.728 360.000,128.000 359.862,128.000 359.694 C 128.000 359.526,128.675 358.966,129.500 358.450 C 132.499 356.572,135.759 351.432,136.635 347.200 C 137.203 344.460,137.288 306.748,136.731 305.000 C 135.545 301.279,132.199 299.634,129.031 301.215 M154.600 300.881 C 152.855 301.490,151.380 303.020,150.857 304.766 C 150.117 307.239,150.220 356.272,150.970 358.067 C 152.660 362.112,157.272 363.191,160.236 360.233 C 162.002 358.472,162.123 357.683,162.283 346.935 L 162.427 337.270 166.713 337.069 C 169.071 336.959,171.630 336.751,172.400 336.607 C 179.224 335.332,185.343 329.139,186.634 322.200 C 187.173 319.300,186.901 315.223,186.019 313.000 C 183.306 306.163,178.776 302.326,171.669 300.844 C 169.007 300.289,156.219 300.317,154.600 300.881 M204.600 300.881 C 200.361 302.359,200.400 302.072,200.400 331.498 C 200.400 361.078,200.289 360.381,205.247 361.864 C 207.579 362.561,229.736 362.619,232.154 361.934 C 233.975 361.418,236.400 359.401,236.400 358.402 C 236.400 358.049,236.611 357.549,236.868 357.292 C 237.483 356.677,236.574 353.786,235.344 352.440 C 233.712 350.654,232.113 350.412,221.900 350.406 L 212.400 350.400 212.400 343.800 L 212.400 337.200 215.900 337.189 C 218.716 337.180,219.737 337.004,221.128 336.289 C 222.672 335.494,223.202 334.859,224.478 332.277 C 225.256 330.702,222.460 326.000,220.745 326.000 C 220.361 326.000,219.936 325.820,219.800 325.600 C 219.664 325.380,217.943 325.200,215.976 325.200 L 212.400 325.200 212.400 318.800 L 212.400 312.400 221.454 312.400 C 232.444 312.400,236.400 311.342,236.400 308.402 C 236.400 308.049,236.611 307.549,236.868 307.292 C 238.128 306.032,235.536 301.852,232.933 300.946 C 231.011 300.277,206.495 300.221,204.600 300.881 M271.800 300.876 C 253.102 304.679,244.485 330.644,255.564 349.800 C 257.685 353.467,264.611 360.000,266.377 360.000 C 266.616 360.000,267.123 360.159,267.505 360.353 C 270.055 361.650,270.682 361.764,275.207 361.748 C 277.821 361.739,280.194 361.560,280.480 361.349 C 280.766 361.139,281.720 360.724,282.600 360.427 C 287.003 358.941,293.378 352.693,295.689 347.600 C 300.578 336.824,300.544 326.000,295.621 326.000 C 295.195 326.000,294.736 325.820,294.600 325.600 C 294.231 325.003,281.788 325.085,280.028 325.696 C 278.186 326.336,276.329 328.206,275.678 330.077 C 275.159 331.570,275.183 331.684,276.514 334.199 C 277.492 336.046,279.669 336.969,283.596 337.200 C 287.516 337.431,287.750 337.700,286.424 340.446 C 285.971 341.383,285.600 342.386,285.600 342.675 C 285.600 342.964,285.420 343.200,285.200 343.200 C 284.980 343.200,284.800 343.439,284.800 343.731 C 284.800 344.703,280.820 348.703,279.002 349.557 C 265.612 355.851,256.093 329.918,266.821 316.373 C 269.852 312.546,272.792 311.813,280.304 313.013 C 284.364 313.661,288.306 309.674,286.789 306.453 C 286.516 305.874,286.105 304.993,285.876 304.495 C 284.737 302.022,276.535 299.913,271.800 300.876 M173.469 314.207 C 176.109 316.963,176.085 320.736,173.411 323.411 L 171.621 325.200 167.011 325.200 L 162.400 325.200 162.400 318.800 L 162.400 312.400 167.069 312.400 L 171.737 312.400 173.469 314.207 " stroke="none" fill="#fbfbfc" fill-rule="evenodd"></path><path id="path4" d="M269.047 19.023 C 268.718 19.879,268.807 59.940,269.140 61.127 C 269.283 61.637,269.344 52.492,269.274 40.805 L 269.149 19.556 306.147 56.578 C 326.496 76.940,343.337 93.600,343.572 93.600 C 344.281 93.600,344.064 93.107,342.789 91.821 C 339.908 88.914,327.483 76.476,326.186 75.200 C 323.028 72.092,321.781 70.846,321.400 70.416 C 321.180 70.168,318.570 67.551,315.600 64.602 C 312.630 61.652,309.840 58.873,309.400 58.426 C 308.960 57.979,305.090 54.109,300.800 49.826 C 296.510 45.543,292.679 41.715,292.286 41.319 C 288.931 37.940,277.322 26.335,276.297 25.336 C 275.584 24.641,273.960 22.994,272.690 21.677 C 269.481 18.349,269.344 18.249,269.047 19.023 M269.606 63.433 C 269.609 64.075,269.796 64.870,270.021 65.200 C 270.314 65.630,270.354 65.346,270.162 64.200 C 269.830 62.216,269.598 61.896,269.606 63.433 M270.406 66.633 C 270.409 67.055,270.595 67.670,270.818 68.000 C 271.115 68.438,271.152 68.276,270.956 67.400 C 270.627 65.929,270.398 65.610,270.406 66.633 M271.246 69.200 C 271.239 69.530,271.578 70.430,272.000 71.200 C 272.975 72.981,272.975 72.306,272.000 70.200 C 271.593 69.320,271.254 68.870,271.246 69.200 M272.809 73.100 C 272.814 73.265,273.185 73.850,273.633 74.400 L 274.448 75.400 273.814 74.100 C 273.211 72.865,272.789 72.445,272.809 73.100 M275.606 77.471 C 275.637 79.328,288.465 90.468,289.444 89.489 C 289.566 89.368,289.065 88.981,288.332 88.630 C 285.404 87.229,279.821 82.511,277.646 79.600 C 276.286 77.780,275.599 77.063,275.606 77.471 M297.000 92.400 C 298.101 92.873,298.492 92.873,298.200 92.400 C 298.064 92.180,297.558 92.013,297.076 92.028 C 296.231 92.055,296.229 92.069,297.000 92.400 M300.600 93.200 C 302.340 93.643,304.982 93.643,303.600 93.200 C 303.050 93.024,301.880 92.883,301.000 92.887 C 299.478 92.894,299.458 92.910,300.600 93.200 M226.566 134.900 C 226.695 135.175,226.911 135.715,227.046 136.100 C 227.182 136.485,227.457 136.800,227.657 136.800 C 227.857 136.800,227.741 136.260,227.400 135.600 C 226.811 134.462,226.073 133.842,226.566 134.900 M221.822 137.022 C 221.445 137.598,221.216 138.149,221.314 138.247 C 221.412 138.345,221.800 137.954,222.178 137.378 C 222.555 136.802,222.784 136.251,222.686 136.153 C 222.588 136.055,222.200 136.446,221.822 137.022 M228.000 137.350 C 228.000 137.726,230.110 141.223,230.252 141.082 C 230.427 140.907,228.435 137.200,228.166 137.200 C 228.075 137.200,228.000 137.267,228.000 137.350 M219.828 140.661 C 219.256 141.684,218.869 142.602,218.967 142.701 C 219.066 142.799,219.611 141.962,220.180 140.840 C 221.473 138.288,221.225 138.162,219.828 140.661 M231.200 142.984 C 231.200 143.111,232.391 145.326,233.846 147.907 C 237.108 153.691,238.782 156.725,239.359 157.897 C 239.601 158.390,239.932 158.795,240.092 158.797 C 240.399 158.800,237.985 154.161,236.730 152.338 C 236.329 151.754,236.000 151.183,236.000 151.070 C 236.000 150.956,235.100 149.305,234.000 147.400 C 232.900 145.495,232.000 143.782,232.000 143.592 C 232.000 143.402,231.820 143.136,231.600 143.000 C 231.380 142.864,231.200 142.857,231.200 142.984 M217.846 144.186 C 217.491 144.728,217.200 145.254,217.200 145.354 C 217.200 145.455,216.282 147.126,215.159 149.068 C 214.037 151.011,212.856 153.140,212.535 153.800 L 211.952 155.000 212.767 154.000 C 213.215 153.450,213.586 152.873,213.591 152.718 C 213.596 152.562,214.168 151.482,214.862 150.318 C 217.829 145.337,219.957 140.964,217.846 144.186 M210.986 156.500 L 210.352 157.800 211.167 156.800 C 211.952 155.837,212.208 155.200,211.810 155.200 C 211.706 155.200,211.335 155.785,210.986 156.500 M240.406 159.288 C 240.398 159.679,241.977 162.503,242.482 163.000 C 242.705 163.220,242.515 162.680,242.059 161.800 C 241.069 159.888,240.415 158.893,240.406 159.288 M207.014 163.435 C 206.641 164.004,206.427 164.561,206.539 164.672 C 206.650 164.783,207.029 164.318,207.381 163.637 C 208.159 162.133,207.944 162.015,207.014 163.435 M205.422 166.222 C 205.045 166.798,204.816 167.349,204.914 167.447 C 205.012 167.545,205.400 167.154,205.778 166.578 C 206.155 166.002,206.384 165.451,206.286 165.353 C 206.188 165.255,205.800 165.646,205.422 166.222 M244.409 166.700 C 244.414 166.865,244.785 167.450,245.233 168.000 L 246.048 169.000 245.414 167.700 C 244.811 166.465,244.389 166.045,244.409 166.700 M204.283 168.273 C 204.175 168.453,203.588 169.500,202.978 170.600 C 202.368 171.700,200.306 175.390,198.396 178.800 C 192.856 188.686,192.245 189.823,192.697 189.400 C 192.932 189.180,193.502 188.325,193.962 187.500 C 194.423 186.675,195.185 185.325,195.657 184.500 C 196.128 183.675,196.938 182.235,197.457 181.300 C 197.975 180.365,198.879 178.745,199.465 177.700 C 200.051 176.655,201.331 174.360,202.309 172.600 C 203.288 170.840,204.274 169.171,204.501 168.890 C 204.728 168.610,204.816 168.283,204.697 168.164 C 204.578 168.044,204.392 168.094,204.283 168.273 M248.107 173.300 C 249.745 176.265,250.713 177.966,252.148 180.400 C 252.732 181.390,253.520 182.875,253.899 183.700 C 254.278 184.525,254.733 185.200,254.908 185.200 C 255.265 185.200,254.967 184.578,252.800 180.800 C 251.981 179.370,250.856 177.390,250.301 176.400 C 247.748 171.847,247.118 170.800,246.929 170.800 C 246.818 170.800,247.348 171.925,248.107 173.300 M255.200 185.702 C 255.200 185.847,255.740 186.881,256.400 188.000 C 257.060 189.119,257.600 190.207,257.600 190.418 C 257.600 190.628,257.782 190.800,258.003 190.800 C 258.225 190.800,257.836 189.765,257.138 188.500 C 255.852 186.168,255.200 185.226,255.200 185.702 M189.440 194.640 C 188.862 195.675,188.460 196.594,188.548 196.682 C 188.636 196.770,189.182 195.995,189.760 194.960 C 190.338 193.925,190.740 193.006,190.652 192.918 C 190.564 192.830,190.018 193.605,189.440 194.640 M186.582 199.782 C 185.908 201.202,185.879 201.216,185.048 200.515 L 184.200 199.800 184.962 200.700 C 185.381 201.195,185.771 201.600,185.829 201.600 C 186.112 201.600,187.663 198.730,187.480 198.546 C 187.364 198.430,186.959 198.986,186.582 199.782 M263.628 200.800 C 264.632 202.885,266.105 205.229,266.292 205.041 C 266.400 204.934,266.108 204.313,265.644 203.661 C 265.180 203.010,264.796 202.324,264.791 202.138 C 264.786 201.952,264.414 201.350,263.964 200.800 L 263.146 199.800 263.628 200.800 M267.830 208.200 C 268.660 209.740,269.667 211.585,270.069 212.300 C 270.471 213.015,271.177 214.275,271.638 215.100 C 272.098 215.925,272.659 216.780,272.883 217.000 C 273.432 217.537,272.502 215.728,270.041 211.468 C 268.918 209.526,267.996 207.816,267.991 207.668 C 267.986 207.521,267.609 206.950,267.152 206.400 C 266.696 205.850,267.001 206.660,267.830 208.200 M273.209 217.900 C 273.214 218.065,273.585 218.650,274.033 219.200 L 274.848 220.200 274.214 218.900 C 273.611 217.665,273.189 217.245,273.209 217.900 M274.966 220.900 C 275.095 221.175,275.311 221.715,275.446 222.100 C 275.582 222.485,275.857 222.800,276.057 222.800 C 276.257 222.800,276.141 222.260,275.800 221.600 C 275.211 220.462,274.473 219.842,274.966 220.900 M277.209 225.100 C 277.214 225.265,277.585 225.850,278.033 226.400 L 278.848 227.400 278.214 226.100 C 277.611 224.865,277.189 224.445,277.209 225.100 M278.809 227.900 C 278.814 228.065,279.185 228.650,279.633 229.200 L 280.448 230.200 279.814 228.900 C 279.211 227.665,278.789 227.245,278.809 227.900 M225.200 230.800 L 169.800 231.004 225.300 231.102 C 262.099 231.167,280.800 231.065,280.800 230.800 C 280.800 230.580,280.755 230.444,280.700 230.498 C 280.645 230.552,255.670 230.688,225.200 230.800 M274.305 312.683 C 274.802 312.779,275.522 312.775,275.905 312.675 C 276.287 312.575,275.880 312.496,275.000 312.501 C 274.120 312.505,273.807 312.587,274.305 312.683 M262.534 331.200 C 262.534 332.850,262.605 333.525,262.691 332.700 C 262.778 331.875,262.778 330.525,262.691 329.700 C 262.605 328.875,262.534 329.550,262.534 331.200 M224.901 331.400 C 224.905 332.280,224.987 332.593,225.083 332.095 C 225.179 331.598,225.175 330.878,225.075 330.495 C 224.975 330.113,224.896 330.520,224.901 331.400 M274.901 331.400 C 274.905 332.280,274.987 332.593,275.083 332.095 C 275.179 331.598,275.175 330.878,275.075 330.495 C 274.975 330.113,274.896 330.520,274.901 331.400 " stroke="none" fill="#979efc" fill-rule="evenodd"></path><path id="path5" d="M164.069 106.840 C 155.600 110.174,153.335 121.314,159.811 127.789 C 168.202 136.181,182.570 129.476,181.500 117.667 C 180.739 109.281,171.867 103.771,164.069 106.840 M171.881 106.856 C 174.960 108.111,175.799 108.582,177.169 109.819 C 184.332 116.291,181.324 127.692,171.640 130.768 C 166.787 132.310,159.970 129.122,157.895 124.341 C 156.563 121.274,156.400 120.677,156.400 118.876 C 156.400 111.095,165.310 104.177,171.881 106.856 M128.941 300.797 C 128.468 300.988,127.970 301.324,127.834 301.545 C 127.631 301.873,129.795 301.014,130.367 300.538 C 130.667 300.289,129.819 300.443,128.941 300.797 M271.000 300.800 C 269.922 301.074,269.902 301.106,270.800 301.113 C 271.350 301.117,272.250 300.976,272.800 300.800 C 274.144 300.369,272.692 300.369,271.000 300.800 M277.400 300.781 C 278.168 301.129,280.310 301.356,279.967 301.053 C 279.875 300.972,279.080 300.796,278.200 300.662 C 277.085 300.493,276.842 300.529,277.400 300.781 M259.402 307.198 C 259.003 307.639,258.807 308.000,258.967 308.000 C 259.388 308.000,260.528 306.795,260.312 306.579 C 260.211 306.478,259.802 306.756,259.402 307.198 M234.975 310.500 L 233.800 311.800 235.100 310.625 C 235.815 309.979,236.400 309.394,236.400 309.325 C 236.400 309.016,236.070 309.288,234.975 310.500 M280.500 313.476 C 280.885 313.576,281.515 313.576,281.900 313.476 C 282.285 313.375,281.970 313.293,281.200 313.293 C 280.430 313.293,280.115 313.375,280.500 313.476 M186.468 315.000 C 186.462 315.440,186.611 316.160,186.800 316.600 C 187.238 317.619,187.238 316.568,186.800 315.200 C 186.543 314.396,186.477 314.357,186.468 315.000 M251.646 321.267 C 251.621 321.634,251.496 322.264,251.370 322.667 C 251.152 323.362,251.163 323.363,251.597 322.687 C 251.848 322.296,251.973 321.666,251.873 321.287 C 251.711 320.668,251.688 320.666,251.646 321.267 M250.901 325.400 C 250.905 326.280,250.987 326.593,251.083 326.095 C 251.179 325.598,251.175 324.878,251.075 324.495 C 250.975 324.113,250.896 324.520,250.901 325.400 M221.600 326.125 C 221.600 326.194,222.185 326.779,222.900 327.425 L 224.200 328.600 223.025 327.300 C 221.930 326.088,221.600 325.816,221.600 326.125 M276.996 327.204 C 276.366 327.862,275.966 328.400,276.107 328.400 C 276.472 328.400,278.480 326.347,278.295 326.162 C 278.211 326.077,277.626 326.546,276.996 327.204 M250.901 337.000 C 250.905 337.880,250.987 338.193,251.083 337.695 C 251.179 337.198,251.175 336.478,251.075 336.095 C 250.975 335.713,250.896 336.120,250.901 337.000 M298.893 337.600 C 298.893 338.370,298.975 338.685,299.076 338.300 C 299.176 337.915,299.176 337.285,299.076 336.900 C 298.975 336.515,298.893 336.830,298.893 337.600 M105.633 337.744 C 105.725 337.823,106.340 338.008,107.000 338.156 C 107.876 338.352,108.038 338.315,107.600 338.018 C 107.060 337.653,105.232 337.398,105.633 337.744 M102.175 339.700 L 101.000 341.000 102.398 339.800 C 103.167 339.140,103.872 338.555,103.965 338.500 C 104.057 338.445,103.957 338.400,103.742 338.400 C 103.526 338.400,102.821 338.985,102.175 339.700 M252.430 343.600 C 252.428 344.176,253.557 346.466,253.586 345.946 C 253.594 345.806,253.337 345.086,253.016 344.346 C 252.694 343.606,252.431 343.270,252.430 343.600 M136.600 346.400 C 136.448 347.091,136.407 347.741,136.509 347.842 C 136.611 347.944,136.809 347.453,136.950 346.750 C 137.283 345.083,136.960 344.760,136.600 346.400 M268.000 347.400 C 268.746 348.170,269.447 348.800,269.557 348.800 C 269.667 348.800,269.146 348.170,268.400 347.400 C 267.654 346.630,266.953 346.000,266.843 346.000 C 266.733 346.000,267.254 346.630,268.000 347.400 M281.578 347.500 L 280.200 349.000 281.700 347.622 C 283.096 346.338,283.384 346.000,283.078 346.000 C 283.012 346.000,282.337 346.675,281.578 347.500 M116.000 349.982 C 116.330 350.205,116.945 350.391,117.367 350.394 C 118.390 350.402,118.071 350.173,116.600 349.844 C 115.724 349.648,115.562 349.685,116.000 349.982 M259.400 355.200 C 260.259 356.080,261.052 356.800,261.162 356.800 C 261.272 356.800,260.659 356.080,259.800 355.200 C 258.941 354.320,258.148 353.600,258.038 353.600 C 257.928 353.600,258.541 354.320,259.400 355.200 M290.181 355.300 L 288.600 357.000 290.300 355.419 C 291.881 353.948,292.184 353.600,291.881 353.600 C 291.816 353.600,291.051 354.365,290.181 355.300 M150.646 358.000 C 150.777 358.550,151.259 359.360,151.718 359.800 C 152.443 360.494,152.477 360.499,151.977 359.842 C 151.659 359.425,151.177 358.615,150.904 358.042 L 150.408 357.000 150.646 358.000 M200.646 358.000 C 200.777 358.550,201.259 359.360,201.718 359.800 C 202.443 360.494,202.477 360.499,201.977 359.842 C 201.659 359.425,201.177 358.615,200.904 358.042 L 200.408 357.000 200.646 358.000 M234.975 360.500 L 233.800 361.800 235.100 360.625 C 235.815 359.979,236.400 359.394,236.400 359.325 C 236.400 359.016,236.070 359.288,234.975 360.500 M116.200 362.000 C 116.640 362.189,117.360 362.338,117.800 362.332 C 118.443 362.323,118.404 362.257,117.600 362.000 C 116.232 361.562,115.181 361.562,116.200 362.000 M120.000 362.000 C 119.196 362.257,119.157 362.323,119.800 362.332 C 120.240 362.338,120.960 362.189,121.400 362.000 C 122.419 361.562,121.368 361.562,120.000 362.000 M154.938 362.094 C 155.192 362.256,155.760 362.388,156.200 362.388 C 156.640 362.388,157.208 362.256,157.462 362.094 C 157.716 361.932,157.148 361.800,156.200 361.800 C 155.252 361.800,154.684 361.932,154.938 362.094 M272.476 362.060 C 273.703 362.406,276.826 362.413,277.685 362.072 C 278.062 361.922,276.836 361.800,274.961 361.800 C 273.087 361.800,271.968 361.917,272.476 362.060 " stroke="none" fill="#e4e4fc" fill-rule="evenodd"></path><path id="path6" d="M161.053 170.791 C 160.474 171.667,160.000 172.518,160.000 172.684 C 160.000 172.850,160.478 172.269,161.062 171.393 C 161.646 170.517,162.184 169.726,162.259 169.636 C 162.334 169.545,162.801 169.815,163.298 170.236 L 164.200 171.000 163.438 170.100 C 162.421 168.899,162.278 168.941,161.053 170.791 M158.606 174.288 L 157.904 175.400 158.830 174.511 C 159.339 174.022,159.655 173.522,159.532 173.399 C 159.409 173.276,158.992 173.676,158.606 174.288 M168.620 178.049 C 169.891 179.892,171.194 181.670,171.516 182.000 C 171.838 182.330,171.003 180.948,169.660 178.929 C 168.318 176.911,167.014 175.133,166.764 174.978 C 166.514 174.824,167.350 176.205,168.620 178.049 M155.125 179.300 C 153.128 181.978,152.258 183.335,152.723 183.047 C 153.230 182.734,156.550 178.000,156.262 178.000 C 156.170 178.000,155.659 178.585,155.125 179.300 M175.254 187.491 C 176.434 189.301,177.544 190.786,177.720 190.791 C 177.896 190.796,177.191 189.585,176.153 188.100 C 173.355 184.096,172.792 183.715,175.254 187.491 M148.552 188.700 C 147.513 190.185,146.235 191.985,145.711 192.700 C 145.188 193.415,144.903 193.992,145.080 193.983 C 145.405 193.965,150.924 186.000,150.611 186.000 C 150.517 186.000,149.590 187.215,148.552 188.700 M181.490 196.500 C 185.052 201.096,185.325 201.651,184.666 202.951 C 183.924 204.411,181.569 208.666,180.154 211.100 C 179.611 212.035,179.354 212.800,179.583 212.800 C 179.812 212.800,180.000 212.617,180.000 212.393 C 180.000 212.169,180.675 210.863,181.500 209.491 C 182.325 208.119,183.604 205.827,184.343 204.398 L 185.686 201.800 183.743 198.915 C 182.674 197.328,181.643 196.023,181.451 196.015 C 181.259 196.007,181.276 196.225,181.490 196.500 M141.958 198.100 C 141.465 198.815,140.447 200.255,139.697 201.300 C 138.946 202.345,138.482 203.196,138.666 203.191 C 139.001 203.182,143.358 196.800,143.029 196.800 C 142.933 196.800,142.451 197.385,141.958 198.100 M135.098 207.900 C 132.941 210.892,131.028 213.859,131.681 213.200 C 132.486 212.387,136.905 206.000,136.662 206.000 C 136.555 206.000,135.852 206.855,135.098 207.900 M177.809 215.298 C 177.192 216.454,176.876 217.220,177.106 217.000 C 177.701 216.432,179.270 213.537,179.084 213.351 C 178.999 213.266,178.425 214.142,177.809 215.298 M130.000 215.200 C 129.530 215.860,129.236 216.400,129.346 216.400 C 129.456 216.400,129.930 215.860,130.400 215.200 C 130.870 214.540,131.164 214.000,131.054 214.000 C 130.944 214.000,130.470 214.540,130.000 215.200 M127.044 219.400 C 126.045 220.830,125.356 221.996,125.513 221.992 C 125.815 221.983,129.329 216.800,129.034 216.800 C 128.939 216.800,128.044 217.970,127.044 219.400 M175.786 218.900 L 175.152 220.200 175.967 219.200 C 176.752 218.237,177.008 217.600,176.610 217.600 C 176.506 217.600,176.135 218.185,175.786 218.900 M174.219 221.563 C 173.867 222.243,173.719 222.799,173.890 222.797 C 174.255 222.793,175.269 220.735,175.025 220.492 C 174.934 220.400,174.571 220.882,174.219 221.563 M171.002 227.250 C 170.213 228.597,169.650 229.783,169.751 229.884 C 169.852 229.986,170.154 229.648,170.423 229.134 C 170.691 228.620,171.352 227.435,171.893 226.500 C 172.434 225.565,172.778 224.800,172.657 224.800 C 172.537 224.800,171.792 225.902,171.002 227.250 M120.435 228.879 C 119.756 229.802,119.200 230.732,119.200 230.945 C 119.200 231.413,119.157 231.464,120.754 229.100 C 122.342 226.751,122.115 226.594,120.435 228.879 M127.900 281.500 C 167.555 281.556,232.445 281.556,272.100 281.500 C 311.755 281.444,279.310 281.398,200.000 281.398 C 120.690 281.398,88.245 281.444,127.900 281.500 M159.100 299.898 C 161.135 299.971,164.465 299.971,166.500 299.898 C 168.535 299.825,166.870 299.766,162.800 299.766 C 158.730 299.766,157.065 299.825,159.100 299.898 M212.100 299.899 C 215.785 299.965,221.815 299.965,225.500 299.899 C 229.185 299.833,226.170 299.779,218.800 299.779 C 211.430 299.779,208.415 299.833,212.100 299.899 M133.233 300.121 C 133.325 300.188,133.940 300.558,134.600 300.945 L 135.800 301.647 134.856 300.824 C 134.336 300.371,133.721 300.000,133.489 300.000 C 133.257 300.000,133.142 300.054,133.233 300.121 M173.000 300.400 C 173.440 300.589,174.070 300.744,174.400 300.744 C 174.778 300.744,174.704 300.617,174.200 300.400 C 173.760 300.211,173.130 300.056,172.800 300.056 C 172.422 300.056,172.496 300.183,173.000 300.400 M233.233 300.121 C 233.325 300.188,233.940 300.558,234.600 300.945 L 235.800 301.647 234.856 300.824 C 234.336 300.371,233.721 300.000,233.489 300.000 C 233.257 300.000,233.142 300.054,233.233 300.121 M279.400 300.400 C 279.840 300.589,280.470 300.744,280.800 300.744 C 281.178 300.744,281.104 300.617,280.600 300.400 C 280.160 300.211,279.530 300.056,279.200 300.056 C 278.822 300.056,278.896 300.183,279.400 300.400 M284.200 302.067 C 284.640 302.310,285.369 302.800,285.819 303.155 C 286.270 303.510,286.132 303.305,285.513 302.700 C 284.894 302.095,284.165 301.605,283.894 301.612 C 283.622 301.619,283.760 301.823,284.200 302.067 M136.655 303.000 C 137.580 304.579,137.600 304.603,137.600 304.111 C 137.600 303.879,137.229 303.264,136.776 302.744 L 135.953 301.800 136.655 303.000 M236.655 303.000 C 237.580 304.579,237.600 304.603,237.600 304.111 C 237.600 303.879,237.229 303.264,236.776 302.744 L 235.953 301.800 236.655 303.000 M264.000 302.836 C 263.336 303.379,263.269 303.515,263.800 303.240 C 265.105 302.566,265.828 302.012,265.400 302.015 C 265.180 302.017,264.550 302.386,264.000 302.836 M181.080 304.558 C 182.225 305.586,183.740 307.322,184.448 308.414 C 185.861 310.595,186.342 311.020,185.450 309.300 C 184.651 307.758,181.790 304.582,180.273 303.552 C 179.573 303.077,179.936 303.530,181.080 304.558 M259.994 305.870 C 258.646 307.118,257.008 308.963,256.354 309.970 C 255.700 310.976,255.573 311.260,256.071 310.600 C 256.569 309.940,258.291 308.095,259.897 306.500 C 263.378 303.043,263.433 302.686,259.994 305.870 M149.789 331.200 C 149.789 345.390,149.839 351.195,149.900 344.100 C 149.961 337.005,149.961 325.395,149.900 318.300 C 149.839 311.205,149.789 317.010,149.789 331.200 M199.789 331.200 C 199.789 345.390,199.839 351.195,199.900 344.100 C 199.961 337.005,199.961 325.395,199.900 318.300 C 199.839 311.205,199.789 317.010,199.789 331.200 M285.294 312.412 C 284.575 313.065,284.137 313.600,284.319 313.600 C 284.501 313.600,285.168 313.060,285.800 312.400 C 287.270 310.865,286.986 310.872,285.294 312.412 M162.576 312.918 C 162.467 313.204,162.433 316.039,162.500 319.218 L 162.624 325.000 162.712 318.917 L 162.800 312.834 165.900 312.697 L 169.000 312.561 165.887 312.480 C 163.647 312.423,162.719 312.545,162.576 312.918 M212.576 312.918 C 212.467 313.204,212.433 316.039,212.500 319.218 L 212.624 325.000 212.712 318.907 L 212.800 312.814 223.100 312.700 L 233.400 312.586 223.087 312.493 C 214.944 312.420,212.733 312.509,212.576 312.918 M279.337 314.094 C 279.946 314.480,283.101 314.485,283.337 314.100 C 283.438 313.935,282.475 313.800,281.198 313.800 C 279.920 313.800,279.083 313.932,279.337 314.094 M252.465 316.617 C 252.209 317.178,252.007 317.854,252.016 318.119 C 252.024 318.383,252.297 317.988,252.622 317.239 C 253.305 315.665,253.161 315.090,252.465 316.617 M265.596 319.300 C 265.160 320.015,264.802 320.765,264.801 320.967 C 264.800 321.423,264.856 321.348,265.914 319.500 C 266.966 317.663,266.697 317.494,265.596 319.300 M250.240 324.040 C 250.093 324.957,250.052 325.785,250.147 325.880 C 250.242 325.976,250.446 325.310,250.600 324.400 C 250.754 323.490,250.796 322.662,250.693 322.560 C 250.590 322.457,250.387 323.123,250.240 324.040 M298.229 326.838 C 298.873 327.629,299.481 328.208,299.579 328.125 C 299.678 328.042,299.151 327.395,298.409 326.687 L 297.058 325.400 298.229 326.838 M184.600 328.883 C 183.940 329.990,182.410 331.802,181.200 332.910 C 179.990 334.017,179.557 334.543,180.238 334.078 C 182.315 332.661,186.463 327.526,185.946 327.014 C 185.866 326.935,185.260 327.776,184.600 328.883 M300.134 332.400 C 300.134 334.050,300.205 334.725,300.291 333.900 C 300.378 333.075,300.378 331.725,300.291 330.900 C 300.205 330.075,300.134 330.750,300.134 332.400 M249.701 331.400 C 249.705 332.280,249.787 332.593,249.883 332.095 C 249.979 331.598,249.975 330.878,249.875 330.495 C 249.775 330.113,249.696 330.520,249.701 331.400 M262.887 334.600 C 262.891 335.040,263.032 335.940,263.200 336.600 C 263.474 337.678,263.506 337.698,263.513 336.800 C 263.517 336.250,263.376 335.350,263.200 334.800 C 262.949 334.016,262.881 333.973,262.887 334.600 M104.800 337.425 C 106.203 337.735,108.718 337.790,108.543 337.507 C 108.438 337.338,107.418 337.221,106.276 337.246 C 105.134 337.272,104.470 337.352,104.800 337.425 M101.570 339.100 L 100.600 340.200 101.800 339.200 C 102.460 338.650,103.075 338.155,103.167 338.100 C 103.258 338.045,103.155 338.000,102.936 338.000 C 102.718 338.000,102.103 338.495,101.570 339.100 M110.534 339.307 C 111.230 340.026,111.877 340.564,111.971 340.503 C 112.199 340.354,109.931 338.000,109.559 338.000 C 109.399 338.000,109.838 338.588,110.534 339.307 M162.399 348.281 C 162.290 354.045,162.338 358.623,162.507 358.454 C 162.676 358.284,162.766 353.568,162.707 347.973 L 162.599 337.800 162.399 348.281 M212.583 343.800 L 212.600 349.800 222.400 349.811 L 232.200 349.822 222.511 349.704 L 212.821 349.586 212.693 343.693 L 212.566 337.800 212.583 343.800 M298.649 341.415 C 298.512 341.773,298.415 342.366,298.434 342.733 C 298.453 343.100,298.627 342.869,298.821 342.220 C 299.198 340.958,299.065 340.333,298.649 341.415 M112.352 342.487 C 112.537 343.598,112.593 343.655,112.719 342.854 C 112.801 342.333,112.703 341.743,112.501 341.541 C 112.279 341.319,112.221 341.693,112.352 342.487 M265.815 343.500 C 267.156 345.585,267.600 346.177,267.600 345.880 C 267.600 345.496,265.555 342.400,265.301 342.400 C 265.195 342.400,265.426 342.895,265.815 343.500 M137.029 348.229 C 136.881 348.815,136.838 349.372,136.932 349.466 C 137.027 349.560,137.224 349.158,137.371 348.571 C 137.519 347.985,137.562 347.428,137.468 347.334 C 137.373 347.240,137.176 347.642,137.029 348.229 M100.244 348.600 C 100.573 350.071,100.802 350.390,100.794 349.367 C 100.791 348.945,100.605 348.330,100.382 348.000 C 100.085 347.562,100.048 347.724,100.244 348.600 M56.000 349.376 C 56.000 350.133,56.180 350.864,56.400 351.000 C 56.642 351.149,56.800 350.604,56.800 349.624 C 56.800 348.731,56.620 348.000,56.400 348.000 C 56.180 348.000,56.000 348.619,56.000 349.376 M343.200 350.024 C 343.200 351.271,343.353 351.952,343.600 351.800 C 343.820 351.664,344.000 350.753,344.000 349.776 C 344.000 348.799,343.820 348.000,343.600 348.000 C 343.380 348.000,343.200 348.911,343.200 350.024 M117.063 349.700 C 117.299 350.085,119.656 350.079,120.265 349.692 C 120.521 349.529,119.864 349.397,118.805 349.398 C 117.746 349.399,116.962 349.535,117.063 349.700 M275.200 349.600 L 273.400 349.880 275.000 349.934 C 275.880 349.963,276.870 349.813,277.200 349.600 C 277.530 349.387,277.620 349.237,277.400 349.266 C 277.180 349.296,276.190 349.446,275.200 349.600 M233.233 350.121 C 233.325 350.188,233.940 350.558,234.600 350.945 L 235.800 351.647 234.856 350.824 C 234.336 350.371,233.721 350.000,233.489 350.000 C 233.257 350.000,233.142 350.054,233.233 350.121 M236.655 353.000 C 237.580 354.579,237.600 354.603,237.600 354.111 C 237.600 353.879,237.229 353.264,236.776 352.744 L 235.953 351.800 236.655 353.000 M56.800 353.600 C 56.800 354.260,56.980 354.800,57.200 354.800 C 57.420 354.800,57.600 354.260,57.600 353.600 C 57.600 352.940,57.420 352.400,57.200 352.400 C 56.980 352.400,56.800 352.940,56.800 353.600 M342.400 353.200 C 342.400 353.640,342.580 354.000,342.800 354.000 C 343.020 354.000,343.200 353.640,343.200 353.200 C 343.200 352.760,343.020 352.400,342.800 352.400 C 342.580 352.400,342.400 352.760,342.400 353.200 M102.000 352.980 C 102.000 353.363,104.789 357.200,105.068 357.200 C 105.221 357.200,103.665 354.890,102.125 352.833 C 102.056 352.742,102.000 352.808,102.000 352.980 M257.634 354.247 C 258.165 354.933,258.680 355.423,258.779 355.335 C 258.877 355.247,258.443 354.686,257.813 354.088 L 256.669 353.000 257.634 354.247 M132.185 356.879 C 131.093 358.022,130.559 358.697,130.998 358.379 C 131.863 357.752,132.100 357.522,133.570 355.882 C 135.273 353.982,134.244 354.723,132.185 356.879 M57.600 356.200 C 57.600 356.750,57.780 357.200,58.000 357.200 C 58.220 357.200,58.400 357.560,58.400 358.000 C 58.400 358.440,58.580 358.800,58.800 358.800 C 59.020 358.800,59.200 358.440,59.200 358.000 C 59.200 357.560,59.020 357.200,58.800 357.200 C 58.580 357.200,58.400 356.750,58.400 356.200 C 58.400 355.650,58.220 355.200,58.000 355.200 C 57.780 355.200,57.600 355.650,57.600 356.200 M341.600 356.005 C 341.600 356.448,341.380 357.164,341.110 357.595 C 340.723 358.215,340.723 358.483,341.110 358.870 C 341.497 359.257,341.600 359.132,341.600 358.280 C 341.600 357.686,341.780 357.200,342.000 357.200 C 342.220 357.200,342.400 356.750,342.400 356.200 C 342.400 355.650,342.220 355.200,342.000 355.200 C 341.780 355.200,341.600 355.562,341.600 356.005 M288.400 357.683 C 287.630 358.346,287.360 358.691,287.800 358.451 C 289.009 357.790,290.163 356.829,289.971 356.643 C 289.877 356.552,289.170 357.020,288.400 357.683 M59.078 359.456 C 58.758 359.775,59.119 360.400,59.624 360.400 C 59.831 360.400,60.000 360.130,60.000 359.800 C 60.000 359.181,59.528 359.005,59.078 359.456 M160.575 360.900 L 159.400 362.200 160.700 361.025 C 161.912 359.930,162.184 359.600,161.875 359.600 C 161.806 359.600,161.221 360.185,160.575 360.900 M151.688 361.013 C 152.286 361.643,152.847 362.077,152.935 361.979 C 153.023 361.880,152.533 361.365,151.847 360.834 L 150.600 359.869 151.688 361.013 M201.688 361.013 C 202.286 361.643,202.847 362.077,202.935 361.979 C 203.023 361.880,202.533 361.365,201.847 360.834 L 200.600 359.869 201.688 361.013 M114.538 362.494 C 114.792 362.656,116.710 362.788,118.800 362.788 C 120.890 362.788,122.808 362.656,123.062 362.494 C 123.316 362.332,121.398 362.200,118.800 362.200 C 116.202 362.200,114.284 362.332,114.538 362.494 M153.862 362.500 C 153.964 362.665,155.016 362.800,156.200 362.800 C 157.384 362.800,158.436 362.665,158.538 362.500 C 158.640 362.335,157.588 362.200,156.200 362.200 C 154.812 362.200,153.760 362.335,153.862 362.500 M203.945 362.505 C 204.113 362.673,210.809 362.763,218.825 362.705 L 233.400 362.599 218.520 362.400 C 210.336 362.290,203.777 362.337,203.945 362.505 M273.113 362.695 C 274.276 362.776,276.076 362.776,277.113 362.693 C 278.151 362.611,277.200 362.545,275.000 362.546 C 272.800 362.547,271.951 362.614,273.113 362.695 M338.389 363.106 C 338.065 363.494,337.545 364.304,337.232 364.906 C 336.920 365.508,336.505 366.000,336.309 366.000 C 336.113 366.000,336.054 366.163,336.177 366.363 C 336.403 366.729,329.979 373.260,329.093 373.564 C 328.297 373.837,327.485 374.819,327.807 375.119 C 327.973 375.274,328.190 375.175,328.288 374.900 C 328.386 374.625,328.713 374.400,329.013 374.400 C 329.314 374.400,329.744 374.085,329.968 373.700 C 330.192 373.315,330.381 373.146,330.388 373.325 C 330.395 373.504,331.075 373.011,331.900 372.229 C 332.725 371.447,333.535 370.805,333.700 370.803 C 333.865 370.802,334.000 370.540,334.000 370.223 C 334.000 369.905,334.535 369.329,335.189 368.943 C 335.842 368.557,336.561 367.714,336.785 367.070 C 337.010 366.426,337.543 365.596,337.970 365.226 C 338.397 364.856,338.868 364.068,339.017 363.476 C 339.332 362.218,339.197 362.138,338.389 363.106 M61.379 364.035 C 61.231 364.274,61.670 365.047,62.355 365.754 C 63.040 366.460,63.600 367.191,63.600 367.378 C 63.600 367.564,64.410 368.583,65.400 369.641 C 66.390 370.700,67.200 371.483,67.200 371.382 C 67.200 371.281,67.810 371.844,68.555 372.634 C 69.300 373.424,70.011 373.906,70.135 373.706 C 70.258 373.505,68.929 371.919,67.180 370.180 C 65.431 368.441,64.000 366.872,64.000 366.693 C 64.000 366.513,63.640 365.980,63.200 365.508 C 62.760 365.036,62.400 364.413,62.400 364.125 C 62.400 363.490,61.751 363.432,61.379 364.035 M70.800 374.157 C 70.800 374.718,71.950 375.383,72.305 375.028 C 72.508 374.825,71.413 373.600,71.029 373.600 C 70.903 373.600,70.800 373.851,70.800 374.157 M73.200 375.429 C 73.200 375.821,74.322 376.800,74.771 376.800 C 75.007 376.800,75.200 376.620,75.200 376.400 C 75.200 376.180,74.930 376.000,74.600 376.000 C 74.270 376.000,74.000 375.820,74.000 375.600 C 74.000 375.380,73.820 375.200,73.600 375.200 C 73.380 375.200,73.200 375.303,73.200 375.429 M325.700 375.798 C 325.060 376.525,325.043 377.117,325.680 376.480 C 325.944 376.216,326.495 376.000,326.904 376.000 C 327.313 376.000,327.536 375.820,327.400 375.600 C 327.053 375.039,326.290 375.128,325.700 375.798 M78.400 378.800 C 78.400 379.020,78.760 379.200,79.200 379.200 C 79.640 379.200,80.000 379.020,80.000 378.800 C 80.000 378.580,79.640 378.400,79.200 378.400 C 78.760 378.400,78.400 378.580,78.400 378.800 M320.000 378.800 C 320.000 379.020,319.550 379.200,319.000 379.200 C 318.450 379.200,318.000 379.380,318.000 379.600 C 318.000 379.820,318.450 380.000,319.000 380.000 C 319.550 380.000,320.000 379.820,320.000 379.600 C 320.000 379.380,320.259 379.200,320.576 379.200 C 320.893 379.200,321.264 379.020,321.400 378.800 C 321.536 378.580,321.277 378.400,320.824 378.400 C 320.371 378.400,320.000 378.580,320.000 378.800 M80.400 379.600 C 80.400 379.820,80.749 380.000,81.176 380.000 C 81.603 380.000,82.064 379.820,82.200 379.600 C 82.340 379.373,82.004 379.200,81.424 379.200 C 80.861 379.200,80.400 379.380,80.400 379.600 M83.200 380.400 C 83.200 380.620,83.650 380.800,84.200 380.800 C 84.750 380.800,85.200 380.620,85.200 380.400 C 85.200 380.180,84.750 380.000,84.200 380.000 C 83.650 380.000,83.200 380.180,83.200 380.400 M315.200 380.400 C 315.200 380.620,315.639 380.800,316.176 380.800 C 316.713 380.800,317.264 380.620,317.400 380.400 C 317.544 380.167,317.137 380.000,316.424 380.000 C 315.751 380.000,315.200 380.180,315.200 380.400 M85.800 381.200 C 85.936 381.420,86.746 381.600,87.600 381.600 C 88.454 381.600,89.264 381.420,89.400 381.200 C 89.553 380.953,88.863 380.800,87.600 380.800 C 86.337 380.800,85.647 380.953,85.800 381.200 M310.400 381.203 C 310.400 381.682,313.941 381.619,314.240 381.135 C 314.354 380.951,313.537 380.800,312.424 380.800 C 311.311 380.800,310.400 380.981,310.400 381.203 " stroke="none" fill="#8c8cfc" fill-rule="evenodd"></path><path id="path7" d="M268.586 39.400 C 268.586 50.400,268.637 54.842,268.700 49.272 C 268.763 43.702,268.762 34.702,268.700 29.272 C 268.637 23.842,268.585 28.400,268.586 39.400 M268.854 61.200 C 268.806 62.331,269.780 66.788,270.470 68.600 C 271.344 70.893,273.362 75.001,273.680 75.133 C 273.856 75.207,274.000 75.444,274.000 75.661 C 274.000 79.432,286.705 89.721,294.200 92.020 C 295.080 92.290,296.160 92.654,296.600 92.828 C 298.601 93.622,301.531 93.731,322.200 93.780 L 344.200 93.833 322.200 93.596 C 301.676 93.375,299.999 93.304,297.200 92.538 C 287.903 89.994,280.070 84.362,275.064 76.622 C 271.904 71.738,270.649 68.568,269.273 62.000 C 269.041 60.892,268.880 60.585,268.854 61.200 M224.281 131.878 C 224.077 132.217,222.960 134.198,221.279 137.200 C 220.724 138.190,218.654 141.880,216.679 145.400 C 214.703 148.920,212.600 152.700,212.005 153.800 C 211.410 154.900,210.536 156.475,210.062 157.300 C 209.230 158.748,208.563 159.914,206.743 163.100 C 206.272 163.925,205.434 165.410,204.881 166.400 C 204.328 167.390,202.818 170.069,201.525 172.353 C 200.231 174.638,199.249 176.582,199.341 176.674 C 199.433 176.766,200.190 175.617,201.023 174.121 C 202.906 170.741,203.776 169.192,204.800 167.400 C 206.974 163.596,207.386 162.870,208.318 161.200 C 208.871 160.210,210.798 156.790,212.600 153.600 C 216.481 146.729,217.343 145.190,220.943 138.700 C 221.462 137.765,222.370 136.190,222.961 135.200 C 223.552 134.210,224.138 133.085,224.264 132.700 C 224.684 131.417,225.386 131.980,227.000 134.892 C 227.880 136.480,229.158 138.774,229.840 139.989 C 230.522 141.205,231.582 143.100,232.194 144.200 C 232.807 145.300,233.914 147.245,234.654 148.521 C 235.394 149.798,236.004 150.968,236.009 151.121 C 236.021 151.499,237.580 153.473,237.591 153.125 C 237.596 152.974,236.188 150.364,234.463 147.325 C 232.738 144.286,230.873 140.990,230.319 140.000 C 229.766 139.010,228.953 137.570,228.513 136.800 C 228.073 136.030,227.256 134.590,226.697 133.600 C 225.736 131.897,224.709 131.165,224.281 131.878 M238.003 154.400 C 239.381 157.150,241.312 160.422,241.466 160.268 C 241.561 160.172,241.270 159.443,240.820 158.647 C 240.369 157.851,239.623 156.525,239.162 155.700 C 238.192 153.962,237.260 152.917,238.003 154.400 M242.149 161.900 C 242.463 162.505,243.596 164.530,244.667 166.400 C 245.738 168.270,247.061 170.656,247.607 171.702 C 248.153 172.748,248.930 174.008,249.333 174.502 C 250.030 175.357,248.372 172.019,246.401 168.600 C 243.750 164.001,242.732 162.133,242.530 161.500 C 242.407 161.115,242.143 160.800,241.943 160.800 C 241.743 160.800,241.836 161.295,242.149 161.900 M161.240 169.700 C 160.691 170.593,160.694 170.594,161.528 169.851 C 161.998 169.434,162.652 169.211,163.006 169.347 C 163.374 169.488,163.539 169.424,163.397 169.195 C 162.968 168.500,161.810 168.771,161.240 169.700 M164.908 171.900 C 165.665 172.945,166.940 174.765,167.742 175.945 C 168.544 177.125,169.200 177.957,169.200 177.794 C 169.200 177.292,164.220 170.029,163.866 170.014 C 163.682 170.006,164.151 170.855,164.908 171.900 M155.696 177.632 C 154.980 178.715,154.477 179.600,154.578 179.600 C 154.850 179.600,157.300 175.967,157.138 175.804 C 157.061 175.727,156.412 176.550,155.696 177.632 M250.050 175.809 C 250.432 176.850,253.702 182.431,253.846 182.288 C 254.040 182.093,250.937 176.371,250.327 175.800 C 250.042 175.533,249.950 175.536,250.050 175.809 M198.668 177.500 C 198.569 177.665,198.108 178.475,197.644 179.300 C 197.180 180.125,196.440 181.430,196.000 182.200 C 193.845 185.971,193.573 186.506,193.729 186.663 C 193.870 186.804,197.137 181.247,198.763 178.100 C 199.183 177.288,199.101 176.776,198.668 177.500 M171.806 181.712 C 172.192 182.324,172.609 182.724,172.732 182.601 C 172.855 182.478,172.539 181.978,172.030 181.489 L 171.104 180.600 171.806 181.712 M149.915 185.817 C 148.218 188.338,146.958 190.399,147.115 190.397 C 147.272 190.396,147.692 189.901,148.048 189.297 C 148.404 188.694,149.800 186.625,151.149 184.700 C 152.498 182.775,153.467 181.208,153.301 181.217 C 153.135 181.227,151.612 183.297,149.915 185.817 M255.613 185.800 C 256.564 187.560,257.760 189.671,258.271 190.492 C 258.782 191.313,259.200 192.068,259.200 192.171 C 259.200 192.273,259.806 193.402,260.546 194.679 C 261.286 195.955,262.340 197.810,262.889 198.800 C 263.438 199.790,264.272 201.275,264.743 202.100 C 265.215 202.925,265.985 204.275,266.457 205.100 C 266.928 205.925,267.766 207.410,268.318 208.400 C 268.871 209.390,270.800 212.810,272.603 216.000 C 274.407 219.190,276.530 222.980,277.320 224.422 C 278.111 225.863,279.215 227.843,279.774 228.822 C 280.333 229.800,280.793 230.736,280.795 230.902 C 280.798 231.068,244.277 231.158,199.638 231.102 C 154.999 231.046,118.560 231.135,118.662 231.300 C 119.051 231.930,280.804 231.656,281.046 231.024 C 281.167 230.708,280.622 229.348,279.833 228.003 C 279.045 226.658,278.400 225.387,278.400 225.179 C 278.400 224.970,278.262 224.800,278.094 224.800 C 277.926 224.800,277.478 224.125,277.099 223.300 C 276.720 222.475,275.929 220.990,275.343 220.000 C 274.756 219.010,273.787 217.300,273.189 216.200 C 272.591 215.100,270.729 211.792,269.051 208.849 C 267.373 205.906,266.000 203.439,266.000 203.366 C 266.000 203.294,265.435 202.282,264.744 201.118 C 263.342 198.753,262.335 196.972,261.060 194.600 C 260.587 193.720,260.110 192.910,260.000 192.800 C 259.890 192.690,259.423 191.880,258.962 191.000 C 258.500 190.120,257.735 188.725,257.262 187.900 C 256.788 187.075,256.023 185.725,255.562 184.900 C 255.102 184.075,254.535 183.220,254.304 183.000 C 254.073 182.780,254.662 184.040,255.613 185.800 M173.591 184.388 C 174.828 186.124,175.425 186.334,174.332 184.648 C 173.819 183.857,173.253 183.208,173.073 183.205 C 172.893 183.202,173.126 183.735,173.591 184.388 M192.482 188.500 C 192.051 189.215,191.200 190.700,190.590 191.800 C 189.979 192.900,188.870 194.880,188.124 196.200 C 187.378 197.520,186.566 199.005,186.320 199.500 C 185.706 200.733,185.523 200.661,184.043 198.600 C 183.332 197.610,182.660 196.800,182.550 196.800 C 182.301 196.800,184.799 200.301,185.411 200.809 C 185.718 201.064,186.118 200.708,186.670 199.691 C 187.869 197.479,189.523 194.526,191.200 191.600 C 193.183 188.141,193.664 187.200,193.447 187.200 C 193.347 187.200,192.913 187.785,192.482 188.500 M179.045 192.212 C 179.410 192.769,179.786 193.147,179.882 193.051 C 180.119 192.814,179.084 191.200,178.695 191.200 C 178.522 191.200,178.680 191.656,179.045 192.212 M180.402 193.833 C 180.403 194.035,180.868 194.740,181.435 195.400 L 182.466 196.600 181.563 195.200 C 180.404 193.404,180.400 193.399,180.402 193.833 M138.281 202.500 C 136.084 205.475,132.786 210.456,133.171 210.218 C 133.609 209.947,139.639 201.200,139.388 201.200 C 139.307 201.200,138.809 201.785,138.281 202.500 M129.470 215.099 C 128.697 216.143,128.140 217.073,128.232 217.165 C 128.324 217.258,128.448 217.258,128.506 217.167 C 128.565 217.075,129.206 216.145,129.931 215.100 C 131.641 212.636,131.295 212.635,129.470 215.099 M123.669 223.239 C 122.910 224.454,123.366 224.616,124.155 223.412 C 124.520 222.856,124.678 222.400,124.505 222.400 C 124.333 222.400,123.957 222.778,123.669 223.239 M121.692 226.229 C 121.197 226.983,120.872 227.600,120.969 227.600 C 121.247 227.600,122.904 225.171,122.739 225.006 C 122.657 224.924,122.186 225.474,121.692 226.229 M127.900 281.100 C 167.555 281.156,232.445 281.156,272.100 281.100 C 311.755 281.044,279.310 280.998,200.000 280.998 C 120.690 280.998,88.245 281.044,127.900 281.100 M134.400 300.925 C 134.400 300.994,134.985 301.579,135.700 302.225 L 137.000 303.400 135.825 302.100 C 134.730 300.888,134.400 300.616,134.400 300.925 M234.400 300.925 C 234.400 300.994,234.985 301.579,235.700 302.225 L 237.000 303.400 235.825 302.100 C 234.730 300.888,234.400 300.616,234.400 300.925 M180.800 304.525 C 180.800 304.594,181.385 305.179,182.100 305.825 L 183.400 307.000 182.225 305.700 C 181.130 304.488,180.800 304.216,180.800 304.525 M259.375 306.900 L 258.200 308.200 259.500 307.025 C 260.215 306.379,260.800 305.794,260.800 305.725 C 260.800 305.416,260.470 305.688,259.375 306.900 M124.985 325.800 C 124.985 336.580,125.037 340.933,125.100 335.472 C 125.163 330.012,125.163 321.192,125.100 315.872 C 125.037 310.553,124.985 315.020,124.985 325.800 M172.000 313.325 C 172.000 313.394,172.585 313.979,173.300 314.625 L 174.600 315.800 173.425 314.500 C 172.330 313.288,172.000 313.016,172.000 313.325 M174.909 318.800 C 174.909 319.790,174.987 320.195,175.082 319.700 C 175.178 319.205,175.178 318.395,175.082 317.900 C 174.987 317.405,174.909 317.810,174.909 318.800 M172.975 323.300 L 171.800 324.600 173.100 323.425 C 174.312 322.330,174.584 322.000,174.275 322.000 C 174.206 322.000,173.621 322.585,172.975 323.300 M164.713 325.095 C 165.876 325.176,167.676 325.176,168.713 325.093 C 169.751 325.011,168.800 324.945,166.600 324.946 C 164.400 324.947,163.551 325.014,164.713 325.095 M214.311 325.093 C 215.251 325.178,216.691 325.177,217.511 325.091 C 218.330 325.005,217.560 324.936,215.800 324.937 C 214.040 324.939,213.370 325.009,214.311 325.093 M284.500 325.097 C 286.205 325.172,288.995 325.172,290.700 325.097 C 292.405 325.022,291.010 324.961,287.600 324.961 C 284.190 324.961,282.795 325.022,284.500 325.097 M234.400 350.925 C 234.400 350.994,234.985 351.579,235.700 352.225 L 237.000 353.400 235.825 352.100 C 234.730 350.888,234.400 350.616,234.400 350.925 M130.975 357.700 L 129.800 359.000 131.100 357.825 C 132.312 356.730,132.584 356.400,132.275 356.400 C 132.206 356.400,131.621 356.985,130.975 357.700 " stroke="none" fill="#b2b6fc" fill-rule="evenodd"></path></g></svg>