<svg id="svg" version="1.1" xmlns="http://www.w3.org/2000/svg" xmlns:xlink="http://www.w3.org/1999/xlink" width="400" height="400" viewBox="0, 0, 400,400"><g id="svgg"><path id="path0" d="M84.667 30.267 C 84.520 30.413,84.400 45.771,84.400 64.394 C 84.400 102.928,84.537 101.155,81.336 103.972 C 80.319 104.868,79.147 105.600,78.731 105.600 C 78.315 105.600,77.347 105.862,76.580 106.183 L 75.185 106.765 75.293 116.083 L 75.400 125.400 76.400 125.519 C 82.416 126.232,85.779 132.072,83.219 137.360 C 82.138 139.593,79.384 141.600,77.402 141.600 C 75.244 141.600,75.200 141.795,75.200 151.451 C 75.200 161.071,75.314 161.600,77.391 161.600 C 78.722 161.600,81.548 163.203,82.450 164.470 C 84.420 167.237,84.400 166.878,84.400 198.850 L 84.400 228.800 178.180 228.800 C 257.076 228.800,272.297 228.888,274.080 229.357 C 282.914 231.681,288.165 236.666,292.032 246.400 C 292.490 247.553,292.624 255.359,292.794 290.600 L 293.000 333.400 313.935 333.504 C 325.449 333.561,334.809 333.471,334.735 333.304 C 334.661 333.137,333.904 331.597,333.054 329.883 C 332.204 328.169,331.364 326.189,331.189 325.483 C 331.013 324.777,330.584 323.156,330.235 321.880 C 329.661 319.782,329.600 305.789,329.600 175.260 C 329.600 63.560,329.492 30.852,329.120 30.480 C 328.596 29.956,85.190 29.743,84.667 30.267 M299.200 63.724 C 303.982 65.023,307.911 68.265,310.081 72.704 L 311.400 75.400 311.400 129.000 C 311.400 187.612,311.533 184.256,309.055 188.000 C 306.661 191.616,303.764 193.781,299.647 195.031 C 296.880 195.870,116.720 195.870,113.953 195.031 C 109.213 193.592,105.531 190.454,103.476 186.103 L 102.200 183.400 102.200 129.800 C 102.200 78.846,102.236 76.096,102.934 74.095 C 104.607 69.297,108.919 65.348,114.200 63.780 C 116.558 63.079,296.627 63.025,299.200 63.724 M266.571 134.752 C 265.896 135.164,260.933 139.922,255.543 145.326 L 245.743 155.150 257.988 167.375 L 270.233 179.600 282.716 179.600 L 295.200 179.600 295.200 168.097 L 295.200 156.594 284.500 145.952 C 271.343 132.864,270.515 132.347,266.571 134.752 M345.600 242.380 C 345.600 323.085,345.461 318.153,347.870 323.133 C 354.448 336.732,374.965 336.590,381.950 322.898 C 384.071 318.741,383.988 322.011,383.994 242.300 L 384.000 168.400 364.800 168.400 L 345.600 168.400 345.600 242.380 " stroke="none" fill="#e7f6ef" fill-rule="evenodd"></path><path id="path1" d="M21.400 245.283 C 19.416 245.976,17.558 247.608,16.765 249.354 C 16.047 250.936,16.017 253.176,16.009 307.221 L 16.000 363.443 16.993 365.421 C 18.164 367.754,19.847 369.006,22.600 369.591 C 26.403 370.398,270.284 369.951,272.000 369.133 C 273.571 368.384,275.150 366.776,276.019 365.039 C 277.001 363.079,276.881 251.114,275.896 249.312 C 274.921 247.528,273.699 246.443,271.667 245.556 C 269.628 244.667,23.930 244.398,21.400 245.283 M71.523 264.433 C 80.020 266.395,87.245 273.336,89.393 281.600 C 93.559 297.626,86.506 311.316,71.400 316.525 C 70.740 316.752,65.340 317.042,59.400 317.169 L 48.600 317.400 48.400 331.400 C 48.225 343.674,48.115 345.556,47.508 346.665 C 44.237 352.643,34.610 351.740,32.818 345.288 C 32.243 343.218,32.249 271.560,32.824 269.489 C 33.336 267.647,35.290 265.342,36.963 264.608 C 38.558 263.908,68.591 263.756,71.523 264.433 M249.800 264.915 C 255.912 268.362,255.079 277.322,248.440 279.545 C 247.517 279.854,242.093 280.000,231.536 280.000 C 208.022 280.000,209.644 277.918,209.618 308.125 C 209.592 336.808,208.378 335.020,227.686 334.726 C 242.966 334.493,244.855 332.996,244.326 321.527 C 244.014 314.766,242.746 313.603,235.686 313.596 C 232.011 313.593,231.107 313.456,229.347 312.636 C 223.312 309.826,223.033 301.973,228.842 298.431 C 230.421 297.468,241.264 297.196,243.972 298.051 C 253.269 300.986,258.007 306.058,259.991 315.200 C 260.773 318.803,260.128 333.227,259.158 333.826 C 258.961 333.948,258.800 334.318,258.800 334.649 C 258.800 339.560,250.152 347.642,242.496 349.885 C 238.528 351.048,214.243 351.135,210.112 350.001 C 201.941 347.760,196.364 341.659,194.022 332.400 C 193.699 331.121,193.611 323.938,193.719 307.600 C 193.863 285.891,193.981 282.949,194.784 281.000 C 194.966 280.560,195.492 279.235,195.953 278.057 C 198.423 271.744,204.439 266.539,211.518 264.590 C 215.334 263.539,247.850 263.816,249.800 264.915 M119.888 266.434 C 122.140 267.677,122.037 267.538,131.766 282.400 C 136.734 289.990,140.979 296.417,141.200 296.683 C 141.420 296.949,141.600 297.257,141.600 297.368 C 141.600 297.480,143.907 301.042,146.726 305.285 C 149.545 309.528,152.200 313.596,152.626 314.324 C 153.400 315.647,153.400 315.637,153.600 293.492 L 153.800 271.336 155.000 269.399 C 158.357 263.979,165.836 264.455,169.100 270.295 C 169.887 271.702,169.822 344.174,169.033 346.051 C 166.853 351.235,159.884 352.344,155.932 348.137 C 154.658 346.780,143.600 330.150,143.600 329.590 C 143.600 329.375,143.442 329.200,143.250 329.200 C 143.057 329.200,142.652 328.701,142.350 328.092 C 142.047 327.482,139.962 324.197,137.716 320.792 C 135.469 317.386,131.557 311.450,129.021 307.600 L 124.412 300.600 124.406 322.676 C 124.402 336.956,124.259 344.840,124.000 345.000 C 123.780 345.136,123.600 345.579,123.600 345.984 C 123.600 346.965,121.027 349.494,119.292 350.219 C 115.573 351.773,110.829 349.946,108.985 346.249 C 108.106 344.488,108.106 271.912,108.985 270.151 C 110.958 266.195,116.210 264.405,119.888 266.434 M48.493 290.500 L 48.600 301.000 57.200 301.111 C 71.008 301.288,74.221 299.149,74.187 289.800 C 74.156 281.352,71.924 280.000,58.006 280.000 L 48.387 280.000 48.493 290.500 " stroke="none" fill="#f9ca6b" fill-rule="evenodd"></path><path id="path2" d="M80.200 14.000 C 80.064 14.220,79.639 14.400,79.256 14.400 C 78.381 14.400,76.407 15.299,76.403 15.700 C 76.401 15.865,76.116 16.000,75.769 16.000 C 75.003 16.000,70.000 21.070,70.000 21.846 C 70.000 22.151,69.820 22.400,69.600 22.400 C 69.380 22.400,69.200 22.760,69.200 23.200 C 69.200 23.640,69.020 24.000,68.800 24.000 C 68.580 24.000,68.400 24.619,68.400 25.376 C 68.400 26.133,68.220 26.864,68.000 27.000 C 67.738 27.162,67.600 39.863,67.600 63.800 C 67.600 87.737,67.738 100.438,68.000 100.600 C 68.220 100.736,68.400 101.214,68.400 101.663 C 68.400 102.772,71.871 106.000,73.064 106.000 C 73.579 106.000,74.000 106.180,74.000 106.400 C 74.000 107.154,75.506 106.802,75.716 106.000 C 75.868 105.417,76.262 105.200,77.168 105.200 C 78.517 105.200,79.687 104.651,81.001 103.400 C 83.120 101.383,82.985 103.691,83.200 65.759 C 83.335 41.848,83.536 30.304,83.821 30.019 C 84.113 29.727,121.587 29.629,207.021 29.699 L 329.800 29.800 330.030 174.200 C 330.193 276.192,330.389 319.187,330.697 320.600 C 331.671 325.065,332.914 328.487,334.617 331.393 C 336.535 334.667,338.292 334.420,313.900 334.303 L 292.200 334.200 292.098 291.218 C 292.032 263.365,291.856 248.096,291.598 247.838 C 291.379 247.619,291.200 247.024,291.200 246.515 C 291.200 246.006,291.035 245.277,290.834 244.895 C 290.632 244.513,290.185 243.548,289.840 242.752 C 287.660 237.725,282.105 232.759,276.600 230.917 C 271.363 229.164,273.441 229.200,176.519 229.200 C 92.236 229.200,83.663 229.142,83.443 228.567 C 83.309 228.219,83.200 214.260,83.200 197.547 C 83.200 165.265,83.243 166.030,81.341 164.340 C 80.063 163.204,77.617 162.000,76.588 162.000 C 75.996 162.000,75.600 161.770,75.600 161.425 C 75.600 160.794,72.723 161.012,72.467 161.662 C 72.393 161.848,72.058 162.000,71.721 162.000 C 70.811 162.000,68.400 164.815,68.400 165.878 C 68.400 166.385,68.220 166.800,68.000 166.800 C 67.737 166.800,67.600 177.333,67.600 197.600 L 67.600 228.400 42.824 228.400 C 26.737 228.400,17.961 228.540,17.800 228.800 C 17.664 229.020,17.023 229.200,16.376 229.200 C 15.729 229.200,15.200 229.380,15.200 229.600 C 15.200 229.820,14.876 230.000,14.480 230.000 C 13.586 230.000,11.607 230.894,11.603 231.300 C 11.601 231.465,11.330 231.600,11.000 231.600 C 10.670 231.600,10.400 231.780,10.400 232.000 C 10.400 232.220,10.217 232.400,9.994 232.400 C 9.396 232.400,3.600 238.297,3.600 238.905 C 3.600 239.190,3.240 239.683,2.800 240.000 C 2.360 240.317,2.000 240.897,2.000 241.288 C 2.000 241.680,1.820 242.000,1.600 242.000 C 1.380 242.000,1.200 242.435,1.200 242.967 C 1.200 243.498,0.975 244.008,0.700 244.100 C -0.035 244.345,-0.035 370.455,0.700 370.700 C 0.975 370.792,1.200 371.086,1.200 371.354 C 1.200 372.063,2.149 373.993,2.500 373.997 C 2.665 373.999,2.800 374.270,2.800 374.600 C 2.800 374.930,2.980 375.200,3.200 375.200 C 3.420 375.200,3.600 375.449,3.600 375.754 C 3.600 376.291,8.491 381.600,8.986 381.600 C 9.122 381.600,9.620 381.960,10.092 382.400 C 10.564 382.840,11.187 383.200,11.475 383.200 C 11.764 383.200,12.000 383.380,12.000 383.600 C 12.000 383.820,12.360 384.000,12.800 384.000 C 13.240 384.000,13.600 384.180,13.600 384.400 C 13.600 384.620,14.050 384.800,14.600 384.800 C 15.150 384.800,15.600 384.980,15.600 385.200 C 15.600 385.420,16.230 385.600,17.000 385.600 C 17.770 385.600,18.400 385.780,18.400 386.000 C 18.400 386.555,273.857 386.555,274.200 386.000 C 274.336 385.780,274.977 385.600,275.624 385.600 C 276.271 385.600,276.800 385.420,276.800 385.200 C 276.800 384.980,277.340 384.800,278.000 384.800 C 278.660 384.800,279.200 384.620,279.200 384.400 C 279.200 384.180,279.560 384.000,280.000 384.000 C 280.440 384.000,280.800 383.850,280.800 383.668 C 280.800 383.485,281.289 383.080,281.888 382.768 C 285.729 380.763,291.600 373.557,291.600 370.846 C 291.600 370.381,291.780 370.000,292.000 370.000 C 292.220 370.000,292.400 369.291,292.400 368.424 C 292.400 367.557,292.580 366.736,292.800 366.600 C 293.045 366.449,293.200 363.263,293.200 358.376 L 293.200 350.400 331.176 350.400 C 356.063 350.400,369.238 350.262,369.400 350.000 C 369.536 349.780,370.537 349.600,371.624 349.600 C 372.711 349.600,373.600 349.420,373.600 349.200 C 373.600 348.980,373.963 348.800,374.406 348.800 C 375.533 348.800,378.400 347.869,378.400 347.503 C 378.400 347.336,378.749 347.200,379.176 347.200 C 379.603 347.200,380.064 347.020,380.200 346.800 C 380.336 346.580,380.763 346.400,381.148 346.400 C 381.534 346.400,382.236 346.040,382.708 345.600 C 383.180 345.160,383.804 344.800,384.095 344.800 C 384.386 344.800,384.883 344.440,385.200 344.000 C 385.517 343.560,386.040 343.200,386.361 343.200 C 387.067 343.200,394.000 336.193,394.000 335.480 C 394.000 335.203,394.360 334.717,394.800 334.400 C 395.240 334.083,395.600 333.503,395.600 333.112 C 395.600 332.720,395.780 332.400,396.000 332.400 C 396.220 332.400,396.400 332.040,396.400 331.600 C 396.400 331.160,396.580 330.800,396.800 330.800 C 397.020 330.800,397.200 330.440,397.200 330.000 C 397.200 329.560,397.380 329.200,397.600 329.200 C 397.820 329.200,398.000 328.851,398.000 328.424 C 398.000 327.997,398.180 327.536,398.400 327.400 C 398.620 327.264,398.800 326.728,398.800 326.210 C 398.800 325.691,399.025 325.192,399.300 325.100 C 399.698 324.967,399.800 307.951,399.800 241.800 C 399.800 175.649,399.698 158.633,399.300 158.500 C 399.025 158.408,398.800 158.074,398.800 157.756 C 398.800 156.987,395.386 153.600,394.611 153.600 C 394.275 153.600,394.000 153.420,394.000 153.200 C 394.000 152.980,393.640 152.800,393.200 152.800 C 392.760 152.800,392.400 152.620,392.400 152.400 C 392.400 152.180,391.680 152.000,390.800 152.000 C 389.920 152.000,389.200 151.820,389.200 151.600 C 389.200 151.338,381.667 151.200,367.400 151.200 L 345.600 151.200 345.600 88.400 C 345.600 46.800,345.465 25.600,345.200 25.600 C 344.980 25.600,344.800 25.060,344.800 24.400 C 344.800 23.740,344.620 23.200,344.400 23.200 C 344.180 23.200,343.997 22.975,343.993 22.700 C 343.976 21.582,338.843 16.000,337.832 16.000 C 337.484 16.000,337.200 15.820,337.200 15.600 C 337.200 15.380,336.840 15.200,336.400 15.200 C 335.960 15.200,335.600 15.020,335.600 14.800 C 335.600 14.580,335.060 14.400,334.400 14.400 C 333.740 14.400,333.200 14.220,333.200 14.000 C 333.200 13.734,290.808 13.600,206.824 13.600 C 123.004 13.600,80.364 13.735,80.200 14.000 M115.196 64.358 C 110.939 64.966,106.416 68.460,104.279 72.791 L 103.000 75.383 102.893 128.564 C 102.775 187.078,102.660 184.118,105.189 187.776 C 106.534 189.722,109.414 192.428,110.800 193.046 C 112.984 194.022,113.850 194.353,115.000 194.653 C 116.559 195.060,296.926 195.029,298.904 194.622 C 299.731 194.451,300.506 194.151,300.627 193.956 C 300.748 193.760,301.119 193.600,301.452 193.600 C 303.879 193.600,310.000 187.003,310.000 184.386 C 310.000 183.980,310.180 183.536,310.400 183.400 C 311.009 183.023,310.946 77.104,310.335 75.228 C 309.521 72.727,309.013 71.600,308.702 71.600 C 308.536 71.600,308.400 71.407,308.400 71.171 C 308.400 70.189,304.548 66.760,302.051 65.518 L 299.400 64.200 208.200 64.150 C 158.040 64.123,116.188 64.216,115.196 64.358 M296.203 79.700 C 296.834 82.306,296.199 134.200,295.536 134.200 C 295.171 134.200,292.111 131.489,288.736 128.176 C 282.072 121.633,279.245 119.766,274.505 118.779 C 271.489 118.150,264.732 118.504,262.600 119.402 C 259.585 120.672,258.200 121.370,257.671 121.885 C 257.381 122.168,256.997 122.400,256.818 122.400 C 256.640 122.400,251.604 127.271,245.626 133.225 C 237.815 141.006,234.542 144.015,233.989 143.925 C 233.565 143.856,226.060 136.672,217.309 127.961 C 197.727 108.465,195.747 107.053,184.294 104.436 C 181.839 103.874,173.182 103.872,171.046 104.432 C 170.141 104.669,168.680 105.047,167.800 105.271 C 166.920 105.495,165.887 105.840,165.505 106.039 C 165.123 106.238,164.634 106.400,164.417 106.400 C 163.894 106.400,160.268 108.129,157.914 109.501 C 154.760 111.339,153.208 112.784,135.697 130.195 C 126.400 139.438,118.525 147.058,118.197 147.129 C 117.568 147.266,117.240 79.693,117.867 79.067 C 118.013 78.920,158.150 78.800,207.059 78.800 L 295.985 78.800 296.203 79.700 M185.400 120.031 C 186.720 120.520,188.880 121.638,190.200 122.515 C 193.073 124.425,248.149 179.211,247.673 179.687 C 247.500 179.860,218.207 179.957,182.579 179.901 L 117.800 179.800 117.689 174.565 L 117.578 169.331 132.347 154.565 C 165.980 120.942,165.088 121.748,171.000 119.661 C 174.264 118.509,181.815 118.703,185.400 120.031 M72.403 125.837 C 70.750 126.554,69.200 127.925,69.200 128.670 C 69.200 128.961,69.020 129.200,68.800 129.200 C 68.580 129.200,68.400 129.560,68.400 130.000 C 68.400 130.440,68.220 130.800,68.000 130.800 C 67.771 130.800,67.600 132.000,67.600 133.600 C 67.600 135.200,67.771 136.400,68.000 136.400 C 68.220 136.400,68.400 136.815,68.400 137.322 C 68.400 138.946,70.848 141.167,72.955 141.456 C 73.970 141.595,74.800 141.864,74.800 142.054 C 74.800 142.244,74.980 142.400,75.200 142.400 C 75.420 142.400,75.600 142.130,75.600 141.800 C 75.600 141.447,75.965 141.200,76.488 141.200 C 81.049 141.200,84.647 135.257,82.828 130.726 C 82.347 129.527,80.637 127.600,80.053 127.600 C 79.804 127.600,79.600 127.420,79.600 127.200 C 79.600 126.980,79.105 126.799,78.500 126.799 C 77.895 126.798,76.811 126.438,76.090 125.999 C 74.542 125.055,74.238 125.041,72.403 125.837 M273.600 134.224 C 274.370 134.722,279.818 139.964,285.706 145.874 L 296.413 156.618 296.306 168.209 L 296.200 179.800 282.866 179.905 L 269.531 180.011 257.366 167.927 C 250.675 161.280,245.200 155.558,245.200 155.211 C 245.200 154.273,265.994 133.698,267.200 133.443 C 270.239 132.799,271.666 132.973,273.600 134.224 M384.702 242.600 C 384.803 317.386,384.803 317.400,383.972 320.000 C 378.394 337.439,355.525 339.369,346.858 323.133 C 346.386 322.248,346.000 321.217,346.000 320.842 C 346.000 320.467,345.775 319.935,345.500 319.660 C 344.984 319.144,344.486 170.546,344.993 168.496 L 345.217 167.592 364.909 167.696 L 384.600 167.800 384.702 242.600 M272.491 245.246 C 275.045 246.549,276.415 248.327,277.139 251.277 C 278.424 256.511,277.642 365.600,276.320 365.600 C 276.144 365.600,276.000 365.851,276.000 366.159 C 276.000 366.922,273.486 369.070,271.736 369.801 C 269.205 370.859,22.807 370.674,20.600 369.613 C 18.509 368.608,17.916 368.101,16.651 366.238 L 15.600 364.688 15.600 307.528 C 15.600 241.169,15.036 248.229,20.600 244.923 C 21.213 244.558,50.525 244.442,146.116 244.424 L 270.832 244.400 272.491 245.246 M37.200 265.310 C 36.210 265.833,34.903 266.968,34.296 267.831 L 33.191 269.400 33.191 307.106 C 33.190 343.639,33.214 344.860,33.966 346.334 C 36.435 351.172,43.670 351.347,46.732 346.642 L 47.800 345.000 48.000 331.000 L 48.200 317.000 58.800 316.751 C 68.306 316.527,69.668 316.410,72.000 315.614 C 95.662 307.539,96.035 272.229,72.532 265.321 C 70.548 264.738,67.875 264.615,54.600 264.498 L 39.000 264.359 37.200 265.310 M212.400 265.037 C 207.055 266.181,201.476 269.949,198.536 274.400 C 196.471 277.526,195.702 279.498,194.713 284.200 C 194.071 287.252,193.816 327.082,194.415 330.600 C 196.101 340.488,201.784 347.174,210.600 349.641 C 213.418 350.429,238.088 350.446,241.000 349.661 C 248.448 347.655,254.122 343.498,256.740 338.128 C 257.258 337.068,257.843 335.887,258.040 335.505 C 258.238 335.123,258.400 334.484,258.400 334.085 C 258.400 333.686,258.563 333.189,258.761 332.980 C 260.624 331.020,259.953 312.945,257.930 310.620 C 257.749 310.411,257.600 309.993,257.600 309.692 C 257.600 307.075,250.869 300.926,246.400 299.460 C 234.850 295.673,225.200 298.423,225.200 305.503 C 225.200 310.392,227.834 312.342,235.106 312.838 C 243.912 313.439,244.800 314.336,244.800 322.626 C 244.800 334.193,243.306 335.190,225.980 335.196 L 214.160 335.200 212.510 334.130 C 211.603 333.542,210.646 332.597,210.384 332.030 C 210.121 331.464,209.748 330.687,209.553 330.305 C 208.973 329.166,209.117 287.271,209.706 285.600 C 211.809 279.639,211.944 279.600,230.549 279.600 C 247.997 279.600,248.856 279.495,251.224 277.080 C 254.835 273.397,253.771 267.510,249.085 265.241 C 246.877 264.172,217.211 264.007,212.400 265.037 M113.749 266.649 C 111.997 267.270,110.123 269.068,109.298 270.919 C 108.658 272.355,108.562 344.606,109.200 345.000 C 109.420 345.136,109.600 345.508,109.600 345.827 C 109.600 349.046,116.953 351.343,120.138 349.119 C 124.012 346.414,124.000 346.504,124.000 321.238 C 124.000 309.113,124.153 300.000,124.356 300.000 C 124.668 300.000,141.147 324.656,141.561 325.742 C 141.649 325.974,142.054 326.521,142.461 326.957 C 142.867 327.394,143.200 327.987,143.200 328.275 C 143.200 328.564,143.350 328.800,143.532 328.800 C 143.715 328.800,144.120 329.295,144.432 329.900 C 144.745 330.505,145.180 331.209,145.400 331.465 C 145.620 331.721,147.222 334.151,148.960 336.865 C 152.287 342.061,155.271 346.560,156.113 347.649 C 159.287 351.759,166.486 350.522,168.581 345.507 C 169.520 343.260,169.518 273.135,168.579 270.887 C 166.418 265.715,160.032 264.580,156.221 268.691 C 154.039 271.044,154.000 271.501,154.000 294.905 C 154.000 308.128,153.855 316.415,153.626 316.333 C 153.193 316.179,139.600 295.725,139.600 295.228 C 139.600 295.047,139.310 294.657,138.955 294.363 C 138.601 294.069,138.196 293.542,138.055 293.193 C 137.915 292.845,136.251 290.228,134.358 287.380 C 132.465 284.531,128.973 279.230,126.597 275.600 C 120.520 266.314,118.554 264.945,113.749 266.649 M69.651 280.165 C 77.245 283.344,76.745 297.034,68.895 300.834 C 66.957 301.772,51.794 302.537,49.005 301.837 L 48.000 301.585 48.000 290.592 L 48.000 279.600 58.151 279.600 C 65.989 279.600,68.610 279.729,69.651 280.165 " stroke="none" fill="#040404" fill-rule="evenodd"></path><path id="path3" d="M118.400 112.800 C 118.400 131.060,118.486 146.000,118.592 146.000 C 118.698 146.000,126.033 138.755,134.892 129.900 C 151.751 113.049,154.650 110.311,156.485 109.498 C 157.098 109.227,157.600 108.869,157.600 108.702 C 157.600 108.536,157.797 108.400,158.038 108.400 C 158.279 108.400,158.954 108.071,159.538 107.668 C 160.122 107.266,161.680 106.528,163.000 106.029 C 164.320 105.530,165.760 104.973,166.200 104.791 C 167.227 104.366,168.529 104.099,173.200 103.353 C 178.601 102.491,185.765 103.370,191.400 105.587 C 193.292 106.332,197.811 108.622,197.933 108.898 C 198.007 109.064,198.322 109.200,198.633 109.200 C 198.945 109.200,199.200 109.341,199.200 109.514 C 199.200 109.686,199.785 110.162,200.500 110.571 C 201.215 110.980,208.959 118.444,217.709 127.157 C 226.460 135.871,233.766 143.051,233.947 143.113 C 234.127 143.174,238.867 138.674,244.479 133.113 C 254.978 122.709,257.038 120.820,257.900 120.807 C 258.175 120.803,258.400 120.664,258.400 120.498 C 258.400 120.331,258.895 119.977,259.500 119.709 C 269.655 115.225,279.278 117.286,287.506 125.708 C 289.059 127.299,291.426 129.674,292.765 130.987 L 295.200 133.375 295.200 106.487 L 295.200 79.600 206.800 79.600 L 118.400 79.600 118.400 112.800 M173.400 120.400 C 173.264 120.620,172.758 120.800,172.275 120.800 C 171.402 120.800,167.076 122.835,164.400 124.503 C 163.630 124.984,162.010 126.422,160.800 127.700 C 159.590 128.978,156.013 132.606,152.851 135.762 C 147.020 141.583,145.987 142.615,135.753 152.851 C 132.592 156.013,128.879 159.725,127.503 161.100 C 126.126 162.475,123.515 165.128,121.700 166.995 L 118.400 170.389 118.400 174.795 L 118.400 179.200 182.000 179.200 C 216.980 179.200,245.600 179.104,245.600 178.986 C 245.600 178.753,244.339 177.315,242.888 175.894 C 242.386 175.402,238.671 171.695,234.633 167.655 C 230.594 163.615,226.930 159.950,226.490 159.510 C 225.448 158.467,210.206 143.226,209.235 142.255 C 208.825 141.845,205.140 138.199,201.045 134.152 C 196.950 130.106,193.600 126.660,193.600 126.495 C 193.600 126.330,193.105 125.975,192.500 125.706 C 191.895 125.436,190.941 124.807,190.380 124.308 C 189.059 123.132,187.765 122.400,187.005 122.400 C 186.672 122.400,186.400 122.220,186.400 122.000 C 186.400 121.780,186.040 121.600,185.600 121.600 C 185.160 121.600,184.800 121.420,184.800 121.200 C 184.800 120.980,184.181 120.800,183.424 120.800 C 182.667 120.800,181.936 120.620,181.800 120.400 C 181.662 120.177,179.804 120.000,177.600 120.000 C 175.396 120.000,173.538 120.177,173.400 120.400 M355.100 168.300 C 360.435 168.363,369.165 168.363,374.500 168.300 C 379.835 168.237,375.470 168.185,364.800 168.185 C 354.130 168.185,349.765 168.237,355.100 168.300 M363.300 333.491 C 364.125 333.578,365.475 333.578,366.300 333.491 C 367.125 333.405,366.450 333.334,364.800 333.334 C 363.150 333.334,362.475 333.405,363.300 333.491 " stroke="none" fill="#65dfee" fill-rule="evenodd"></path><path id="path4" d="M20.615 245.223 C 18.533 246.261,16.869 247.880,16.167 249.549 C 15.128 252.021,15.340 363.523,16.388 365.577 C 17.366 367.493,19.559 369.341,21.569 369.943 C 26.483 371.416,274.163 370.430,272.677 368.944 C 272.563 368.829,272.048 368.975,271.534 369.268 C 270.311 369.965,25.856 370.282,22.600 369.591 C 19.847 369.006,18.164 367.754,16.993 365.421 L 16.000 363.443 16.009 307.221 C 16.017 253.176,16.047 250.936,16.765 249.354 C 17.583 247.553,19.441 245.965,21.560 245.255 C 24.296 244.339,269.553 244.634,271.667 245.556 C 273.699 246.443,274.921 247.528,275.896 249.312 C 276.559 250.524,276.600 253.921,276.600 307.239 C 276.600 369.287,276.779 364.745,274.220 367.525 C 273.420 368.393,273.246 368.755,273.714 368.576 C 274.107 368.426,275.007 367.470,275.714 366.452 L 277.000 364.600 277.000 307.400 L 277.000 250.200 275.922 248.543 C 274.820 246.849,273.468 245.734,271.481 244.880 C 269.224 243.911,22.570 244.247,20.615 245.223 M36.963 264.608 C 35.290 265.342,33.336 267.647,32.824 269.489 C 32.224 271.651,32.245 343.223,32.846 345.400 C 33.285 346.988,35.945 350.000,36.908 350.000 C 37.169 350.000,36.688 349.428,35.839 348.728 C 32.620 346.075,32.819 348.770,32.809 307.560 C 32.799 268.133,32.741 269.245,34.954 266.852 C 37.218 264.404,37.260 264.398,53.887 264.417 C 67.852 264.434,70.023 264.543,73.400 265.399 C 74.171 265.595,74.457 265.566,74.200 265.319 C 72.750 263.925,39.947 263.299,36.963 264.608 M211.518 264.590 C 204.439 266.539,198.423 271.744,195.953 278.057 C 195.492 279.235,194.966 280.560,194.784 281.000 C 193.981 282.949,193.863 285.891,193.719 307.600 C 193.560 331.573,193.574 331.814,195.311 336.400 C 197.715 342.749,204.085 348.804,209.400 349.793 C 210.560 350.009,210.567 350.002,209.600 349.579 C 200.394 345.555,196.117 340.438,194.404 331.400 C 193.577 327.038,194.058 285.229,194.972 282.000 C 197.196 274.142,202.071 268.646,209.410 265.719 L 212.200 264.607 229.600 264.475 C 249.245 264.326,249.154 264.316,251.554 267.042 C 255.006 270.964,253.802 276.501,249.007 278.755 C 247.272 279.570,246.656 279.600,231.453 279.600 C 207.589 279.600,209.200 277.522,209.200 308.302 C 209.200 336.994,208.093 335.217,225.949 335.172 C 232.027 335.156,237.308 335.021,237.685 334.872 C 238.062 334.722,233.601 334.664,227.771 334.743 C 208.357 335.006,209.592 336.817,209.618 308.125 C 209.644 277.918,208.022 280.000,231.536 280.000 C 242.093 280.000,247.517 279.854,248.440 279.545 C 255.079 277.322,255.912 268.362,249.800 264.915 C 247.850 263.816,215.334 263.539,211.518 264.590 M77.400 267.111 C 91.795 274.763,94.437 296.927,82.421 309.246 C 76.372 315.448,73.327 316.456,60.000 316.667 C 54.390 316.756,49.406 316.913,48.923 317.016 L 48.047 317.204 47.923 331.302 L 47.800 345.400 46.806 346.869 C 46.260 347.677,45.302 348.640,44.678 349.008 C 44.055 349.377,43.642 349.776,43.761 349.895 C 44.140 350.273,46.773 348.009,47.500 346.679 C 48.117 345.552,48.224 343.734,48.400 331.400 L 48.600 317.400 59.400 317.169 C 65.340 317.042,70.740 316.752,71.400 316.525 C 86.506 311.316,93.559 297.626,89.393 281.600 C 87.906 275.879,82.603 269.135,77.597 266.599 C 74.471 265.014,74.299 265.463,77.400 267.111 M113.000 266.264 C 111.356 267.129,109.686 268.746,108.985 270.151 C 108.106 271.912,108.106 344.488,108.985 346.249 C 110.829 349.946,115.573 351.773,119.292 350.219 C 121.027 349.494,123.600 346.965,123.600 345.984 C 123.600 345.579,123.780 345.136,124.000 345.000 C 124.259 344.840,124.402 336.956,124.406 322.676 L 124.412 300.600 129.021 307.600 C 131.557 311.450,135.469 317.386,137.716 320.792 C 139.962 324.197,142.047 327.482,142.350 328.092 C 142.652 328.701,143.057 329.200,143.250 329.200 C 143.442 329.200,143.600 329.375,143.600 329.590 C 143.600 330.150,154.658 346.780,155.932 348.137 C 160.604 353.110,169.837 350.069,169.554 343.651 C 169.518 342.842,169.466 342.784,169.328 343.400 C 168.286 348.036,165.853 350.187,161.649 350.187 C 157.319 350.187,158.326 351.414,140.816 324.800 C 126.181 302.554,124.486 300.047,124.247 300.287 C 124.111 300.422,124.000 310.157,124.000 321.920 C 124.000 345.423,123.990 345.537,121.615 348.031 C 118.216 351.600,112.108 350.741,109.622 346.346 C 108.809 344.907,108.800 344.487,108.800 308.181 L 108.800 271.470 109.796 269.770 C 113.224 263.922,119.618 264.798,124.154 271.737 C 125.327 273.532,130.750 281.750,136.206 290.000 C 149.304 309.807,152.829 315.210,153.077 315.857 C 153.834 317.829,153.990 313.720,153.905 294.076 L 153.810 272.200 153.605 293.924 C 153.400 315.642,153.400 315.647,152.626 314.324 C 152.200 313.596,149.545 309.528,146.726 305.285 C 143.907 301.042,141.600 297.480,141.600 297.368 C 141.600 297.257,141.420 296.949,141.200 296.683 C 140.979 296.417,136.734 289.990,131.766 282.400 C 126.797 274.810,122.432 268.300,122.066 267.934 C 119.838 265.707,115.556 264.918,113.000 266.264 M158.047 266.489 C 156.284 267.343,153.978 270.258,154.020 271.578 C 154.031 271.920,154.412 271.434,154.866 270.497 C 158.335 263.343,167.515 264.931,169.328 273.000 C 169.438 273.492,169.525 273.298,169.554 272.495 C 169.728 267.598,163.002 264.088,158.047 266.489 M48.181 280.107 C 48.074 280.385,48.034 285.290,48.093 291.007 L 48.200 301.400 57.434 301.507 C 65.110 301.596,66.922 301.508,68.177 300.984 C 70.192 300.142,69.814 299.882,67.656 300.625 C 66.309 301.090,64.094 301.192,57.272 301.108 L 48.600 301.000 48.493 290.500 L 48.387 280.000 58.006 280.000 C 68.285 280.000,69.459 280.184,71.533 282.119 C 75.440 285.763,75.201 294.231,71.063 298.791 C 70.144 299.804,70.070 299.968,70.793 299.391 C 76.622 294.748,76.004 283.358,69.766 280.426 C 67.602 279.409,48.556 279.127,48.181 280.107 M228.842 298.431 C 223.033 301.973,223.312 309.826,229.347 312.636 C 231.107 313.456,232.011 313.593,235.686 313.596 C 242.746 313.603,244.014 314.766,244.326 321.527 C 244.630 328.126,243.308 331.878,240.079 333.584 C 239.265 334.013,238.828 334.373,239.106 334.382 C 242.589 334.504,244.992 329.051,244.737 321.600 C 244.495 314.528,243.191 313.200,236.487 313.200 C 228.714 313.200,225.200 310.771,225.200 305.400 C 225.200 299.487,228.165 297.792,238.019 298.072 C 241.303 298.165,243.768 298.100,243.495 297.927 C 242.273 297.150,230.265 297.563,228.842 298.431 M246.400 299.280 C 258.049 303.719,263.083 317.852,258.696 333.800 C 256.813 340.643,248.115 349.165,242.970 349.206 C 242.546 349.209,241.930 349.387,241.600 349.600 C 240.365 350.398,242.428 350.014,245.132 348.943 C 251.553 346.398,258.800 338.819,258.800 334.649 C 258.800 334.318,258.961 333.948,259.158 333.826 C 260.128 333.227,260.773 318.803,259.991 315.200 C 258.159 306.759,250.516 298.256,244.909 298.421 C 244.519 298.432,245.190 298.819,246.400 299.280 M38.110 350.476 C 38.379 350.648,39.410 350.788,40.400 350.788 C 41.390 350.788,42.421 350.648,42.690 350.476 C 42.960 350.305,41.929 350.165,40.400 350.165 C 38.871 350.165,37.840 350.305,38.110 350.476 M211.677 350.460 C 212.862 350.794,238.217 350.787,239.778 350.453 C 240.427 350.314,234.161 350.200,225.856 350.200 C 217.550 350.200,211.170 350.317,211.677 350.460 " stroke="none" fill="#765e39" fill-rule="evenodd"></path><path id="path5" d="M84.191 64.800 C 84.191 83.610,84.240 91.305,84.300 81.900 C 84.360 72.495,84.360 57.105,84.300 47.700 C 84.240 38.295,84.191 45.990,84.191 64.800 M161.100 63.500 C 186.235 63.557,227.365 63.557,252.500 63.500 C 277.635 63.443,257.070 63.397,206.800 63.397 C 156.530 63.397,135.965 63.443,161.100 63.500 M102.194 129.400 C 102.194 158.220,102.242 169.951,102.300 155.469 C 102.358 140.987,102.358 117.407,102.300 103.069 C 102.242 88.731,102.194 100.580,102.194 129.400 M118.268 79.466 C 117.897 79.837,117.929 146.400,118.300 146.400 C 118.465 146.400,118.553 131.370,118.495 113.000 L 118.391 79.600 206.795 79.600 L 295.200 79.600 295.200 106.487 L 295.200 133.375 292.700 130.987 L 290.200 128.600 292.584 131.096 C 293.895 132.469,295.111 133.449,295.287 133.273 C 295.462 133.098,295.559 120.905,295.503 106.177 L 295.400 79.400 206.968 79.299 C 158.330 79.244,118.415 79.319,118.268 79.466 M176.500 103.087 C 177.105 103.178,178.095 103.178,178.700 103.087 C 179.305 102.995,178.810 102.920,177.600 102.920 C 176.390 102.920,175.895 102.995,176.500 103.087 M173.300 103.476 C 173.685 103.576,174.315 103.576,174.700 103.476 C 175.085 103.375,174.770 103.293,174.000 103.293 C 173.230 103.293,172.915 103.375,173.300 103.476 M180.500 103.476 C 180.885 103.576,181.515 103.576,181.900 103.476 C 182.285 103.375,181.970 103.293,181.200 103.293 C 180.430 103.293,180.115 103.375,180.500 103.476 M169.221 103.979 C 168.846 104.216,169.270 104.265,170.421 104.118 C 171.399 103.992,172.275 103.825,172.367 103.745 C 172.742 103.419,169.755 103.640,169.221 103.979 M183.505 103.883 C 184.002 103.979,184.722 103.975,185.105 103.875 C 185.487 103.775,185.080 103.696,184.200 103.701 C 183.320 103.705,183.007 103.787,183.505 103.883 M187.233 104.544 C 187.325 104.623,187.940 104.808,188.600 104.956 C 189.476 105.152,189.638 105.115,189.200 104.818 C 188.660 104.453,186.832 104.198,187.233 104.544 M155.305 110.125 C 154.593 110.606,154.008 111.144,154.005 111.320 C 154.002 111.497,154.630 111.160,155.400 110.573 C 156.170 109.986,156.800 109.436,156.800 109.353 C 156.800 109.127,156.719 109.169,155.305 110.125 M152.175 112.900 L 151.000 114.200 152.300 113.025 C 153.512 111.930,153.784 111.600,153.475 111.600 C 153.406 111.600,152.821 112.185,152.175 112.900 M218.198 127.900 C 226.777 136.535,233.953 143.600,234.145 143.600 C 234.337 143.600,235.214 142.880,236.094 142.000 C 236.974 141.120,237.565 140.400,237.407 140.400 C 237.249 140.400,236.490 141.030,235.720 141.800 C 234.950 142.570,234.204 143.200,234.062 143.200 C 233.920 143.200,226.783 136.225,218.202 127.700 L 202.600 112.200 218.198 127.900 M148.981 115.681 C 148.112 116.606,147.759 117.101,148.198 116.781 C 149.139 116.096,149.604 115.647,150.349 114.698 C 151.349 113.427,150.587 113.974,148.981 115.681 M263.600 118.234 C 262.335 118.752,262.316 118.781,263.400 118.540 C 264.060 118.393,265.410 118.146,266.400 117.990 L 268.200 117.707 266.600 117.684 C 265.720 117.671,264.370 117.919,263.600 118.234 M271.900 117.882 C 272.395 117.978,273.205 117.978,273.700 117.882 C 274.195 117.787,273.790 117.709,272.800 117.709 C 271.810 117.709,271.405 117.787,271.900 117.882 M260.500 119.212 C 259.161 119.751,259.411 120.024,260.800 119.540 C 261.460 119.310,262.000 119.049,262.000 118.961 C 262.000 118.724,261.513 118.805,260.500 119.212 M278.433 119.349 C 278.845 119.717,281.200 120.800,281.200 120.621 C 281.200 120.390,278.982 119.200,278.553 119.200 C 278.396 119.200,278.342 119.267,278.433 119.349 M170.559 120.549 C 169.217 121.017,167.649 121.715,167.074 122.100 C 166.499 122.485,165.809 122.800,165.542 122.800 C 165.274 122.800,154.462 133.374,141.516 146.297 L 117.977 169.795 118.088 174.597 L 118.200 179.400 182.500 179.501 C 217.865 179.557,246.800 179.465,246.800 179.296 C 246.800 178.966,228.531 160.752,227.700 160.253 C 226.203 159.354,230.053 163.320,242.888 175.894 C 244.339 177.315,245.600 178.753,245.600 178.986 C 245.600 179.104,216.980 179.200,182.000 179.200 L 118.400 179.200 118.400 174.795 L 118.400 170.389 121.700 166.995 C 123.515 165.128,126.126 162.475,127.503 161.100 C 128.879 159.725,132.592 156.013,135.753 152.851 C 145.987 142.615,147.020 141.583,152.851 135.762 C 156.013 132.606,159.590 128.978,160.800 127.700 C 162.010 126.422,163.630 124.984,164.400 124.503 C 167.076 122.835,171.402 120.800,172.275 120.800 C 172.758 120.800,173.264 120.620,173.400 120.400 C 173.538 120.177,175.396 120.000,177.600 120.000 C 179.804 120.000,181.662 120.177,181.800 120.400 C 181.936 120.620,182.667 120.800,183.424 120.800 C 184.181 120.800,184.800 120.980,184.800 121.200 C 184.800 121.420,185.160 121.600,185.600 121.600 C 186.040 121.600,186.400 121.780,186.400 122.000 C 186.400 122.220,186.672 122.400,187.005 122.400 C 187.581 122.400,189.173 123.149,189.600 123.621 C 190.258 124.349,192.856 126.077,193.030 125.903 C 193.771 125.163,187.596 121.367,183.755 120.202 C 180.743 119.288,173.639 119.475,170.559 120.549 M256.629 121.409 C 256.205 121.729,255.935 122.068,256.029 122.161 C 256.123 122.255,256.625 121.987,257.144 121.566 C 258.238 120.679,257.779 120.539,256.629 121.409 M283.000 121.853 C 283.220 122.064,284.930 123.664,286.800 125.409 L 290.200 128.581 287.600 125.860 C 286.170 124.364,284.460 122.764,283.800 122.305 C 283.140 121.846,282.780 121.643,283.000 121.853 M254.235 123.403 C 253.595 123.953,253.158 124.491,253.265 124.598 C 253.371 124.704,253.974 124.254,254.604 123.596 C 255.999 122.139,255.816 122.043,254.235 123.403 M193.600 126.531 C 193.600 126.864,208.318 141.600,208.652 141.600 C 209.135 141.600,207.621 140.057,193.769 126.433 C 193.676 126.342,193.600 126.385,193.600 126.531 M249.286 128.254 C 248.783 128.774,248.530 129.200,248.724 129.200 C 249.148 129.200,250.597 127.655,250.364 127.451 C 250.274 127.372,249.789 127.733,249.286 128.254 M130.987 133.678 C 129.674 135.040,128.953 135.895,129.385 135.578 C 130.689 134.619,133.931 131.200,133.536 131.200 C 133.448 131.200,132.301 132.315,130.987 133.678 M244.400 133.082 L 243.400 134.116 244.700 133.231 C 245.976 132.362,246.296 131.976,245.700 132.024 C 245.535 132.037,244.950 132.514,244.400 133.082 M266.600 134.351 C 265.940 134.762,264.860 135.701,264.200 136.438 C 263.244 137.504,263.382 137.436,264.876 136.102 C 266.804 134.381,267.442 134.114,270.200 133.874 C 271.661 133.747,271.626 133.729,269.800 133.669 C 268.448 133.624,267.411 133.845,266.600 134.351 M284.495 145.800 L 295.190 156.600 295.301 168.200 L 295.413 179.800 295.506 168.197 L 295.600 156.594 284.700 145.797 L 273.800 135.000 284.495 145.800 M238.575 138.852 C 237.595 139.895,237.548 140.027,238.291 139.643 C 238.781 139.389,239.372 138.826,239.605 138.391 C 240.197 137.285,239.936 137.402,238.575 138.852 M209.200 141.853 C 209.200 142.506,226.686 159.935,226.944 159.540 C 226.995 159.463,223.023 155.411,218.118 150.536 C 213.213 145.661,209.200 141.754,209.200 141.853 M251.200 149.340 C 250.650 149.843,249.753 150.783,249.208 151.428 C 248.662 152.072,249.157 151.707,250.308 150.615 C 252.200 148.820,252.603 148.374,252.300 148.413 C 252.245 148.420,251.750 148.837,251.200 149.340 M257.598 167.315 C 264.306 174.072,269.882 179.600,269.988 179.600 C 270.093 179.600,268.834 178.240,267.190 176.578 C 261.973 171.306,245.961 155.408,245.675 155.215 C 245.524 155.114,250.889 160.559,257.598 167.315 M384.196 242.400 C 384.196 283.430,384.243 300.215,384.300 279.700 C 384.357 259.185,384.357 225.615,384.300 205.100 C 384.243 184.585,384.196 201.370,384.196 242.400 M84.190 198.600 C 84.190 215.320,84.240 222.102,84.300 213.670 C 84.360 205.239,84.360 191.559,84.300 183.270 C 84.239 174.982,84.190 181.880,84.190 198.600 M345.396 242.200 C 345.396 282.900,345.443 299.491,345.500 279.068 C 345.557 258.646,345.557 225.346,345.500 205.068 C 345.443 184.791,345.396 201.500,345.396 242.200 M115.905 195.483 C 116.402 195.579,117.122 195.575,117.505 195.475 C 117.887 195.375,117.480 195.296,116.600 195.301 C 115.720 195.305,115.407 195.387,115.905 195.483 M296.500 195.476 C 296.885 195.576,297.515 195.576,297.900 195.476 C 298.285 195.375,297.970 195.293,297.200 195.293 C 296.430 195.293,296.115 195.375,296.500 195.476 M292.493 251.200 C 292.493 251.970,292.575 252.285,292.676 251.900 C 292.776 251.515,292.776 250.885,292.676 250.500 C 292.575 250.115,292.493 250.430,292.493 251.200 M329.668 319.400 C 329.662 319.840,329.811 320.560,330.000 321.000 C 330.438 322.019,330.438 320.968,330.000 319.600 C 329.743 318.796,329.677 318.757,329.668 319.400 M376.200 329.850 C 375.481 330.462,375.334 330.705,375.833 330.457 C 376.566 330.093,377.941 328.776,377.549 328.814 C 377.467 328.822,376.860 329.288,376.200 329.850 M359.800 333.200 C 360.240 333.389,360.960 333.538,361.400 333.532 C 362.043 333.523,362.004 333.457,361.200 333.200 C 359.832 332.762,358.781 332.762,359.800 333.200 M368.400 333.200 C 367.596 333.457,367.557 333.523,368.200 333.532 C 368.640 333.538,369.360 333.389,369.800 333.200 C 370.819 332.762,369.768 332.762,368.400 333.200 M293.143 333.704 C 293.311 333.871,302.707 333.961,314.024 333.904 L 334.600 333.800 313.720 333.600 C 302.236 333.490,292.976 333.537,293.143 333.704 " stroke="none" fill="#4ca4b4" fill-rule="evenodd"></path><path id="path6" d="M84.047 30.144 C 83.718 30.540,83.624 39.885,83.700 64.644 L 83.805 98.600 83.902 64.580 C 83.976 38.764,84.116 30.444,84.480 30.080 C 84.744 29.816,84.856 29.600,84.729 29.600 C 84.602 29.600,84.295 29.845,84.047 30.144 M329.099 30.040 C 329.496 30.549,329.620 60.170,329.700 174.040 L 329.801 317.400 329.901 173.949 C 329.995 37.737,329.965 30.470,329.300 29.949 C 328.680 29.463,328.657 29.473,329.099 30.040 M161.300 63.900 C 186.325 63.957,227.275 63.957,252.300 63.900 C 277.325 63.843,256.850 63.797,206.800 63.797 C 156.750 63.797,136.275 63.843,161.300 63.900 M310.994 129.400 C 310.994 158.220,311.042 169.951,311.100 155.469 C 311.158 140.987,311.158 117.407,311.100 103.069 C 311.042 88.731,310.994 100.580,310.994 129.400 M162.500 79.100 C 186.865 79.157,226.735 79.157,251.100 79.100 C 275.465 79.043,255.530 78.996,206.800 78.996 C 158.070 78.996,138.135 79.043,162.500 79.100 M81.375 103.300 L 80.200 104.600 81.500 103.425 C 82.712 102.330,82.984 102.000,82.675 102.000 C 82.606 102.000,82.021 102.585,81.375 103.300 M174.223 119.147 C 173.575 119.286,175.185 119.400,177.800 119.400 C 180.415 119.400,182.025 119.286,181.377 119.147 C 180.730 119.008,179.120 118.895,177.800 118.895 C 176.480 118.895,174.870 119.008,174.223 119.147 M164.460 123.203 C 163.547 123.864,162.800 124.503,162.800 124.623 C 162.800 124.811,165.054 123.277,166.180 122.322 C 167.127 121.519,165.956 122.118,164.460 123.203 M252.187 126.100 L 249.800 128.600 252.300 126.213 C 253.675 124.899,254.800 123.774,254.800 123.713 C 254.800 123.417,254.405 123.778,252.187 126.100 M220.000 152.200 C 235.069 167.270,247.488 179.600,247.598 179.600 C 247.708 179.600,235.469 167.270,220.400 152.200 C 205.331 137.130,192.912 124.800,192.802 124.800 C 192.692 124.800,204.931 137.130,220.000 152.200 M152.800 134.200 C 151.161 135.850,149.910 137.200,150.020 137.200 C 150.130 137.200,151.561 135.850,153.200 134.200 C 154.839 132.550,156.090 131.200,155.980 131.200 C 155.870 131.200,154.439 132.550,152.800 134.200 M240.795 137.500 L 234.600 143.800 240.900 137.605 C 244.365 134.198,247.200 131.363,247.200 131.305 C 247.200 131.019,246.551 131.647,240.795 137.500 M268.700 133.482 C 269.195 133.578,270.005 133.578,270.500 133.482 C 270.995 133.387,270.590 133.309,269.600 133.309 C 268.610 133.309,268.205 133.387,268.700 133.482 M275.000 136.000 C 275.859 136.880,276.652 137.600,276.762 137.600 C 276.872 137.600,276.259 136.880,275.400 136.000 C 274.541 135.120,273.748 134.400,273.638 134.400 C 273.528 134.400,274.141 135.120,275.000 136.000 M147.600 139.400 C 146.628 140.390,145.923 141.200,146.033 141.200 C 146.143 141.200,147.028 140.390,148.000 139.400 C 148.972 138.410,149.677 137.600,149.567 137.600 C 149.457 137.600,148.572 138.410,147.600 139.400 M278.783 139.700 C 280.441 141.466,280.800 141.784,280.800 141.483 C 280.800 141.419,279.945 140.564,278.900 139.583 L 277.000 137.800 278.783 139.700 M143.385 143.700 L 141.400 145.800 143.500 143.815 C 144.655 142.723,145.600 141.778,145.600 141.715 C 145.600 141.417,145.229 141.749,143.385 143.700 M281.200 142.110 C 281.200 142.171,282.595 143.566,284.300 145.210 L 287.400 148.200 284.410 145.100 C 281.633 142.221,281.200 141.817,281.200 142.110 M139.200 147.800 C 138.228 148.790,137.523 149.600,137.633 149.600 C 137.743 149.600,138.628 148.790,139.600 147.800 C 140.572 146.810,141.277 146.000,141.167 146.000 C 141.057 146.000,140.172 146.810,139.200 147.800 M249.392 150.500 L 245.800 154.200 249.500 150.608 C 252.936 147.272,253.382 146.800,253.092 146.800 C 253.032 146.800,251.367 148.465,249.392 150.500 M127.397 159.700 L 117.800 169.400 127.500 159.803 C 136.514 150.885,137.380 150.000,137.097 150.000 C 137.040 150.000,132.675 154.365,127.397 159.700 M257.997 168.100 L 269.795 180.000 282.674 180.000 C 289.757 180.000,295.636 179.865,295.738 179.700 C 295.841 179.535,290.052 179.450,282.876 179.511 L 269.827 179.622 258.013 167.911 L 246.200 156.200 257.997 168.100 M355.072 167.900 C 360.392 167.963,369.212 167.963,374.672 167.900 C 380.133 167.837,375.780 167.785,365.000 167.785 C 354.220 167.785,349.753 167.837,355.072 167.900 M83.693 198.876 C 83.642 215.308,83.735 228.836,83.900 228.938 C 84.172 229.107,84.169 207.953,83.893 179.800 C 83.834 173.860,83.745 182.444,83.693 198.876 M117.753 174.600 C 117.753 177.240,117.818 178.268,117.897 176.884 C 117.975 175.501,117.974 173.341,117.895 172.084 C 117.816 170.828,117.752 171.960,117.753 174.600 M150.532 179.900 C 168.314 179.958,197.294 179.958,214.932 179.900 C 232.569 179.842,218.020 179.795,182.600 179.795 C 147.180 179.795,132.749 179.842,150.532 179.900 M292.193 291.400 C 292.193 314.500,292.241 323.891,292.300 312.269 C 292.359 300.648,292.359 281.748,292.300 270.269 C 292.241 258.791,292.193 268.300,292.193 291.400 M169.391 308.200 C 169.391 327.340,169.440 335.229,169.500 325.730 C 169.560 316.232,169.560 300.572,169.500 290.930 C 169.440 281.289,169.391 289.060,169.391 308.200 M74.893 290.000 C 74.893 290.770,74.975 291.085,75.076 290.700 C 75.176 290.315,75.176 289.685,75.076 289.300 C 74.975 288.915,74.893 289.230,74.893 290.000 M303.728 334.300 C 309.629 334.362,319.169 334.362,324.928 334.300 C 330.688 334.237,325.860 334.186,314.200 334.186 C 302.540 334.186,297.828 334.237,303.728 334.300 " stroke="none" fill="#3e4f4c" fill-rule="evenodd"></path><path id="path7" d="M145.700 29.900 C 179.305 29.956,234.295 29.956,267.900 29.900 C 301.505 29.844,274.010 29.797,206.800 29.797 C 139.590 29.797,112.095 29.844,145.700 29.900 M106.575 68.500 L 105.400 69.800 106.700 68.625 C 107.912 67.530,108.184 67.200,107.875 67.200 C 107.806 67.200,107.221 67.785,106.575 68.500 M295.400 106.638 C 295.400 121.687,295.535 134.000,295.700 134.000 C 295.865 134.000,296.000 121.771,296.000 106.824 C 296.000 91.877,295.865 79.564,295.700 79.462 C 295.535 79.360,295.400 91.589,295.400 106.638 M311.394 129.400 C 311.394 157.120,311.442 168.401,311.500 154.469 C 311.558 140.537,311.558 117.857,311.500 104.069 C 311.442 90.281,311.394 101.680,311.394 129.400 M176.300 103.489 C 177.015 103.578,178.185 103.578,178.900 103.489 C 179.615 103.401,179.030 103.328,177.600 103.328 C 176.170 103.328,175.585 103.401,176.300 103.489 M207.000 117.200 C 209.633 119.840,211.877 122.000,211.987 122.000 C 212.097 122.000,210.033 119.840,207.400 117.200 C 204.767 114.560,202.523 112.400,202.413 112.400 C 202.303 112.400,204.367 114.560,207.000 117.200 M268.700 117.882 C 269.195 117.978,270.005 117.978,270.500 117.882 C 270.995 117.787,270.590 117.709,269.600 117.709 C 268.610 117.709,268.205 117.787,268.700 117.882 M274.200 118.400 C 274.640 118.589,275.270 118.744,275.600 118.744 C 275.978 118.744,275.904 118.617,275.400 118.400 C 274.960 118.211,274.330 118.056,274.000 118.056 C 273.622 118.056,273.696 118.183,274.200 118.400 M176.291 119.489 C 177.001 119.577,178.261 119.579,179.091 119.492 C 179.921 119.405,179.340 119.333,177.800 119.331 C 176.260 119.329,175.581 119.400,176.291 119.489 M140.581 124.500 L 139.000 126.200 140.700 124.619 C 142.281 123.148,142.584 122.800,142.281 122.800 C 142.216 122.800,141.451 123.565,140.581 124.500 M289.194 128.100 C 292.161 131.125,294.636 133.600,294.694 133.600 C 294.981 133.600,294.409 133.006,289.300 127.994 L 283.800 122.600 289.194 128.100 M197.600 130.200 C 200.784 133.390,203.480 136.000,203.590 136.000 C 203.700 136.000,201.184 133.390,198.000 130.200 C 194.816 127.010,192.120 124.400,192.010 124.400 C 191.900 124.400,194.416 127.010,197.600 130.200 M140.199 147.300 L 117.800 169.800 140.300 147.401 C 161.215 126.581,162.980 124.800,162.699 124.800 C 162.643 124.800,152.518 134.925,140.199 147.300 M221.000 131.200 C 223.633 133.840,225.877 136.000,225.987 136.000 C 226.097 136.000,224.033 133.840,221.400 131.200 C 218.767 128.560,216.523 126.400,216.413 126.400 C 216.303 126.400,218.367 128.560,221.000 131.200 M256.795 143.500 L 250.200 150.200 256.900 143.605 C 260.585 139.977,263.600 136.962,263.600 136.905 C 263.600 136.619,262.923 137.275,256.795 143.500 M122.766 142.204 C 120.218 144.732,118.241 146.800,118.373 146.800 C 118.505 146.800,120.677 144.730,123.200 142.200 C 125.723 139.670,127.700 137.602,127.593 137.604 C 127.487 137.607,125.315 139.677,122.766 142.204 M247.586 152.700 L 245.400 155.000 247.700 152.814 C 248.965 151.611,250.000 150.576,250.000 150.514 C 250.000 150.217,249.618 150.563,247.586 152.700 M295.775 168.000 C 295.775 173.830,295.831 176.215,295.899 173.300 C 295.967 170.385,295.967 165.615,295.899 162.700 C 295.831 159.785,295.775 162.170,295.775 168.000 M162.532 195.500 C 187.135 195.557,227.275 195.557,251.732 195.500 C 276.189 195.443,256.060 195.396,207.000 195.396 C 157.940 195.396,137.929 195.443,162.532 195.500 M131.068 229.100 C 156.625 229.157,198.565 229.157,224.268 229.100 C 249.971 229.043,229.060 228.997,177.800 228.997 C 126.540 228.997,105.511 229.043,131.068 229.100 M292.593 293.000 C 292.593 315.440,292.641 324.561,292.700 313.269 C 292.759 301.978,292.759 283.618,292.700 272.469 C 292.641 261.321,292.593 270.560,292.593 293.000 M378.778 327.900 L 377.400 329.400 378.900 328.022 C 380.296 326.738,380.584 326.400,380.278 326.400 C 380.212 326.400,379.537 327.075,378.778 327.900 M363.700 333.887 C 364.305 333.978,365.295 333.978,365.900 333.887 C 366.505 333.795,366.010 333.720,364.800 333.720 C 363.590 333.720,363.095 333.795,363.700 333.887 " stroke="none" fill="#357585" fill-rule="evenodd"></path><path id="path8" d="M83.391 65.800 C 83.391 84.720,83.440 92.401,83.500 82.870 C 83.560 73.338,83.560 57.858,83.500 48.470 C 83.440 39.081,83.391 46.880,83.391 65.800 M102.594 129.600 C 102.594 158.310,102.642 170.055,102.700 155.700 C 102.758 141.345,102.758 117.855,102.700 103.500 C 102.642 89.145,102.594 100.890,102.594 129.600 M117.867 79.067 C 117.313 79.620,117.559 147.200,118.115 147.200 C 118.398 147.200,119.523 146.255,120.615 145.100 L 122.600 143.000 120.586 144.900 C 119.479 145.945,118.442 146.800,118.282 146.800 C 118.122 146.800,118.038 131.500,118.096 112.800 C 118.153 94.100,118.185 78.800,118.167 78.800 C 118.148 78.800,118.013 78.920,117.867 79.067 M295.520 79.280 C 296.229 79.989,296.215 134.000,295.505 134.000 C 295.233 134.000,292.443 131.437,289.305 128.305 C 286.167 125.173,283.626 122.788,283.658 123.005 C 283.795 123.940,295.155 134.503,295.770 134.267 C 296.335 134.050,296.400 131.236,296.400 107.045 C 296.400 80.465,296.346 78.800,295.477 78.800 C 295.185 78.800,295.199 78.959,295.520 79.280 M176.700 103.882 C 177.195 103.978,178.005 103.978,178.500 103.882 C 178.995 103.787,178.590 103.709,177.600 103.709 C 176.610 103.709,176.205 103.787,176.700 103.882 M170.200 104.400 C 169.696 104.617,169.622 104.744,170.000 104.744 C 170.330 104.744,170.960 104.589,171.400 104.400 C 171.904 104.183,171.978 104.056,171.600 104.056 C 171.270 104.056,170.640 104.211,170.200 104.400 M183.800 104.400 C 184.996 104.914,185.995 104.914,185.200 104.400 C 184.870 104.187,184.240 104.022,183.800 104.034 L 183.000 104.056 183.800 104.400 M166.800 105.200 C 166.267 105.545,166.267 105.588,166.800 105.588 C 167.130 105.588,167.670 105.413,168.000 105.200 C 168.533 104.855,168.533 104.812,168.000 104.812 C 167.670 104.812,167.130 104.987,166.800 105.200 M152.778 113.100 L 151.400 114.600 152.996 113.200 C 153.873 112.430,154.668 111.755,154.762 111.700 C 154.856 111.645,154.759 111.600,154.545 111.600 C 154.332 111.600,153.537 112.275,152.778 113.100 M202.449 113.300 C 202.549 113.355,209.644 120.330,218.216 128.800 L 233.800 144.200 218.402 128.700 C 209.933 120.175,202.838 113.200,202.635 113.200 C 202.433 113.200,202.349 113.245,202.449 113.300 M149.374 116.088 C 148.508 117.009,148.148 117.501,148.573 117.181 C 149.770 116.281,151.265 114.732,151.098 114.565 C 151.016 114.482,150.240 115.168,149.374 116.088 M265.441 118.354 C 265.023 118.518,266.373 118.585,268.441 118.504 C 273.533 118.303,274.185 118.097,269.800 118.075 C 267.820 118.064,265.858 118.190,265.441 118.354 M143.970 121.500 L 143.000 122.600 144.200 121.600 C 144.860 121.050,145.475 120.555,145.567 120.500 C 145.658 120.445,145.555 120.400,145.336 120.400 C 145.118 120.400,144.503 120.895,143.970 121.500 M220.749 152.450 C 238.080 169.846,247.502 179.578,247.149 179.719 C 246.806 179.855,246.779 179.949,247.076 179.968 C 247.338 179.986,247.643 179.854,247.753 179.676 C 247.863 179.497,235.769 167.212,220.877 152.376 L 193.800 125.400 220.749 152.450 M247.387 131.300 L 245.000 133.800 247.500 131.413 C 248.875 130.099,250.000 128.974,250.000 128.913 C 250.000 128.617,249.605 128.978,247.387 131.300 M132.592 132.876 C 130.616 134.897,129.307 136.321,129.683 136.041 C 131.053 135.017,136.714 129.200,136.341 129.200 C 136.254 129.200,134.567 130.854,132.592 132.876 M83.320 133.600 C 83.320 134.810,83.395 135.305,83.487 134.700 C 83.578 134.095,83.578 133.105,83.487 132.500 C 83.395 131.895,83.320 132.390,83.320 133.600 M284.912 145.415 L 296.024 156.629 295.912 168.277 C 295.850 174.683,295.935 179.841,296.100 179.739 C 296.265 179.636,296.400 174.387,296.400 168.074 L 296.400 156.595 285.100 145.397 L 273.800 134.200 284.912 145.415 M252.200 162.800 C 256.155 166.760,259.482 170.000,259.592 170.000 C 259.702 170.000,256.555 166.760,252.600 162.800 C 248.645 158.840,245.318 155.600,245.208 155.600 C 245.098 155.600,248.245 158.840,252.200 162.800 M83.390 198.000 C 83.390 214.830,83.440 221.715,83.500 213.300 C 83.560 204.885,83.560 191.115,83.500 182.700 C 83.440 174.285,83.390 181.170,83.390 198.000 M384.596 243.000 C 384.596 284.360,384.643 301.339,384.700 280.732 C 384.757 260.124,384.757 226.284,384.700 205.532 C 384.643 184.779,384.596 201.640,384.596 243.000 M344.996 241.600 C 344.996 281.970,345.043 298.485,345.100 278.300 C 345.157 258.115,345.157 225.085,345.100 204.900 C 345.043 184.715,344.996 201.230,344.996 241.600 M262.200 172.800 C 263.506 174.120,264.665 175.200,264.775 175.200 C 264.885 175.200,263.906 174.120,262.600 172.800 C 261.294 171.480,260.135 170.400,260.025 170.400 C 259.915 170.400,260.894 171.480,262.200 172.800 M107.000 190.400 C 107.859 191.280,108.652 192.000,108.762 192.000 C 108.872 192.000,108.259 191.280,107.400 190.400 C 106.541 189.520,105.748 188.800,105.638 188.800 C 105.528 188.800,106.141 189.520,107.000 190.400 M277.394 307.200 C 277.394 337.450,277.442 349.825,277.500 334.700 C 277.558 319.575,277.558 294.825,277.500 279.700 C 277.442 264.575,277.394 276.950,277.394 307.200 M32.985 289.800 C 32.985 300.360,33.037 304.623,33.100 299.272 C 33.163 293.922,33.163 285.282,33.100 280.072 C 33.036 274.863,32.985 279.240,32.985 289.800 M52.700 301.898 C 54.955 301.970,58.645 301.970,60.900 301.898 C 63.155 301.827,61.310 301.769,56.800 301.769 C 52.290 301.769,50.445 301.827,52.700 301.898 M32.983 327.000 C 32.983 336.460,33.036 340.273,33.100 335.473 C 33.164 330.673,33.163 322.933,33.099 318.273 C 33.036 313.613,32.983 317.540,32.983 327.000 M233.491 313.089 C 234.201 313.177,235.461 313.179,236.291 313.092 C 237.121 313.005,236.540 312.933,235.000 312.931 C 233.460 312.929,232.781 313.000,233.491 313.089 M350.600 328.400 C 351.459 329.280,352.252 330.000,352.362 330.000 C 352.472 330.000,351.859 329.280,351.000 328.400 C 350.141 327.520,349.348 326.800,349.238 326.800 C 349.128 326.800,349.741 327.520,350.600 328.400 " stroke="none" fill="#1c3c44" fill-rule="evenodd"></path></g></svg>