<svg id="svg" version="1.1" xmlns="http://www.w3.org/2000/svg" xmlns:xlink="http://www.w3.org/1999/xlink" width="400" height="400" viewBox="0, 0, 400,400"><g id="svgg"><path id="path0" d="M46.416 0.875 L 45.600 1.751 45.600 200.000 L 45.600 398.249 46.416 399.125 L 47.231 400.000 200.000 400.000 L 352.769 400.000 353.584 399.125 L 354.400 398.249 354.400 245.309 L 354.400 92.368 308.223 46.184 L 262.046 0.000 154.639 0.000 L 47.231 0.000 46.416 0.875 M256.000 47.000 C 256.144 75.732,256.328 87.225,256.653 87.800 C 256.903 88.240,257.352 89.140,257.652 89.800 C 257.951 90.460,259.277 92.088,260.598 93.418 C 264.849 97.696,261.216 97.369,307.000 97.600 L 346.600 97.800 346.600 245.400 L 346.600 393.000 331.900 393.105 L 317.200 393.210 317.200 364.182 C 317.200 344.865,317.056 334.526,316.769 333.277 C 315.212 326.496,309.907 321.106,302.954 319.241 C 300.615 318.614,99.385 318.614,97.046 319.241 C 89.840 321.174,84.511 326.781,83.234 333.773 C 82.948 335.334,82.800 345.913,82.800 364.678 L 82.800 393.210 68.100 393.105 L 53.400 393.000 53.298 200.400 C 53.241 94.470,53.281 7.575,53.385 7.299 C 53.537 6.900,74.008 6.819,154.688 6.899 L 255.800 7.000 256.000 47.000 M302.222 51.176 C 323.541 72.503,341.048 90.143,341.125 90.376 C 341.224 90.672,330.245 90.800,304.645 90.800 C 261.974 90.800,265.498 91.202,263.182 86.067 C 262.174 83.832,261.929 12.400,262.930 12.400 C 263.221 12.400,280.902 29.849,302.222 51.176 M98.582 132.982 L 97.600 133.964 97.605 207.082 C 97.611 286.371,97.500 281.671,99.400 282.573 C 100.909 283.289,296.670 283.536,299.730 282.826 C 302.604 282.159,302.373 288.698,302.387 207.482 L 302.400 133.964 301.418 132.982 L 300.436 132.000 200.000 132.000 L 99.564 132.000 98.582 132.982 M296.000 184.200 C 296.000 210.692,295.850 230.000,295.644 230.000 C 295.448 230.000,282.623 217.309,267.144 201.797 C 240.407 175.004,238.929 173.594,237.578 173.597 C 235.928 173.601,235.538 173.969,230.165 180.598 C 228.204 183.017,226.302 185.357,225.939 185.798 C 221.811 190.804,218.550 194.779,216.411 197.413 C 214.987 199.166,212.107 202.676,210.011 205.212 C 207.915 207.749,205.570 210.613,204.800 211.578 C 204.030 212.542,202.850 213.977,202.177 214.766 C 201.505 215.554,200.515 216.758,199.977 217.441 C 196.186 222.255,194.295 224.400,193.843 224.400 C 193.556 224.400,188.411 217.065,182.412 208.100 C 169.910 189.419,169.194 188.613,166.781 190.513 C 166.215 190.959,160.786 197.620,158.400 200.796 C 157.850 201.528,156.590 203.150,155.600 204.400 C 154.610 205.650,153.350 207.268,152.800 207.995 C 151.907 209.175,144.807 218.238,142.768 220.800 C 142.331 221.350,141.574 222.324,141.086 222.965 C 140.599 223.605,137.230 227.930,133.600 232.574 C 129.970 237.219,126.508 241.674,125.906 242.475 C 125.304 243.276,124.584 244.171,124.306 244.465 C 124.028 244.759,122.990 246.076,122.000 247.391 C 121.010 248.706,119.982 250.056,119.716 250.391 C 118.078 252.451,109.066 263.965,107.400 266.126 C 103.603 271.050,104.000 278.280,104.000 204.270 C 104.000 168.335,104.120 138.813,104.267 138.667 C 104.413 138.520,147.613 138.400,200.267 138.400 L 296.000 138.400 296.000 184.200 M133.507 155.417 C 124.640 157.841,118.217 167.158,119.995 175.016 C 120.798 178.564,121.336 180.181,122.075 181.262 C 122.474 181.846,122.800 182.482,122.800 182.675 C 122.800 183.965,128.494 188.351,131.715 189.543 C 146.331 194.952,160.549 179.302,153.861 165.167 C 152.145 161.537,146.769 156.400,144.689 156.400 C 144.383 156.400,144.005 156.271,143.847 156.114 C 142.665 154.932,136.741 154.533,133.507 155.417 M141.400 162.000 C 141.536 162.220,142.011 162.400,142.456 162.400 C 143.868 162.400,147.739 166.709,148.516 169.146 C 152.170 180.609,138.110 189.234,129.629 180.732 C 124.215 175.306,125.850 166.144,132.880 162.511 C 134.735 161.553,140.895 161.183,141.400 162.000 M267.108 210.911 L 296.008 239.821 295.904 258.211 L 295.800 276.600 202.000 276.600 C 98.840 276.600,107.101 276.788,109.004 274.478 C 109.600 273.754,114.300 267.808,116.057 265.555 C 116.638 264.810,118.888 261.929,121.057 259.153 C 123.226 256.377,125.450 253.516,126.000 252.796 C 126.550 252.075,128.145 250.026,129.543 248.243 C 130.942 246.459,132.505 244.460,133.017 243.800 C 133.528 243.140,135.714 240.348,137.873 237.597 C 140.033 234.845,142.292 231.935,142.894 231.131 C 143.496 230.327,144.216 229.429,144.494 229.135 C 144.772 228.841,145.806 227.520,146.792 226.200 C 147.777 224.880,149.588 222.540,150.816 221.000 C 152.043 219.460,154.266 216.611,155.754 214.670 C 157.242 212.728,158.705 210.838,159.005 210.470 C 160.553 208.569,163.290 205.091,165.198 202.600 C 167.216 199.967,167.926 199.215,168.400 199.210 C 168.571 199.209,173.014 205.580,174.205 207.535 C 175.072 208.960,176.193 210.609,176.422 210.800 C 176.554 210.910,179.846 215.807,183.737 221.681 C 193.189 235.952,193.225 235.972,198.402 229.600 C 199.385 228.390,200.282 227.310,200.395 227.200 C 200.509 227.090,201.681 225.650,203.001 224.000 C 204.320 222.350,205.580 220.795,205.800 220.545 C 206.020 220.294,206.470 219.751,206.800 219.338 C 207.130 218.926,208.210 217.603,209.200 216.400 C 210.190 215.197,211.298 213.850,211.661 213.406 C 212.025 212.963,213.735 210.886,215.461 208.791 C 217.188 206.696,219.980 203.276,221.667 201.191 C 223.353 199.106,225.063 197.040,225.467 196.600 C 225.870 196.159,226.675 195.169,227.255 194.400 C 227.835 193.630,228.705 192.550,229.189 192.000 C 229.673 191.450,231.702 188.975,233.697 186.500 C 235.692 184.025,237.523 182.000,237.766 182.000 C 238.009 182.000,251.213 195.010,267.108 210.911 M303.696 326.569 C 306.179 327.706,308.275 329.841,309.517 332.501 L 310.405 334.402 310.303 363.701 L 310.200 393.000 200.000 393.000 L 89.800 393.000 89.697 363.701 L 89.595 334.402 90.472 332.501 C 91.568 330.124,94.049 327.611,96.400 326.495 L 98.200 325.640 199.888 325.620 L 301.576 325.600 303.696 326.569 M173.308 335.081 C 170.751 335.575,170.800 335.108,170.800 358.823 L 170.800 380.339 171.836 381.569 C 173.064 383.030,174.851 383.204,176.400 382.014 L 177.400 381.246 177.517 365.223 C 177.606 353.023,177.750 349.206,178.117 349.225 C 178.383 349.239,181.480 352.943,185.000 357.455 C 188.520 361.967,191.735 366.050,192.143 366.529 C 192.552 367.008,194.438 369.380,196.334 371.800 C 205.273 383.208,204.886 382.800,206.764 382.800 C 207.811 382.800,208.522 382.522,209.130 381.874 L 210.000 380.948 210.000 359.129 L 210.000 337.309 208.945 336.255 C 207.245 334.554,204.952 334.972,203.804 337.192 C 203.296 338.174,203.200 340.787,203.200 353.580 C 203.200 361.951,203.045 368.800,202.855 368.800 C 202.665 368.800,201.450 367.430,200.155 365.757 C 198.860 364.083,197.620 362.503,197.400 362.247 C 197.180 361.990,196.372 360.975,195.606 359.990 C 194.839 359.006,193.989 357.930,193.718 357.600 C 193.447 357.270,190.959 354.120,188.191 350.600 C 185.422 347.080,182.581 343.498,181.878 342.640 C 179.775 340.074,177.209 336.618,177.204 336.346 C 177.200 336.095,174.612 334.748,174.340 334.854 C 174.263 334.884,173.799 334.986,173.308 335.081 M136.855 336.141 L 135.971 337.082 135.971 359.000 L 135.971 380.918 136.855 381.859 C 137.811 382.876,139.508 383.091,140.860 382.368 C 142.509 381.485,142.800 379.754,142.800 370.813 L 142.800 362.400 147.740 362.400 C 152.814 362.400,154.112 362.162,157.164 360.670 C 167.719 355.513,166.251 338.915,154.954 335.673 C 151.538 334.692,137.885 335.046,136.855 336.141 M237.600 335.857 C 218.040 338.001,209.482 362.602,223.440 376.560 C 225.100 378.220,229.303 381.200,229.983 381.200 C 230.219 381.200,230.813 381.408,231.305 381.662 C 233.076 382.578,233.447 382.684,236.726 383.215 C 240.188 383.775,245.339 383.370,247.909 382.336 C 255.323 379.354,260.162 374.644,262.745 367.900 C 264.321 363.782,264.658 358.598,263.438 357.245 C 262.701 356.428,262.345 356.400,252.685 356.400 L 242.693 356.400 241.747 357.500 C 240.634 358.794,240.545 360.264,241.509 361.453 C 242.770 363.010,243.725 363.200,250.307 363.200 C 257.284 363.200,257.334 363.212,256.723 364.740 C 253.703 372.294,247.604 376.800,240.400 376.800 C 222.644 376.800,216.668 351.999,232.606 344.456 C 233.703 343.937,234.936 343.338,235.346 343.124 C 236.435 342.557,243.737 342.603,245.284 343.186 C 247.946 344.190,249.958 345.318,251.800 346.840 C 254.561 349.122,256.605 348.941,257.971 346.294 C 258.809 344.671,257.837 342.946,254.796 340.660 C 249.831 336.929,243.629 335.196,237.600 335.857 M154.290 342.555 C 157.474 344.266,158.828 348.476,157.165 351.488 C 155.185 355.072,153.802 355.654,147.600 355.514 L 142.600 355.400 142.489 349.016 C 142.429 345.505,142.475 342.382,142.592 342.076 C 142.921 341.218,152.535 341.612,154.290 342.555 " stroke="none" fill="#050505" fill-rule="evenodd"></path><path id="path1" d="M105.067 139.067 C 104.920 139.213,104.800 168.396,104.800 203.918 L 104.800 268.502 106.700 266.115 C 107.745 264.801,109.050 263.126,109.600 262.392 C 110.481 261.216,111.179 260.341,113.097 258.005 C 113.371 257.672,114.001 256.836,114.497 256.146 C 115.888 254.214,120.304 248.555,120.897 247.944 C 121.188 247.645,121.862 246.770,122.394 246.000 C 122.927 245.230,123.649 244.330,124.000 244.000 C 124.351 243.670,125.071 242.770,125.600 242.000 C 126.129 241.230,126.661 240.510,126.783 240.400 C 126.905 240.290,127.544 239.489,128.202 238.620 C 128.861 237.751,130.533 235.591,131.917 233.820 C 133.301 232.049,135.132 229.682,135.984 228.561 C 136.837 227.440,137.781 226.270,138.081 225.961 C 138.381 225.652,139.064 224.770,139.600 224.000 C 140.136 223.230,140.760 222.404,140.987 222.163 C 141.214 221.923,141.850 221.130,142.400 220.400 C 142.950 219.670,143.580 218.877,143.800 218.637 C 144.020 218.396,145.010 217.121,146.000 215.801 C 146.990 214.482,148.520 212.497,149.400 211.390 C 150.280 210.283,151.540 208.683,152.200 207.834 C 152.860 206.985,154.210 205.264,155.200 204.009 C 156.190 202.754,157.450 201.135,158.000 200.410 C 158.550 199.686,159.270 198.773,159.600 198.381 C 159.930 197.989,161.190 196.366,162.400 194.776 C 165.770 190.345,166.650 189.600,168.505 189.600 C 170.109 189.600,172.800 191.758,172.800 193.045 C 172.800 193.314,172.944 193.593,173.120 193.667 C 173.576 193.856,191.600 220.706,191.600 221.195 C 191.600 221.418,191.741 221.600,191.914 221.600 C 192.086 221.600,192.546 222.140,192.936 222.800 C 193.810 224.279,194.052 224.291,194.891 222.900 C 195.256 222.295,195.970 221.348,196.477 220.796 C 196.985 220.244,198.780 218.084,200.467 215.996 C 202.153 213.908,203.863 211.840,204.267 211.400 C 204.670 210.959,205.507 209.920,206.127 209.091 C 206.747 208.261,207.647 207.174,208.127 206.675 C 208.607 206.177,209.628 204.966,210.394 203.984 C 212.167 201.717,212.003 201.918,216.879 195.989 C 219.146 193.233,221.630 190.202,222.400 189.253 C 223.170 188.304,224.133 187.139,224.540 186.664 C 225.716 185.289,227.416 183.201,229.637 180.400 C 234.897 173.767,235.520 173.200,237.548 173.198 L 239.400 173.196 267.167 200.998 C 282.440 216.289,294.995 228.800,295.067 228.800 C 295.140 228.800,295.200 208.550,295.200 183.800 L 295.200 138.800 200.267 138.800 C 148.053 138.800,105.213 138.920,105.067 139.067 M142.772 155.029 C 156.283 159.733,160.520 175.126,151.132 185.398 C 149.385 187.309,147.399 188.549,142.871 190.555 C 141.525 191.151,134.041 191.070,132.384 190.442 C 129.089 189.194,127.247 188.052,124.901 185.803 C 123.526 184.485,122.400 183.180,122.400 182.903 C 122.400 182.626,122.264 182.400,122.098 182.400 C 121.827 182.400,121.580 181.901,120.411 179.000 C 118.400 174.011,119.344 165.889,122.285 162.871 C 122.568 162.581,122.800 162.221,122.800 162.071 C 122.800 161.639,125.869 158.400,126.278 158.400 C 126.482 158.400,126.998 158.085,127.425 157.699 C 128.238 156.965,130.960 155.596,133.000 154.897 C 134.895 154.247,140.754 154.326,142.772 155.029 M235.371 185.260 C 234.090 186.877,232.943 188.290,232.821 188.400 C 232.700 188.510,231.917 189.451,231.081 190.490 C 230.246 191.530,229.346 192.610,229.081 192.890 C 228.817 193.171,228.125 194.030,227.545 194.800 C 226.965 195.570,226.155 196.590,225.745 197.066 C 225.335 197.543,224.730 198.264,224.400 198.668 C 219.079 205.194,216.264 208.626,214.610 210.606 C 213.505 211.929,211.970 213.790,211.200 214.742 C 210.430 215.693,209.465 216.861,209.055 217.336 C 208.645 217.811,207.835 218.830,207.255 219.600 C 206.675 220.370,205.983 221.229,205.719 221.510 C 205.454 221.790,204.554 222.866,203.719 223.901 C 195.830 233.672,194.858 234.581,192.800 234.121 C 191.761 233.888,189.600 232.115,189.600 231.495 C 189.600 231.300,188.462 229.489,187.070 227.470 C 185.679 225.452,181.593 219.390,177.989 214.000 C 174.386 208.610,171.332 204.110,171.202 204.000 C 171.072 203.890,170.433 202.945,169.783 201.901 C 168.148 199.275,168.601 199.040,164.121 204.847 C 162.978 206.329,161.771 207.869,161.440 208.271 C 160.563 209.331,157.164 213.657,156.000 215.192 C 154.161 217.618,148.749 224.590,148.071 225.408 C 147.702 225.852,146.908 226.872,146.306 227.673 C 145.704 228.475,144.984 229.371,144.706 229.665 C 144.428 229.959,143.390 231.280,142.401 232.600 C 141.412 233.920,140.512 235.090,140.401 235.200 C 140.290 235.310,139.644 236.120,138.965 237.000 C 138.286 237.880,136.330 240.400,134.618 242.600 C 132.906 244.800,131.032 247.212,130.453 247.961 C 128.503 250.481,125.836 253.798,125.598 254.000 C 125.468 254.110,124.929 254.830,124.400 255.600 C 123.871 256.370,123.332 257.090,123.202 257.200 C 123.072 257.310,121.804 258.930,120.383 260.800 C 118.962 262.670,117.701 264.290,117.581 264.400 C 117.460 264.510,116.115 266.220,114.592 268.200 C 113.069 270.180,111.727 271.890,111.611 272.000 C 110.864 272.708,108.800 275.627,108.800 275.977 C 108.800 276.761,295.056 276.552,295.357 275.767 C 295.736 274.781,295.630 240.667,295.247 240.062 C 294.962 239.613,249.446 193.903,240.478 185.060 L 237.699 182.319 235.371 185.260 M98.000 326.390 C 97.670 326.579,96.770 327.007,96.000 327.342 C 94.370 328.050,91.989 330.477,91.233 332.200 C 90.943 332.860,90.548 333.713,90.353 334.095 C 90.159 334.478,90.000 347.803,90.000 363.795 L 90.000 392.800 200.000 392.800 L 310.000 392.800 310.000 363.795 C 310.000 347.803,309.841 334.478,309.647 334.095 C 309.452 333.713,309.057 332.860,308.767 332.200 C 308.011 330.477,305.630 328.050,304.000 327.341 C 303.230 327.007,302.287 326.568,301.905 326.366 C 301.014 325.896,98.822 325.920,98.000 326.390 M154.549 335.004 C 166.828 338.202,168.847 355.647,157.564 361.053 C 154.163 362.683,153.550 362.800,148.381 362.800 L 143.200 362.800 143.200 371.662 L 143.200 380.524 142.180 381.862 C 140.809 383.659,137.913 383.811,136.370 382.168 L 135.400 381.136 135.400 359.010 C 135.400 331.742,134.290 334.467,145.416 334.425 C 150.273 334.407,152.898 334.573,154.549 335.004 M177.495 336.284 C 178.207 337.118,181.413 341.130,184.619 345.200 C 187.825 349.270,190.665 352.870,190.930 353.200 C 191.194 353.530,192.039 354.610,192.806 355.600 C 193.572 356.590,194.295 357.490,194.410 357.600 C 194.526 357.710,195.243 358.610,196.005 359.600 C 196.766 360.590,197.571 361.599,197.794 361.843 C 198.017 362.086,199.190 363.556,200.400 365.109 L 202.600 367.933 202.800 352.375 L 203.000 336.817 204.000 335.818 C 205.493 334.327,207.112 334.148,208.800 335.287 L 210.200 336.232 210.303 358.843 L 210.407 381.454 209.436 382.366 C 207.332 384.343,204.640 383.527,202.231 380.181 C 201.368 378.983,200.377 377.687,200.028 377.302 C 199.678 376.916,198.764 375.791,197.996 374.801 C 197.228 373.812,196.384 372.732,196.119 372.401 C 195.854 372.071,194.361 370.180,192.800 368.200 C 189.330 363.799,189.242 363.687,188.000 362.157 C 187.450 361.479,186.460 360.229,185.800 359.378 C 184.324 357.476,180.952 353.214,180.279 352.400 C 180.006 352.070,179.471 351.355,179.091 350.811 C 178.431 349.866,178.400 350.487,178.400 364.692 C 178.400 375.564,178.268 379.863,177.909 380.681 C 176.338 384.264,171.754 384.112,170.472 380.434 C 169.532 377.738,169.832 338.081,170.804 336.486 C 172.389 333.887,175.371 333.797,177.495 336.284 M247.572 336.211 C 253.911 338.481,258.800 342.329,258.800 345.048 C 258.800 348.779,254.723 349.987,251.400 347.240 C 249.645 345.790,247.820 344.753,245.081 343.651 C 244.466 343.403,242.359 343.200,240.400 343.200 C 236.849 343.200,236.209 343.347,232.800 344.945 C 230.743 345.909,226.463 350.014,225.652 351.800 C 225.352 352.460,224.948 353.313,224.753 353.695 C 224.559 354.077,224.400 354.831,224.400 355.371 C 224.400 355.911,224.220 356.464,224.000 356.600 C 223.092 357.161,223.655 362.931,224.849 365.295 C 225.042 365.677,225.200 366.184,225.200 366.423 C 225.200 368.363,231.768 374.800,233.748 374.800 C 234.081 374.800,234.452 374.960,234.573 375.156 C 235.087 375.987,241.686 376.445,244.200 375.823 C 249.471 374.520,255.107 369.169,256.128 364.500 L 256.325 363.600 249.593 363.600 L 242.862 363.600 241.631 362.369 C 239.150 359.889,240.503 356.333,244.135 355.789 C 247.334 355.310,262.619 355.750,263.331 356.342 C 265.251 357.938,265.411 360.720,263.897 366.200 C 258.950 384.114,236.362 390.011,223.157 376.836 C 209.146 362.858,216.802 338.921,236.400 335.432 C 238.425 335.072,245.832 335.588,247.572 336.211 M143.200 348.800 L 143.200 355.200 147.551 355.200 C 153.625 355.200,155.798 354.088,157.126 350.300 C 157.909 348.067,155.889 343.200,154.180 343.200 C 153.861 343.200,153.600 343.020,153.600 342.800 C 153.600 342.554,151.600 342.400,148.400 342.400 L 143.200 342.400 143.200 348.800 " stroke="none" fill="#a8d8f4" fill-rule="evenodd"></path><path id="path2" d="M54.000 200.200 L 54.000 392.800 67.975 392.800 L 81.950 392.800 82.078 362.700 C 82.182 338.282,82.309 332.373,82.753 331.400 C 84.558 327.446,85.274 326.365,87.838 323.724 C 89.399 322.116,90.974 320.800,91.338 320.800 C 91.702 320.800,92.000 320.620,92.000 320.400 C 92.000 320.180,92.360 320.000,92.800 320.000 C 93.240 320.000,93.600 319.859,93.600 319.687 C 93.600 318.200,93.596 318.200,200.000 318.200 C 306.404 318.200,306.400 318.200,306.400 319.687 C 306.400 319.859,306.760 320.000,307.200 320.000 C 307.640 320.000,308.000 320.180,308.000 320.400 C 308.000 320.620,308.290 320.800,308.645 320.800 C 309.000 320.800,310.620 322.130,312.245 323.755 C 313.870 325.380,315.200 327.000,315.200 327.355 C 315.200 327.710,315.335 328.001,315.500 328.003 C 315.888 328.007,316.800 329.969,316.800 330.800 C 316.800 331.152,317.025 331.665,317.300 331.940 C 317.689 332.329,317.827 339.143,317.923 362.620 L 318.046 392.800 332.024 392.800 L 346.001 392.800 345.901 245.500 L 345.800 98.200 306.200 98.105 C 282.885 98.049,266.271 97.857,265.800 97.639 C 265.360 97.434,264.415 97.028,263.700 96.736 C 262.985 96.444,262.400 96.069,262.400 95.902 C 262.400 95.736,262.212 95.600,261.983 95.600 C 261.350 95.600,258.400 92.747,258.400 92.136 C 258.400 91.841,258.253 91.600,258.074 91.600 C 257.562 91.600,256.000 88.427,256.000 87.386 C 256.000 86.870,255.820 86.336,255.600 86.200 C 255.338 86.038,255.200 72.463,255.200 46.776 L 255.200 7.600 154.600 7.600 L 54.000 7.600 54.000 200.200 M301.316 131.708 C 303.745 133.299,303.600 128.502,303.600 207.523 C 303.600 288.228,303.813 282.172,300.927 283.500 C 299.333 284.234,100.667 284.234,99.073 283.500 C 96.418 282.278,96.578 287.719,96.800 206.542 C 97.024 124.457,96.722 132.117,99.767 131.228 C 102.455 130.445,300.105 130.915,301.316 131.708 M135.400 162.400 C 135.264 162.620,134.713 162.800,134.176 162.800 C 133.639 162.800,133.200 162.980,133.200 163.200 C 133.200 163.420,132.912 163.600,132.560 163.600 C 131.804 163.600,128.400 167.088,128.400 167.864 C 128.400 168.159,128.240 168.400,128.045 168.400 C 127.339 168.400,126.538 173.898,127.155 174.515 C 127.400 174.760,127.600 175.464,127.600 176.080 C 127.600 176.696,127.780 177.200,128.000 177.200 C 128.220 177.200,128.400 177.435,128.400 177.722 C 128.400 179.980,133.819 183.200,137.619 183.200 C 145.530 183.200,150.770 174.999,147.258 168.113 C 146.083 165.811,143.269 163.274,141.497 162.919 C 140.885 162.797,140.286 162.540,140.168 162.348 C 139.869 161.864,135.703 161.909,135.400 162.400 " stroke="none" fill="#fccc84" fill-rule="evenodd"></path><path id="path3" d="M154.500 7.500 L 255.200 7.602 255.200 46.777 C 255.200 68.324,255.335 86.036,255.500 86.138 C 255.818 86.335,255.730 8.554,255.411 7.700 C 255.263 7.301,234.789 7.220,154.513 7.299 L 53.800 7.398 154.500 7.500 M263.204 48.500 C 263.207 67.695,263.322 84.087,263.461 84.927 C 263.739 86.610,266.195 89.600,267.300 89.600 C 267.659 89.600,268.064 89.780,268.200 90.000 C 268.362 90.262,280.904 90.400,304.523 90.400 L 340.598 90.400 302.200 52.000 C 281.081 30.880,263.666 13.600,263.501 13.600 C 263.335 13.600,263.202 29.305,263.204 48.500 M258.400 92.525 C 258.400 92.594,258.973 93.179,259.674 93.825 L 260.949 95.000 259.974 93.722 C 259.147 92.637,258.400 92.069,258.400 92.525 M150.300 131.100 C 177.635 131.157,222.365 131.157,249.700 131.100 C 277.035 131.043,254.670 130.997,200.000 130.997 C 145.330 130.997,122.965 131.043,150.300 131.100 M98.254 132.029 C 97.674 132.485,97.214 133.070,97.232 133.329 C 97.252 133.628,97.341 133.606,97.476 133.267 C 97.593 132.974,98.254 132.390,98.944 131.969 C 99.635 131.548,99.999 131.202,99.754 131.201 C 99.509 131.201,98.834 131.573,98.254 132.029 M301.056 131.969 C 301.746 132.390,302.407 132.974,302.524 133.267 C 302.659 133.606,302.748 133.628,302.768 133.329 C 302.805 132.791,300.918 131.199,300.246 131.201 C 300.001 131.202,300.365 131.548,301.056 131.969 M303.000 207.405 L 303.000 280.733 302.088 281.966 C 301.586 282.645,301.345 283.200,301.552 283.200 C 301.759 283.200,302.305 282.423,302.764 281.474 L 303.600 279.747 303.594 207.374 C 303.591 167.568,303.456 134.792,303.294 134.538 C 303.132 134.284,303.000 167.074,303.000 207.405 M143.600 163.900 C 143.600 164.069,143.960 164.432,144.400 164.707 C 144.840 164.982,145.200 165.069,145.200 164.900 C 145.200 164.731,144.840 164.368,144.400 164.093 C 143.960 163.818,143.600 163.731,143.600 163.900 M129.802 165.198 C 129.403 165.639,129.207 166.000,129.367 166.000 C 129.788 166.000,130.928 164.795,130.712 164.579 C 130.611 164.478,130.202 164.756,129.802 165.198 M148.132 172.800 C 148.132 175.329,148.199 175.765,148.393 174.500 C 148.536 173.565,148.536 172.035,148.393 171.100 C 148.199 169.835,148.132 170.271,148.132 172.800 M144.168 181.192 C 143.953 181.407,143.062 181.954,142.188 182.406 C 141.301 182.866,141.041 183.109,141.600 182.958 C 142.718 182.655,145.618 180.800,144.973 180.800 C 144.746 180.800,144.384 180.976,144.168 181.192 M132.000 181.964 C 132.891 182.671,134.400 183.324,134.400 183.003 C 134.400 182.936,133.635 182.496,132.700 182.025 C 131.133 181.237,131.078 181.232,132.000 181.964 M136.300 183.489 C 137.015 183.578,138.185 183.578,138.900 183.489 C 139.615 183.401,139.030 183.328,137.600 183.328 C 136.170 183.328,135.585 183.401,136.300 183.489 M96.804 280.600 C 96.805 280.820,97.163 281.540,97.600 282.200 C 98.636 283.764,98.637 283.208,97.601 281.510 C 97.162 280.789,96.804 280.380,96.804 280.600 M99.462 283.700 C 99.564 283.865,144.806 284.000,200.000 284.000 C 255.194 284.000,300.436 283.865,300.538 283.700 C 300.640 283.535,255.398 283.400,200.000 283.400 C 144.602 283.400,99.360 283.535,99.462 283.700 M149.900 318.300 C 177.455 318.357,222.545 318.357,250.100 318.300 C 277.655 318.243,255.110 318.197,200.000 318.197 C 144.890 318.197,122.345 318.243,149.900 318.300 M95.600 318.818 C 95.162 319.115,95.324 319.152,96.200 318.956 C 97.671 318.627,97.990 318.398,96.967 318.406 C 96.545 318.409,95.930 318.595,95.600 318.818 M302.433 318.544 C 302.525 318.623,303.140 318.808,303.800 318.956 C 304.676 319.152,304.838 319.115,304.400 318.818 C 303.860 318.453,302.032 318.198,302.433 318.544 M82.649 331.815 C 82.512 332.173,82.421 332.946,82.446 333.533 C 82.480 334.332,82.570 334.198,82.804 333.000 C 83.135 331.300,83.062 330.740,82.649 331.815 M317.790 364.400 C 317.790 380.130,317.839 386.565,317.900 378.700 C 317.960 370.835,317.960 357.965,317.900 350.100 C 317.839 342.235,317.790 348.670,317.790 364.400 M82.190 364.600 C 82.189 380.220,82.239 386.668,82.300 378.929 C 82.361 371.191,82.361 358.411,82.300 350.529 C 82.239 342.648,82.190 348.980,82.190 364.600 " stroke="none" fill="#e6c173" fill-rule="evenodd"></path><path id="path4" d="M104.198 139.299 C 104.079 139.795,104.030 169.270,104.091 204.800 L 104.200 269.400 105.600 267.963 C 107.410 266.105,113.308 258.396,112.907 258.412 C 112.738 258.419,111.970 259.271,111.200 260.305 C 110.430 261.339,109.583 262.458,109.319 262.792 C 109.054 263.126,107.928 264.549,106.817 265.952 L 104.798 268.505 104.899 203.752 L 105.000 139.000 200.100 138.899 L 295.200 138.798 295.200 183.799 C 295.200 208.550,295.140 228.800,295.067 228.800 C 294.995 228.800,282.440 216.289,267.167 200.998 L 239.400 173.196 237.548 173.198 C 235.532 173.200,234.985 173.694,229.794 180.200 C 227.058 183.629,227.080 183.600,227.328 183.600 C 227.453 183.600,229.127 181.665,231.049 179.300 C 237.907 170.861,233.577 168.175,267.000 201.600 C 282.399 217.000,295.224 229.600,295.501 229.600 C 295.902 229.600,295.983 220.421,295.902 184.100 L 295.800 138.600 200.108 138.499 L 104.416 138.398 104.198 139.299 M133.000 154.904 C 130.607 155.740,128.014 157.008,128.007 157.346 C 128.003 157.536,128.424 157.414,128.943 157.074 C 136.099 152.385,148.105 155.404,152.853 163.086 C 153.314 163.832,153.782 164.351,153.893 164.240 C 154.648 163.485,148.771 157.577,146.000 156.304 C 141.882 154.413,136.168 153.798,133.000 154.904 M126.608 158.124 C 125.688 158.677,122.800 161.671,122.800 162.071 C 122.800 162.221,122.568 162.581,122.285 162.871 C 119.344 165.889,118.400 174.011,120.411 179.000 C 121.580 181.901,121.827 182.400,122.098 182.400 C 122.264 182.400,122.400 182.591,122.400 182.823 C 122.400 183.890,128.879 189.655,129.443 189.090 C 129.546 188.987,128.719 188.318,127.605 187.603 C 118.222 181.582,117.080 167.965,125.281 159.900 C 126.568 158.635,127.571 157.611,127.510 157.624 C 127.450 157.636,127.044 157.861,126.608 158.124 M154.000 164.900 C 154.002 165.422,155.567 168.836,155.581 168.349 C 155.602 167.623,154.499 164.800,154.195 164.800 C 154.088 164.800,154.000 164.845,154.000 164.900 M155.688 172.600 C 155.686 175.744,155.733 175.990,156.059 174.539 C 156.289 173.515,156.289 172.134,156.061 170.939 C 155.716 169.139,155.689 169.258,155.688 172.600 M154.712 178.591 C 154.348 179.687,154.118 180.651,154.201 180.735 C 154.470 181.003,155.632 177.859,155.501 177.219 C 155.432 176.878,155.077 177.496,154.712 178.591 M152.617 182.846 C 151.272 184.878,149.656 186.487,147.575 187.864 C 145.696 189.108,145.521 189.468,147.224 188.588 C 149.594 187.362,154.540 182.007,153.897 181.364 C 153.798 181.265,153.222 181.932,152.617 182.846 M237.168 182.700 C 236.716 183.298,236.721 183.326,237.204 182.895 C 237.673 182.476,238.251 182.852,240.585 185.095 L 243.400 187.800 240.611 184.900 C 239.077 183.305,237.794 182.000,237.760 182.000 C 237.726 182.000,237.460 182.315,237.168 182.700 M226.391 184.300 C 226.386 184.465,225.801 185.255,225.091 186.056 C 224.381 186.857,223.170 188.292,222.400 189.245 C 221.630 190.198,219.200 193.167,217.000 195.844 C 209.419 205.065,208.998 205.600,209.325 205.600 C 209.419 205.600,210.496 204.385,211.719 202.900 C 215.254 198.605,220.789 191.856,221.317 191.195 C 221.583 190.863,223.020 189.108,224.512 187.295 C 226.003 185.483,227.038 184.000,226.812 184.000 C 226.585 184.000,226.396 184.135,226.391 184.300 M165.759 190.742 C 165.122 191.370,163.610 193.185,162.400 194.776 C 161.190 196.366,159.930 197.989,159.600 198.381 C 159.270 198.773,158.550 199.686,158.000 200.410 C 157.450 201.135,156.190 202.754,155.200 204.009 C 154.210 205.264,152.860 206.985,152.200 207.834 C 151.540 208.683,150.280 210.283,149.400 211.390 C 148.520 212.497,146.990 214.482,146.000 215.801 C 145.010 217.121,144.020 218.396,143.800 218.637 C 143.580 218.877,142.950 219.670,142.400 220.400 C 141.850 221.130,141.214 221.923,140.987 222.163 C 140.760 222.404,140.136 223.230,139.600 224.000 C 139.064 224.770,138.381 225.652,138.081 225.961 C 137.781 226.270,136.837 227.440,135.984 228.561 C 135.132 229.682,133.301 232.049,131.917 233.820 C 130.533 235.591,128.861 237.751,128.202 238.620 C 127.544 239.489,126.905 240.290,126.783 240.400 C 126.661 240.510,126.150 241.230,125.648 242.000 L 124.734 243.400 125.777 242.200 C 126.794 241.029,137.952 226.820,140.059 224.011 C 140.641 223.235,143.386 219.720,146.159 216.200 C 148.931 212.680,153.225 207.210,155.700 204.044 C 167.118 189.440,166.423 190.213,168.251 190.079 C 169.760 189.969,170.027 190.105,171.351 191.651 C 172.148 192.582,172.800 193.167,172.800 192.950 C 172.800 190.253,167.836 188.697,165.759 190.742 M132.400 190.400 C 132.730 190.613,133.450 190.773,134.000 190.754 L 135.000 190.720 134.000 190.400 C 132.458 189.906,131.636 189.906,132.400 190.400 M141.600 190.400 L 140.600 190.720 141.676 190.760 C 142.268 190.782,142.864 190.620,143.000 190.400 C 143.281 189.945,143.020 189.945,141.600 190.400 M136.905 191.087 C 137.514 191.179,138.414 191.177,138.905 191.082 C 139.397 190.987,138.900 190.911,137.800 190.914 C 136.700 190.917,136.297 190.995,136.905 191.087 M182.090 207.389 C 187.187 214.972,191.423 221.110,191.505 221.028 C 191.710 220.823,173.471 193.642,173.112 193.619 C 172.954 193.608,176.994 199.805,182.090 207.389 M254.600 199.200 C 257.233 201.840,259.477 204.000,259.587 204.000 C 259.697 204.000,257.633 201.840,255.000 199.200 C 252.367 196.560,250.123 194.400,250.013 194.400 C 249.903 194.400,251.967 196.560,254.600 199.200 M162.975 205.868 C 162.359 206.676,162.059 207.211,162.309 207.056 C 162.821 206.740,164.553 204.400,164.275 204.400 C 164.176 204.400,163.591 205.061,162.975 205.868 M208.189 206.515 C 207.963 206.782,207.153 207.810,206.389 208.800 C 205.625 209.790,204.899 210.690,204.775 210.800 C 204.651 210.910,203.146 212.710,201.429 214.800 C 199.713 216.890,197.654 219.393,196.854 220.363 C 195.022 222.584,194.300 223.600,194.553 223.600 C 194.662 223.600,198.001 219.640,201.973 214.800 C 205.945 209.960,209.061 206.007,208.898 206.015 C 208.734 206.024,208.415 206.249,208.189 206.515 M269.400 214.000 C 273.355 217.960,276.682 221.200,276.792 221.200 C 276.902 221.200,273.755 217.960,269.800 214.000 C 265.845 210.040,262.518 206.800,262.408 206.800 C 262.298 206.800,265.445 210.040,269.400 214.000 M152.344 219.500 C 151.193 220.889,150.706 221.600,150.904 221.600 C 151.014 221.600,151.586 220.970,152.173 220.200 C 153.263 218.771,153.395 218.232,152.344 219.500 M192.518 222.983 C 193.003 223.744,193.616 224.374,193.881 224.383 C 194.145 224.392,193.920 223.924,193.381 223.342 C 192.841 222.759,192.400 222.129,192.400 221.942 C 192.400 221.754,192.228 221.600,192.018 221.600 C 191.809 221.600,192.034 222.222,192.518 222.983 M200.975 226.900 L 199.800 228.200 201.100 227.025 C 202.312 225.930,202.584 225.600,202.275 225.600 C 202.206 225.600,201.621 226.185,200.975 226.900 M288.324 232.837 L 295.624 240.273 295.512 258.299 C 295.450 268.213,295.532 276.117,295.694 275.862 C 295.856 275.608,295.991 267.490,295.994 257.822 L 296.000 240.243 288.512 232.822 L 281.023 225.400 288.324 232.837 M145.775 227.868 C 145.159 228.676,144.859 229.211,145.109 229.056 C 145.621 228.740,147.353 226.400,147.075 226.400 C 146.976 226.400,146.391 227.061,145.775 227.868 M189.600 231.494 C 189.600 232.155,191.931 234.090,192.468 233.876 C 192.839 233.727,192.799 233.654,192.336 233.632 C 191.970 233.614,191.205 233.046,190.636 232.369 C 190.066 231.692,189.600 231.299,189.600 231.494 M123.789 244.115 C 123.563 244.382,122.939 245.230,122.402 246.000 C 121.866 246.770,121.188 247.645,120.897 247.944 C 119.489 249.394,113.032 258.000,113.352 258.000 C 113.460 258.000,115.478 255.525,117.836 252.500 C 120.194 249.475,122.747 246.235,123.510 245.300 C 124.693 243.849,124.955 242.740,123.789 244.115 M96.564 326.572 C 93.423 328.001,89.089 333.222,90.157 334.290 C 90.280 334.414,90.492 334.174,90.627 333.757 C 91.528 330.980,93.760 328.315,96.000 327.341 C 96.770 327.007,97.713 326.568,98.095 326.366 C 99.026 325.875,300.974 325.875,301.905 326.366 C 302.287 326.568,303.230 327.007,304.000 327.341 C 305.630 328.050,308.011 330.477,308.767 332.200 C 309.057 332.860,309.452 333.713,309.647 334.095 C 309.841 334.478,310.000 347.803,310.000 363.795 L 310.000 392.800 200.003 392.800 L 90.005 392.800 89.899 363.900 L 89.792 335.000 89.796 364.000 L 89.800 393.000 200.000 393.000 L 310.200 393.000 310.303 363.917 L 310.405 334.835 309.415 332.596 C 308.190 329.826,306.150 327.799,303.334 326.554 L 301.177 325.600 199.889 325.623 L 98.600 325.646 96.564 326.572 M137.800 334.778 C 135.287 335.807,135.400 334.662,135.400 359.010 L 135.400 381.136 136.370 382.168 C 137.913 383.811,140.809 383.659,142.180 381.862 L 143.200 380.524 143.200 371.662 L 143.200 362.800 148.381 362.800 C 153.550 362.800,154.163 362.683,157.564 361.053 C 168.847 355.647,166.828 338.202,154.549 335.004 C 152.017 334.344,139.279 334.173,137.800 334.778 M172.503 334.793 C 169.992 335.854,170.003 335.748,170.001 358.440 C 170.000 382.924,170.039 383.153,174.239 383.187 C 178.210 383.219,178.400 382.374,178.400 364.692 C 178.400 350.487,178.431 349.866,179.091 350.811 C 179.471 351.355,180.006 352.070,180.279 352.400 C 180.952 353.214,184.324 357.476,185.800 359.378 C 186.460 360.229,187.450 361.479,188.000 362.157 C 189.217 363.656,189.265 363.717,192.804 368.200 C 194.367 370.180,196.009 372.250,196.452 372.800 C 196.895 373.350,197.740 374.471,198.329 375.291 C 198.918 376.112,199.557 376.787,199.749 376.791 C 199.941 376.796,199.922 376.575,199.708 376.300 C 197.961 374.063,184.631 357.231,184.130 356.629 C 183.776 356.206,182.927 355.126,182.242 354.229 C 179.720 350.929,178.593 349.600,178.318 349.600 C 178.163 349.600,177.983 356.517,177.918 364.971 C 177.780 382.888,177.841 382.600,174.200 382.600 C 170.652 382.600,170.829 383.818,170.789 359.200 C 170.770 347.430,170.765 337.603,170.777 337.361 C 170.946 334.113,175.563 334.219,178.062 337.528 C 178.996 338.766,179.988 340.053,180.267 340.389 C 180.545 340.725,184.835 346.130,189.800 352.400 C 194.765 358.670,199.047 364.074,199.314 364.408 C 199.581 364.742,200.313 365.699,200.940 366.534 C 201.568 367.369,202.167 367.966,202.273 367.860 C 202.436 367.697,201.131 365.945,198.057 362.199 C 197.696 361.758,196.775 360.588,196.010 359.599 C 195.246 358.609,194.526 357.710,194.410 357.600 C 194.295 357.490,193.572 356.590,192.806 355.600 C 192.039 354.610,191.194 353.530,190.930 353.200 C 190.665 352.870,187.825 349.270,184.619 345.200 C 175.643 333.805,175.377 333.578,172.503 334.793 M205.239 334.906 C 202.791 336.164,202.824 335.926,202.707 353.100 C 202.648 361.735,202.735 368.800,202.900 368.800 C 203.065 368.800,203.201 361.825,203.201 353.300 C 203.203 338.554,203.242 337.737,203.996 336.500 C 205.026 334.810,207.711 334.615,209.130 336.126 L 210.000 337.052 210.000 359.056 L 210.000 381.061 209.047 381.956 C 207.134 383.753,204.977 383.071,202.611 379.922 C 201.505 378.449,200.461 377.234,200.291 377.222 C 199.728 377.182,203.781 382.331,204.721 382.849 C 206.140 383.632,208.327 383.408,209.436 382.366 L 210.407 381.454 210.303 358.843 L 210.200 336.232 208.841 335.316 C 207.301 334.278,206.612 334.200,205.239 334.906 M156.400 336.069 C 165.340 340.140,167.410 352.038,160.326 358.634 C 157.188 361.556,155.520 362.087,148.600 362.371 L 143.000 362.600 142.781 371.800 C 142.661 376.860,142.526 381.038,142.481 381.084 C 140.007 383.662,136.520 383.247,135.791 380.289 C 135.115 377.548,135.806 336.877,136.542 336.064 C 138.081 334.363,152.662 334.367,156.400 336.069 M236.400 335.432 C 226.950 337.115,217.542 345.951,216.632 354.000 L 216.429 355.800 216.939 354.000 C 221.307 338.586,236.853 331.406,251.072 338.237 C 254.430 339.849,258.400 343.370,258.400 344.735 C 258.400 347.917,254.887 349.580,252.400 347.577 C 244.139 340.921,235.108 340.979,228.358 347.729 C 225.690 350.397,222.015 357.827,223.957 356.626 C 224.201 356.476,224.400 355.911,224.400 355.371 C 224.400 354.831,224.559 354.077,224.753 353.695 C 224.948 353.313,225.352 352.460,225.652 351.800 C 226.463 350.014,230.743 345.909,232.800 344.945 C 236.209 343.347,236.849 343.200,240.400 343.200 C 242.359 343.200,244.466 343.403,245.081 343.651 C 247.820 344.753,249.645 345.790,251.400 347.240 C 254.723 349.987,258.800 348.779,258.800 345.048 C 258.800 342.329,253.911 338.481,247.572 336.211 C 245.832 335.588,238.425 335.072,236.400 335.432 M142.839 342.154 C 142.524 342.532,142.414 344.713,142.490 349.054 L 142.600 355.400 147.222 355.512 C 152.427 355.638,154.016 355.213,155.964 353.175 C 157.066 352.021,157.868 350.135,157.439 349.706 C 157.329 349.596,157.112 350.009,156.958 350.625 C 156.138 353.892,153.449 355.200,147.551 355.200 L 143.200 355.200 143.200 348.800 L 143.200 342.400 148.300 342.353 C 154.183 342.298,153.243 341.722,147.149 341.647 C 144.311 341.612,143.177 341.746,142.839 342.154 M153.600 342.800 C 153.600 343.020,153.861 343.200,154.180 343.200 C 154.976 343.200,156.551 345.446,157.196 347.502 C 157.489 348.438,157.809 349.125,157.905 349.028 C 158.404 348.529,156.611 344.717,155.360 343.619 C 153.863 342.304,153.600 342.182,153.600 342.800 M243.331 355.865 C 240.423 356.475,239.452 360.190,241.631 362.369 L 242.862 363.600 249.593 363.600 L 256.325 363.600 256.128 364.500 C 255.145 368.997,248.326 375.579,244.621 375.606 C 244.170 375.609,243.530 375.796,243.200 376.021 C 241.893 376.911,245.834 375.845,248.059 374.706 C 252.049 372.664,255.764 368.204,256.584 364.473 L 256.864 363.200 250.001 363.200 L 243.138 363.200 241.969 362.031 C 240.530 360.591,240.429 358.863,241.700 357.432 L 242.600 356.419 252.569 356.350 L 262.538 356.280 263.514 357.415 C 264.429 358.479,264.473 358.742,264.220 361.645 C 263.400 371.049,256.492 379.874,248.000 382.365 C 247.010 382.656,245.678 383.052,245.040 383.247 C 242.485 384.025,235.398 383.547,232.600 382.407 C 229.225 381.033,226.467 379.412,224.063 377.389 C 221.366 375.119,218.008 369.478,216.957 365.449 L 216.422 363.400 216.629 365.200 C 218.443 380.985,241.364 389.573,254.599 379.426 C 262.924 373.043,267.828 360.080,263.331 356.342 C 262.689 355.809,245.550 355.400,243.331 355.865 M216.142 359.800 C 216.141 361.780,216.208 362.640,216.292 361.712 C 216.376 360.784,216.377 359.164,216.295 358.112 C 216.212 357.060,216.143 357.820,216.142 359.800 M223.320 359.600 C 223.320 360.810,223.395 361.305,223.487 360.700 C 223.578 360.095,223.578 359.105,223.487 358.500 C 223.395 357.895,223.320 358.390,223.320 359.600 M223.822 363.600 C 224.525 367.245,228.202 372.281,231.504 374.123 C 233.337 375.145,233.113 374.713,231.129 373.401 C 228.460 371.634,225.200 367.704,225.200 366.252 C 225.200 365.919,225.020 365.536,224.800 365.400 C 224.580 365.264,224.397 364.758,224.394 364.276 C 224.391 363.794,224.200 363.130,223.970 362.800 C 223.662 362.358,223.623 362.569,223.822 363.600 M234.000 375.363 C 235.259 376.032,238.480 376.621,237.600 376.021 C 237.270 375.796,236.516 375.609,235.924 375.606 C 235.332 375.603,234.736 375.420,234.600 375.200 C 234.464 374.980,234.048 374.807,233.676 374.816 C 233.193 374.827,233.285 374.984,234.000 375.363 M239.300 376.687 C 239.905 376.778,240.895 376.778,241.500 376.687 C 242.105 376.595,241.610 376.520,240.400 376.520 C 239.190 376.520,238.695 376.595,239.300 376.687 " stroke="none" fill="#5f89a5" fill-rule="evenodd"></path><path id="path5" d="M149.700 318.700 C 177.365 318.757,222.635 318.757,250.300 318.700 C 277.965 318.643,255.330 318.597,200.000 318.597 C 144.670 318.597,122.035 318.643,149.700 318.700 M317.390 364.400 C 317.390 380.130,317.439 386.565,317.500 378.700 C 317.560 370.835,317.560 357.965,317.500 350.100 C 317.439 342.235,317.390 348.670,317.390 364.400 " stroke="none" fill="#a48559" fill-rule="evenodd"></path><path id="path6" d="M53.385 7.299 C 53.281 7.575,53.241 94.470,53.298 200.400 L 53.400 393.000 68.000 393.007 L 82.600 393.015 68.100 392.902 L 53.600 392.790 53.600 199.995 L 53.600 7.200 154.598 7.200 L 255.596 7.200 255.701 45.300 L 255.806 83.400 255.803 45.200 L 255.800 7.000 154.688 6.899 C 74.008 6.819,53.537 6.900,53.385 7.299 M262.406 48.500 C 262.409 68.355,262.544 84.808,262.706 85.062 C 262.868 85.316,262.952 69.161,262.894 49.162 C 262.835 29.163,262.922 12.800,263.087 12.800 C 263.252 12.800,265.364 14.735,267.781 17.100 C 270.198 19.465,271.731 20.885,271.188 20.256 C 268.885 17.587,263.439 12.400,262.941 12.400 C 262.490 12.400,262.401 18.432,262.406 48.500 M283.394 32.713 C 286.030 35.401,288.257 37.600,288.343 37.600 C 288.705 37.600,282.073 30.822,279.744 28.813 C 279.115 28.269,280.757 30.024,283.394 32.713 M301.395 50.726 C 304.472 53.847,307.074 56.400,307.178 56.400 C 307.492 56.400,297.672 46.448,296.486 45.563 C 296.109 45.282,298.318 47.605,301.395 50.726 M317.795 67.126 C 320.872 70.247,323.474 72.800,323.578 72.800 C 323.896 72.800,314.017 62.795,312.840 61.925 C 312.488 61.665,314.718 64.005,317.795 67.126 M334.595 83.913 C 337.892 87.261,340.675 90.000,340.778 90.000 C 341.080 90.000,331.763 80.554,329.744 78.813 C 329.115 78.270,331.298 80.565,334.595 83.913 M256.093 85.200 C 256.093 85.970,256.175 86.285,256.276 85.900 C 256.376 85.515,256.376 84.885,256.276 84.500 C 256.175 84.115,256.093 84.430,256.093 85.200 M263.201 86.246 C 263.199 87.128,265.735 89.958,266.554 89.987 C 266.749 89.994,266.413 89.611,265.809 89.135 C 265.204 88.660,264.371 87.715,263.956 87.035 C 263.542 86.356,263.202 86.001,263.201 86.246 M257.871 90.703 C 258.259 91.420,259.385 92.770,260.374 93.703 L 262.171 95.400 260.384 93.400 C 259.402 92.300,258.275 90.950,257.881 90.400 C 257.190 89.434,257.189 89.444,257.871 90.703 M267.541 90.501 C 267.743 90.703,268.333 90.801,268.854 90.719 C 269.655 90.593,269.598 90.537,268.487 90.352 C 267.693 90.221,267.319 90.279,267.541 90.501 M346.301 245.215 L 346.402 392.790 331.701 392.903 L 317.000 393.015 331.800 393.008 L 346.600 393.000 346.701 245.621 C 346.756 164.562,346.666 98.106,346.501 97.941 C 346.335 97.775,346.245 164.049,346.301 245.215 M149.900 131.900 C 177.455 131.957,222.545 131.957,250.100 131.900 C 277.655 131.843,255.110 131.797,200.000 131.797 C 144.890 131.797,122.345 131.843,149.900 131.900 M98.198 132.802 C 97.175 133.932,97.610 134.037,98.686 132.920 C 99.173 132.414,99.426 132.000,99.248 132.000 C 99.070 132.000,98.597 132.361,98.198 132.802 M301.314 132.920 C 301.801 133.426,302.274 133.787,302.364 133.723 C 302.598 133.555,301.142 132.000,300.752 132.000 C 300.574 132.000,300.827 132.414,301.314 132.920 M302.596 207.400 C 302.596 247.440,302.643 263.761,302.700 243.668 C 302.757 223.576,302.757 190.816,302.700 170.868 C 302.643 150.921,302.596 167.360,302.596 207.400 M97.396 208.000 C 97.396 247.930,97.443 264.265,97.500 244.300 C 97.557 224.335,97.557 191.665,97.500 171.700 C 97.443 151.735,97.396 168.070,97.396 208.000 M134.000 162.018 C 133.562 162.315,133.724 162.352,134.600 162.156 C 136.071 161.827,136.390 161.598,135.367 161.606 C 134.945 161.609,134.330 161.795,134.000 162.018 M142.433 162.516 C 142.525 162.580,143.320 163.133,144.200 163.745 L 145.800 164.858 144.415 163.629 C 143.653 162.953,142.858 162.400,142.648 162.400 C 142.438 162.400,142.342 162.452,142.433 162.516 M146.837 166.400 C 147.996 168.196,148.000 168.201,147.998 167.767 C 147.997 167.565,147.532 166.860,146.965 166.200 L 145.934 165.000 146.837 166.400 M126.643 169.833 C 126.303 170.719,126.351 175.303,126.706 175.862 C 126.868 176.116,127.000 174.721,127.000 172.762 C 127.000 168.900,127.000 168.901,126.643 169.833 M148.594 172.532 C 148.597 174.421,148.722 175.658,148.872 175.283 C 149.215 174.420,149.205 171.301,148.854 170.049 C 148.707 169.526,148.590 170.643,148.594 172.532 M147.600 177.877 C 147.600 178.103,146.843 179.168,145.919 180.244 C 144.994 181.320,144.742 181.750,145.358 181.200 C 146.815 179.900,148.153 178.020,147.844 177.710 C 147.710 177.576,147.600 177.651,147.600 177.877 M127.964 178.733 C 128.180 179.136,128.671 179.721,129.055 180.033 C 129.487 180.384,129.390 180.104,128.801 179.300 C 127.751 177.865,127.357 177.598,127.964 178.733 M266.600 210.800 C 282.439 226.640,295.488 239.600,295.598 239.600 C 295.708 239.600,282.839 226.640,267.000 210.800 C 251.161 194.960,238.112 182.000,238.002 182.000 C 237.892 182.000,250.761 194.960,266.600 210.800 M136.359 184.101 C 137.128 184.301,138.338 184.303,139.157 184.106 C 140.408 183.806,140.228 183.759,137.802 183.755 C 135.438 183.751,135.214 183.805,136.359 184.101 M124.800 185.400 C 125.546 186.170,126.247 186.800,126.357 186.800 C 126.467 186.800,125.946 186.170,125.200 185.400 C 124.454 184.630,123.753 184.000,123.643 184.000 C 123.533 184.000,124.054 184.630,124.800 185.400 M136.311 190.693 C 137.251 190.778,138.691 190.777,139.511 190.691 C 140.330 190.605,139.560 190.536,137.800 190.537 C 136.040 190.539,135.370 190.609,136.311 190.693 M228.034 193.353 L 227.069 194.600 228.213 193.512 C 228.843 192.914,229.277 192.353,229.179 192.265 C 229.080 192.177,228.565 192.667,228.034 193.353 M221.561 201.300 C 220.619 202.455,219.584 203.715,219.262 204.100 C 218.940 204.485,218.774 204.800,218.893 204.800 C 219.012 204.800,220.128 203.540,221.372 202.000 C 222.616 200.460,223.553 199.200,223.454 199.200 C 223.355 199.200,222.503 200.145,221.561 201.300 M213.601 210.998 C 213.086 211.548,212.739 212.064,212.832 212.146 C 212.924 212.228,213.419 211.778,213.930 211.147 C 215.076 209.735,214.874 209.644,213.601 210.998 M158.186 211.378 C 157.974 211.675,157.383 212.476,156.873 213.159 C 156.363 213.841,156.018 214.400,156.106 214.400 C 156.389 214.400,158.886 211.153,158.726 210.993 C 158.641 210.908,158.398 211.081,158.186 211.378 M179.055 215.200 C 180.080 216.740,180.992 218.000,181.082 218.000 C 181.295 218.000,180.998 217.501,179.115 214.700 C 178.266 213.435,177.485 212.400,177.382 212.400 C 177.278 212.400,178.031 213.660,179.055 215.200 M182.185 219.900 C 182.802 220.835,183.383 221.600,183.476 221.600 C 183.764 221.600,182.233 219.166,181.632 218.669 C 181.320 218.411,181.568 218.965,182.185 219.900 M149.144 223.100 C 147.993 224.489,147.506 225.200,147.704 225.200 C 147.814 225.200,148.386 224.570,148.973 223.800 C 150.063 222.371,150.195 221.832,149.144 223.100 M190.888 232.613 C 191.486 233.243,192.047 233.677,192.135 233.579 C 192.223 233.480,191.733 232.965,191.047 232.434 L 189.800 231.469 190.888 232.613 M136.975 238.668 C 136.359 239.476,136.059 240.011,136.309 239.856 C 136.821 239.540,138.553 237.200,138.275 237.200 C 138.176 237.200,137.591 237.861,136.975 238.668 M110.744 272.300 C 109.593 273.689,109.106 274.400,109.304 274.400 C 109.414 274.400,109.986 273.770,110.573 273.000 C 111.663 271.571,111.795 271.032,110.744 272.300 M108.262 276.500 C 108.504 276.892,295.496 276.892,295.738 276.500 C 295.840 276.335,253.658 276.200,202.000 276.200 C 150.342 276.200,108.160 276.335,108.262 276.500 M96.200 319.200 C 95.696 319.417,95.622 319.544,96.000 319.544 C 96.330 319.544,96.960 319.389,97.400 319.200 C 97.904 318.983,97.978 318.856,97.600 318.856 C 97.270 318.856,96.640 319.011,96.200 319.200 M302.600 319.200 C 303.040 319.389,303.670 319.544,304.000 319.544 C 304.378 319.544,304.304 319.417,303.800 319.200 C 303.360 319.011,302.730 318.856,302.400 318.856 C 302.022 318.856,302.096 318.983,302.600 319.200 M142.120 335.098 C 144.055 335.172,147.115 335.171,148.920 335.097 C 150.724 335.023,149.140 334.963,145.400 334.964 C 141.660 334.964,140.184 335.025,142.120 335.098 M135.774 347.600 C 135.774 353.210,135.830 355.505,135.899 352.700 C 135.968 349.895,135.968 345.305,135.899 342.500 C 135.830 339.695,135.774 341.990,135.774 347.600 M170.493 338.800 C 170.493 339.570,170.575 339.885,170.676 339.500 C 170.776 339.115,170.776 338.485,170.676 338.100 C 170.575 337.715,170.493 338.030,170.493 338.800 M164.514 348.600 C 164.517 349.700,164.595 350.103,164.687 349.495 C 164.779 348.886,164.777 347.986,164.682 347.495 C 164.587 347.003,164.511 347.500,164.514 348.600 M177.695 364.300 L 177.790 379.400 177.900 364.621 C 177.983 353.412,178.130 349.765,178.505 349.527 C 178.854 349.305,178.794 349.210,178.300 349.206 C 177.644 349.200,177.606 350.148,177.695 364.300 M135.774 370.400 C 135.774 376.010,135.830 378.305,135.899 375.500 C 135.968 372.695,135.968 368.105,135.899 365.300 C 135.830 362.495,135.774 364.790,135.774 370.400 " stroke="none" fill="#846c44" fill-rule="evenodd"></path><path id="path7" d="M287.330 90.700 C 297.192 90.760,313.212 90.759,322.930 90.700 C 332.649 90.640,324.580 90.591,305.000 90.592 C 285.420 90.592,277.469 90.640,287.330 90.700 M288.130 97.900 C 298.872 97.959,316.332 97.959,326.930 97.900 C 337.529 97.841,328.740 97.792,307.400 97.792 C 286.060 97.792,277.389 97.841,288.130 97.900 M150.900 283.500 C 178.125 283.557,222.675 283.557,249.900 283.500 C 277.125 283.443,254.850 283.397,200.400 283.397 C 145.950 283.397,123.675 283.443,150.900 283.500 " stroke="none" fill="#94744c" fill-rule="evenodd"></path><path id="path8" d="M53.798 200.000 C 53.798 306.150,53.844 349.575,53.900 296.500 C 53.956 243.425,53.956 156.575,53.900 103.500 C 53.844 50.425,53.798 93.850,53.798 200.000 M262.828 48.500 C 262.844 68.135,262.979 84.509,263.128 84.886 C 263.278 85.263,263.351 69.378,263.292 49.586 C 263.232 29.794,263.322 13.600,263.491 13.600 C 263.660 13.600,281.169 30.925,302.399 52.100 L 341.000 90.600 302.201 51.700 C 280.861 30.305,263.266 12.800,263.101 12.800 C 262.935 12.800,262.813 28.865,262.828 48.500 M346.198 245.400 C 346.198 326.580,346.244 359.730,346.300 319.067 C 346.356 278.405,346.356 211.985,346.300 171.467 C 346.244 130.950,346.198 164.220,346.198 245.400 M149.900 131.500 C 177.455 131.557,222.545 131.557,250.100 131.500 C 277.655 131.443,255.110 131.397,200.000 131.397 C 144.890 131.397,122.345 131.443,149.900 131.500 M96.996 207.800 C 96.996 247.840,97.043 264.161,97.100 244.068 C 97.157 223.976,97.157 191.216,97.100 171.268 C 97.043 151.321,96.996 167.760,96.996 207.800 M302.996 207.600 C 302.996 247.530,303.043 263.865,303.100 243.900 C 303.157 223.935,303.157 191.265,303.100 171.300 C 303.043 151.335,302.996 167.670,302.996 207.600 M317.293 334.800 C 317.293 335.570,317.375 335.885,317.476 335.500 C 317.576 335.115,317.576 334.485,317.476 334.100 C 317.375 333.715,317.293 334.030,317.293 334.800 M82.590 363.600 C 82.590 379.770,82.639 386.385,82.700 378.300 C 82.760 370.215,82.760 356.985,82.700 348.900 C 82.639 340.815,82.590 347.430,82.590 363.600 " stroke="none" fill="#b4945c" fill-rule="evenodd"></path></g></svg>