<svg id="svg" version="1.1" xmlns="http://www.w3.org/2000/svg" xmlns:xlink="http://www.w3.org/1999/xlink" width="400" height="400" viewBox="0, 0, 400,400"><g id="svgg"><path id="path0" d="M106.605 63.419 C 84.446 69.019,81.025 99.307,101.378 109.691 C 117.749 118.043,137.000 106.104,137.000 87.600 C 137.000 71.266,122.187 59.482,106.605 63.419 M38.800 231.300 C 38.800 231.465,38.440 231.600,38.000 231.600 C 37.560 231.600,37.200 231.780,37.200 232.000 C 37.200 232.220,36.944 232.400,36.632 232.400 C 35.892 232.400,32.400 235.892,32.400 236.632 C 32.400 236.944,32.220 237.200,32.000 237.200 C 31.780 237.200,31.600 237.560,31.600 238.000 C 31.600 238.440,31.420 238.800,31.200 238.800 C 30.380 238.800,30.678 356.946,31.500 357.713 C 32.339 358.497,40.877 366.997,45.513 371.664 C 50.769 376.956,55.572 381.600,55.789 381.600 C 55.899 381.600,56.036 375.885,56.094 368.900 L 56.200 356.200 199.779 356.099 C 295.232 356.033,343.493 356.133,343.759 356.399 C 345.016 357.656,361.635 356.713,363.129 355.300 C 363.419 355.025,363.796 354.800,363.965 354.800 C 364.519 354.800,367.600 351.553,367.600 350.969 C 367.600 350.656,367.780 350.400,368.000 350.400 C 368.220 350.400,368.400 350.051,368.400 349.624 C 368.400 349.197,368.580 348.736,368.800 348.600 C 369.353 348.258,369.353 239.342,368.800 239.000 C 368.580 238.864,368.400 238.403,368.400 237.976 C 368.400 237.549,368.220 237.200,368.000 237.200 C 367.780 237.200,367.600 236.944,367.600 236.632 C 367.600 235.892,364.108 232.400,363.368 232.400 C 363.056 232.400,362.800 232.220,362.800 232.000 C 362.800 231.780,362.470 231.600,362.067 231.600 C 361.663 231.600,361.234 231.501,361.113 231.379 C 360.772 231.039,38.800 230.960,38.800 231.300 M229.142 251.105 C 230.700 252.266,231.594 254.140,231.614 256.287 C 231.647 259.832,206.397 334.004,204.512 335.900 C 201.861 338.565,197.085 338.126,195.058 335.032 C 194.251 333.801,168.800 257.411,168.800 256.222 C 168.800 252.990,171.833 250.000,175.111 250.000 C 179.572 250.000,180.433 251.088,183.593 260.712 C 184.945 264.831,186.201 268.560,186.385 269.000 C 186.811 270.020,187.369 271.719,188.026 274.000 C 188.311 274.990,188.664 275.980,188.810 276.200 C 188.956 276.420,189.310 277.500,189.597 278.600 C 189.883 279.700,190.271 280.771,190.459 280.980 C 190.647 281.189,190.800 281.686,190.800 282.085 C 190.800 282.484,190.958 283.123,191.151 283.505 C 191.344 283.887,191.716 284.920,191.977 285.800 C 192.239 286.680,192.609 287.760,192.799 288.200 C 192.989 288.640,194.728 293.810,196.663 299.689 C 198.598 305.568,200.299 310.248,200.442 310.089 C 200.585 309.930,202.459 304.400,204.606 297.800 C 209.194 283.698,216.880 260.283,218.328 256.000 C 220.319 250.108,224.977 248.000,229.142 251.105 M153.337 250.869 C 156.895 253.202,157.470 258.221,154.488 260.920 C 152.486 262.732,151.744 262.800,133.885 262.800 C 114.724 262.800,114.203 262.864,111.084 265.610 C 104.165 271.700,105.110 281.197,113.100 285.880 L 114.995 286.990 125.444 287.267 C 143.185 287.738,150.348 291.912,155.188 304.600 C 159.330 315.458,153.566 329.452,142.720 334.869 C 137.349 337.552,136.888 337.600,116.440 337.600 L 98.118 337.600 96.769 336.690 C 92.227 333.630,92.583 328.045,97.495 325.300 C 98.172 324.921,102.611 324.800,115.780 324.800 C 136.093 324.800,136.137 324.793,139.848 321.011 C 144.830 315.935,144.743 308.435,139.648 303.664 C 136.301 300.531,133.973 300.012,123.200 300.000 C 110.880 299.986,107.053 298.708,101.000 292.582 C 92.949 284.434,91.100 271.083,96.866 262.738 C 97.270 262.154,97.600 261.488,97.600 261.257 C 97.600 259.132,106.418 252.539,111.364 250.967 C 115.738 249.576,151.238 249.493,153.337 250.869 M294.492 251.259 C 303.984 254.920,310.040 268.537,304.338 273.400 C 300.051 277.057,293.600 274.389,293.600 268.960 C 293.600 267.242,292.372 264.918,290.873 263.800 C 289.127 262.498,261.908 262.351,259.630 263.631 C 256.260 265.525,256.400 264.221,256.400 293.800 C 256.400 328.308,254.295 324.800,275.000 324.800 C 293.969 324.800,293.600 325.029,293.600 313.246 L 293.600 306.400 283.446 306.400 C 272.787 306.400,272.082 306.298,270.422 304.515 C 267.494 301.373,268.236 296.751,272.042 294.431 C 273.712 293.413,300.751 293.119,302.505 294.100 C 306.337 296.242,306.400 296.499,306.400 310.114 C 306.400 327.811,303.835 333.024,293.288 336.769 C 289.622 338.070,260.315 338.047,256.627 336.740 C 251.734 335.006,245.200 329.103,245.200 326.417 C 245.200 326.181,245.038 325.677,244.839 325.295 C 243.636 322.980,243.567 321.037,243.695 293.200 C 243.781 274.466,243.971 264.514,244.259 263.551 C 245.949 257.906,250.390 253.199,256.097 251.002 C 258.591 250.043,258.661 250.039,274.913 250.020 L 291.226 250.000 294.492 251.259 " stroke="none" fill="#fbac04" fill-rule="evenodd"></path><path id="path1" d="M277.400 108.557 C 272.129 109.732,272.781 109.155,241.400 140.410 C 214.477 167.225,210.440 171.029,207.600 172.257 C 202.090 174.639,194.538 173.980,189.600 170.687 C 188.610 170.027,182.400 164.141,175.800 157.608 C 160.517 142.480,157.833 141.017,149.000 142.992 C 146.934 143.454,143.586 145.020,142.141 146.200 C 141.872 146.420,122.641 165.590,99.406 188.800 L 57.160 231.000 200.080 231.102 C 278.686 231.159,343.225 231.119,343.500 231.015 C 343.895 230.865,344.000 223.615,344.000 196.613 C 344.000 169.511,343.896 162.399,343.500 162.396 C 343.225 162.393,332.200 151.582,319.000 138.369 C 294.010 113.357,292.338 111.723,290.884 110.900 C 286.100 108.193,282.126 107.502,277.400 108.557 " stroke="none" fill="#04bcbc" fill-rule="evenodd"></path><path id="path2" d="M62.900 0.282 C 62.405 0.378,62.000 0.623,62.000 0.828 C 62.000 1.033,61.821 1.200,61.603 1.200 C 60.947 1.200,59.200 2.900,59.200 3.539 C 59.200 3.866,59.089 4.022,58.952 3.886 C 58.603 3.536,57.600 4.621,57.600 5.348 C 57.600 5.681,57.420 6.064,57.200 6.200 C 56.980 6.336,56.797 6.932,56.794 7.524 C 56.789 8.366,56.703 8.469,56.400 8.000 C 56.149 7.612,56.010 46.696,56.006 118.700 C 56.003 179.915,56.153 230.000,56.340 230.000 C 56.527 230.000,75.742 210.925,99.040 187.612 C 122.338 164.299,141.895 145.017,142.500 144.764 C 143.105 144.510,143.600 144.145,143.600 143.951 C 143.600 143.758,143.949 143.600,144.376 143.600 C 144.803 143.600,145.264 143.420,145.400 143.200 C 145.536 142.980,146.087 142.800,146.624 142.800 C 147.161 142.800,147.600 142.620,147.600 142.400 C 147.600 142.153,149.659 142.000,152.976 142.000 C 156.129 142.000,158.455 142.165,158.600 142.400 C 158.736 142.620,159.152 142.797,159.524 142.794 C 161.739 142.773,164.780 145.171,173.226 153.596 C 186.021 166.359,189.659 169.783,191.100 170.421 C 191.815 170.737,192.400 171.131,192.400 171.298 C 192.400 171.464,192.839 171.600,193.376 171.600 C 193.913 171.600,194.464 171.780,194.600 172.000 C 194.736 172.220,195.546 172.400,196.400 172.400 C 197.254 172.400,198.064 172.580,198.200 172.800 C 198.336 173.020,199.146 173.200,200.000 173.200 C 200.854 173.200,201.664 173.020,201.800 172.800 C 201.936 172.580,202.746 172.400,203.600 172.400 C 204.454 172.400,205.264 172.220,205.400 172.000 C 205.536 171.780,206.087 171.600,206.624 171.600 C 207.161 171.600,207.600 171.420,207.600 171.200 C 207.600 170.980,207.960 170.800,208.400 170.800 C 208.840 170.800,209.200 170.659,209.200 170.486 C 209.200 170.314,209.724 169.863,210.365 169.484 C 211.006 169.106,224.371 155.964,240.065 140.281 C 255.759 124.598,269.140 111.390,269.800 110.930 C 271.904 109.463,274.001 108.400,274.789 108.400 C 275.209 108.400,275.664 108.220,275.800 108.000 C 276.132 107.463,286.800 107.463,286.800 108.000 C 286.800 108.220,287.149 108.400,287.575 108.400 C 289.965 108.400,294.328 111.888,302.547 120.370 C 304.556 122.443,308.249 126.133,310.754 128.570 C 313.258 131.006,316.948 134.693,318.954 136.761 C 323.645 141.601,327.352 145.305,332.039 149.837 C 334.107 151.838,337.540 155.303,339.666 157.537 C 341.793 159.772,343.638 161.600,343.766 161.600 C 343.895 161.600,344.000 142.160,344.000 118.400 L 344.000 75.200 306.200 75.200 L 268.400 75.200 268.400 37.600 L 268.400 0.000 166.100 0.054 C 109.835 0.084,63.395 0.187,62.900 0.282 M256.400 18.803 L 256.400 25.206 231.300 25.103 L 206.200 25.000 206.089 19.218 C 206.027 16.039,206.067 13.204,206.176 12.918 C 206.336 12.502,211.273 12.400,231.387 12.400 L 256.400 12.400 256.400 18.803 M92.555 19.581 C 104.970 24.903,101.010 44.000,87.490 44.000 C 85.340 44.000,84.754 43.849,81.644 42.499 C 79.827 41.709,77.049 38.874,76.212 36.956 C 75.838 36.100,75.368 35.087,75.166 34.705 C 73.591 31.719,75.707 24.834,79.175 21.662 C 82.279 18.823,88.522 17.852,92.555 19.581 M256.310 43.700 L 256.420 50.000 225.010 50.000 L 193.600 50.000 193.600 43.867 C 193.600 40.493,193.721 37.612,193.869 37.464 C 194.017 37.316,208.102 37.241,225.169 37.298 L 256.200 37.400 256.310 43.700 M120.754 63.411 C 139.141 70.043,143.982 92.650,129.893 106.090 C 128.573 107.350,127.157 108.487,126.746 108.617 C 126.336 108.747,126.000 109.022,126.000 109.227 C 126.000 109.432,125.640 109.600,125.200 109.600 C 124.760 109.600,124.400 109.780,124.400 110.000 C 124.400 110.220,124.040 110.400,123.600 110.400 C 123.160 110.400,122.800 110.580,122.800 110.800 C 122.800 111.020,122.451 111.200,122.024 111.200 C 121.597 111.200,121.136 111.380,121.000 111.600 C 120.864 111.820,120.234 112.000,119.600 112.000 C 118.966 112.000,118.336 112.180,118.200 112.400 C 118.055 112.634,115.737 112.800,112.600 112.800 C 109.463 112.800,107.145 112.634,107.000 112.400 C 106.864 112.180,106.311 112.000,105.771 112.000 C 105.231 112.000,104.477 111.840,104.095 111.644 C 103.713 111.448,102.500 110.863,101.400 110.344 C 100.300 109.825,99.340 109.265,99.267 109.100 C 99.193 108.935,98.876 108.800,98.561 108.800 C 97.742 108.800,91.438 102.386,90.767 100.870 C 90.458 100.172,90.069 99.600,89.902 99.600 C 89.736 99.600,89.600 99.328,89.600 98.995 C 89.600 98.662,89.420 98.032,89.200 97.595 C 88.980 97.158,88.620 96.442,88.400 96.005 C 88.180 95.568,88.000 94.794,88.000 94.285 C 88.000 93.776,87.810 93.170,87.577 92.937 C 86.763 92.123,87.545 79.528,88.444 78.973 C 88.640 78.852,88.800 78.403,88.800 77.976 C 88.800 77.549,88.980 77.200,89.200 77.200 C 89.420 77.200,89.600 76.840,89.600 76.400 C 89.600 75.960,89.780 75.600,90.000 75.600 C 90.220 75.600,90.400 75.407,90.400 75.172 C 90.400 73.533,95.787 67.800,99.330 65.669 C 105.100 62.197,114.610 61.194,120.754 63.411 M114.200 251.010 C 103.815 253.235,96.674 260.407,94.695 270.600 C 94.043 273.963,94.379 280.875,95.239 281.780 C 95.437 281.989,95.600 282.466,95.600 282.839 C 95.600 284.912,99.928 291.246,103.122 293.848 C 108.731 298.416,111.826 299.239,124.600 299.554 C 134.518 299.798,134.619 299.809,136.886 300.922 C 139.143 302.031,142.400 305.181,142.400 306.256 C 142.400 306.555,142.580 306.800,142.800 306.800 C 143.020 306.800,143.200 307.149,143.200 307.576 C 143.200 308.003,143.380 308.464,143.600 308.600 C 144.575 309.202,143.733 318.400,142.703 318.400 C 142.536 318.400,142.400 318.670,142.400 319.000 C 142.400 319.330,142.220 319.600,142.000 319.600 C 141.780 319.600,141.600 319.807,141.600 320.061 C 141.600 320.645,138.524 323.421,137.200 324.032 C 136.650 324.286,135.887 324.652,135.505 324.847 C 135.123 325.041,126.809 325.200,117.029 325.200 C 105.606 325.200,99.159 325.343,99.000 325.600 C 98.864 325.820,98.417 326.000,98.007 326.000 C 96.064 326.000,93.311 330.805,94.325 332.428 C 94.586 332.847,94.800 333.370,94.800 333.590 C 94.800 334.330,96.187 335.654,97.775 336.430 C 99.630 337.337,130.271 337.619,134.469 336.768 C 143.327 334.972,148.946 331.158,152.701 324.393 C 154.588 320.993,156.329 313.666,155.846 311.156 C 155.703 310.410,155.476 308.941,155.341 307.892 C 155.207 306.842,154.940 305.886,154.748 305.768 C 154.557 305.650,154.400 305.222,154.400 304.817 C 154.400 302.162,148.330 294.050,144.884 292.100 C 144.398 291.825,143.595 291.375,143.100 291.100 C 142.605 290.825,142.110 290.507,142.000 290.393 C 140.617 288.964,135.920 288.271,125.721 287.992 C 115.330 287.708,115.225 287.697,113.121 286.607 C 110.925 285.468,107.600 282.299,107.600 281.344 C 107.600 281.045,107.464 280.800,107.297 280.800 C 106.717 280.800,106.000 277.594,106.000 275.000 C 106.000 272.406,106.717 269.200,107.297 269.200 C 107.464 269.200,107.600 268.937,107.600 268.616 C 107.600 267.663,111.251 264.248,113.296 263.289 C 115.162 262.414,115.455 262.400,132.496 262.394 C 151.113 262.387,151.955 262.306,154.017 260.301 C 155.419 258.939,156.309 256.186,155.675 255.172 C 155.414 254.753,155.200 254.172,155.200 253.880 C 155.200 253.193,153.313 251.484,151.881 250.875 C 150.253 250.184,117.511 250.300,114.200 251.010 M172.835 251.119 C 169.159 252.953,168.948 255.543,171.772 264.200 C 172.848 267.500,173.880 270.371,174.064 270.580 C 174.249 270.789,174.400 271.363,174.400 271.856 C 174.400 272.349,174.580 272.864,174.800 273.000 C 175.020 273.136,175.200 273.777,175.200 274.424 C 175.200 275.071,175.380 275.600,175.600 275.600 C 175.820 275.600,176.000 276.039,176.000 276.576 C 176.000 277.113,176.180 277.664,176.400 277.800 C 176.620 277.936,176.800 278.476,176.800 279.000 C 176.800 279.524,176.980 280.064,177.200 280.200 C 177.420 280.336,177.600 280.876,177.600 281.400 C 177.600 281.924,177.780 282.464,178.000 282.600 C 178.220 282.736,178.400 283.276,178.400 283.800 C 178.400 284.324,178.580 284.864,178.800 285.000 C 179.020 285.136,179.200 285.676,179.200 286.200 C 179.200 286.724,179.380 287.264,179.600 287.400 C 179.820 287.536,180.000 288.076,180.000 288.600 C 180.000 289.124,180.180 289.664,180.400 289.800 C 180.620 289.936,180.800 290.476,180.800 291.000 C 180.800 291.524,180.980 292.064,181.200 292.200 C 181.420 292.336,181.600 292.799,181.600 293.229 C 181.600 293.659,181.775 294.323,181.989 294.705 C 182.375 295.396,183.445 298.599,187.766 312.000 C 189.007 315.850,190.198 319.313,190.412 319.695 C 190.625 320.077,190.800 320.741,190.800 321.171 C 190.800 321.601,190.980 322.064,191.200 322.200 C 191.420 322.336,191.600 322.977,191.600 323.624 C 191.600 324.271,191.780 324.800,192.000 324.800 C 192.220 324.800,192.400 325.340,192.400 326.000 C 192.400 326.660,192.580 327.200,192.800 327.200 C 193.020 327.200,193.200 327.639,193.200 328.176 C 193.200 328.713,193.380 329.264,193.600 329.400 C 193.820 329.536,194.000 330.076,194.000 330.600 C 194.000 331.124,194.180 331.664,194.400 331.800 C 194.620 331.936,194.800 332.356,194.800 332.732 C 194.800 333.924,197.046 336.221,198.768 336.789 C 201.706 337.759,206.000 335.232,206.000 332.532 C 206.000 332.046,206.180 331.536,206.400 331.400 C 206.620 331.264,206.800 330.724,206.800 330.200 C 206.800 329.676,206.980 329.136,207.200 329.000 C 207.420 328.864,207.600 328.324,207.600 327.800 C 207.600 327.276,207.780 326.736,208.000 326.600 C 208.220 326.464,208.400 325.924,208.400 325.400 C 208.400 324.876,208.580 324.336,208.800 324.200 C 209.020 324.064,209.200 323.524,209.200 323.000 C 209.200 322.476,209.380 321.936,209.600 321.800 C 209.820 321.664,210.000 321.124,210.000 320.600 C 210.000 320.076,210.180 319.536,210.400 319.400 C 210.620 319.264,210.800 318.724,210.800 318.200 C 210.800 317.676,210.980 317.136,211.200 317.000 C 211.420 316.864,211.600 316.324,211.600 315.800 C 211.600 315.276,211.780 314.736,212.000 314.600 C 212.220 314.464,212.400 314.001,212.400 313.571 C 212.400 313.141,212.575 312.477,212.790 312.095 C 213.004 311.713,214.012 308.790,215.030 305.600 C 218.325 295.266,220.015 290.215,220.411 289.505 C 220.625 289.123,220.800 288.459,220.800 288.029 C 220.800 287.599,220.980 287.136,221.200 287.000 C 221.420 286.864,221.600 286.324,221.600 285.800 C 221.600 285.276,221.780 284.736,222.000 284.600 C 222.220 284.464,222.400 283.924,222.400 283.400 C 222.400 282.876,222.580 282.336,222.800 282.200 C 223.020 282.064,223.200 281.524,223.200 281.000 C 223.200 280.476,223.380 279.936,223.600 279.800 C 223.820 279.664,224.000 279.124,224.000 278.600 C 224.000 278.076,224.180 277.536,224.400 277.400 C 224.620 277.264,224.800 276.724,224.800 276.200 C 224.800 275.676,224.980 275.136,225.200 275.000 C 225.420 274.864,225.600 274.324,225.600 273.800 C 225.600 273.276,225.780 272.736,226.000 272.600 C 226.220 272.464,226.400 271.913,226.400 271.376 C 226.400 270.839,226.580 270.400,226.800 270.400 C 227.020 270.400,227.200 269.871,227.200 269.224 C 227.200 268.577,227.380 267.936,227.600 267.800 C 227.820 267.664,228.000 267.201,228.000 266.771 C 228.000 266.341,228.174 265.677,228.386 265.295 C 232.686 257.558,231.169 250.400,225.228 250.400 C 221.636 250.400,220.182 252.175,218.022 259.200 C 217.312 261.510,216.567 263.713,216.366 264.095 C 216.165 264.477,216.000 265.141,216.000 265.571 C 216.000 266.001,215.820 266.464,215.600 266.600 C 215.380 266.736,215.200 267.276,215.200 267.800 C 215.200 268.324,215.020 268.864,214.800 269.000 C 214.580 269.136,214.400 269.676,214.400 270.200 C 214.400 270.724,214.220 271.264,214.000 271.400 C 213.780 271.536,213.600 272.076,213.600 272.600 C 213.600 273.124,213.420 273.664,213.200 273.800 C 212.980 273.936,212.800 274.476,212.800 275.000 C 212.800 275.524,212.620 276.064,212.400 276.200 C 212.180 276.336,212.000 276.876,212.000 277.400 C 212.000 277.924,211.820 278.464,211.600 278.600 C 211.380 278.736,211.200 279.276,211.200 279.800 C 211.200 280.324,211.020 280.864,210.800 281.000 C 210.580 281.136,210.400 281.676,210.400 282.200 C 210.400 282.724,210.220 283.264,210.000 283.400 C 209.780 283.536,209.600 284.076,209.600 284.600 C 209.600 285.124,209.420 285.664,209.200 285.800 C 208.980 285.936,208.800 286.476,208.800 287.000 C 208.800 287.524,208.620 288.064,208.400 288.200 C 208.180 288.336,208.000 288.876,208.000 289.400 C 208.000 289.924,207.820 290.464,207.600 290.600 C 207.380 290.736,207.200 291.199,207.200 291.629 C 207.200 292.059,207.036 292.723,206.835 293.105 C 206.634 293.487,205.451 297.040,204.207 301.000 C 200.192 313.774,200.367 313.673,197.608 304.800 C 196.685 301.830,195.766 299.087,195.565 298.705 C 195.364 298.323,195.200 297.659,195.200 297.229 C 195.200 296.799,195.020 296.336,194.800 296.200 C 194.580 296.064,194.400 295.524,194.400 295.000 C 194.400 294.476,194.220 293.936,194.000 293.800 C 193.780 293.664,193.600 293.124,193.600 292.600 C 193.600 292.076,193.420 291.536,193.200 291.400 C 192.980 291.264,192.800 290.724,192.800 290.200 C 192.800 289.676,192.620 289.136,192.400 289.000 C 192.180 288.864,192.000 288.324,192.000 287.800 C 192.000 287.276,191.820 286.736,191.600 286.600 C 191.380 286.464,191.200 285.924,191.200 285.400 C 191.200 284.876,191.020 284.336,190.800 284.200 C 190.580 284.064,190.400 283.601,190.400 283.171 C 190.400 282.741,190.222 282.077,190.005 281.695 C 189.787 281.313,187.618 274.982,185.184 267.627 C 180.232 252.662,180.068 252.298,177.782 251.192 C 175.808 250.236,174.640 250.219,172.835 251.119 M258.485 251.004 C 252.237 252.529,247.772 256.554,245.177 263.000 C 244.355 265.041,244.258 268.303,244.258 293.800 C 244.258 319.297,244.355 322.559,245.177 324.600 C 247.865 331.278,252.282 335.075,259.306 336.747 C 261.907 337.366,288.093 337.366,290.694 336.747 C 297.844 335.045,302.087 331.398,304.823 324.600 C 305.564 322.760,305.729 320.464,305.857 310.200 C 306.066 293.379,306.808 294.028,287.324 294.011 C 278.892 294.004,273.957 294.146,273.800 294.400 C 273.664 294.620,273.222 294.800,272.818 294.800 C 270.962 294.800,268.860 298.744,269.402 301.210 C 270.312 305.350,272.325 306.000,284.249 306.000 L 294.000 306.000 294.000 313.405 C 294.000 321.089,293.906 321.606,292.169 323.427 C 290.502 325.175,290.258 325.200,275.000 325.200 C 259.742 325.200,259.498 325.175,257.831 323.427 C 255.948 321.453,256.000 322.290,256.000 293.851 C 256.000 265.189,255.960 265.814,257.885 264.022 C 259.587 262.435,259.968 262.400,275.274 262.401 L 290.200 262.402 291.521 263.531 C 293.147 264.921,293.996 266.495,294.011 268.146 C 294.045 271.890,298.158 275.479,301.172 274.395 C 304.271 273.280,306.311 270.419,305.854 267.829 C 305.735 267.153,305.527 265.970,305.392 265.200 C 304.884 262.316,303.009 258.697,300.727 256.198 C 298.598 253.867,294.992 251.859,291.386 250.998 C 288.145 250.224,261.662 250.229,258.485 251.004 M56.621 356.899 C 56.253 358.090,56.057 391.600,56.417 391.600 C 56.628 391.600,56.800 392.039,56.800 392.576 C 56.800 393.113,56.980 393.664,57.200 393.800 C 57.420 393.936,57.600 394.313,57.600 394.637 C 57.600 395.340,60.215 398.052,60.560 397.707 C 60.692 397.575,60.800 397.767,60.800 398.133 C 60.800 398.506,61.114 398.800,61.511 398.800 C 61.902 398.800,62.607 399.069,63.077 399.399 C 63.915 399.986,335.447 400.185,337.199 399.600 C 337.528 399.490,338.017 399.130,338.286 398.800 C 338.555 398.470,338.780 398.335,338.787 398.500 C 338.794 398.665,339.147 398.485,339.571 398.100 C 339.996 397.715,340.581 397.184,340.871 396.919 C 341.895 395.988,342.400 395.227,342.400 394.617 C 342.400 394.278,342.580 394.000,342.800 394.000 C 343.020 394.000,343.200 393.460,343.200 392.800 C 343.200 392.140,343.382 391.600,343.604 391.600 C 343.872 391.600,343.973 385.690,343.904 374.100 L 343.800 356.600 200.288 356.499 C 85.672 356.419,56.744 356.500,56.621 356.899 " stroke="none" fill="#f5f5f4" fill-rule="evenodd"></path><path id="path3" d="M269.200 37.740 L 269.200 74.800 306.203 74.800 L 343.206 74.800 324.703 56.302 C 314.526 46.128,297.875 29.452,287.700 19.243 L 269.200 0.681 269.200 37.740 M276.800 108.400 C 276.008 108.654,275.967 108.720,276.600 108.720 C 277.040 108.720,277.850 108.576,278.400 108.400 C 279.192 108.146,279.233 108.080,278.600 108.080 C 278.160 108.080,277.350 108.224,276.800 108.400 M284.200 108.400 C 284.640 108.589,285.360 108.738,285.800 108.732 C 286.443 108.723,286.404 108.657,285.600 108.400 C 284.232 107.962,283.181 107.962,284.200 108.400 M290.000 110.367 C 290.963 111.152,291.600 111.408,291.600 111.010 C 291.600 110.906,291.015 110.535,290.300 110.186 L 289.000 109.552 290.000 110.367 M293.754 113.200 C 294.708 114.080,295.620 114.800,295.779 114.800 C 296.151 114.800,292.696 111.625,292.309 111.611 C 292.149 111.605,292.799 112.320,293.754 113.200 M240.599 140.900 L 211.800 169.800 240.700 141.001 C 267.565 114.230,269.779 112.000,269.499 112.000 C 269.443 112.000,256.438 125.005,240.599 140.900 M297.600 117.000 C 299.620 119.058,300.341 119.444,298.575 117.521 C 297.929 116.818,297.188 116.008,296.929 115.721 C 296.669 115.435,296.317 115.200,296.145 115.200 C 295.974 115.200,296.628 116.010,297.600 117.000 M301.575 120.895 C 302.551 121.934,303.428 122.706,303.523 122.611 C 303.702 122.431,303.467 122.190,301.179 120.204 C 300.175 119.333,300.283 119.522,301.575 120.895 M304.006 123.073 C 304.013 123.507,311.927 131.416,312.119 131.182 C 312.201 131.082,310.408 129.143,308.134 126.873 C 305.860 124.604,304.003 122.894,304.006 123.073 M312.400 131.710 C 312.400 131.771,313.795 133.166,315.499 134.810 C 318.467 137.673,318.496 137.691,316.199 135.229 C 314.880 133.815,313.588 132.420,313.329 132.129 C 312.904 131.653,312.400 131.425,312.400 131.710 M318.800 137.906 C 318.800 138.086,319.610 139.028,320.600 140.000 C 321.590 140.972,322.400 141.634,322.400 141.473 C 322.400 141.311,321.590 140.369,320.600 139.379 C 319.610 138.389,318.800 137.726,318.800 137.906 M324.686 143.999 C 325.833 145.189,326.831 146.080,326.903 145.981 C 326.976 145.881,326.037 144.908,324.818 143.818 L 322.600 141.836 324.686 143.999 M148.600 142.800 L 147.800 143.144 148.600 143.166 C 149.040 143.178,149.670 143.013,150.000 142.800 C 150.795 142.286,149.796 142.286,148.600 142.800 M156.200 142.800 C 156.640 142.989,157.360 143.138,157.800 143.132 C 158.443 143.123,158.404 143.057,157.600 142.800 C 156.232 142.362,155.181 142.362,156.200 142.800 M159.200 143.348 C 159.200 143.435,160.235 144.006,161.500 144.616 C 163.380 145.523,166.070 147.978,176.238 158.063 C 183.080 164.848,188.773 170.400,188.890 170.400 C 189.325 170.400,164.817 146.285,163.413 145.331 C 161.963 144.346,159.200 143.045,159.200 143.348 M143.900 144.629 C 143.295 144.957,142.800 145.310,142.800 145.413 C 142.800 145.799,143.432 145.557,144.400 144.800 C 145.589 143.870,145.411 143.809,143.900 144.629 M139.785 148.100 L 137.800 150.200 139.992 148.200 C 141.197 147.100,142.262 146.155,142.358 146.100 C 142.455 146.045,142.362 146.000,142.152 146.000 C 141.942 146.000,140.877 146.945,139.785 148.100 M328.783 148.107 C 329.764 149.148,330.717 150.000,330.901 150.000 C 331.252 150.000,330.165 148.886,328.177 147.207 C 327.529 146.660,327.802 147.065,328.783 148.107 M135.600 152.200 C 134.628 153.190,133.923 154.000,134.033 154.000 C 134.143 154.000,135.028 153.190,136.000 152.200 C 136.972 151.210,137.677 150.400,137.567 150.400 C 137.457 150.400,136.572 151.210,135.600 152.200 M332.783 152.100 C 333.764 153.145,334.619 154.000,334.683 154.000 C 334.984 154.000,334.666 153.641,332.900 151.983 L 331.000 150.200 332.783 152.100 M132.434 155.353 L 131.469 156.600 132.613 155.512 C 133.243 154.914,133.677 154.353,133.579 154.265 C 133.480 154.177,132.965 154.667,132.434 155.353 M335.200 154.312 C 335.200 154.504,335.650 155.083,336.200 155.600 C 336.750 156.117,337.200 156.410,337.200 156.252 C 337.200 156.093,336.750 155.514,336.200 154.964 C 335.650 154.414,335.200 154.120,335.200 154.312 M337.600 156.691 C 337.600 157.385,343.132 162.488,343.658 162.279 C 344.078 162.112,344.083 162.056,343.681 162.032 C 343.395 162.014,341.910 160.731,340.381 159.180 C 338.851 157.630,337.600 156.509,337.600 156.691 M128.189 159.700 L 125.400 162.600 128.300 159.811 C 129.895 158.277,131.200 156.972,131.200 156.911 C 131.200 156.617,130.780 157.006,128.189 159.700 M123.926 163.688 C 123.335 164.299,122.988 164.800,123.156 164.800 C 123.535 164.800,125.399 162.845,125.168 162.689 C 125.076 162.626,124.516 163.076,123.926 163.688 M120.800 167.000 C 119.828 167.990,119.123 168.800,119.233 168.800 C 119.343 168.800,120.228 167.990,121.200 167.000 C 122.172 166.010,122.877 165.200,122.767 165.200 C 122.657 165.200,121.772 166.010,120.800 167.000 M116.800 171.000 C 115.828 171.990,115.123 172.800,115.233 172.800 C 115.343 172.800,116.228 171.990,117.200 171.000 C 118.172 170.010,118.877 169.200,118.767 169.200 C 118.657 169.200,117.772 170.010,116.800 171.000 M113.526 174.088 C 112.935 174.699,112.588 175.200,112.756 175.200 C 113.135 175.200,114.999 173.245,114.768 173.089 C 114.676 173.026,114.116 173.476,113.526 174.088 M195.200 173.200 C 195.530 173.413,196.160 173.578,196.600 173.566 L 197.400 173.544 196.600 173.200 C 195.404 172.686,194.405 172.686,195.200 173.200 M203.600 173.200 C 202.776 173.464,202.741 173.526,203.400 173.554 C 203.840 173.573,204.470 173.413,204.800 173.200 C 205.501 172.747,205.014 172.747,203.600 173.200 M109.389 178.500 L 106.600 181.400 109.500 178.611 C 112.194 176.020,112.583 175.600,112.289 175.600 C 112.228 175.600,110.923 176.905,109.389 178.500 M105.078 182.613 C 104.460 183.156,104.114 183.600,104.308 183.600 C 104.502 183.600,105.083 183.150,105.600 182.600 C 106.795 181.328,106.531 181.334,105.078 182.613 M102.000 185.800 C 101.028 186.790,100.323 187.600,100.433 187.600 C 100.543 187.600,101.428 186.790,102.400 185.800 C 103.372 184.810,104.077 184.000,103.967 184.000 C 103.857 184.000,102.972 184.810,102.000 185.800 M98.000 189.800 C 97.028 190.790,96.323 191.600,96.433 191.600 C 96.543 191.600,97.428 190.790,98.400 189.800 C 99.372 188.810,100.077 188.000,99.967 188.000 C 99.857 188.000,98.972 188.810,98.000 189.800 M94.800 192.940 C 94.250 193.443,93.353 194.383,92.808 195.028 C 92.262 195.672,92.757 195.307,93.908 194.215 C 95.800 192.420,96.203 191.974,95.900 192.013 C 95.845 192.020,95.350 192.437,94.800 192.940 M89.600 198.200 C 88.628 199.190,87.923 200.000,88.033 200.000 C 88.143 200.000,89.028 199.190,90.000 198.200 C 90.972 197.210,91.677 196.400,91.567 196.400 C 91.457 196.400,90.572 197.210,89.600 198.200 M85.600 202.200 C 84.628 203.190,83.923 204.000,84.033 204.000 C 84.143 204.000,85.028 203.190,86.000 202.200 C 86.972 201.210,87.677 200.400,87.567 200.400 C 87.457 200.400,86.572 201.210,85.600 202.200 M82.434 205.353 L 81.469 206.600 82.613 205.512 C 83.243 204.914,83.677 204.353,83.579 204.265 C 83.480 204.177,82.965 204.667,82.434 205.353 M78.189 209.700 L 75.400 212.600 78.300 209.811 C 80.994 207.220,81.383 206.800,81.089 206.800 C 81.028 206.800,79.723 208.105,78.189 209.700 M73.926 213.688 C 73.335 214.299,72.988 214.800,73.156 214.800 C 73.535 214.800,75.399 212.845,75.168 212.689 C 75.076 212.626,74.516 213.076,73.926 213.688 M70.800 217.000 C 69.828 217.990,69.123 218.800,69.233 218.800 C 69.343 218.800,70.228 217.990,71.200 217.000 C 72.172 216.010,72.877 215.200,72.767 215.200 C 72.657 215.200,71.772 216.010,70.800 217.000 M66.800 221.000 C 65.828 221.990,65.123 222.800,65.233 222.800 C 65.343 222.800,66.228 221.990,67.200 221.000 C 68.172 220.010,68.877 219.200,68.767 219.200 C 68.657 219.200,67.772 220.010,66.800 221.000 M63.526 224.088 C 62.935 224.699,62.588 225.200,62.756 225.200 C 63.135 225.200,64.999 223.245,64.768 223.089 C 64.676 223.026,64.116 223.476,63.526 224.088 M59.389 228.500 L 56.600 231.400 59.500 228.611 C 62.194 226.020,62.583 225.600,62.289 225.600 C 62.228 225.600,60.923 226.905,59.389 228.500 " stroke="none" fill="#54dbd3" fill-rule="evenodd"></path><path id="path4" d="M206.400 18.597 L 206.400 24.800 231.410 24.800 L 256.421 24.800 256.310 18.700 L 256.200 12.600 231.300 12.497 L 206.400 12.394 206.400 18.597 M84.000 19.349 C 70.152 23.945,73.578 44.283,88.075 43.540 C 94.755 43.198,99.975 37.844,99.994 31.315 C 100.017 23.244,91.489 16.863,84.000 19.349 M193.776 38.119 C 193.666 38.405,193.627 41.150,193.688 44.219 L 193.800 49.800 225.000 49.800 L 256.200 49.800 256.310 43.700 L 256.421 37.600 225.198 37.600 C 199.971 37.600,193.937 37.700,193.776 38.119 " stroke="none" fill="#dcdcdc" fill-rule="evenodd"></path><path id="path5" d="M268.898 37.500 L 269.000 75.000 305.800 75.003 L 342.600 75.006 305.900 74.901 L 269.200 74.796 269.200 37.761 L 269.200 0.726 306.192 37.763 C 326.538 58.133,343.368 74.800,343.592 74.800 C 344.299 74.800,344.047 74.383,342.367 72.769 C 341.469 71.906,340.832 71.200,340.951 71.200 C 341.069 71.200,338.429 68.506,335.083 65.213 C 331.737 61.920,328.100 58.317,327.000 57.207 C 325.900 56.096,322.030 52.228,318.400 48.610 C 314.770 44.993,311.080 41.308,310.200 40.420 C 304.619 34.794,295.208 25.447,293.165 23.500 C 291.837 22.235,290.840 21.200,290.949 21.200 C 291.128 21.200,284.149 14.202,277.523 7.738 C 276.136 6.384,273.841 4.089,272.425 2.638 C 271.008 1.187,269.612 0.000,269.323 0.000 C 268.890 0.000,268.814 6.704,268.898 37.500 M278.400 107.823 C 279.751 108.117,286.096 108.242,285.377 107.960 C 284.950 107.793,283.070 107.664,281.200 107.675 C 279.330 107.685,278.070 107.751,278.400 107.823 M273.412 109.224 C 272.538 109.660,271.638 110.205,271.412 110.437 C 271.185 110.668,271.900 110.416,273.000 109.877 C 274.100 109.339,275.270 108.800,275.600 108.681 C 276.133 108.487,276.133 108.461,275.600 108.448 C 275.270 108.439,274.285 108.788,273.412 109.224 M240.425 140.500 C 224.027 156.835,210.519 170.275,210.406 170.367 C 210.293 170.459,210.648 170.232,211.196 169.862 C 212.248 169.152,270.776 110.800,270.436 110.800 C 270.327 110.800,256.822 124.165,240.425 140.500 M298.200 117.077 C 301.280 120.184,303.879 122.649,303.975 122.555 C 304.204 122.330,297.158 115.217,294.600 113.091 C 293.500 112.176,295.120 113.970,298.200 117.077 M304.400 122.905 C 304.400 123.282,308.040 126.893,308.229 126.704 C 308.313 126.620,307.486 125.669,306.391 124.591 C 305.296 123.512,304.400 122.754,304.400 122.905 M310.179 129.000 C 311.169 129.990,312.111 130.800,312.273 130.800 C 312.434 130.800,311.772 129.990,310.800 129.000 C 309.828 128.010,308.886 127.200,308.706 127.200 C 308.526 127.200,309.189 128.010,310.179 129.000 M315.449 134.400 C 317.145 136.160,318.629 137.505,318.745 137.388 C 318.992 137.142,313.180 131.200,312.692 131.200 C 312.512 131.200,313.753 132.640,315.449 134.400 M319.200 137.709 C 319.200 138.151,326.725 145.809,326.944 145.589 C 327.052 145.481,325.354 143.601,323.170 141.410 C 320.987 139.220,319.200 137.554,319.200 137.709 M150.000 142.224 C 151.320 142.513,158.067 142.632,157.359 142.354 C 156.942 142.190,154.980 142.064,153.000 142.075 C 151.020 142.085,149.670 142.152,150.000 142.224 M142.629 145.009 C 142.205 145.329,141.935 145.668,142.029 145.761 C 142.123 145.855,142.625 145.587,143.144 145.166 C 144.238 144.279,143.779 144.139,142.629 145.009 M99.027 188.020 C 75.902 211.131,56.721 230.202,56.403 230.398 C 56.084 230.595,55.958 230.891,56.122 231.055 C 56.286 231.219,75.626 212.149,99.100 188.677 C 122.574 165.205,141.621 146.000,141.426 146.000 C 141.232 146.000,122.152 164.909,99.027 188.020 M175.982 157.285 C 182.242 163.601,187.447 168.686,187.549 168.585 C 187.650 168.483,187.651 168.355,187.551 168.300 C 187.451 168.245,182.246 163.160,175.985 157.000 L 164.600 145.800 175.982 157.285 M328.899 147.802 C 331.363 150.136,331.891 150.134,329.600 147.800 C 328.628 146.810,327.646 146.001,327.417 146.002 C 327.188 146.003,327.854 146.813,328.899 147.802 M334.200 153.143 C 335.960 154.864,337.480 156.206,337.578 156.124 C 337.843 155.905,331.888 149.999,331.410 150.007 C 331.185 150.011,332.440 151.422,334.200 153.143 M338.000 156.527 C 338.000 156.689,338.810 157.631,339.800 158.621 C 340.790 159.611,341.600 160.274,341.600 160.094 C 341.600 159.914,340.790 158.972,339.800 158.000 C 338.810 157.028,338.000 156.366,338.000 156.527 M342.000 160.610 C 342.000 161.056,343.199 162.067,343.567 161.932 C 343.764 161.859,343.493 161.477,342.963 161.081 C 342.433 160.686,342.000 160.474,342.000 160.610 M189.185 169.971 C 189.947 170.647,190.742 171.200,190.952 171.200 C 191.162 171.200,191.258 171.148,191.167 171.084 C 191.075 171.020,190.280 170.467,189.400 169.855 L 187.800 168.742 189.185 169.971 M208.400 171.200 C 207.630 171.622,207.144 171.974,207.320 171.983 C 207.744 172.005,210.000 170.832,210.000 170.590 C 210.000 170.328,209.977 170.337,208.400 171.200 M198.500 173.491 C 199.325 173.578,200.675 173.578,201.500 173.491 C 202.325 173.405,201.650 173.334,200.000 173.334 C 198.350 173.334,197.675 173.405,198.500 173.491 " stroke="none" fill="#80dede" fill-rule="evenodd"></path><path id="path6" d="M106.800 62.883 C 96.617 65.801,88.666 74.198,87.818 82.932 C 87.620 84.978,87.622 84.983,88.026 83.400 C 89.689 76.888,91.322 73.836,95.200 69.988 C 100.480 64.750,106.327 62.546,113.959 62.918 C 116.441 63.038,117.892 62.977,117.559 62.766 C 116.807 62.290,108.556 62.380,106.800 62.883 M120.200 63.971 C 126.475 66.208,132.753 71.485,134.458 75.955 C 134.658 76.481,134.923 76.810,135.046 76.687 C 136.207 75.526,128.349 67.247,124.200 65.258 C 122.660 64.520,121.087 63.755,120.705 63.558 C 120.323 63.361,119.603 63.213,119.105 63.229 C 118.528 63.248,118.925 63.517,120.200 63.971 M135.200 77.314 C 135.200 77.402,135.592 78.538,136.071 79.837 C 136.800 81.815,136.946 83.090,136.971 87.662 C 136.987 90.666,137.132 92.916,137.294 92.662 C 138.153 91.312,137.326 80.393,136.286 79.353 C 136.129 79.195,136.000 78.747,136.000 78.357 C 136.000 77.967,135.820 77.536,135.600 77.400 C 135.380 77.264,135.200 77.225,135.200 77.314 M87.320 87.600 C 87.320 88.810,87.395 89.305,87.487 88.700 C 87.578 88.095,87.578 87.105,87.487 86.500 C 87.395 85.895,87.320 86.390,87.320 87.600 M87.641 91.329 C 87.476 95.858,95.840 108.800,98.933 108.800 C 99.122 108.800,99.754 109.129,100.338 109.532 C 111.289 117.078,129.760 111.014,135.462 98.000 C 136.480 95.677,136.798 94.724,136.771 94.081 C 136.755 93.707,136.402 94.355,135.988 95.522 C 131.857 107.148,119.491 114.353,108.000 111.829 C 97.240 109.465,90.656 102.852,88.059 91.800 C 87.739 90.438,87.677 90.368,87.641 91.329 M113.400 250.421 C 112.872 250.662,113.416 250.704,115.000 250.543 C 116.320 250.409,117.475 250.232,117.567 250.150 C 117.921 249.831,114.156 250.076,113.400 250.421 M152.412 250.900 C 156.899 253.167,157.189 259.386,152.902 261.420 C 152.150 261.776,151.623 262.156,151.730 262.264 C 152.319 262.852,154.820 260.838,155.900 258.905 C 157.627 255.815,154.637 250.000,151.321 250.000 C 150.941 250.000,151.432 250.405,152.412 250.900 M171.272 251.431 C 170.352 252.218,169.601 253.073,169.602 253.331 C 169.603 253.589,170.008 253.306,170.502 252.702 C 170.996 252.098,172.120 251.251,173.000 250.818 C 174.141 250.258,174.362 250.027,173.772 250.016 C 173.317 250.007,172.192 250.644,171.272 251.431 M177.027 250.530 C 179.792 251.588,180.542 252.650,182.243 257.910 C 182.831 259.731,183.396 261.137,183.498 261.036 C 183.831 260.703,181.168 253.268,180.339 252.213 C 179.412 251.035,177.576 249.986,176.520 250.030 C 176.075 250.049,176.269 250.240,177.027 250.530 M221.292 251.040 C 220.573 251.607,219.718 252.586,219.392 253.215 C 218.427 255.082,218.725 255.138,219.828 253.297 C 220.400 252.343,221.498 251.251,222.324 250.815 C 223.136 250.386,223.530 250.029,223.200 250.022 C 222.870 250.015,222.011 250.473,221.292 251.040 M227.958 250.831 C 229.581 251.821,230.400 252.597,230.400 253.148 C 230.400 253.371,230.580 253.664,230.800 253.800 C 231.020 253.936,231.200 253.829,231.200 253.562 C 231.200 252.841,228.074 250.000,227.283 250.001 C 226.855 250.002,227.107 250.312,227.958 250.831 M257.030 250.631 C 255.242 251.286,254.489 251.867,256.000 251.426 C 256.550 251.266,257.990 250.898,259.200 250.608 C 261.106 250.152,261.213 250.080,260.000 250.069 C 259.230 250.062,257.894 250.315,257.030 250.631 M290.800 250.576 C 294.903 251.617,295.065 251.639,293.600 250.952 C 292.830 250.592,291.390 250.234,290.400 250.157 L 288.600 250.018 290.800 250.576 M109.190 251.728 C 105.084 253.418,97.600 259.619,97.600 261.333 C 97.600 261.522,97.270 262.154,96.866 262.738 C 93.427 267.715,92.634 276.491,94.999 283.400 C 97.890 291.844,108.376 300.188,115.800 299.952 C 116.765 299.922,116.647 299.843,115.200 299.551 C 92.969 295.067,86.376 268.550,104.138 255.060 C 106.051 253.608,109.963 251.606,110.912 251.594 C 111.180 251.591,111.670 251.413,112.000 251.200 C 113.143 250.461,111.535 250.764,109.190 251.728 M252.148 252.975 C 248.549 255.398,245.460 259.540,244.259 263.551 C 243.971 264.514,243.781 274.466,243.695 293.200 C 243.567 321.037,243.636 322.980,244.839 325.295 C 245.038 325.677,245.200 326.181,245.200 326.417 C 245.200 329.016,253.881 336.775,256.800 336.785 C 257.130 336.786,256.118 336.163,254.550 335.400 C 249.554 332.969,246.048 328.660,244.581 323.148 C 243.527 319.186,243.747 266.911,244.833 263.566 C 246.361 258.857,249.946 254.266,253.362 252.645 C 254.732 251.995,255.160 251.600,254.495 251.600 C 254.327 251.600,253.271 252.219,252.148 252.975 M295.200 251.781 C 295.200 251.881,295.875 252.278,296.700 252.665 C 302.892 255.564,307.814 266.257,305.348 271.453 C 302.801 276.820,294.000 274.812,294.000 268.864 C 294.000 266.764,291.857 263.175,290.625 263.213 C 290.391 263.221,290.591 263.553,291.069 263.952 C 292.494 265.143,293.597 267.301,293.599 268.905 C 293.602 272.281,296.688 275.200,300.254 275.200 C 307.725 275.200,308.539 264.050,301.632 256.340 C 299.247 253.678,295.200 250.810,295.200 251.781 M169.043 254.633 C 168.717 255.482,168.783 257.217,169.178 258.200 C 169.391 258.727,169.495 258.147,169.486 256.500 C 169.470 253.835,169.424 253.640,169.043 254.633 M231.320 256.400 C 231.320 257.610,231.395 258.105,231.487 257.500 C 231.578 256.895,231.578 255.905,231.487 255.300 C 231.395 254.695,231.320 255.190,231.320 256.400 M217.496 258.416 C 216.054 262.856,216.128 263.464,217.617 259.400 C 218.261 257.640,218.745 255.937,218.692 255.616 C 218.639 255.295,218.101 256.555,217.496 258.416 M230.611 259.670 C 230.467 260.181,230.205 260.960,230.027 261.400 C 229.850 261.840,229.312 263.460,228.832 265.000 C 228.352 266.540,227.813 268.160,227.635 268.600 C 227.457 269.040,227.094 270.120,226.829 271.000 C 226.564 271.880,226.189 272.960,225.996 273.400 C 225.199 275.213,218.739 295.272,218.899 295.433 C 218.995 295.529,221.808 287.392,225.151 277.351 C 228.493 267.310,231.148 259.015,231.050 258.917 C 230.953 258.820,230.755 259.158,230.611 259.670 M169.612 259.600 C 169.612 259.930,169.787 260.470,170.000 260.800 C 170.345 261.333,170.388 261.333,170.388 260.800 C 170.388 260.470,170.213 259.930,170.000 259.600 C 169.655 259.067,169.612 259.067,169.612 259.600 M170.676 262.600 C 171.039 264.313,171.965 266.362,171.984 265.495 C 171.993 265.107,171.839 264.477,171.641 264.095 C 171.444 263.713,171.089 262.950,170.852 262.400 C 170.442 261.449,170.434 261.459,170.676 262.600 M183.600 261.848 C 183.600 262.395,185.779 268.354,185.925 268.208 C 186.110 268.023,184.013 261.600,183.767 261.600 C 183.675 261.600,183.600 261.712,183.600 261.848 M114.500 263.034 C 113.785 263.346,113.200 263.687,113.200 263.791 C 113.200 263.895,113.695 263.760,114.300 263.490 C 115.090 263.138,120.466 262.940,133.400 262.788 L 151.400 262.577 133.600 262.521 C 119.001 262.475,115.566 262.567,114.500 263.034 M259.703 262.975 C 258.293 263.754,257.141 264.915,256.743 265.955 C 256.168 267.459,256.661 267.414,257.380 265.898 C 258.833 262.837,259.318 262.756,275.542 262.886 C 283.452 262.948,289.841 262.865,289.738 262.700 C 289.402 262.156,260.709 262.418,259.703 262.975 M215.800 263.600 C 215.650 264.073,215.617 264.550,215.727 264.660 C 215.837 264.770,216.050 264.473,216.200 264.000 C 216.350 263.527,216.383 263.050,216.273 262.940 C 216.163 262.830,215.950 263.127,215.800 263.600 M110.339 265.561 C 108.507 267.174,106.989 269.709,106.604 271.800 C 106.390 272.964,106.397 272.970,106.824 272.000 C 108.296 268.660,109.149 267.360,110.912 265.775 C 111.998 264.799,112.712 264.000,112.500 264.000 C 112.287 264.000,111.315 264.702,110.339 265.561 M215.000 266.000 C 214.850 266.473,214.817 266.950,214.927 267.060 C 215.037 267.170,215.250 266.873,215.400 266.400 C 215.550 265.927,215.583 265.450,215.473 265.340 C 215.363 265.230,215.150 265.527,215.000 266.000 M172.028 266.676 C 172.118 267.715,172.744 268.596,172.772 267.724 C 172.787 267.242,172.620 266.736,172.400 266.600 C 172.180 266.464,172.013 266.498,172.028 266.676 M211.400 277.095 C 209.683 282.323,207.295 289.534,206.093 293.121 C 204.892 296.707,203.994 299.728,204.099 299.832 C 204.204 299.937,206.671 292.804,209.581 283.981 C 212.492 275.159,214.795 267.861,214.698 267.765 C 214.602 267.668,213.117 271.867,211.400 277.095 M256.189 293.800 C 256.189 308.320,256.239 314.202,256.300 306.871 C 256.361 299.540,256.361 287.660,256.300 280.471 C 256.239 273.282,256.189 279.280,256.189 293.800 M173.003 269.650 C 174.555 274.762,183.371 300.763,183.506 300.628 C 183.673 300.461,177.164 280.317,176.389 278.600 C 176.190 278.160,175.651 276.540,175.191 275.000 C 174.731 273.460,174.185 271.887,173.978 271.505 C 173.770 271.123,173.600 270.459,173.600 270.029 C 173.600 269.599,173.401 269.124,173.157 268.974 C 172.854 268.786,172.805 268.999,173.003 269.650 M186.000 269.033 C 186.001 269.235,186.352 270.300,186.782 271.400 C 187.650 273.624,187.886 273.055,187.068 270.707 C 186.545 269.207,186.000 268.351,186.000 269.033 M106.114 275.000 C 106.117 276.100,106.195 276.503,106.287 275.895 C 106.379 275.286,106.377 274.386,106.282 273.895 C 106.187 273.403,106.111 273.900,106.114 275.000 M187.627 273.676 C 187.535 274.621,199.968 311.200,200.381 311.200 C 200.744 311.200,202.603 305.670,202.331 305.398 C 202.220 305.286,201.798 306.285,201.395 307.617 C 200.992 308.948,200.551 310.107,200.416 310.190 C 200.280 310.274,198.589 305.540,196.657 299.671 C 194.725 293.802,192.989 288.640,192.799 288.200 C 192.609 287.760,192.239 286.680,191.977 285.800 C 191.716 284.920,191.344 283.887,191.151 283.505 C 190.958 283.123,190.800 282.484,190.800 282.085 C 190.800 281.686,190.650 281.189,190.467 280.980 C 190.285 280.771,189.916 279.790,189.649 278.800 C 189.382 277.810,189.013 276.640,188.829 276.200 C 187.814 273.764,187.652 273.424,187.627 273.676 M106.621 278.200 C 107.096 280.995,110.956 286.055,112.556 285.979 C 112.800 285.967,112.556 285.652,112.013 285.279 C 109.694 283.683,107.964 281.348,106.915 278.400 C 106.462 277.124,106.436 277.106,106.621 278.200 M115.337 287.294 C 115.592 287.456,119.310 287.559,123.600 287.524 C 132.388 287.452,131.492 287.272,121.537 287.109 C 117.872 287.049,115.082 287.132,115.337 287.294 M135.400 288.059 C 139.648 289.057,143.638 290.728,145.763 292.400 C 149.002 294.948,152.555 299.144,153.348 301.357 C 153.497 301.774,153.727 302.006,153.859 301.874 C 154.523 301.210,150.036 295.361,147.031 292.976 C 143.368 290.067,137.639 287.542,134.929 287.641 C 133.968 287.677,134.038 287.739,135.400 288.059 M272.042 294.431 C 269.975 295.691,268.756 297.227,268.832 298.474 C 268.850 298.763,269.078 298.521,269.338 297.936 C 271.050 294.083,271.439 293.999,287.480 294.007 C 307.217 294.016,306.000 292.961,306.000 310.052 C 306.000 325.733,305.057 328.524,297.831 334.221 C 297.154 334.755,296.780 335.191,297.000 335.190 C 297.779 335.188,301.939 331.175,303.320 329.095 C 306.158 324.818,306.400 323.329,306.400 310.114 C 306.400 296.499,306.337 296.242,302.505 294.100 C 300.751 293.119,273.712 293.413,272.042 294.431 M218.200 296.800 C 218.050 297.273,218.017 297.750,218.127 297.860 C 218.237 297.970,218.450 297.673,218.600 297.200 C 218.750 296.727,218.783 296.250,218.673 296.140 C 218.563 296.030,218.350 296.327,218.200 296.800 M217.000 300.400 C 216.625 301.529,216.404 302.537,216.508 302.641 C 216.612 302.746,217.001 301.904,217.371 300.771 C 217.742 299.639,217.963 298.630,217.863 298.530 C 217.763 298.430,217.375 299.271,217.000 300.400 M134.000 300.537 C 143.648 303.399,146.688 314.042,139.848 321.011 C 136.137 324.793,136.093 324.800,115.780 324.800 C 102.611 324.800,98.172 324.921,97.495 325.300 C 92.583 328.045,92.227 333.630,96.769 336.690 L 98.118 337.600 116.759 337.572 C 127.012 337.556,135.709 337.421,136.086 337.272 C 136.463 337.122,127.972 337.000,117.216 337.000 C 98.011 337.000,97.639 336.985,96.530 336.165 C 93.140 333.658,93.357 328.331,96.938 326.164 C 98.117 325.450,99.395 325.387,116.400 325.200 C 136.936 324.974,136.405 325.054,139.934 321.663 C 147.305 314.582,143.459 301.308,133.709 300.178 C 132.230 300.006,132.236 300.013,134.000 300.537 M203.646 300.667 C 203.621 300.924,203.484 301.464,203.341 301.867 C 203.140 302.436,203.194 302.497,203.579 302.142 C 203.852 301.891,203.989 301.351,203.884 300.942 C 203.779 300.534,203.672 300.410,203.646 300.667 M183.600 301.448 C 183.600 301.995,185.779 307.954,185.925 307.808 C 186.110 307.623,184.013 301.200,183.767 301.200 C 183.675 301.200,183.600 301.312,183.600 301.448 M268.832 301.526 C 268.791 302.193,269.500 303.526,270.422 304.515 C 272.082 306.298,272.787 306.400,283.446 306.400 L 293.600 306.400 293.600 313.246 C 293.600 325.029,293.969 324.800,275.000 324.800 C 259.355 324.800,258.804 324.703,257.380 321.702 C 257.024 320.950,256.642 320.424,256.533 320.533 C 255.902 321.165,258.169 323.893,259.941 324.633 C 261.921 325.461,288.076 325.462,290.051 324.635 C 293.465 323.205,294.047 321.450,293.910 312.993 L 293.800 306.200 283.400 306.000 C 276.605 305.869,272.721 305.640,272.196 305.337 C 271.095 304.704,269.905 303.341,269.338 302.064 C 269.078 301.479,268.850 301.237,268.832 301.526 M154.214 303.250 C 155.201 306.376,155.542 307.048,155.572 305.924 C 155.587 305.332,155.420 304.736,155.200 304.600 C 154.980 304.464,154.800 304.014,154.800 303.600 C 154.800 303.186,154.601 302.724,154.357 302.574 C 154.052 302.385,154.008 302.596,154.214 303.250 M202.846 303.067 C 202.821 303.324,202.684 303.864,202.541 304.267 C 202.340 304.836,202.394 304.897,202.779 304.542 C 203.052 304.291,203.189 303.751,203.084 303.342 C 202.979 302.934,202.872 302.810,202.846 303.067 M215.800 304.000 C 215.650 304.473,215.617 304.950,215.727 305.060 C 215.837 305.170,216.050 304.873,216.200 304.400 C 216.350 303.927,216.383 303.450,216.273 303.340 C 216.163 303.230,215.950 303.527,215.800 304.000 M214.619 307.674 C 214.255 308.843,213.787 310.113,213.579 310.495 C 213.370 310.877,213.200 311.516,213.200 311.915 C 213.200 312.314,213.003 312.837,212.762 313.078 C 212.522 313.318,212.390 313.849,212.470 314.258 C 212.549 314.666,213.283 312.942,214.101 310.427 C 214.919 307.912,215.519 305.785,215.435 305.701 C 215.350 305.617,214.984 306.505,214.619 307.674 M155.897 310.834 C 156.364 319.257,152.490 327.843,146.255 332.200 C 144.099 333.707,143.186 334.604,144.726 333.703 C 149.261 331.047,153.700 325.391,155.165 320.400 C 155.456 319.410,155.852 318.078,156.047 317.440 C 156.486 315.999,156.461 308.885,156.014 307.800 C 155.827 307.347,155.776 308.665,155.897 310.834 M186.012 308.800 C 186.012 309.130,186.187 309.670,186.400 310.000 C 186.745 310.533,186.788 310.533,186.788 310.000 C 186.788 309.670,186.613 309.130,186.400 308.800 C 186.055 308.267,186.012 308.267,186.012 308.800 M186.828 311.076 C 186.918 312.115,187.544 312.996,187.572 312.124 C 187.587 311.642,187.420 311.136,187.200 311.000 C 186.980 310.864,186.813 310.898,186.828 311.076 M211.811 316.070 C 211.667 316.581,211.402 317.360,211.220 317.800 C 211.039 318.240,210.659 319.410,210.376 320.400 C 210.093 321.390,209.712 322.371,209.530 322.580 C 209.349 322.789,209.200 323.286,209.200 323.685 C 209.200 324.084,209.036 324.723,208.835 325.105 C 208.635 325.487,207.870 327.658,207.135 329.930 C 205.628 334.590,204.514 336.187,202.200 337.001 C 200.765 337.507,200.715 337.567,201.711 337.582 C 204.415 337.625,205.892 335.154,209.319 324.848 C 211.029 319.704,212.349 315.415,212.251 315.318 C 212.153 315.220,211.955 315.558,211.811 316.070 M188.428 315.876 C 188.518 316.915,189.144 317.796,189.172 316.924 C 189.187 316.442,189.020 315.936,188.800 315.800 C 188.580 315.664,188.413 315.698,188.428 315.876 M189.227 318.097 C 189.169 318.730,194.470 334.134,195.050 335.021 C 195.823 336.201,198.167 337.606,199.323 337.582 C 199.910 337.571,199.670 337.378,198.600 336.999 C 196.383 336.215,195.048 334.568,194.020 331.348 C 193.537 329.837,192.987 328.240,192.798 327.800 C 192.608 327.360,192.239 326.280,191.977 325.400 C 191.716 324.520,191.344 323.487,191.151 323.105 C 190.958 322.723,190.800 322.136,190.800 321.800 C 190.800 321.464,190.639 320.877,190.441 320.495 C 190.244 320.113,189.896 319.350,189.668 318.800 C 189.440 318.250,189.242 317.934,189.227 318.097 M139.000 336.000 C 137.900 336.406,137.270 336.749,137.600 336.763 C 138.304 336.792,141.062 335.871,141.459 335.474 C 141.887 335.046,141.170 335.199,139.000 336.000 M294.200 336.000 C 293.320 336.407,292.803 336.754,293.051 336.770 C 293.610 336.807,296.400 335.661,296.400 335.395 C 296.400 335.077,295.891 335.217,294.200 336.000 M258.138 337.294 C 258.392 337.456,265.980 337.588,275.000 337.588 C 284.020 337.588,291.608 337.456,291.862 337.294 C 292.116 337.132,284.528 337.000,275.000 337.000 C 265.472 337.000,257.884 337.132,258.138 337.294 M56.181 356.504 C 56.075 356.781,56.038 362.496,56.100 369.204 L 56.212 381.400 56.306 368.901 L 56.400 356.401 200.100 356.300 L 343.800 356.199 200.087 356.099 C 84.785 356.020,56.337 356.100,56.181 356.504 " stroke="none" fill="#fbdd96" fill-rule="evenodd"></path><path id="path7" d="M106.200 62.800 C 105.696 63.017,105.622 63.144,106.000 63.144 C 106.330 63.144,106.960 62.989,107.400 62.800 C 107.904 62.583,107.978 62.456,107.600 62.456 C 107.270 62.456,106.640 62.611,106.200 62.800 M117.600 62.800 C 117.930 63.013,118.560 63.178,119.000 63.166 L 119.800 63.144 119.000 62.800 C 117.804 62.286,116.805 62.286,117.600 62.800 M122.400 64.183 C 122.400 64.363,124.802 65.600,125.150 65.600 C 125.497 65.600,123.894 64.567,123.100 64.279 C 122.715 64.139,122.400 64.096,122.400 64.183 M98.395 66.275 C 96.203 67.748,94.942 68.800,95.368 68.800 C 95.492 68.800,96.364 68.215,97.307 67.500 C 98.249 66.785,99.466 65.894,100.010 65.521 C 100.555 65.148,100.908 64.833,100.795 64.821 C 100.682 64.809,99.602 65.464,98.395 66.275 M126.600 66.504 C 128.923 68.204,132.060 71.381,133.290 73.280 C 133.974 74.335,134.610 75.123,134.703 75.031 C 135.419 74.315,127.029 65.553,125.684 65.613 C 125.528 65.620,125.940 66.021,126.600 66.504 M135.086 76.406 C 135.202 76.850,135.455 77.310,135.648 77.430 C 135.842 77.549,136.000 77.986,136.000 78.400 C 136.000 78.814,136.178 79.263,136.395 79.397 C 136.832 79.667,136.638 78.931,135.738 76.900 C 135.090 75.436,134.768 75.193,135.086 76.406 M87.449 82.215 C 87.312 82.573,87.224 83.526,87.253 84.333 C 87.301 85.644,87.338 85.587,87.595 83.800 C 87.903 81.671,87.855 81.158,87.449 82.215 M137.740 87.600 C 137.740 89.470,137.809 90.235,137.893 89.300 C 137.977 88.365,137.977 86.835,137.893 85.900 C 137.809 84.965,137.740 85.730,137.740 87.600 M87.232 91.076 C 87.214 91.998,87.342 92.841,87.516 92.948 C 87.690 93.056,87.767 92.482,87.687 91.672 C 87.469 89.458,87.267 89.195,87.232 91.076 M136.980 93.500 C 136.851 94.105,136.577 95.013,136.372 95.519 C 135.799 96.933,135.962 97.560,136.550 96.200 C 137.130 94.856,137.678 92.400,137.398 92.400 C 137.297 92.400,137.109 92.895,136.980 93.500 M134.825 99.300 C 134.037 100.867,134.032 100.922,134.764 100.000 C 135.471 99.109,136.124 97.600,135.803 97.600 C 135.736 97.600,135.296 98.365,134.825 99.300 M90.400 100.139 C 90.400 100.588,92.177 103.190,92.488 103.195 C 92.646 103.198,92.321 102.530,91.765 101.710 C 90.600 99.993,90.400 99.763,90.400 100.139 M130.434 105.353 L 129.469 106.600 130.613 105.512 C 131.243 104.914,131.677 104.353,131.579 104.265 C 131.480 104.177,130.965 104.667,130.434 105.353 M107.152 112.512 C 107.345 112.705,108.019 112.798,108.651 112.719 C 109.709 112.587,109.681 112.559,108.300 112.368 C 107.440 112.249,106.950 112.310,107.152 112.512 M116.600 112.400 L 115.400 112.705 116.676 112.753 C 117.378 112.779,118.064 112.620,118.200 112.400 C 118.474 111.957,118.340 111.957,116.600 112.400 M125.927 250.300 C 130.617 250.364,138.177 250.364,142.727 250.299 C 147.277 250.235,143.440 250.183,134.200 250.183 C 124.960 250.183,121.237 250.236,125.927 250.300 M224.300 250.282 C 224.795 250.378,225.605 250.378,226.100 250.282 C 226.595 250.187,226.190 250.109,225.200 250.109 C 224.210 250.109,223.805 250.187,224.300 250.282 M267.874 250.299 C 271.655 250.365,277.955 250.365,281.874 250.299 C 285.793 250.234,282.700 250.180,275.000 250.180 C 267.300 250.180,264.093 250.234,267.874 250.299 M221.700 251.196 C 220.985 251.632,220.400 252.075,220.400 252.181 C 220.400 252.286,221.030 252.001,221.800 251.547 C 222.570 251.093,223.200 250.649,223.200 250.560 C 223.200 250.305,223.074 250.358,221.700 251.196 M252.400 253.236 C 251.736 253.779,251.669 253.915,252.200 253.640 C 253.505 252.966,254.228 252.412,253.800 252.415 C 253.580 252.417,252.950 252.786,252.400 253.236 M296.400 252.820 C 297.787 253.761,298.578 254.035,297.600 253.236 C 297.050 252.786,296.420 252.417,296.200 252.415 C 295.980 252.413,296.070 252.596,296.400 252.820 M219.386 254.027 C 219.037 254.702,218.807 255.414,218.876 255.609 C 218.944 255.804,219.302 255.251,219.670 254.382 C 220.465 252.506,220.287 252.284,219.386 254.027 M300.200 255.600 C 301.059 256.480,301.852 257.200,301.962 257.200 C 302.072 257.200,301.459 256.480,300.600 255.600 C 299.741 254.720,298.948 254.000,298.838 254.000 C 298.728 254.000,299.341 254.720,300.200 255.600 M169.606 258.233 C 169.609 258.655,169.795 259.270,170.018 259.600 C 170.315 260.038,170.352 259.876,170.156 259.000 C 169.827 257.529,169.598 257.210,169.606 258.233 M99.123 259.900 C 98.418 260.721,97.890 261.600,98.101 261.600 C 98.183 261.600,98.649 261.060,99.137 260.400 C 100.101 259.096,100.092 258.772,99.123 259.900 M305.246 264.800 C 305.227 265.350,305.387 266.070,305.600 266.400 C 306.094 267.164,306.094 266.342,305.600 264.800 L 305.280 263.800 305.246 264.800 M244.229 265.429 C 244.081 266.015,244.051 266.584,244.161 266.694 C 244.271 266.804,244.481 266.415,244.629 265.829 C 244.776 265.242,244.806 264.673,244.696 264.563 C 244.586 264.453,244.376 264.842,244.229 265.429 M304.909 271.438 C 304.429 272.421,304.185 273.133,304.369 273.019 C 304.782 272.764,306.122 269.988,305.926 269.792 C 305.847 269.714,305.390 270.454,304.909 271.438 M94.449 270.400 C 94.416 270.730,94.289 271.450,94.167 272.000 C 93.975 272.864,94.007 272.903,94.399 272.288 C 94.648 271.897,94.775 271.177,94.681 270.688 C 94.586 270.200,94.482 270.070,94.449 270.400 M106.249 271.415 C 106.112 271.773,106.015 272.366,106.034 272.733 C 106.053 273.100,106.227 272.869,106.421 272.220 C 106.798 270.958,106.665 270.333,106.249 271.415 M106.006 277.433 C 106.009 277.855,106.195 278.470,106.418 278.800 C 106.715 279.238,106.752 279.076,106.556 278.200 C 106.227 276.729,105.998 276.410,106.006 277.433 M94.046 277.600 C 94.065 277.930,94.224 278.650,94.400 279.200 L 94.720 280.200 94.754 279.200 C 94.773 278.650,94.613 277.930,94.400 277.600 C 94.055 277.067,94.016 277.067,94.046 277.600 M113.011 286.546 C 113.445 286.846,114.250 287.213,114.800 287.360 C 115.375 287.515,115.132 287.282,114.229 286.814 C 112.418 285.876,111.868 285.755,113.011 286.546 M119.600 287.856 C 122.574 288.114,135.606 288.186,134.727 287.940 C 134.217 287.797,130.290 287.692,126.000 287.707 C 121.710 287.722,118.830 287.789,119.600 287.856 M98.364 289.133 C 98.580 289.536,99.071 290.121,99.455 290.433 C 99.887 290.784,99.790 290.504,99.201 289.700 C 98.151 288.265,97.757 287.998,98.364 289.133 M100.000 291.325 C 100.000 291.394,100.585 291.979,101.300 292.625 L 102.600 293.800 101.425 292.500 C 100.330 291.288,100.000 291.016,100.000 291.325 M148.428 295.000 C 150.533 297.332,152.369 299.983,153.345 302.100 C 154.046 303.618,154.593 304.188,154.115 302.900 C 153.224 300.503,150.390 296.468,148.144 294.400 C 146.815 293.176,146.850 293.252,148.428 295.000 M217.836 296.836 C 217.244 298.628,216.830 300.163,216.916 300.249 C 217.001 300.335,217.555 298.938,218.145 297.145 C 218.736 295.353,219.150 293.817,219.066 293.733 C 218.982 293.648,218.428 295.045,217.836 296.836 M270.604 295.996 C 269.974 296.654,269.535 297.256,269.629 297.334 C 269.723 297.412,270.313 296.874,270.939 296.138 C 272.354 294.477,272.145 294.388,270.604 295.996 M303.490 295.473 C 303.979 295.873,304.750 296.920,305.204 297.800 C 305.657 298.680,305.906 298.950,305.757 298.400 C 305.365 296.961,304.416 295.631,303.443 295.157 C 302.648 294.770,302.651 294.788,303.490 295.473 M269.043 298.633 C 268.715 299.487,268.747 300.897,269.106 301.462 C 269.268 301.716,269.400 301.041,269.400 299.962 C 269.400 297.781,269.387 297.735,269.043 298.633 M183.457 299.900 C 183.778 301.192,184.762 303.546,184.784 303.075 C 184.808 302.589,183.533 298.800,183.346 298.800 C 183.257 298.800,183.307 299.295,183.457 299.900 M120.900 299.898 C 123.265 299.969,127.135 299.969,129.500 299.898 C 131.865 299.828,129.930 299.770,125.200 299.770 C 120.470 299.770,118.535 299.828,120.900 299.898 M140.000 303.400 C 140.746 304.170,141.447 304.800,141.557 304.800 C 141.667 304.800,141.146 304.170,140.400 303.400 C 139.654 302.630,138.953 302.000,138.843 302.000 C 138.733 302.000,139.254 302.630,140.000 303.400 M269.600 302.658 C 269.600 302.874,270.185 303.579,270.900 304.225 L 272.200 305.400 271.000 304.002 C 270.340 303.233,269.755 302.528,269.700 302.435 C 269.645 302.343,269.600 302.443,269.600 302.658 M155.228 307.833 C 155.244 308.475,155.416 309.360,155.610 309.800 C 155.847 310.334,155.886 310.002,155.727 308.800 C 155.446 306.680,155.188 306.180,155.228 307.833 M155.400 316.000 C 155.246 316.910,155.204 317.738,155.307 317.840 C 155.410 317.943,155.613 317.277,155.760 316.360 C 155.907 315.443,155.948 314.615,155.853 314.520 C 155.758 314.424,155.554 315.090,155.400 316.000 M244.244 321.800 C 244.573 323.271,244.802 323.590,244.794 322.567 C 244.791 322.145,244.605 321.530,244.382 321.200 C 244.085 320.762,244.048 320.924,244.244 321.800 M305.449 321.415 C 305.312 321.773,305.216 322.456,305.236 322.933 C 305.262 323.547,305.385 323.408,305.659 322.456 C 306.057 321.072,305.894 320.258,305.449 321.415 M150.799 327.300 C 150.210 328.104,150.113 328.384,150.545 328.033 C 151.201 327.500,152.193 326.000,151.889 326.000 C 151.813 326.000,151.322 326.585,150.799 327.300 M148.860 329.442 C 148.562 329.778,148.399 330.132,148.495 330.229 C 148.592 330.326,148.998 330.044,149.398 329.602 C 149.797 329.161,149.961 328.807,149.762 328.815 C 149.563 328.824,149.157 329.105,148.860 329.442 M142.485 334.191 C 141.038 334.955,139.393 336.126,140.600 335.531 C 140.820 335.423,141.667 335.029,142.483 334.657 C 143.299 334.284,144.074 333.803,144.207 333.589 C 144.501 333.112,144.572 333.088,142.485 334.191 M297.211 334.220 C 296.447 334.759,295.997 335.199,296.211 335.198 C 296.425 335.197,297.140 334.753,297.800 334.212 C 299.341 332.949,299.005 332.953,297.211 334.220 M195.114 334.204 C 195.341 334.647,195.948 335.366,196.463 335.802 C 197.367 336.566,197.365 336.552,196.406 335.397 C 194.813 333.479,194.679 333.355,195.114 334.204 M95.579 335.378 C 96.085 335.916,97.016 336.536,97.649 336.757 C 99.271 337.323,99.084 336.929,97.394 336.223 C 96.621 335.900,95.882 335.358,95.752 335.018 C 95.621 334.678,95.322 334.400,95.087 334.400 C 94.853 334.400,95.074 334.840,95.579 335.378 M134.000 336.820 C 133.326 337.049,133.651 337.084,135.000 336.928 C 136.100 336.801,137.075 336.631,137.167 336.549 C 137.482 336.268,134.999 336.480,134.000 336.820 M257.233 336.547 C 257.325 336.628,258.120 336.804,259.000 336.938 C 260.115 337.107,260.358 337.071,259.800 336.819 C 259.032 336.471,256.890 336.244,257.233 336.547 M290.200 336.819 C 289.642 337.071,289.885 337.107,291.000 336.938 C 291.880 336.804,292.675 336.628,292.767 336.547 C 293.110 336.244,290.968 336.471,290.200 336.819 " stroke="none" fill="#fcecc6" fill-rule="evenodd"></path><path id="path8" d="M268.494 37.500 C 268.443 58.235,268.535 75.200,268.700 75.200 C 268.972 75.200,268.969 48.302,268.694 13.200 C 268.636 5.830,268.546 16.765,268.494 37.500 M206.184 18.900 L 206.200 25.000 231.300 25.005 L 256.400 25.009 231.410 24.902 L 206.421 24.794 206.294 18.797 L 206.168 12.799 206.184 18.900 M83.400 19.200 C 82.896 19.417,82.822 19.544,83.200 19.544 C 83.530 19.544,84.160 19.389,84.600 19.200 C 85.104 18.983,85.178 18.856,84.800 18.856 C 84.470 18.856,83.840 19.011,83.400 19.200 M80.494 20.680 C 79.577 21.275,78.890 21.824,78.967 21.900 C 79.086 22.019,81.838 20.295,82.356 19.777 C 82.832 19.302,81.992 19.709,80.494 20.680 M94.045 20.743 C 95.037 21.371,96.440 22.586,97.165 23.443 C 97.890 24.299,98.299 24.640,98.074 24.200 C 97.353 22.789,93.581 19.600,92.633 19.600 C 92.419 19.600,93.054 20.114,94.045 20.743 M75.043 28.233 C 74.695 29.138,74.742 34.317,75.100 34.537 C 75.265 34.639,75.400 33.119,75.400 31.160 C 75.400 27.300,75.400 27.301,75.043 28.233 M98.367 37.300 C 98.114 37.795,97.163 39.001,96.253 39.980 C 95.344 40.959,94.954 41.499,95.387 41.180 C 96.973 40.012,99.721 36.400,99.024 36.400 C 98.916 36.400,98.621 36.805,98.367 37.300 M193.862 37.500 C 193.693 37.772,215.783 37.769,245.000 37.493 C 251.160 37.435,242.216 37.345,225.124 37.294 C 208.032 37.242,193.964 37.335,193.862 37.500 M79.600 41.085 C 79.600 41.434,81.199 42.538,81.400 42.328 C 81.467 42.257,81.089 41.877,80.561 41.481 C 80.032 41.086,79.600 40.908,79.600 41.085 M92.806 42.423 C 92.040 42.850,91.680 43.196,92.006 43.191 C 92.333 43.186,93.050 42.830,93.600 42.400 C 94.856 41.417,94.596 41.425,92.806 42.423 M87.600 43.600 L 84.600 43.856 87.400 43.922 C 88.940 43.958,90.470 43.813,90.800 43.600 C 91.130 43.387,91.220 43.242,91.000 43.278 C 90.780 43.314,89.250 43.459,87.600 43.600 M275.800 108.000 C 275.485 108.509,276.412 108.509,277.200 108.000 C 277.688 107.685,277.636 107.611,276.924 107.606 C 276.442 107.603,275.936 107.780,275.800 108.000 M285.400 108.000 C 286.493 108.469,286.800 108.469,286.800 108.000 C 286.800 107.780,286.305 107.613,285.700 107.628 C 284.725 107.653,284.691 107.695,285.400 108.000 M270.400 110.497 C 269.410 111.191,255.759 124.592,240.065 140.277 C 224.371 155.963,211.006 169.106,210.365 169.484 C 209.724 169.863,209.200 170.326,209.200 170.513 C 209.200 171.486,214.205 166.684,240.800 140.200 C 256.750 124.315,270.475 110.918,271.300 110.427 C 272.125 109.936,272.800 109.459,272.800 109.367 C 272.800 108.978,272.092 109.311,270.400 110.497 M292.383 111.146 C 293.144 111.817,293.841 112.293,293.931 112.202 C 294.174 111.959,293.125 110.998,291.992 110.426 C 291.237 110.044,291.331 110.216,292.383 111.146 M300.195 118.304 C 303.492 121.657,306.267 124.400,306.362 124.400 C 306.456 124.400,306.458 124.323,306.367 124.229 C 301.389 119.136,298.790 116.538,296.740 114.604 C 295.343 113.286,296.898 114.951,300.195 118.304 M316.595 134.704 C 319.892 138.057,322.677 140.800,322.782 140.800 C 322.954 140.800,321.648 139.421,317.097 134.800 C 316.339 134.030,314.567 132.322,313.159 131.004 C 311.752 129.686,313.298 131.351,316.595 134.704 M147.600 142.400 C 147.600 142.901,148.024 142.901,148.800 142.400 C 149.285 142.086,149.228 142.011,148.500 142.006 C 148.005 142.003,147.600 142.180,147.600 142.400 M161.600 143.733 C 161.600 143.806,162.455 144.420,163.500 145.098 C 164.545 145.776,166.969 147.876,168.887 149.765 C 170.804 151.654,172.510 153.200,172.678 153.200 C 173.291 153.200,166.137 146.319,164.132 144.980 C 162.215 143.701,161.600 143.398,161.600 143.733 M142.200 144.844 C 141.548 145.163,128.730 157.800,129.060 157.800 C 129.114 157.800,131.739 155.280,134.892 152.200 C 138.045 149.120,141.249 146.108,142.012 145.507 C 143.473 144.357,143.517 144.202,142.200 144.844 M333.795 151.904 C 337.092 155.257,339.877 158.000,339.982 158.000 C 340.311 158.000,334.678 152.280,330.200 148.066 C 328.880 146.824,330.498 148.551,333.795 151.904 M176.989 157.989 C 178.511 159.522,179.828 160.706,179.915 160.618 C 180.116 160.417,174.919 155.200,174.518 155.200 C 174.355 155.200,175.467 156.455,176.989 157.989 M118.195 168.489 C 114.898 171.837,113.640 173.232,115.400 171.589 C 118.784 168.428,124.667 162.400,124.367 162.400 C 124.270 162.400,121.492 165.140,118.195 168.489 M182.000 162.608 C 182.000 163.219,189.084 169.794,190.748 170.726 C 191.656 171.235,192.400 171.504,192.400 171.323 C 192.400 171.143,191.815 170.737,191.100 170.421 C 190.385 170.104,188.045 168.143,185.900 166.062 C 183.755 163.982,182.000 162.427,182.000 162.608 M196.400 172.800 C 197.836 173.260,198.484 173.260,198.200 172.800 C 198.064 172.580,197.378 172.418,196.676 172.440 C 195.457 172.478,195.445 172.494,196.400 172.800 M201.800 172.800 C 201.504 173.280,202.684 173.280,203.800 172.800 C 204.474 172.510,204.400 172.452,203.324 172.428 C 202.622 172.413,201.936 172.580,201.800 172.800 M101.795 184.886 C 98.498 188.233,95.926 190.888,96.081 190.786 C 96.952 190.210,108.264 178.800,107.965 178.800 C 107.869 178.800,105.092 181.539,101.795 184.886 M84.595 202.087 C 81.298 205.435,79.110 207.730,79.734 207.187 C 80.358 206.644,83.058 203.986,85.734 201.281 C 91.443 195.510,90.976 196.000,90.762 196.000 C 90.667 196.000,87.892 198.739,84.595 202.087 M68.195 218.489 C 64.898 221.837,63.640 223.232,65.400 221.589 C 68.784 218.428,74.667 212.400,74.367 212.400 C 74.270 212.400,71.492 215.140,68.195 218.489 " stroke="none" fill="#dcecec" fill-rule="evenodd"></path></g></svg>