<svg id="svg" version="1.1" xmlns="http://www.w3.org/2000/svg" xmlns:xlink="http://www.w3.org/1999/xlink" width="400" height="400" viewBox="0, 0, 400,400"><g id="svgg"><path id="path0" d="M62.606 231.735 C 60.655 232.793,57.600 235.756,57.600 236.589 C 57.600 236.925,57.420 237.200,57.200 237.200 C 56.980 237.200,56.800 237.560,56.800 238.000 C 56.800 238.440,56.620 238.800,56.400 238.800 C 56.135 238.800,56.000 257.400,56.000 293.800 C 56.000 330.200,56.135 348.800,56.400 348.800 C 56.620 348.800,56.800 349.160,56.800 349.600 C 56.800 350.040,56.980 350.400,57.200 350.400 C 57.420 350.400,57.600 350.656,57.600 350.968 C 57.600 351.708,61.092 355.200,61.832 355.200 C 62.144 355.200,62.400 355.380,62.400 355.600 C 62.400 355.820,62.749 356.000,63.176 356.000 C 63.603 356.000,64.064 356.180,64.200 356.400 C 64.344 356.633,66.604 356.800,69.624 356.800 C 72.808 356.800,74.800 356.646,74.800 356.400 C 74.800 356.134,116.800 356.000,200.000 356.000 C 283.200 356.000,325.200 356.134,325.200 356.400 C 325.200 357.270,335.035 356.882,337.057 355.931 C 339.252 354.899,342.400 352.042,342.400 351.081 C 342.400 350.706,342.580 350.400,342.800 350.400 C 343.020 350.400,343.200 350.040,343.200 349.600 C 343.200 349.160,343.380 348.800,343.600 348.800 C 343.865 348.800,344.000 330.200,344.000 293.800 C 344.000 257.400,343.865 238.800,343.600 238.800 C 343.380 238.800,343.200 238.440,343.200 238.000 C 343.200 237.560,343.020 237.200,342.800 237.200 C 342.580 237.200,342.400 236.906,342.400 236.547 C 342.400 235.646,339.365 232.781,337.262 231.696 C 335.365 230.718,325.544 230.320,325.000 231.200 C 324.836 231.465,282.737 231.600,200.000 231.600 C 117.263 231.600,75.164 231.465,75.000 231.200 C 74.472 230.345,64.364 230.782,62.606 231.735 M184.699 259.809 C 185.828 260.373,186.712 261.386,187.830 263.400 C 188.075 263.840,188.691 264.920,189.199 265.800 C 189.707 266.680,190.500 268.120,190.962 269.000 C 191.423 269.880,191.890 270.690,192.000 270.800 C 192.187 270.987,192.742 271.919,193.786 273.800 C 194.277 274.684,196.603 278.725,197.701 280.600 C 198.088 281.260,198.707 282.385,199.076 283.100 C 200.002 284.891,199.794 285.108,203.801 278.155 C 205.781 274.720,207.830 271.165,208.357 270.255 C 210.522 266.509,210.961 265.728,211.762 264.200 C 212.223 263.321,212.915 262.252,213.300 261.825 C 213.685 261.398,214.000 260.916,214.000 260.754 C 214.000 259.515,219.246 258.745,221.481 259.656 C 229.896 263.088,230.484 266.241,224.381 275.229 C 223.511 276.509,222.800 277.658,222.800 277.783 C 222.800 277.908,222.016 279.222,221.058 280.705 C 220.100 282.187,218.096 285.380,216.604 287.800 C 215.112 290.220,213.286 293.142,212.546 294.294 C 210.811 296.993,210.529 296.128,215.734 304.076 C 218.228 307.884,220.502 311.439,220.788 311.975 C 221.074 312.511,221.644 313.310,222.054 313.750 C 222.464 314.191,222.800 314.693,222.800 314.866 C 222.800 315.040,224.240 317.361,226.000 320.025 C 229.599 325.472,229.972 326.971,228.319 329.338 C 224.317 335.069,216.056 336.192,213.601 331.339 C 213.284 330.712,212.553 329.480,211.977 328.600 C 211.401 327.720,210.677 326.415,210.368 325.700 C 210.058 324.985,209.669 324.400,209.502 324.400 C 209.336 324.400,209.200 324.207,209.200 323.972 C 209.200 323.737,208.660 322.759,208.000 321.800 C 207.340 320.841,206.800 319.936,206.800 319.790 C 206.800 319.643,206.461 319.046,206.047 318.462 C 205.633 317.878,204.935 316.770,204.496 316.000 C 204.057 315.230,203.033 313.430,202.220 312.000 C 200.035 308.156,199.924 308.133,198.322 311.200 C 198.035 311.750,196.945 313.608,195.900 315.329 C 194.855 317.051,194.000 318.553,194.000 318.668 C 194.000 318.783,193.661 319.354,193.247 319.938 C 192.833 320.522,192.113 321.675,191.647 322.500 C 186.580 331.474,185.226 333.492,183.898 334.042 C 180.674 335.378,175.843 333.853,172.821 330.547 C 169.576 326.996,169.686 326.614,177.284 315.000 C 179.443 311.700,181.551 308.460,181.969 307.800 C 182.387 307.140,184.095 304.483,185.764 301.896 C 189.448 296.188,189.537 297.535,185.000 290.338 C 182.910 287.023,181.200 284.231,181.200 284.133 C 181.200 284.036,180.480 282.896,179.600 281.600 C 178.720 280.304,178.000 279.054,178.000 278.822 C 178.000 278.590,177.820 278.400,177.600 278.400 C 177.380 278.400,177.200 278.210,177.200 277.978 C 177.200 277.746,176.480 276.496,175.600 275.200 C 174.720 273.904,174.000 272.654,174.000 272.422 C 174.000 272.190,173.820 272.000,173.600 272.000 C 173.380 272.000,173.196 271.775,173.191 271.500 C 173.186 271.225,172.830 270.550,172.400 270.000 C 171.261 268.544,171.312 265.279,172.497 263.754 C 174.086 261.708,174.785 261.226,178.400 259.681 C 179.887 259.046,183.307 259.115,184.699 259.809 M167.880 260.900 C 170.497 263.772,170.919 268.370,168.922 272.241 C 167.783 274.449,167.264 274.583,159.000 274.800 L 151.400 275.000 151.200 302.839 C 150.978 333.749,151.201 331.515,148.200 332.832 C 144.239 334.570,139.200 334.122,136.505 331.792 L 135.000 330.492 134.890 302.446 L 134.779 274.400 127.248 274.400 C 119.770 274.400,119.709 274.393,118.638 273.400 C 115.675 270.654,115.595 263.986,118.489 260.905 L 119.339 260.000 143.200 260.000 L 167.061 260.000 167.880 260.900 M281.206 260.513 C 284.405 263.087,284.406 271.317,281.207 273.595 C 280.172 274.332,279.451 274.400,272.638 274.400 L 265.200 274.400 265.200 302.247 L 265.200 330.094 263.695 331.599 C 261.095 334.199,255.529 334.692,251.537 332.676 C 248.673 331.229,248.812 332.796,248.806 302.100 L 248.800 274.400 241.386 274.400 C 235.165 274.400,233.810 274.294,232.963 273.739 C 229.581 271.523,229.439 263.040,232.742 260.526 C 233.684 259.809,280.315 259.796,281.206 260.513 " stroke="none" fill="#f35444" fill-rule="evenodd"></path><path id="path1" d="M250.252 19.300 C 250.119 19.795,250.008 36.715,250.005 56.900 L 250.000 93.600 287.600 93.600 C 312.723 93.600,325.200 93.466,325.200 93.195 C 325.200 92.826,251.020 18.400,250.652 18.400 C 250.565 18.400,250.385 18.805,250.252 19.300 M110.336 150.538 C 105.499 152.687,105.077 159.010,109.602 161.553 L 111.109 162.400 200.000 162.400 L 288.891 162.400 290.487 161.503 C 294.957 158.991,294.468 152.583,289.651 150.565 C 287.821 149.798,112.060 149.771,110.336 150.538 M109.543 188.463 C 105.073 191.055,105.540 197.420,110.349 199.435 C 111.497 199.916,124.867 200.000,200.211 200.000 L 288.724 200.000 290.317 199.150 C 294.558 196.886,294.604 190.811,290.398 188.447 L 288.891 187.600 199.946 187.609 L 111.000 187.618 109.543 188.463 " stroke="none" fill="#44546c" fill-rule="evenodd"></path><path id="path2" d="M82.578 18.948 C 81.905 19.196,80.877 19.715,80.292 20.100 C 79.707 20.485,79.012 20.800,78.747 20.800 C 78.483 20.800,78.377 20.910,78.511 21.044 C 78.646 21.179,78.226 21.735,77.578 22.280 C 76.930 22.825,76.400 23.615,76.400 24.036 C 76.400 24.456,76.220 24.800,76.000 24.800 C 75.780 24.800,75.600 25.160,75.600 25.600 C 75.600 26.040,75.420 26.400,75.200 26.400 C 74.934 26.400,74.800 60.733,74.800 128.600 L 74.800 230.800 200.000 230.800 L 325.200 230.800 325.200 162.402 L 325.200 94.004 287.500 93.902 L 249.800 93.800 249.698 56.100 L 249.596 18.400 166.698 18.448 C 106.138 18.483,83.471 18.617,82.578 18.948 M290.758 150.431 C 295.400 153.261,295.254 159.566,290.483 162.300 C 289.203 163.034,110.797 163.034,109.517 162.300 C 104.746 159.566,104.600 153.261,109.242 150.431 L 110.600 149.603 200.000 149.603 L 289.400 149.603 290.758 150.431 M290.483 187.700 C 295.314 190.468,295.314 197.132,290.483 199.900 C 289.203 200.634,110.797 200.634,109.517 199.900 C 104.726 197.154,104.676 190.637,109.424 187.724 C 110.585 187.011,289.240 186.987,290.483 187.700 M180.000 260.284 C 174.121 260.883,170.960 265.952,173.693 270.400 C 174.436 271.610,175.305 273.050,175.622 273.600 C 175.940 274.150,176.290 274.690,176.401 274.800 C 176.511 274.910,176.856 275.495,177.168 276.100 C 177.480 276.705,177.885 277.200,178.068 277.200 C 178.250 277.200,178.400 277.478,178.400 277.817 C 178.400 278.156,178.760 278.820,179.200 279.292 C 179.640 279.764,180.000 280.387,180.000 280.675 C 180.000 280.964,180.180 281.200,180.400 281.200 C 180.620 281.200,180.800 281.388,180.800 281.618 C 180.800 281.848,181.700 283.370,182.800 285.000 C 183.900 286.630,184.800 288.137,184.800 288.349 C 184.800 288.560,184.938 288.793,185.108 288.867 C 185.277 288.940,186.202 290.350,187.164 292.000 C 188.126 293.650,189.186 295.316,189.520 295.702 C 190.331 296.639,190.103 297.099,184.975 304.894 C 182.679 308.385,180.800 311.329,180.800 311.437 C 180.800 311.545,180.440 312.020,180.000 312.492 C 179.560 312.964,179.200 313.587,179.200 313.875 C 179.200 314.164,179.020 314.400,178.800 314.400 C 178.580 314.400,178.400 314.636,178.400 314.925 C 178.400 315.213,178.085 315.798,177.700 316.225 C 177.315 316.651,176.745 317.495,176.432 318.100 C 176.120 318.705,175.715 319.200,175.532 319.200 C 175.350 319.200,175.200 319.393,175.200 319.628 C 175.200 319.863,174.627 320.889,173.926 321.908 C 171.137 325.961,171.200 328.113,174.185 330.733 C 177.736 333.851,183.846 334.388,185.230 331.703 C 185.543 331.096,185.889 330.510,185.999 330.400 C 186.110 330.290,186.637 329.390,187.170 328.400 C 187.704 327.410,188.246 326.510,188.376 326.400 C 188.505 326.290,189.042 325.345,189.568 324.300 C 190.095 323.255,190.677 322.400,190.863 322.400 C 191.048 322.400,191.200 322.040,191.200 321.600 C 191.200 321.160,191.359 320.800,191.553 320.800 C 191.748 320.800,192.007 320.485,192.129 320.100 C 192.346 319.415,193.604 317.196,194.000 316.800 C 194.110 316.690,194.442 316.170,194.738 315.645 C 195.033 315.120,195.609 314.097,196.016 313.371 C 196.424 312.646,197.185 311.365,197.708 310.526 C 198.231 309.687,198.779 308.672,198.927 308.272 C 199.097 307.812,199.510 307.591,200.046 307.672 C 200.858 307.794,203.594 312.157,210.062 323.645 C 210.358 324.170,210.690 324.690,210.800 324.800 C 211.196 325.196,212.454 327.415,212.671 328.100 C 212.793 328.485,213.052 328.800,213.247 328.800 C 213.441 328.800,213.600 328.993,213.600 329.228 C 213.600 329.463,214.149 330.453,214.819 331.428 L 216.038 333.200 218.824 333.200 C 224.608 333.200,229.246 329.226,227.983 325.353 C 227.252 323.109,227.103 322.800,226.753 322.800 C 226.559 322.800,226.400 322.530,226.400 322.200 C 226.400 321.870,226.220 321.600,226.000 321.600 C 225.780 321.600,225.600 321.330,225.600 321.000 C 225.600 320.670,225.420 320.400,225.200 320.400 C 224.980 320.400,224.800 320.164,224.800 319.875 C 224.800 319.587,224.440 318.964,224.000 318.492 C 223.560 318.020,223.200 317.446,223.200 317.217 C 223.200 316.988,223.020 316.800,222.800 316.800 C 222.580 316.800,222.400 316.564,222.400 316.275 C 222.400 315.987,222.040 315.364,221.600 314.892 C 221.160 314.420,220.800 313.943,220.800 313.834 C 220.800 313.724,218.899 310.730,216.575 307.180 C 214.251 303.631,212.152 300.293,211.910 299.763 C 211.669 299.233,211.342 298.800,211.184 298.800 C 210.408 298.800,209.915 296.428,210.557 295.786 C 210.911 295.432,211.200 294.989,211.200 294.800 C 211.200 294.611,211.425 294.219,211.700 293.929 C 211.975 293.638,212.638 292.590,213.173 291.600 C 213.708 290.610,214.453 289.350,214.829 288.800 C 216.660 286.123,219.200 281.933,219.200 281.588 C 219.200 281.374,219.380 281.200,219.600 281.200 C 219.820 281.200,220.000 280.964,220.000 280.675 C 220.000 280.387,220.315 279.794,220.700 279.358 C 221.588 278.353,222.783 276.409,223.071 275.500 C 223.193 275.115,223.452 274.800,223.647 274.800 C 223.841 274.800,224.000 274.564,224.000 274.275 C 224.000 273.987,224.360 273.364,224.800 272.892 C 225.240 272.420,225.600 271.919,225.600 271.778 C 225.600 271.638,225.929 271.046,226.330 270.462 C 228.415 267.430,228.258 265.521,225.728 263.138 C 221.637 259.285,213.604 259.260,213.600 263.100 C 213.600 263.375,213.454 263.600,213.275 263.600 C 213.096 263.600,212.702 264.230,212.400 265.000 C 212.098 265.770,211.725 266.400,211.572 266.400 C 211.419 266.400,211.190 266.715,211.064 267.100 C 210.938 267.485,210.352 268.610,209.761 269.600 C 208.663 271.440,207.780 272.971,206.185 275.800 C 205.689 276.680,204.399 278.930,203.320 280.800 C 202.241 282.670,201.238 284.515,201.091 284.900 C 200.407 286.700,195.429 280.402,194.471 276.523 C 194.400 276.235,194.175 276.000,193.971 276.000 C 193.767 276.000,193.600 275.640,193.600 275.200 C 193.600 274.760,193.441 274.400,193.247 274.400 C 193.052 274.400,192.793 274.085,192.671 273.700 C 192.454 273.015,191.196 270.796,190.800 270.400 C 190.690 270.290,190.358 269.770,190.062 269.245 C 189.767 268.720,189.154 267.640,188.701 266.845 C 188.248 266.050,187.521 264.743,187.086 263.940 C 185.308 260.661,183.822 259.894,180.000 260.284 M119.689 261.119 C 116.996 263.192,116.688 270.108,119.171 272.785 C 119.637 273.287,121.144 273.425,127.371 273.537 C 131.798 273.617,135.210 273.847,135.500 274.086 C 135.891 274.408,136.000 280.500,136.000 302.075 C 136.000 320.225,136.141 329.916,136.412 330.422 C 137.851 333.111,144.830 333.810,148.400 331.623 C 150.457 330.364,150.374 331.612,150.387 301.900 L 150.400 274.000 158.400 274.000 C 163.467 274.000,166.400 273.853,166.400 273.600 C 166.400 273.380,166.650 273.200,166.956 273.200 C 169.935 273.200,169.688 263.060,166.661 261.077 C 165.049 260.020,121.066 260.059,119.689 261.119 M232.900 261.782 C 232.185 262.524,231.600 263.495,231.600 263.940 C 231.600 264.384,231.407 265.255,231.170 265.874 C 230.736 267.013,231.068 268.830,232.146 271.200 C 233.131 273.368,233.203 273.386,241.571 273.600 L 249.400 273.800 249.495 301.600 C 249.597 331.083,249.568 330.660,251.544 331.630 C 255.665 333.652,260.671 333.365,263.066 330.971 L 264.000 330.036 264.000 302.267 C 264.000 280.538,264.109 274.408,264.500 274.086 C 264.790 273.847,268.202 273.617,272.629 273.537 C 280.860 273.389,280.774 273.412,281.990 271.057 C 282.795 269.500,282.731 264.591,281.884 262.959 C 280.498 260.287,281.603 260.398,256.714 260.416 L 234.200 260.432 232.900 261.782 M75.067 356.666 C 74.105 357.628,74.957 374.242,76.017 375.200 C 76.729 375.843,77.937 377.930,77.722 378.145 C 77.581 378.285,77.845 378.400,78.306 378.400 C 78.797 378.400,79.252 378.735,79.402 379.206 C 79.543 379.649,79.810 379.917,79.997 379.802 C 80.183 379.687,80.607 379.864,80.939 380.196 C 81.271 380.528,81.926 380.800,82.395 380.800 C 82.864 380.800,83.137 380.979,83.002 381.197 C 82.839 381.460,122.467 381.596,200.002 381.599 C 278.325 381.601,317.167 381.469,317.001 381.201 C 316.864 380.981,317.136 380.800,317.605 380.800 C 318.074 380.800,318.729 380.528,319.061 380.196 C 319.393 379.864,319.830 379.695,320.032 379.820 C 320.235 379.945,320.400 379.857,320.400 379.624 C 320.400 379.391,320.715 379.197,321.100 379.194 C 321.698 379.189,321.713 379.131,321.200 378.800 C 320.721 378.491,320.796 378.411,321.567 378.406 C 322.098 378.403,322.414 378.281,322.269 378.136 C 322.124 377.991,322.364 377.620,322.803 377.313 C 323.241 377.006,323.600 376.517,323.600 376.226 C 323.600 375.936,323.858 375.484,324.173 375.222 C 324.908 374.612,324.889 374.867,324.949 365.000 L 325.000 356.600 200.167 356.499 C 131.509 356.444,75.214 356.519,75.067 356.666 " stroke="none" fill="#d4d3d3" fill-rule="evenodd"></path><path id="path3" d="M283.309 267.200 C 283.309 268.190,283.387 268.595,283.482 268.100 C 283.578 267.605,283.578 266.795,283.482 266.300 C 283.387 265.805,283.309 266.210,283.309 267.200 M116.493 267.200 C 116.493 267.970,116.575 268.285,116.676 267.900 C 116.776 267.515,116.776 266.885,116.676 266.500 C 116.575 266.115,116.493 266.430,116.493 267.200 M124.080 274.298 C 125.994 274.371,129.234 274.371,131.280 274.298 C 133.326 274.226,131.760 274.166,127.800 274.165 C 123.840 274.165,122.166 274.224,124.080 274.298 M238.080 274.298 C 239.994 274.371,243.234 274.371,245.280 274.298 C 247.326 274.226,245.760 274.166,241.800 274.165 C 237.840 274.165,236.166 274.224,238.080 274.298 M268.480 274.298 C 270.394 274.371,273.634 274.371,275.680 274.298 C 277.726 274.226,276.160 274.166,272.200 274.165 C 268.240 274.165,266.566 274.224,268.480 274.298 M217.905 334.283 C 218.402 334.379,219.122 334.375,219.505 334.275 C 219.887 334.175,219.480 334.096,218.600 334.101 C 217.720 334.105,217.407 334.187,217.905 334.283 " stroke="none" fill="#e4948c" fill-rule="evenodd"></path><path id="path4" d="M137.500 231.100 C 171.875 231.156,228.125 231.156,262.500 231.100 C 296.875 231.044,268.750 230.997,200.000 230.997 C 131.250 230.997,103.125 231.044,137.500 231.100 M180.484 259.939 C 180.174 260.137,180.697 260.267,181.800 260.267 C 182.903 260.267,183.426 260.137,183.116 259.939 C 182.832 259.759,182.240 259.612,181.800 259.612 C 181.360 259.612,180.768 259.759,180.484 259.939 M216.884 259.939 C 216.574 260.137,217.097 260.267,218.200 260.267 C 219.303 260.267,219.826 260.137,219.516 259.939 C 219.232 259.759,218.640 259.612,218.200 259.612 C 217.760 259.612,217.168 259.759,216.884 259.939 M232.868 261.327 C 231.647 262.627,231.782 262.982,233.024 261.739 C 233.588 261.176,233.978 260.645,233.892 260.559 C 233.807 260.473,233.346 260.819,232.868 261.327 M173.800 263.200 C 173.168 263.860,172.819 264.390,173.025 264.378 C 173.378 264.357,175.439 262.000,175.105 262.000 C 175.020 262.000,174.432 262.540,173.800 263.200 M224.800 262.125 C 224.800 262.194,225.385 262.779,226.100 263.425 L 227.400 264.600 226.225 263.300 C 225.130 262.088,224.800 261.816,224.800 262.125 M231.029 265.029 C 230.881 265.615,230.838 266.172,230.932 266.266 C 231.027 266.360,231.224 265.958,231.371 265.371 C 231.519 264.785,231.562 264.228,231.468 264.134 C 231.373 264.040,231.176 264.442,231.029 265.029 M117.334 267.200 C 117.334 268.850,117.405 269.525,117.491 268.700 C 117.578 267.875,117.578 266.525,117.491 265.700 C 117.405 264.875,117.334 265.550,117.334 267.200 M172.156 265.771 C 172.035 266.085,172.004 266.760,172.086 267.271 C 172.195 267.954,172.288 267.804,172.437 266.700 C 172.647 265.147,172.536 264.781,172.156 265.771 M231.044 269.000 C 231.373 270.471,231.602 270.790,231.594 269.767 C 231.591 269.345,231.405 268.730,231.182 268.400 C 230.885 267.962,230.848 268.124,231.044 269.000 M120.265 273.600 C 120.374 273.710,123.825 273.890,127.932 274.000 L 135.400 274.200 135.604 302.000 L 135.808 329.800 135.904 302.149 C 135.980 280.390,135.893 274.409,135.499 274.082 C 135.006 273.673,119.859 273.194,120.265 273.600 M234.265 273.600 C 234.374 273.710,237.861 273.890,242.013 274.000 C 246.165 274.110,249.436 274.078,249.281 273.929 C 248.962 273.621,233.957 273.292,234.265 273.600 M272.029 273.500 C 267.731 273.574,264.856 273.788,264.529 274.059 C 264.098 274.417,264.018 279.612,264.096 302.149 L 264.192 329.800 264.396 302.000 L 264.600 274.200 272.068 274.000 C 276.175 273.890,279.670 273.665,279.835 273.500 C 279.999 273.335,279.878 273.240,279.567 273.290 C 279.255 273.339,275.863 273.434,272.029 273.500 M196.360 280.200 C 197.034 281.505,197.588 282.228,197.585 281.800 C 197.583 281.580,197.214 280.950,196.764 280.400 C 196.221 279.736,196.085 279.669,196.360 280.200 M200.800 284.733 C 200.800 284.990,200.395 285.221,199.900 285.246 C 199.159 285.285,199.131 285.327,199.742 285.484 C 200.540 285.689,201.525 284.991,201.073 284.540 C 200.923 284.390,200.800 284.477,200.800 284.733 M183.560 286.600 C 184.234 287.905,184.788 288.628,184.785 288.200 C 184.783 287.980,184.414 287.350,183.964 286.800 C 183.421 286.136,183.285 286.069,183.560 286.600 M185.201 289.033 C 185.203 289.482,186.713 292.000,186.981 292.000 C 187.086 292.000,186.787 291.325,186.314 290.500 C 185.256 288.652,185.200 288.577,185.201 289.033 M213.800 290.400 C 213.459 291.060,213.269 291.600,213.379 291.600 C 213.489 291.600,213.859 291.060,214.200 290.400 C 214.541 289.740,214.731 289.200,214.621 289.200 C 214.511 289.200,214.141 289.740,213.800 290.400 M210.025 296.281 C 209.986 297.037,210.887 298.800,211.313 298.800 C 211.535 298.800,211.515 298.579,211.265 298.278 C 211.027 297.992,210.656 297.317,210.441 296.778 C 210.227 296.240,210.039 296.017,210.025 296.281 M186.953 301.300 C 185.576 303.636,185.486 303.835,186.187 303.000 C 187.000 302.032,187.700 300.800,187.438 300.800 C 187.333 300.800,187.115 301.025,186.953 301.300 M201.925 310.200 C 202.372 311.080,203.033 312.160,203.394 312.600 C 203.755 313.040,203.559 312.500,202.959 311.400 C 201.616 308.938,200.807 307.999,201.925 310.200 M204.600 314.800 C 204.941 315.460,205.311 316.000,205.421 316.000 C 205.531 316.000,205.341 315.460,205.000 314.800 C 204.659 314.140,204.289 313.600,204.179 313.600 C 204.069 313.600,204.259 314.140,204.600 314.800 M228.160 326.620 C 228.160 327.435,228.287 327.789,228.474 327.494 C 228.883 326.850,228.887 325.701,228.480 325.449 C 228.304 325.341,228.160 325.867,228.160 326.620 M172.400 329.325 C 172.400 329.394,172.985 329.979,173.700 330.625 L 175.000 331.800 173.825 330.500 C 172.730 329.288,172.400 329.016,172.400 329.325 M136.000 330.352 C 136.000 330.742,137.555 332.198,137.723 331.964 C 137.787 331.874,137.426 331.401,136.920 330.914 C 136.414 330.427,136.000 330.174,136.000 330.352 M262.914 331.080 C 262.427 331.586,262.174 332.000,262.352 332.000 C 262.742 332.000,264.198 330.445,263.964 330.277 C 263.874 330.213,263.401 330.574,262.914 331.080 M180.173 333.668 C 181.038 333.860,182.171 333.876,182.691 333.703 C 183.364 333.479,182.912 333.378,181.118 333.353 C 178.784 333.320,178.715 333.343,180.173 333.668 M217.500 333.489 C 218.215 333.578,219.385 333.578,220.100 333.489 C 220.815 333.401,220.230 333.328,218.800 333.328 C 217.370 333.328,216.785 333.401,217.500 333.489 " stroke="none" fill="#dcc3c1" fill-rule="evenodd"></path><path id="path5" d="M137.500 231.500 C 171.875 231.556,228.125 231.556,262.500 231.500 C 296.875 231.444,268.750 231.397,200.000 231.397 C 131.250 231.397,103.125 231.444,137.500 231.500 M178.800 259.595 C 178.391 259.855,178.710 259.899,179.800 259.732 C 181.777 259.429,182.114 259.198,180.567 259.206 C 179.925 259.209,179.130 259.384,178.800 259.595 M182.000 259.355 C 182.000 259.440,182.530 259.587,183.179 259.682 C 183.827 259.777,184.267 259.708,184.155 259.528 C 183.957 259.207,182.000 259.050,182.000 259.355 M215.845 259.528 C 215.733 259.708,216.173 259.777,216.821 259.682 C 217.470 259.587,218.000 259.440,218.000 259.355 C 218.000 259.050,216.043 259.207,215.845 259.528 M218.433 259.343 C 218.525 259.422,219.320 259.597,220.200 259.732 C 221.290 259.899,221.609 259.855,221.200 259.595 C 220.653 259.246,218.045 259.009,218.433 259.343 M118.529 260.900 C 118.084 261.395,117.589 262.070,117.430 262.400 C 117.271 262.730,117.540 262.489,118.029 261.865 C 118.517 261.241,119.296 260.578,119.759 260.391 C 120.331 260.159,120.399 260.043,119.970 260.025 C 119.623 260.011,118.975 260.405,118.529 260.900 M166.433 260.100 C 166.525 260.155,167.140 260.650,167.800 261.200 L 169.000 262.200 168.030 261.100 C 167.497 260.495,166.882 260.000,166.664 260.000 C 166.445 260.000,166.342 260.045,166.433 260.100 M185.085 260.260 C 185.352 260.368,185.957 261.083,186.430 261.849 C 186.904 262.615,187.379 263.154,187.486 263.047 C 187.786 262.748,185.565 259.996,185.053 260.032 C 184.751 260.053,184.761 260.129,185.085 260.260 M280.033 260.100 C 280.125 260.155,280.695 260.636,281.300 261.170 C 281.905 261.703,282.400 262.025,282.400 261.885 C 282.400 261.496,280.700 260.000,280.258 260.000 C 280.043 260.000,279.942 260.045,280.033 260.100 M174.562 261.662 L 173.800 262.524 174.900 261.816 C 176.034 261.086,176.249 260.800,175.662 260.800 C 175.476 260.800,174.981 261.188,174.562 261.662 M224.000 260.954 C 224.000 261.039,224.495 261.427,225.100 261.816 L 226.200 262.524 225.438 261.662 C 224.764 260.899,224.000 260.523,224.000 260.954 M172.457 263.799 C 171.948 264.542,171.616 265.476,171.719 265.875 C 171.877 266.485,171.915 266.466,171.954 265.754 C 171.979 265.289,172.381 264.424,172.846 263.833 C 173.311 263.242,173.622 262.688,173.537 262.603 C 173.452 262.518,172.966 263.056,172.457 263.799 M116.600 264.400 C 116.448 265.091,116.407 265.741,116.509 265.842 C 116.611 265.944,116.809 265.453,116.950 264.750 C 117.283 263.083,116.960 262.760,116.600 264.400 M227.284 263.803 C 227.440 264.045,227.744 264.683,227.959 265.222 C 228.206 265.840,228.359 265.959,228.375 265.544 C 228.389 265.184,228.085 264.545,227.700 264.125 C 227.315 263.706,227.128 263.560,227.284 263.803 M169.729 267.400 C 169.733 269.865,169.777 270.027,170.093 268.757 C 170.307 267.899,170.305 266.765,170.088 265.957 C 169.775 264.791,169.724 264.995,169.729 267.400 M189.786 267.500 C 190.135 268.215,190.506 268.800,190.610 268.800 C 191.008 268.800,190.752 268.163,189.967 267.200 L 189.152 266.200 189.786 267.500 M171.663 268.000 C 171.638 268.550,171.995 269.450,172.456 270.000 L 173.295 271.000 172.685 269.971 C 172.349 269.405,171.992 268.505,171.892 267.971 L 171.709 267.000 171.663 268.000 M116.427 268.913 C 116.396 269.743,117.444 272.400,117.803 272.400 C 117.937 272.400,117.920 272.194,117.764 271.942 C 117.609 271.691,117.250 270.746,116.968 269.842 C 116.685 268.939,116.441 268.521,116.427 268.913 M283.029 269.829 C 282.881 270.415,282.838 270.972,282.932 271.066 C 283.027 271.160,283.224 270.758,283.371 270.171 C 283.519 269.585,283.562 269.028,283.468 268.934 C 283.373 268.840,283.176 269.242,283.029 269.829 M226.492 271.335 C 226.059 272.069,225.389 273.194,225.005 273.835 L 224.305 275.000 225.133 274.000 C 226.079 272.857,227.744 270.000,227.465 270.000 C 227.363 270.000,226.925 270.601,226.492 271.335 M174.015 272.600 C 174.017 272.820,174.386 273.450,174.836 274.000 C 175.379 274.664,175.515 274.731,175.240 274.200 C 174.566 272.895,174.012 272.172,174.015 272.600 M205.453 275.300 L 204.733 276.600 205.558 275.600 C 206.289 274.713,206.614 274.000,206.286 274.000 C 206.224 274.000,205.849 274.585,205.453 275.300 M134.989 301.800 C 134.989 316.980,135.039 323.132,135.100 315.471 C 135.161 307.810,135.161 295.390,135.100 287.871 C 135.039 280.352,134.989 286.620,134.989 301.800 M151.043 275.033 C 150.909 275.381,150.800 287.998,150.800 303.072 L 150.800 330.479 149.500 331.702 C 148.738 332.418,148.545 332.742,149.033 332.484 C 151.074 331.405,150.986 332.611,151.200 302.839 L 151.400 275.000 158.600 274.786 L 165.800 274.572 158.543 274.486 C 152.243 274.411,151.254 274.483,151.043 275.033 M248.989 302.200 C 248.989 317.600,249.039 323.842,249.100 316.071 C 249.161 308.300,249.161 295.700,249.100 288.071 C 249.039 280.442,248.989 286.800,248.989 302.200 M264.897 302.069 L 264.800 329.939 263.790 331.139 C 263.234 331.800,262.019 332.625,261.090 332.973 C 259.888 333.422,259.747 333.541,260.600 333.384 C 262.001 333.127,263.452 332.151,264.478 330.775 C 265.168 329.851,265.201 328.349,265.100 302.000 L 264.994 274.200 264.897 302.069 M195.056 276.700 C 196.444 279.118,197.200 280.251,197.200 279.910 C 197.200 279.519,194.397 274.800,194.164 274.800 C 194.055 274.800,194.457 275.655,195.056 276.700 M221.853 278.900 L 221.133 280.200 221.958 279.200 C 222.689 278.313,223.014 277.600,222.686 277.600 C 222.624 277.600,222.249 278.185,221.853 278.900 M178.015 279.000 C 178.017 279.220,178.386 279.850,178.836 280.400 C 179.379 281.064,179.515 281.131,179.240 280.600 C 178.566 279.295,178.012 278.572,178.015 279.000 M202.253 280.900 L 201.533 282.200 202.358 281.200 C 203.089 280.313,203.414 279.600,203.086 279.600 C 203.024 279.600,202.649 280.185,202.253 280.900 M198.779 283.158 C 199.790 285.140,200.185 285.201,201.009 283.500 C 201.565 282.352,201.566 282.291,201.019 282.976 C 200.679 283.404,200.400 283.899,200.400 284.076 C 200.400 284.847,199.656 284.300,199.196 283.191 C 198.921 282.527,198.526 281.878,198.318 281.750 C 198.111 281.621,198.318 282.255,198.779 283.158 M218.600 284.000 C 218.259 284.660,218.069 285.200,218.179 285.200 C 218.289 285.200,218.659 284.660,219.000 284.000 C 219.341 283.340,219.531 282.800,219.421 282.800 C 219.311 282.800,218.941 283.340,218.600 284.000 M181.209 284.300 C 181.214 284.465,181.585 285.050,182.033 285.600 L 182.848 286.600 182.214 285.300 C 181.611 284.065,181.189 283.645,181.209 284.300 M216.246 287.800 C 215.891 288.350,215.309 289.295,214.953 289.900 L 214.305 291.000 215.110 290.026 C 216.060 288.876,217.321 286.800,217.069 286.800 C 216.971 286.800,216.601 287.250,216.246 287.800 M184.205 288.965 C 184.589 289.606,185.259 290.731,185.692 291.465 C 186.125 292.199,186.563 292.800,186.665 292.800 C 186.944 292.800,185.279 289.943,184.333 288.800 L 183.505 287.800 184.205 288.965 M212.457 293.851 C 211.528 295.309,210.850 296.704,210.952 296.951 C 211.068 297.234,211.149 297.204,211.168 296.872 C 211.186 296.582,211.713 295.592,212.341 294.672 C 213.586 292.847,214.509 291.200,214.288 291.200 C 214.210 291.200,213.386 292.393,212.457 293.851 M188.153 295.286 C 189.018 296.737,188.985 296.983,187.668 298.928 C 186.227 301.056,185.912 301.600,186.120 301.600 C 186.443 301.600,189.200 297.206,189.191 296.706 C 189.186 296.428,188.805 295.750,188.344 295.200 L 187.505 294.200 188.153 295.286 M212.212 299.200 C 212.824 300.314,216.506 305.797,216.913 306.200 C 217.510 306.790,216.952 305.844,214.675 302.400 C 212.804 299.571,211.449 297.811,212.212 299.200 M182.518 306.900 C 180.497 310.072,180.311 310.400,180.541 310.400 C 180.644 310.400,181.432 309.275,182.293 307.900 C 184.382 304.562,184.474 304.400,184.279 304.400 C 184.187 304.400,183.394 305.525,182.518 306.900 M199.353 308.900 C 199.190 309.175,198.798 309.850,198.481 310.400 L 197.905 311.400 198.744 310.400 C 199.205 309.850,199.586 309.246,199.591 309.057 C 199.596 308.869,199.879 308.822,200.221 308.953 C 200.577 309.089,200.737 309.022,200.597 308.795 C 200.262 308.253,199.706 308.300,199.353 308.900 M218.813 309.282 C 218.800 309.555,220.610 312.361,221.074 312.790 C 221.461 313.147,220.098 310.648,219.443 309.800 C 219.103 309.360,218.820 309.127,218.813 309.282 M197.053 312.900 L 196.333 314.200 197.158 313.200 C 197.889 312.313,198.214 311.600,197.886 311.600 C 197.824 311.600,197.449 312.185,197.053 312.900 M202.749 313.000 C 202.965 313.440,203.434 314.160,203.793 314.600 L 204.444 315.400 204.051 314.600 C 203.835 314.160,203.366 313.440,203.007 313.000 L 202.356 312.200 202.749 313.000 M221.845 314.212 C 222.210 314.769,222.586 315.147,222.682 315.051 C 222.919 314.814,221.884 313.200,221.495 313.200 C 221.322 313.200,221.480 313.656,221.845 314.212 M195.552 315.300 C 195.290 315.795,194.815 316.650,194.496 317.200 C 193.939 318.159,193.943 318.167,194.588 317.400 C 195.386 316.452,196.505 314.400,196.224 314.400 C 196.116 314.400,195.814 314.805,195.552 315.300 M175.525 317.700 C 172.995 321.528,172.706 322.000,172.897 322.000 C 173.064 322.000,174.159 320.423,176.577 316.700 C 176.970 316.095,177.207 315.600,177.103 315.600 C 176.998 315.600,176.289 316.545,175.525 317.700 M204.400 315.720 C 204.400 316.104,206.445 319.200,206.699 319.200 C 206.878 319.200,206.241 318.119,204.939 316.211 C 204.642 315.777,204.400 315.556,204.400 315.720 M192.986 319.700 L 192.352 321.000 193.167 320.000 C 193.952 319.037,194.208 318.400,193.810 318.400 C 193.706 318.400,193.335 318.985,192.986 319.700 M206.815 319.800 C 206.817 320.020,207.186 320.650,207.636 321.200 C 208.179 321.864,208.315 321.931,208.040 321.400 C 207.366 320.095,206.812 319.372,206.815 319.800 M227.823 323.403 C 228.634 324.788,228.847 325.616,228.740 326.965 C 228.663 327.932,228.735 328.640,228.900 328.538 C 229.895 327.923,228.133 321.600,226.966 321.600 C 226.856 321.600,227.242 322.412,227.823 323.403 M170.832 326.676 C 170.814 327.598,170.942 328.441,171.116 328.548 C 171.290 328.656,171.367 328.082,171.287 327.272 C 171.069 325.058,170.867 324.795,170.832 326.676 M210.809 326.700 C 210.814 326.865,211.185 327.450,211.633 328.000 L 212.448 329.000 211.814 327.700 C 211.211 326.465,210.789 326.045,210.809 326.700 M187.400 329.200 C 187.059 329.860,186.869 330.400,186.979 330.400 C 187.089 330.400,187.459 329.860,187.800 329.200 C 188.141 328.540,188.331 328.000,188.221 328.000 C 188.111 328.000,187.741 328.540,187.400 329.200 M135.200 330.264 C 135.200 330.482,135.695 331.097,136.300 331.630 L 137.400 332.600 136.400 331.400 C 135.850 330.740,135.355 330.125,135.300 330.033 C 135.245 329.942,135.200 330.045,135.200 330.264 M213.200 330.783 C 213.200 331.398,216.221 334.400,216.838 334.399 C 217.147 334.398,216.824 334.046,216.119 333.616 C 215.415 333.187,214.555 332.287,214.209 331.618 C 213.573 330.388,213.200 330.080,213.200 330.783 M249.209 330.638 C 249.190 331.565,252.621 333.635,254.087 333.581 C 254.369 333.571,253.701 333.212,252.603 332.783 C 251.505 332.355,250.294 331.598,249.912 331.102 C 249.530 330.606,249.214 330.397,249.209 330.638 M173.982 331.778 C 174.680 332.619,176.795 333.738,177.104 333.429 C 177.230 333.303,177.148 333.200,176.922 333.200 C 176.697 333.200,175.816 332.728,174.967 332.152 C 174.117 331.575,173.674 331.407,173.982 331.778 M224.811 332.220 C 222.984 333.509,223.613 333.492,225.514 332.200 C 226.323 331.650,226.809 331.209,226.593 331.220 C 226.377 331.230,225.575 331.680,224.811 332.220 M142.105 333.887 C 142.714 333.979,143.614 333.977,144.105 333.882 C 144.597 333.787,144.100 333.711,143.000 333.714 C 141.900 333.717,141.497 333.795,142.105 333.887 M178.200 334.000 C 178.640 334.189,179.270 334.344,179.600 334.344 C 179.978 334.344,179.904 334.217,179.400 334.000 C 178.960 333.811,178.330 333.656,178.000 333.656 C 177.622 333.656,177.696 333.783,178.200 334.000 M220.600 334.000 C 220.096 334.217,220.022 334.344,220.400 334.344 C 220.730 334.344,221.360 334.189,221.800 334.000 C 222.304 333.783,222.378 333.656,222.000 333.656 C 221.670 333.656,221.040 333.811,220.600 334.000 M256.105 333.887 C 256.714 333.979,257.614 333.977,258.105 333.882 C 258.597 333.787,258.100 333.711,257.000 333.714 C 255.900 333.717,255.497 333.795,256.105 333.887 M137.300 356.300 C 171.785 356.356,228.215 356.356,262.700 356.300 C 297.185 356.244,268.970 356.197,200.000 356.197 C 131.030 356.197,102.815 356.244,137.300 356.300 " stroke="none" fill="#e8847c" fill-rule="evenodd"></path><path id="path6" d="M132.072 260.300 C 137.941 260.362,147.661 260.362,153.672 260.300 C 159.682 260.238,154.880 260.187,143.000 260.186 C 131.120 260.186,126.202 260.237,132.072 260.300 M246.072 260.300 C 251.941 260.362,261.661 260.362,267.672 260.300 C 273.682 260.238,268.880 260.187,257.000 260.186 C 245.120 260.186,240.202 260.237,246.072 260.300 M230.493 267.200 C 230.493 267.970,230.575 268.285,230.676 267.900 C 230.776 267.515,230.776 266.885,230.676 266.500 C 230.575 266.115,230.493 266.430,230.493 267.200 M135.200 301.920 L 135.400 329.800 135.503 302.223 C 135.559 287.055,135.469 274.509,135.303 274.343 C 135.136 274.176,135.090 286.586,135.200 301.920 M155.100 274.298 C 157.135 274.371,160.465 274.371,162.500 274.298 C 164.535 274.225,162.870 274.166,158.800 274.166 C 154.730 274.166,153.065 274.225,155.100 274.298 " stroke="none" fill="#e2a49c" fill-rule="evenodd"></path><path id="path7" d="M249.698 56.100 L 249.800 93.800 287.400 93.803 L 325.000 93.806 287.492 93.701 L 249.984 93.596 250.092 55.998 C 250.151 35.319,250.064 18.400,249.898 18.400 C 249.732 18.400,249.642 35.365,249.698 56.100 M109.242 150.431 C 104.600 153.261,104.746 159.566,109.517 162.300 C 110.797 163.034,289.203 163.034,290.483 162.300 C 295.254 159.566,295.400 153.261,290.758 150.431 L 289.400 149.603 200.000 149.603 L 110.600 149.603 109.242 150.431 M289.651 150.565 C 294.468 152.583,294.957 158.991,290.487 161.503 L 288.891 162.400 200.000 162.400 L 111.109 162.400 109.602 161.553 C 105.077 159.010,105.499 152.687,110.336 150.538 C 112.060 149.771,287.821 149.798,289.651 150.565 M109.424 187.724 C 104.676 190.637,104.726 197.154,109.517 199.900 C 110.797 200.634,289.203 200.634,290.483 199.900 C 295.314 197.132,295.314 190.468,290.483 187.700 C 289.240 186.987,110.585 187.011,109.424 187.724 M290.398 188.447 C 294.604 190.811,294.558 196.886,290.317 199.150 L 288.724 200.000 200.211 200.000 C 124.867 200.000,111.497 199.916,110.349 199.435 C 105.540 197.420,105.073 191.055,109.543 188.463 L 111.000 187.618 199.946 187.609 L 288.891 187.600 290.398 188.447 " stroke="none" fill="#bcc0c4" fill-rule="evenodd"></path><path id="path8" d="M169.324 267.400 C 169.326 268.720,169.401 269.212,169.490 268.493 C 169.579 267.774,169.577 266.694,169.486 266.093 C 169.395 265.492,169.322 266.080,169.324 267.400 M116.909 267.200 C 116.909 268.190,116.987 268.595,117.082 268.100 C 117.178 267.605,117.178 266.795,117.082 266.300 C 116.987 265.805,116.909 266.210,116.909 267.200 M282.909 267.200 C 282.909 268.190,282.987 268.595,283.082 268.100 C 283.178 267.605,283.178 266.795,283.082 266.300 C 282.987 265.805,282.909 266.210,282.909 267.200 M249.389 302.000 C 249.389 317.290,249.439 323.545,249.500 315.900 C 249.561 308.255,249.561 295.745,249.500 288.100 C 249.439 280.455,249.389 286.710,249.389 302.000 M264.589 301.600 C 264.589 316.670,264.639 322.835,264.700 315.300 C 264.761 307.765,264.761 295.435,264.700 287.900 C 264.639 280.365,264.589 286.530,264.589 301.600 M150.589 302.600 C 150.589 317.780,150.639 323.932,150.700 316.271 C 150.761 308.610,150.761 296.190,150.700 288.671 C 150.639 281.152,150.589 287.420,150.589 302.600 M199.375 308.041 C 199.174 308.366,199.245 308.419,199.593 308.204 C 199.923 308.000,200.397 308.231,200.904 308.842 L 201.698 309.800 201.115 308.822 C 200.422 307.661,199.786 307.375,199.375 308.041 M217.905 333.883 C 218.402 333.979,219.122 333.975,219.505 333.875 C 219.887 333.775,219.480 333.696,218.600 333.701 C 217.720 333.705,217.407 333.787,217.905 333.883 " stroke="none" fill="#dcb4b1" fill-rule="evenodd"></path></g></svg>