<svg id="svg" version="1.1" xmlns="http://www.w3.org/2000/svg" xmlns:xlink="http://www.w3.org/1999/xlink" width="400" height="400" viewBox="0, 0, 400,400"><g id="svgg"><path id="path0" d="M75.844 275.684 C 71.090 277.413,70.626 284.033,75.109 286.171 C 77.158 287.149,200.187 287.129,202.247 286.151 C 206.539 284.114,206.535 278.099,202.241 276.020 C 200.287 275.074,78.411 274.750,75.844 275.684 M76.000 312.009 C 71.025 313.170,70.632 320.634,75.440 322.642 C 77.039 323.311,322.370 323.496,324.121 322.830 C 329.376 320.832,328.791 312.764,323.326 311.861 C 321.044 311.484,77.625 311.629,76.000 312.009 M75.352 348.573 C 69.937 350.936,71.309 358.684,77.267 359.385 C 83.403 360.108,324.185 359.410,325.280 358.667 C 328.596 356.417,328.619 351.195,325.323 348.961 C 323.837 347.954,77.647 347.572,75.352 348.573 " stroke="none" fill="#3c5c84" fill-rule="evenodd"></path><path id="path1" d="M49.700 0.282 C 49.205 0.378,48.800 0.623,48.800 0.828 C 48.800 1.033,48.556 1.200,48.258 1.200 C 47.524 1.200,43.918 4.744,44.196 5.193 C 44.317 5.390,44.098 5.736,43.708 5.963 C 43.319 6.190,43.140 6.381,43.310 6.388 C 43.481 6.395,43.346 6.930,43.011 7.579 C 42.081 9.376,42.081 390.624,43.011 392.421 C 43.346 393.070,43.481 393.603,43.310 393.606 C 43.140 393.609,43.211 393.746,43.468 393.910 C 43.725 394.074,43.995 394.466,44.068 394.782 C 44.241 395.534,46.649 398.000,47.210 398.000 C 47.451 398.000,47.536 398.180,47.400 398.400 C 47.264 398.620,47.508 398.800,47.943 398.800 C 48.378 398.800,48.808 399.025,48.900 399.300 C 49.228 400.284,306.251 400.207,308.549 399.222 C 315.417 396.278,316.394 393.100,316.398 373.700 L 316.400 360.400 196.224 360.400 C 116.537 360.400,75.964 360.265,75.800 360.000 C 75.664 359.780,75.261 359.600,74.905 359.600 C 74.055 359.600,71.600 356.905,71.600 355.973 C 71.600 355.574,71.420 355.136,71.200 355.000 C 70.681 354.679,70.681 352.921,71.200 352.600 C 71.420 352.464,71.600 351.999,71.600 351.566 C 71.600 350.387,73.930 348.057,75.563 347.604 C 76.504 347.342,118.298 347.204,196.700 347.202 L 316.400 347.200 316.400 335.647 L 316.400 324.093 315.500 323.852 C 315.005 323.719,260.732 323.608,194.894 323.605 L 75.189 323.600 73.861 322.730 C 73.130 322.251,72.311 321.306,72.040 320.630 C 71.769 319.953,71.379 319.087,71.174 318.705 C 70.683 317.794,70.697 316.511,71.200 316.200 C 71.420 316.064,71.600 315.626,71.600 315.227 C 71.600 314.294,73.901 311.824,75.200 311.363 C 75.769 311.161,127.884 310.920,196.200 310.804 L 316.200 310.600 316.200 212.800 L 316.200 115.000 306.800 114.765 C 301.630 114.636,296.809 114.331,296.086 114.089 C 292.596 112.918,290.519 110.855,288.946 107.000 C 288.767 106.560,288.525 102.420,288.410 97.800 L 288.200 89.400 282.200 89.172 C 274.389 88.875,272.240 88.037,269.655 84.279 C 267.503 81.153,267.555 82.328,267.682 39.700 L 267.800 -0.000 159.200 0.054 C 99.470 0.084,50.195 0.187,49.700 0.282 M207.800 84.005 C 211.948 84.458,215.118 84.969,217.400 85.554 C 218.280 85.780,219.540 86.076,220.200 86.212 C 221.382 86.457,222.733 86.954,224.095 87.647 C 224.477 87.841,225.141 88.000,225.571 88.000 C 226.001 88.000,226.464 88.180,226.600 88.400 C 226.736 88.620,227.129 88.800,227.472 88.800 C 228.060 88.800,236.369 92.700,236.800 93.178 C 237.149 93.565,239.372 94.840,240.100 95.071 C 240.485 95.193,240.800 95.452,240.800 95.647 C 240.800 95.841,241.025 96.002,241.300 96.005 C 241.575 96.008,242.250 96.367,242.800 96.801 C 243.350 97.236,245.150 98.606,246.800 99.846 C 249.772 102.079,258.800 110.978,258.800 111.675 C 258.800 111.874,259.237 112.473,259.771 113.007 C 260.305 113.541,261.064 114.523,261.457 115.189 C 261.851 115.855,262.314 116.400,262.486 116.400 C 262.659 116.400,262.800 116.590,262.800 116.822 C 262.800 117.054,263.548 118.345,264.462 119.691 C 266.503 122.697,269.361 128.464,270.439 131.751 C 270.881 133.098,271.413 134.513,271.621 134.895 C 271.830 135.277,272.000 135.941,272.000 136.371 C 272.000 136.801,272.180 137.264,272.400 137.400 C 272.620 137.536,272.800 138.256,272.800 139.000 C 272.800 139.744,272.980 140.464,273.200 140.600 C 273.420 140.736,273.600 141.456,273.600 142.200 C 273.600 142.944,273.780 143.664,274.000 143.800 C 274.220 143.936,274.400 144.991,274.400 146.144 C 274.400 147.297,274.566 148.411,274.769 148.620 C 274.972 148.829,275.237 151.160,275.359 153.800 C 275.650 160.084,275.658 159.492,275.210 165.000 C 274.580 172.745,274.351 174.577,273.965 174.980 C 273.764 175.189,273.600 175.943,273.600 176.656 C 273.600 177.369,273.420 178.064,273.200 178.200 C 272.980 178.336,272.800 178.816,272.800 179.267 C 272.800 183.836,263.740 201.909,259.198 206.400 C 259.086 206.510,258.460 207.320,257.806 208.200 C 255.999 210.631,250.186 216.192,246.600 218.920 C 244.840 220.259,243.310 221.461,243.200 221.592 C 242.825 222.039,235.990 226.000,235.594 226.000 C 235.378 226.000,235.200 226.180,235.200 226.400 C 235.200 226.620,234.955 226.800,234.656 226.800 C 234.357 226.800,232.962 227.364,231.556 228.053 C 230.150 228.742,228.550 229.486,228.000 229.706 C 227.450 229.927,226.640 230.251,226.200 230.427 C 225.760 230.603,224.680 230.976,223.800 231.255 C 222.920 231.535,222.029 231.907,221.820 232.082 C 221.611 232.257,220.857 232.400,220.144 232.400 C 219.431 232.400,218.748 232.560,218.627 232.756 C 218.412 233.105,217.857 233.229,213.000 234.015 C 205.464 235.235,193.411 235.252,187.000 234.051 C 185.900 233.845,184.280 233.555,183.400 233.406 C 182.520 233.258,181.440 232.994,181.000 232.821 C 180.560 232.647,178.940 232.112,177.400 231.632 C 175.860 231.152,174.150 230.564,173.600 230.326 C 173.050 230.088,172.240 229.761,171.800 229.599 C 171.360 229.438,169.850 228.742,168.444 228.053 C 167.038 227.364,165.643 226.800,165.344 226.800 C 165.045 226.800,164.800 226.620,164.800 226.400 C 164.800 226.180,164.622 226.000,164.406 226.000 C 164.034 226.000,157.229 222.077,156.800 221.615 C 156.479 221.270,153.491 219.036,152.400 218.326 C 150.337 216.983,142.351 208.816,140.135 205.784 C 139.659 205.133,138.624 203.743,137.835 202.697 C 137.046 201.650,136.400 200.692,136.400 200.569 C 136.400 200.445,135.868 199.572,135.219 198.627 C 133.742 196.481,129.978 188.803,129.225 186.400 C 128.915 185.410,128.512 184.429,128.330 184.220 C 128.149 184.011,128.000 183.437,128.000 182.944 C 128.000 182.451,127.820 181.936,127.600 181.800 C 127.380 181.664,127.200 181.034,127.200 180.400 C 127.200 179.766,127.020 179.136,126.800 179.000 C 126.580 178.864,126.400 178.169,126.400 177.456 C 126.400 176.743,126.237 175.989,126.039 175.780 C 125.840 175.571,125.576 174.590,125.452 173.600 C 125.328 172.610,125.000 170.000,124.724 167.800 C 124.091 162.771,124.097 155.732,124.737 150.800 C 125.008 148.710,125.331 146.190,125.454 145.200 C 125.577 144.210,125.840 143.229,126.039 143.020 C 126.237 142.811,126.400 142.057,126.400 141.344 C 126.400 140.631,126.580 139.936,126.800 139.800 C 127.020 139.664,127.200 139.021,127.200 138.371 C 127.200 137.721,127.359 136.877,127.553 136.495 C 128.130 135.361,128.714 133.901,129.271 132.200 C 129.560 131.320,130.561 129.019,131.498 127.086 C 132.434 125.154,133.200 123.476,133.200 123.358 C 133.200 123.241,133.740 122.359,134.400 121.400 C 135.060 120.441,135.600 119.541,135.600 119.400 C 135.600 119.051,137.771 115.901,139.979 113.045 C 144.338 107.408,156.869 96.000,158.702 96.000 C 158.939 96.000,159.193 95.865,159.267 95.700 C 159.564 95.031,167.961 90.536,171.500 89.152 C 171.995 88.958,172.805 88.629,173.300 88.421 C 173.795 88.212,175.460 87.648,177.000 87.168 C 178.540 86.688,180.160 86.151,180.600 85.975 C 181.040 85.799,182.030 85.545,182.800 85.412 C 183.570 85.279,185.100 84.993,186.200 84.777 C 187.300 84.560,190.353 84.199,192.985 83.974 C 195.616 83.749,197.866 83.462,197.985 83.337 C 198.209 83.100,201.657 83.334,207.800 84.005 M356.400 240.633 C 356.400 361.282,356.501 391.633,356.900 391.500 C 357.175 391.409,357.385 390.809,357.367 390.167 C 357.349 389.525,357.304 321.635,357.267 239.300 C 357.223 139.812,357.066 89.600,356.800 89.600 C 356.534 89.600,356.400 140.211,356.400 240.633 M196.200 115.037 C 188.569 116.100,184.632 118.075,179.863 123.233 C 177.897 125.358,177.628 130.251,179.374 132.134 C 181.860 134.817,184.663 134.409,188.078 130.869 C 191.880 126.927,197.148 124.905,200.797 125.986 C 201.566 126.214,202.657 126.400,203.222 126.400 C 209.484 126.400,213.617 135.253,210.411 141.800 C 209.393 143.878,205.735 147.800,201.116 151.766 C 195.593 156.507,193.530 161.216,193.305 169.600 C 193.110 176.822,193.488 177.405,198.342 177.389 C 203.066 177.373,203.305 177.075,203.909 170.413 C 204.534 163.516,204.926 162.799,211.802 156.000 C 222.062 145.854,224.711 140.113,223.243 131.200 C 221.522 120.749,208.986 113.256,196.200 115.037 M196.196 187.330 C 192.366 188.824,190.800 191.005,190.800 194.846 C 190.800 203.818,203.333 205.094,205.635 196.358 C 207.026 191.082,201.102 185.417,196.196 187.330 M203.409 275.700 C 207.192 278.136,207.245 283.802,203.509 286.466 L 202.200 287.400 138.771 287.400 L 75.341 287.400 73.873 286.400 C 73.066 285.850,72.404 285.175,72.403 284.900 C 72.401 284.625,72.220 284.400,72.000 284.400 C 71.780 284.400,71.600 283.961,71.600 283.424 C 71.600 282.887,71.420 282.336,71.200 282.200 C 70.980 282.064,70.800 281.524,70.800 281.000 C 70.800 280.476,70.980 279.936,71.200 279.800 C 71.420 279.664,71.600 279.236,71.600 278.848 C 71.600 278.033,73.649 275.600,74.336 275.600 C 74.591 275.600,74.800 275.420,74.800 275.200 C 74.800 274.935,96.269 274.800,138.406 274.800 L 202.011 274.800 203.409 275.700 M355.665 392.536 C 355.733 393.050,355.475 393.782,355.094 394.163 C 354.712 394.545,354.400 395.033,354.400 395.248 C 354.400 395.462,353.905 396.103,353.300 396.670 L 352.200 397.702 353.181 397.398 C 354.421 397.014,355.013 396.423,355.401 395.181 C 355.570 394.642,355.954 393.845,356.254 393.411 C 356.955 392.398,356.941 392.140,356.172 391.844 C 355.694 391.661,355.573 391.828,355.665 392.536 M350.800 398.353 C 350.800 398.737,349.560 399.222,348.054 399.429 C 346.606 399.628,346.512 400.000,347.910 400.000 C 348.593 400.000,349.272 399.808,349.417 399.573 C 349.562 399.338,349.927 399.240,350.228 399.355 C 350.528 399.471,350.889 399.380,351.028 399.154 C 351.168 398.929,351.668 398.588,352.141 398.397 C 352.938 398.076,352.921 398.049,351.900 398.025 C 351.295 398.011,350.800 398.159,350.800 398.353 " stroke="none" fill="#f1e9d2" fill-rule="evenodd"></path><path id="path2" d="M268.491 41.026 L 268.600 81.400 269.942 83.421 C 271.398 85.614,273.118 86.980,275.487 87.825 C 276.983 88.359,355.600 88.725,355.600 88.198 C 355.600 88.087,335.976 68.344,311.991 44.325 L 268.381 0.653 268.491 41.026 M195.000 84.459 C 188.402 84.846,181.878 86.134,177.000 88.011 C 176.560 88.181,175.570 88.536,174.800 88.800 C 173.107 89.382,171.640 89.971,170.705 90.447 C 170.323 90.641,169.738 90.800,169.405 90.800 C 169.072 90.800,168.800 90.980,168.800 91.200 C 168.800 91.420,168.548 91.600,168.241 91.600 C 167.321 91.600,157.069 97.448,156.400 98.355 C 156.290 98.504,155.446 99.171,154.523 99.838 C 153.601 100.504,151.434 102.298,149.708 103.825 C 146.989 106.229,145.517 107.779,141.400 112.578 C 137.653 116.945,132.351 126.264,130.009 132.600 C 129.521 133.920,128.984 135.360,128.816 135.800 C 128.091 137.700,127.600 139.517,127.600 140.305 C 127.600 140.771,127.439 141.252,127.242 141.374 C 127.045 141.495,126.771 142.361,126.632 143.297 C 126.494 144.234,126.182 146.170,125.939 147.600 C 124.937 153.500,125.454 170.366,126.796 175.600 C 127.050 176.590,127.355 177.987,127.473 178.704 C 127.592 179.421,127.849 180.106,128.044 180.227 C 128.240 180.348,128.400 180.889,128.400 181.429 C 128.400 181.969,128.559 182.723,128.753 183.105 C 129.184 183.952,129.752 185.340,130.429 187.200 C 133.885 196.701,141.888 207.934,150.890 215.922 C 153.649 218.370,161.627 224.000,162.337 224.000 C 162.555 224.000,162.793 224.143,162.867 224.318 C 163.033 224.715,171.331 228.800,171.971 228.800 C 172.228 228.800,173.184 229.160,174.094 229.600 C 175.005 230.040,175.989 230.400,176.281 230.400 C 176.572 230.400,177.123 230.563,177.505 230.763 C 186.103 235.258,206.492 235.464,221.800 231.211 C 223.939 230.617,228.989 228.711,229.380 228.351 C 229.589 228.158,230.084 228.000,230.480 228.000 C 230.876 228.000,231.200 227.820,231.200 227.600 C 231.200 227.380,231.453 227.200,231.762 227.200 C 232.428 227.200,235.741 225.532,235.933 225.100 C 236.007 224.935,236.236 224.800,236.442 224.800 C 236.999 224.800,242.669 221.142,245.800 218.763 C 250.975 214.832,258.672 206.756,261.111 202.700 C 261.475 202.095,261.914 201.600,262.086 201.600 C 262.259 201.600,262.400 201.407,262.400 201.172 C 262.400 200.937,262.915 199.992,263.545 199.072 C 266.733 194.414,270.352 186.206,272.219 179.400 C 274.094 172.563,274.454 169.812,274.676 160.600 C 274.884 151.970,274.446 147.832,272.559 140.600 C 272.272 139.500,271.923 138.150,271.785 137.600 C 271.646 137.050,271.383 136.240,271.199 135.800 C 271.015 135.360,270.371 133.650,269.768 132.000 C 268.477 128.470,266.020 123.314,264.836 121.651 C 264.376 121.005,264.000 120.279,264.000 120.038 C 264.000 119.797,263.841 119.600,263.647 119.600 C 263.452 119.600,263.208 119.285,263.104 118.900 C 261.835 114.205,241.658 94.800,238.045 94.800 C 237.800 94.800,237.600 94.641,237.600 94.447 C 237.600 94.252,237.285 93.993,236.900 93.871 C 236.515 93.749,235.750 93.374,235.200 93.037 C 233.594 92.052,227.266 89.200,226.688 89.200 C 226.398 89.200,225.989 89.057,225.780 88.882 C 222.756 86.348,205.366 83.849,195.000 84.459 M207.812 115.150 C 215.520 117.137,220.950 121.736,223.220 128.200 C 223.374 128.640,223.703 129.503,223.950 130.119 C 224.507 131.505,224.548 138.662,224.000 139.000 C 223.780 139.136,223.600 139.689,223.600 140.229 C 223.600 140.769,223.436 141.523,223.235 141.905 C 223.034 142.287,222.390 143.637,221.804 144.903 C 220.327 148.094,218.318 150.530,211.921 156.882 C 208.884 159.897,206.400 162.518,206.400 162.707 C 206.400 162.895,206.064 163.759,205.654 164.625 C 205.173 165.641,204.824 167.555,204.670 170.020 C 204.244 176.857,203.177 178.315,198.561 178.371 C 195.813 178.404,193.958 177.674,193.316 176.306 C 192.338 174.222,191.917 172.030,192.173 170.352 C 192.320 169.388,192.529 167.520,192.637 166.200 C 192.745 164.880,192.985 163.440,193.171 163.000 C 193.357 162.560,193.747 161.390,194.038 160.400 C 194.328 159.410,194.664 158.510,194.783 158.400 C 194.902 158.290,195.302 157.660,195.671 157.000 C 196.735 155.100,199.230 152.270,201.344 150.566 C 204.438 148.073,209.200 143.239,209.200 142.592 C 209.200 142.266,209.380 142.000,209.600 142.000 C 209.820 142.000,210.000 141.561,210.000 141.024 C 210.000 140.487,210.180 139.936,210.400 139.800 C 211.377 139.196,210.559 131.200,209.520 131.200 C 209.344 131.200,209.200 131.007,209.200 130.771 C 209.200 128.755,204.319 126.814,199.228 126.806 C 193.719 126.797,192.727 127.231,188.600 131.457 C 185.174 134.966,183.967 135.416,181.149 134.235 C 178.077 132.948,176.214 128.728,177.553 126.095 C 177.748 125.713,178.151 124.881,178.449 124.248 C 182.137 116.410,196.016 112.110,207.812 115.150 M202.554 187.568 C 209.648 192.449,206.674 202.966,198.200 202.966 C 195.624 202.966,194.056 202.347,192.374 200.665 C 190.535 198.826,189.149 194.813,189.925 193.572 C 190.186 193.153,190.400 192.536,190.400 192.200 C 190.400 187.737,198.379 184.696,202.554 187.568 " stroke="none" fill="#fc9b29" fill-rule="evenodd"></path><path id="path3" d="" stroke="none" fill="#b7989c" fill-rule="evenodd"></path><path id="path4" d="M74.789 275.637 C 70.781 277.962,70.366 283.412,74.000 286.000 C 74.666 286.474,75.420 286.793,75.675 286.708 C 75.929 286.624,75.612 286.335,74.969 286.066 C 70.525 284.211,71.201 277.333,75.990 275.663 C 78.776 274.692,200.206 275.035,202.241 276.020 C 206.535 278.099,206.539 284.114,202.247 286.151 C 201.004 286.741,195.191 286.803,138.540 286.828 C 103.395 286.844,76.549 287.006,77.000 287.200 C 78.368 287.788,198.845 287.691,201.078 287.100 C 206.964 285.543,207.666 277.710,202.127 275.395 C 199.514 274.304,76.685 274.537,74.789 275.637 M195.800 311.184 C 79.427 311.393,75.363 311.425,74.307 312.141 C 70.443 314.762,70.747 320.918,74.841 322.960 C 76.007 323.542,87.292 323.600,200.067 323.600 L 324.011 323.600 325.337 322.731 C 328.485 320.667,329.331 316.990,327.347 313.991 C 326.768 313.116,326.048 312.400,325.747 312.400 C 325.446 312.400,325.200 312.240,325.200 312.045 C 325.200 310.871,334.869 310.936,195.800 311.184 M323.326 311.861 C 328.791 312.764,329.376 320.832,324.121 322.830 C 322.370 323.496,77.039 323.311,75.440 322.642 C 70.632 320.634,71.025 313.170,76.000 312.009 C 77.625 311.629,321.044 311.484,323.326 311.861 M75.600 347.928 C 69.801 350.556,70.272 358.547,76.295 359.725 C 80.235 360.495,325.200 359.961,325.200 359.182 C 325.200 359.001,325.515 358.751,325.900 358.625 C 329.425 357.474,329.061 350.910,325.337 348.469 L 324.011 347.600 200.106 347.628 C 131.958 347.644,75.930 347.779,75.600 347.928 M325.323 348.961 C 328.619 351.195,328.596 356.417,325.280 358.667 C 324.185 359.410,83.403 360.108,77.267 359.385 C 71.309 358.684,69.937 350.936,75.352 348.573 C 77.647 347.572,323.837 347.954,325.323 348.961 " stroke="none" fill="#9faab1" fill-rule="evenodd"></path><path id="path5" d="M268.184 0.900 C 268.080 1.175,268.041 18.950,268.099 40.400 L 268.204 79.400 268.302 40.036 L 268.400 0.673 269.935 2.236 C 272.246 4.589,272.689 4.904,272.994 4.410 C 273.140 4.173,273.036 4.030,272.762 4.090 C 272.489 4.151,272.028 3.750,271.739 3.200 C 271.449 2.650,271.209 2.354,271.206 2.542 C 271.203 2.731,270.678 2.326,270.040 1.642 C 268.761 0.274,268.468 0.157,268.184 0.900 M280.711 12.840 C 281.386 13.727,287.778 20.129,288.671 20.811 C 289.644 21.556,287.550 19.201,284.709 16.356 C 283.448 15.094,282.598 13.971,282.819 13.860 C 283.039 13.750,282.990 13.714,282.710 13.779 C 282.430 13.845,281.755 13.516,281.212 13.049 C 280.669 12.582,280.443 12.488,280.711 12.840 M298.019 30.186 C 298.912 31.395,304.350 36.800,304.674 36.800 C 304.831 36.800,304.758 36.598,304.511 36.351 C 304.264 36.104,304.109 35.699,304.166 35.451 C 304.222 35.203,304.190 35.146,304.093 35.324 C 303.846 35.779,302.430 34.427,302.561 33.862 C 302.621 33.608,302.594 33.532,302.503 33.693 C 302.412 33.854,301.539 33.237,300.562 32.321 C 299.239 31.082,298.915 30.563,299.293 30.290 C 299.662 30.024,299.623 29.981,299.149 30.131 C 298.791 30.245,298.259 30.127,297.968 29.869 C 297.623 29.564,297.641 29.675,298.019 30.186 M314.800 46.944 C 314.800 47.092,316.155 48.568,317.811 50.224 C 320.566 52.979,321.610 53.545,321.594 52.276 C 321.589 51.935,321.496 51.944,321.264 52.310 C 321.032 52.675,320.314 52.166,318.726 50.510 C 316.053 47.722,314.800 46.584,314.800 46.944 M331.200 63.316 C 331.200 63.716,337.218 69.716,337.418 69.515 C 337.505 69.428,336.141 67.931,334.388 66.188 C 332.635 64.445,331.200 63.152,331.200 63.316 M349.200 81.321 C 349.200 81.484,350.194 82.612,351.409 83.827 C 353.440 85.857,354.448 86.283,354.368 85.076 C 354.348 84.772,354.259 84.795,354.121 85.141 C 353.975 85.508,353.150 84.934,351.553 83.353 C 350.259 82.073,349.200 81.158,349.200 81.321 M200.066 84.049 C 200.360 84.235,201.500 84.376,202.600 84.362 C 204.995 84.332,204.597 84.129,201.666 83.887 C 200.418 83.784,199.754 83.851,200.066 84.049 M196.700 84.282 C 197.195 84.378,198.005 84.378,198.500 84.282 C 198.995 84.187,198.590 84.109,197.600 84.109 C 196.610 84.109,196.205 84.187,196.700 84.282 M188.600 84.796 C 188.102 85.008,188.631 85.051,190.000 84.912 C 191.210 84.789,192.275 84.623,192.367 84.544 C 192.711 84.247,189.367 84.470,188.600 84.796 M208.033 84.544 C 208.125 84.624,209.010 84.796,210.000 84.927 C 211.202 85.086,211.534 85.047,211.000 84.810 C 210.236 84.472,207.686 84.243,208.033 84.544 M184.400 85.606 C 183.978 85.882,184.215 85.923,185.200 85.742 C 186.925 85.425,187.251 85.198,185.967 85.206 C 185.435 85.209,184.730 85.389,184.400 85.606 M212.833 85.343 C 212.925 85.422,213.720 85.597,214.600 85.732 C 215.690 85.899,216.009 85.855,215.600 85.595 C 215.053 85.246,212.445 85.009,212.833 85.343 M317.000 88.400 L 278.200 88.606 317.100 88.703 C 342.831 88.767,356.000 88.665,356.000 88.400 C 356.000 88.180,355.955 88.044,355.900 88.097 C 355.845 88.150,338.340 88.287,317.000 88.400 M160.400 95.326 C 156.335 97.850,151.946 101.178,148.972 103.991 C 145.672 107.113,146.378 106.811,150.100 103.509 C 151.915 101.899,154.030 100.142,154.800 99.604 C 155.570 99.066,156.437 98.396,156.726 98.115 C 157.016 97.834,158.456 96.897,159.926 96.032 C 162.593 94.464,164.379 93.231,164.000 93.220 C 163.890 93.216,162.270 94.164,160.400 95.326 M240.200 95.872 C 240.420 96.085,241.590 96.928,242.800 97.746 C 244.390 98.821,244.648 98.924,243.730 98.117 C 242.545 97.074,239.322 95.025,240.200 95.872 M246.400 100.112 C 246.400 100.216,247.607 101.359,249.082 102.651 C 250.557 103.943,251.637 104.794,251.483 104.541 C 251.139 103.976,246.400 99.847,246.400 100.112 M143.499 109.531 C 142.013 111.181,140.881 112.614,140.982 112.716 C 141.084 112.817,141.670 112.294,142.284 111.552 C 142.898 110.811,144.101 109.434,144.958 108.494 C 145.816 107.553,146.446 106.727,146.358 106.657 C 146.271 106.588,144.985 107.881,143.499 109.531 M255.600 109.000 C 256.346 109.770,257.047 110.400,257.157 110.400 C 257.267 110.400,256.746 109.770,256.000 109.000 C 255.254 108.230,254.553 107.600,254.443 107.600 C 254.333 107.600,254.854 108.230,255.600 109.000 M140.115 113.700 C 138.291 116.084,137.480 117.311,137.895 117.059 C 138.415 116.744,140.962 113.200,140.668 113.200 C 140.575 113.200,140.326 113.425,140.115 113.700 M259.991 114.388 C 260.457 115.041,261.042 115.702,261.291 115.856 C 261.541 116.011,261.241 115.476,260.625 114.668 C 259.288 112.915,258.784 112.692,259.991 114.388 M195.400 114.367 C 194.300 114.499,196.190 114.610,199.600 114.614 C 203.629 114.618,205.030 114.526,203.600 114.350 C 200.993 114.029,198.154 114.035,195.400 114.367 M191.200 115.200 C 190.396 115.457,190.357 115.523,191.000 115.532 C 191.440 115.538,192.160 115.389,192.600 115.200 C 193.619 114.762,192.568 114.762,191.200 115.200 M206.600 115.200 C 207.040 115.389,207.760 115.538,208.200 115.532 C 208.843 115.523,208.804 115.457,208.000 115.200 C 206.632 114.762,205.581 114.762,206.600 115.200 M187.784 116.322 C 184.305 117.782,181.168 120.164,179.518 122.600 C 179.070 123.260,179.581 122.872,180.652 121.737 C 182.914 119.343,185.416 117.619,188.100 116.607 C 189.145 116.214,190.000 115.826,190.000 115.746 C 190.000 115.484,189.427 115.633,187.784 116.322 M209.200 115.737 C 209.200 115.812,210.416 116.351,211.902 116.934 C 213.388 117.517,215.773 118.909,217.202 120.027 L 219.800 122.061 217.861 120.230 C 215.705 118.195,209.200 114.820,209.200 115.737 M136.204 119.265 C 134.375 122.029,130.559 129.600,130.994 129.600 C 131.087 129.600,131.805 128.249,132.588 126.597 C 133.372 124.946,134.613 122.651,135.347 121.497 C 137.735 117.740,138.457 115.861,136.204 119.265 M221.800 125.600 C 222.141 126.260,222.511 126.800,222.621 126.800 C 222.731 126.800,222.541 126.260,222.200 125.600 C 221.859 124.940,221.489 124.400,221.379 124.400 C 221.269 124.400,221.459 124.940,221.800 125.600 M177.467 126.267 C 177.100 126.633,177.129 130.309,177.500 130.538 C 177.665 130.640,177.800 129.661,177.800 128.362 C 177.800 127.063,177.785 126.000,177.767 126.000 C 177.748 126.000,177.613 126.120,177.467 126.267 M197.200 126.440 C 195.760 126.632,196.060 126.692,198.700 126.740 C 200.515 126.773,202.000 126.729,202.000 126.642 C 202.000 126.332,198.969 126.204,197.200 126.440 M189.080 130.478 C 184.520 135.173,181.588 135.653,178.837 132.156 C 178.377 131.571,178.000 131.263,178.000 131.471 C 178.000 132.031,180.032 133.778,181.319 134.325 C 183.918 135.429,185.266 134.889,188.600 131.411 C 189.920 130.033,191.359 128.716,191.797 128.483 C 192.235 128.250,192.460 127.927,192.298 127.765 C 192.135 127.602,190.687 128.823,189.080 130.478 M129.480 132.880 C 128.876 134.439,128.471 135.804,128.581 135.914 C 128.691 136.024,128.892 135.774,129.029 135.357 C 129.165 134.941,129.642 133.649,130.090 132.486 C 130.538 131.323,130.831 130.298,130.742 130.208 C 130.652 130.119,130.084 131.321,129.480 132.880 M223.845 132.000 C 223.990 133.210,224.174 134.275,224.254 134.367 C 224.607 134.770,224.346 130.938,223.984 130.400 C 223.703 129.982,223.661 130.467,223.845 132.000 M210.924 136.200 C 210.926 137.520,211.001 138.012,211.090 137.293 C 211.179 136.574,211.177 135.494,211.086 134.893 C 210.995 134.292,210.922 134.880,210.924 136.200 M224.072 135.650 C 224.032 136.228,223.886 137.308,223.747 138.050 C 223.553 139.085,223.606 139.296,223.971 138.956 C 224.261 138.686,224.389 137.743,224.296 136.556 C 224.213 135.480,224.112 135.072,224.072 135.650 M127.829 137.429 C 127.681 138.015,127.651 138.584,127.761 138.694 C 127.871 138.804,128.081 138.415,128.229 137.829 C 128.376 137.242,128.406 136.673,128.296 136.563 C 128.186 136.453,127.976 136.842,127.829 137.429 M127.254 139.667 C 127.225 140.034,127.084 140.664,126.941 141.067 C 126.741 141.633,126.795 141.696,127.175 141.346 C 127.446 141.097,127.587 140.467,127.488 139.946 C 127.390 139.426,127.284 139.300,127.254 139.667 M126.449 142.800 C 126.416 143.130,126.289 143.850,126.167 144.400 C 125.975 145.264,126.007 145.303,126.399 144.688 C 126.648 144.297,126.775 143.577,126.681 143.088 C 126.586 142.600,126.482 142.470,126.449 142.800 M273.228 143.233 C 273.244 143.765,273.419 144.560,273.619 145.000 C 273.871 145.558,273.907 145.315,273.738 144.200 C 273.455 142.343,273.187 141.836,273.228 143.233 M206.461 145.886 C 205.725 146.639,205.197 147.330,205.288 147.422 C 205.380 147.513,206.060 146.963,206.800 146.200 C 207.540 145.437,208.068 144.745,207.973 144.664 C 207.878 144.583,207.197 145.132,206.461 145.886 M219.659 147.908 C 218.975 148.974,217.962 150.272,217.408 150.793 C 216.853 151.313,216.400 151.889,216.400 152.071 C 216.400 152.455,218.544 150.085,220.184 147.889 C 220.804 147.058,221.220 146.286,221.107 146.174 C 220.995 146.062,220.343 146.842,219.659 147.908 M125.667 147.050 C 125.630 147.518,125.498 148.508,125.373 149.250 C 125.188 150.353,125.229 150.471,125.597 149.893 C 125.845 149.504,125.977 148.514,125.891 147.693 C 125.805 146.872,125.704 146.583,125.667 147.050 M274.101 147.800 C 274.105 148.680,274.187 148.993,274.283 148.495 C 274.379 147.998,274.375 147.278,274.275 146.895 C 274.175 146.513,274.096 146.920,274.101 147.800 M202.000 149.924 C 200.570 151.176,198.770 152.917,198.000 153.794 C 197.230 154.671,198.445 153.694,200.700 151.624 C 204.313 148.307,205.089 147.531,204.700 147.624 C 204.645 147.637,203.430 148.672,202.000 149.924 M124.737 155.500 C 124.662 157.645,124.703 161.200,124.829 163.400 C 125.011 166.592,125.072 165.804,125.129 159.500 C 125.204 151.209,124.972 148.843,124.737 155.500 M215.233 153.140 C 213.398 155.276,213.206 155.629,214.592 154.313 C 215.455 153.496,216.079 152.749,215.980 152.654 C 215.881 152.559,215.545 152.778,215.233 153.140 M274.944 159.200 C 274.944 161.290,275.012 162.145,275.094 161.100 C 275.176 160.055,275.176 158.345,275.094 157.300 C 275.012 156.255,274.944 157.110,274.944 159.200 M208.989 159.211 C 207.467 160.745,206.354 162.000,206.516 162.000 C 206.897 162.000,212.092 156.759,211.901 156.568 C 211.821 156.488,210.511 157.678,208.989 159.211 M193.067 163.067 C 192.920 163.213,192.815 163.798,192.834 164.367 C 192.868 165.381,192.875 165.379,193.221 164.220 C 193.585 163.003,193.531 162.602,193.067 163.067 M204.300 168.750 C 204.135 169.493,204.021 171.113,204.047 172.350 L 204.094 174.600 204.461 172.400 C 204.664 171.190,204.778 169.570,204.715 168.800 L 204.600 167.400 204.300 168.750 M274.256 168.884 C 274.121 169.388,274.031 170.430,274.055 171.200 C 274.089 172.269,274.175 172.080,274.418 170.402 C 274.753 168.092,274.672 167.333,274.256 168.884 M125.435 170.200 C 125.582 171.300,125.769 172.275,125.851 172.367 C 126.210 172.768,125.946 169.339,125.577 168.800 C 125.286 168.374,125.245 168.780,125.435 170.200 M192.243 169.033 C 191.889 169.956,191.957 172.913,192.347 173.528 C 192.546 173.841,192.682 172.902,192.682 171.228 C 192.682 168.249,192.635 168.011,192.243 169.033 M126.046 174.000 C 126.065 174.330,126.224 175.050,126.400 175.600 L 126.720 176.600 126.754 175.600 C 126.773 175.050,126.613 174.330,126.400 174.000 C 126.055 173.467,126.016 173.467,126.046 174.000 M192.811 175.400 C 192.820 175.952,194.301 177.833,194.537 177.594 C 194.642 177.487,194.295 176.860,193.766 176.200 C 193.237 175.540,192.807 175.180,192.811 175.400 M202.800 176.671 C 202.250 177.253,202.055 177.645,202.366 177.543 C 202.865 177.378,204.328 175.589,203.949 175.607 C 203.867 175.611,203.350 176.090,202.800 176.671 M126.846 177.200 C 126.865 177.530,127.024 178.250,127.200 178.800 L 127.520 179.800 127.554 178.800 C 127.573 178.250,127.413 177.530,127.200 177.200 C 126.855 176.667,126.816 176.667,126.846 177.200 M195.462 178.100 C 195.564 178.265,196.886 178.400,198.400 178.400 C 199.914 178.400,201.236 178.265,201.338 178.100 C 201.440 177.935,200.118 177.800,198.400 177.800 C 196.682 177.800,195.360 177.935,195.462 178.100 M272.454 178.267 C 272.425 178.744,272.296 179.464,272.170 179.867 C 271.952 180.561,271.964 180.562,272.396 179.888 C 272.647 179.497,272.775 178.777,272.681 178.288 C 272.509 177.401,272.509 177.401,272.454 178.267 M127.840 181.066 C 128.208 182.599,128.400 182.744,128.400 181.490 C 128.400 180.917,128.213 180.332,127.984 180.190 C 127.711 180.021,127.662 180.323,127.840 181.066 M129.200 184.962 C 129.200 186.145,133.101 194.292,135.730 198.600 C 141.436 207.949,151.726 218.295,160.200 223.201 C 162.658 224.625,161.397 223.590,157.268 220.795 C 149.270 215.381,142.273 208.095,136.619 199.293 C 134.469 195.945,130.005 186.926,130.002 185.924 C 130.001 185.552,129.820 185.136,129.600 185.000 C 129.380 184.864,129.200 184.847,129.200 184.962 M269.513 187.381 C 269.142 188.381,268.917 189.200,269.014 189.200 C 269.293 189.200,270.431 186.294,270.303 185.909 C 270.239 185.718,269.884 186.380,269.513 187.381 M193.878 187.591 C 192.845 188.246,192.000 188.872,192.000 188.982 C 192.000 189.092,192.845 188.646,193.878 187.991 C 196.693 186.206,199.940 186.275,202.772 188.181 C 203.900 188.940,204.719 189.393,204.591 189.186 C 202.829 186.335,197.184 185.494,193.878 187.591 M205.628 191.476 C 205.718 192.515,206.344 193.396,206.372 192.524 C 206.387 192.042,206.220 191.536,206.000 191.400 C 205.780 191.264,205.613 191.298,205.628 191.476 M189.867 193.467 C 189.495 193.839,189.545 195.293,189.952 195.935 C 190.169 196.279,190.291 195.885,190.291 194.835 C 190.291 193.094,190.279 193.055,189.867 193.467 M265.400 196.000 C 265.059 196.660,264.869 197.200,264.979 197.200 C 265.089 197.200,265.459 196.660,265.800 196.000 C 266.141 195.340,266.331 194.800,266.221 194.800 C 266.111 194.800,265.741 195.340,265.400 196.000 M206.032 196.807 C 206.014 197.141,205.516 198.131,204.925 199.007 C 204.288 199.953,204.136 200.368,204.552 200.029 C 205.480 199.274,206.498 197.267,206.256 196.673 C 206.139 196.385,206.051 196.438,206.032 196.807 M190.418 197.538 C 190.382 198.621,192.466 201.106,194.200 202.048 C 194.640 202.287,194.321 201.908,193.491 201.205 C 192.661 200.502,191.633 199.268,191.208 198.463 C 190.783 197.658,190.427 197.242,190.418 197.538 M263.014 199.835 C 262.641 200.404,262.427 200.961,262.539 201.072 C 262.650 201.183,263.029 200.718,263.381 200.037 C 264.159 198.533,263.944 198.415,263.014 199.835 M202.400 201.636 C 201.736 202.179,201.669 202.315,202.200 202.040 C 203.505 201.366,204.228 200.812,203.800 200.815 C 203.580 200.817,202.950 201.186,202.400 201.636 M196.538 202.924 C 197.478 203.152,198.722 203.155,199.738 202.931 C 201.239 202.600,201.089 202.564,198.200 202.558 C 195.395 202.552,195.190 202.597,196.538 202.924 M252.987 212.500 L 250.600 215.000 253.100 212.613 C 254.475 211.299,255.600 210.174,255.600 210.113 C 255.600 209.817,255.205 210.178,252.987 212.500 M248.175 216.900 L 247.000 218.200 248.300 217.025 C 249.015 216.379,249.600 215.794,249.600 215.725 C 249.600 215.416,249.270 215.688,248.175 216.900 M245.185 219.229 L 243.800 220.458 245.300 219.381 C 246.626 218.430,247.057 218.000,246.685 218.000 C 246.622 218.000,245.947 218.553,245.185 219.229 M238.500 223.646 C 237.137 224.519,236.695 225.106,237.900 224.443 C 238.818 223.939,240.256 222.827,240.000 222.819 C 239.890 222.816,239.215 223.188,238.500 223.646 M173.158 229.637 C 174.125 230.066,175.000 230.334,175.102 230.232 C 175.324 230.010,172.494 228.788,171.851 228.828 C 171.603 228.844,172.191 229.208,173.158 229.637 M185.000 233.181 C 185.768 233.529,187.910 233.756,187.567 233.453 C 187.475 233.372,186.680 233.196,185.800 233.062 C 184.685 232.893,184.442 232.929,185.000 233.181 M189.400 234.020 C 190.178 234.335,194.700 234.547,194.367 234.253 C 194.275 234.172,192.940 234.014,191.400 233.901 C 189.798 233.784,188.942 233.835,189.400 234.020 M208.000 234.000 L 206.200 234.280 207.800 234.312 C 208.680 234.329,209.760 234.189,210.200 234.000 C 211.127 233.602,210.561 233.602,208.000 234.000 M199.305 234.687 C 199.914 234.779,200.814 234.777,201.305 234.682 C 201.797 234.587,201.300 234.511,200.200 234.514 C 199.100 234.517,198.697 234.595,199.305 234.687 " stroke="none" fill="#f4c465" fill-rule="evenodd"></path><path id="path6" d="M268.000 0.424 C 268.000 0.657,268.185 0.733,268.411 0.593 C 268.637 0.453,269.333 0.886,269.958 1.556 C 270.583 2.225,271.195 2.671,271.318 2.548 C 271.601 2.265,269.049 -0.000,268.447 -0.000 C 268.201 -0.000,268.000 0.191,268.000 0.424 M271.600 3.171 C 271.600 3.398,274.045 5.972,277.033 8.892 C 280.021 11.811,283.936 15.709,285.733 17.554 C 287.530 19.398,291.790 23.664,295.200 27.033 C 298.610 30.402,301.540 33.303,301.711 33.479 C 305.514 37.399,315.297 47.220,316.021 47.845 C 316.559 48.310,319.481 51.260,322.513 54.399 C 325.544 57.539,328.136 59.998,328.271 59.862 C 328.407 59.727,319.806 50.904,309.159 40.256 C 298.511 29.609,288.323 19.390,286.517 17.548 C 279.504 10.396,271.600 2.778,271.600 3.171 M328.589 60.018 C 328.486 60.185,334.611 66.535,342.201 74.129 C 349.790 81.723,356.000 88.135,356.000 88.378 C 356.000 88.697,345.059 88.789,316.375 88.709 C 294.582 88.649,277.167 88.717,277.675 88.860 C 278.184 89.003,296.105 89.138,317.500 89.160 L 356.400 89.200 356.400 88.279 C 356.400 87.612,354.165 85.145,348.300 79.337 C 343.845 74.925,337.630 68.706,334.488 65.515 C 331.347 62.325,328.692 59.851,328.589 60.018 M268.006 79.833 C 268.009 80.255,268.195 80.870,268.418 81.200 C 268.715 81.638,268.752 81.476,268.556 80.600 C 268.227 79.129,267.998 78.810,268.006 79.833 M269.477 83.645 C 270.243 84.964,273.079 87.600,273.732 87.600 C 273.945 87.600,273.398 87.077,272.516 86.438 C 271.634 85.799,270.513 84.629,270.024 83.838 C 268.936 82.078,268.473 81.914,269.477 83.645 M197.700 83.876 C 198.085 83.976,198.715 83.976,199.100 83.876 C 199.485 83.775,199.170 83.693,198.400 83.693 C 197.630 83.693,197.315 83.775,197.700 83.876 M201.105 83.883 C 201.602 83.979,202.322 83.975,202.705 83.875 C 203.087 83.775,202.680 83.696,201.800 83.701 C 200.920 83.705,200.607 83.787,201.105 83.883 M251.000 104.000 C 251.859 104.880,252.652 105.600,252.762 105.600 C 252.872 105.600,252.259 104.880,251.400 104.000 C 250.541 103.120,249.748 102.400,249.638 102.400 C 249.528 102.400,250.141 103.120,251.000 104.000 M148.175 104.500 L 147.000 105.800 148.300 104.625 C 149.512 103.530,149.784 103.200,149.475 103.200 C 149.406 103.200,148.821 103.785,148.175 104.500 M144.575 108.100 L 143.400 109.400 144.700 108.225 C 145.912 107.130,146.184 106.800,145.875 106.800 C 145.806 106.800,145.221 107.385,144.575 108.100 M254.000 106.925 C 254.000 106.994,254.585 107.579,255.300 108.225 L 256.600 109.400 255.425 108.100 C 254.330 106.888,254.000 106.616,254.000 106.925 M198.500 114.687 C 199.105 114.778,200.095 114.778,200.700 114.687 C 201.305 114.595,200.810 114.520,199.600 114.520 C 198.390 114.520,197.895 114.595,198.500 114.687 M181.375 120.900 L 180.200 122.200 181.500 121.025 C 182.712 119.930,182.984 119.600,182.675 119.600 C 182.606 119.600,182.021 120.185,181.375 120.900 M203.775 148.900 L 202.600 150.200 203.900 149.025 C 204.615 148.379,205.200 147.794,205.200 147.725 C 205.200 147.416,204.870 147.688,203.775 148.900 M274.931 153.000 C 274.933 154.540,275.005 155.121,275.092 154.291 C 275.179 153.461,275.177 152.201,275.089 151.491 C 275.000 150.781,274.929 151.460,274.931 153.000 M124.501 157.400 C 124.505 158.280,124.587 158.593,124.683 158.095 C 124.779 157.598,124.775 156.878,124.675 156.495 C 124.575 156.113,124.496 156.520,124.501 157.400 M124.501 161.400 C 124.505 162.280,124.587 162.593,124.683 162.095 C 124.779 161.598,124.775 160.878,124.675 160.495 C 124.575 160.113,124.496 160.520,124.501 161.400 M274.934 165.600 C 274.934 167.250,275.005 167.925,275.091 167.100 C 275.178 166.275,275.178 164.925,275.091 164.100 C 275.005 163.275,274.934 163.950,274.934 165.600 M192.893 166.400 C 192.893 167.170,192.975 167.485,193.076 167.100 C 193.176 166.715,193.176 166.085,193.076 165.700 C 192.975 165.315,192.893 165.630,192.893 166.400 M274.046 172.867 C 274.021 173.234,273.896 173.864,273.770 174.267 C 273.552 174.962,273.563 174.963,273.997 174.287 C 274.248 173.896,274.373 173.266,274.273 172.887 C 274.111 172.268,274.088 172.266,274.046 172.867 M146.783 212.900 C 148.441 214.666,148.800 214.984,148.800 214.683 C 148.800 214.619,147.945 213.764,146.900 212.783 L 145.000 211.000 146.783 212.900 M252.981 212.900 L 251.400 214.600 253.100 213.019 C 254.681 211.548,254.984 211.200,254.681 211.200 C 254.616 211.200,253.851 211.965,252.981 212.900 M249.375 216.100 L 248.200 217.400 249.500 216.225 C 250.215 215.579,250.800 214.994,250.800 214.925 C 250.800 214.616,250.470 214.888,249.375 216.100 M150.000 215.725 C 150.000 215.794,150.585 216.379,151.300 217.025 L 152.600 218.200 151.425 216.900 C 150.330 215.688,150.000 215.416,150.000 215.725 " stroke="none" fill="#f5c98b" fill-rule="evenodd"></path><path id="path7" d="M267.792 40.400 C 267.792 62.510,267.841 71.555,267.900 60.500 C 267.959 49.445,267.959 31.355,267.900 20.300 C 267.841 9.245,267.792 18.290,267.792 40.400 M268.218 81.700 C 268.368 82.195,268.655 82.776,268.856 82.991 C 269.057 83.206,269.019 82.801,268.772 82.091 C 268.265 80.638,267.797 80.308,268.218 81.700 M199.107 83.490 C 199.826 83.579,200.906 83.577,201.507 83.486 C 202.108 83.395,201.520 83.322,200.200 83.324 C 198.880 83.326,198.388 83.401,199.107 83.490 M195.300 83.876 C 195.685 83.976,196.315 83.976,196.700 83.876 C 197.085 83.775,196.770 83.693,196.000 83.693 C 195.230 83.693,194.915 83.775,195.300 83.876 M203.700 83.876 C 204.085 83.976,204.715 83.976,205.100 83.876 C 205.485 83.775,205.170 83.693,204.400 83.693 C 203.630 83.693,203.315 83.775,203.700 83.876 M189.891 84.289 C 190.601 84.377,191.861 84.379,192.691 84.292 C 193.521 84.205,192.940 84.133,191.400 84.131 C 189.860 84.129,189.181 84.200,189.891 84.289 M207.507 84.290 C 208.226 84.379,209.306 84.377,209.907 84.286 C 210.508 84.195,209.920 84.122,208.600 84.124 C 207.280 84.126,206.788 84.201,207.507 84.290 M185.917 84.770 C 184.881 84.915,183.927 85.139,183.797 85.270 C 183.447 85.620,187.300 85.153,188.000 84.761 C 188.659 84.391,188.629 84.391,185.917 84.770 M212.433 84.947 C 212.525 85.028,213.479 85.188,214.554 85.304 C 215.749 85.432,216.293 85.378,215.954 85.163 C 215.435 84.835,212.071 84.628,212.433 84.947 M180.645 85.928 C 180.533 86.108,180.973 86.177,181.621 86.082 C 182.270 85.987,182.800 85.840,182.800 85.755 C 182.800 85.450,180.843 85.607,180.645 85.928 M216.833 85.743 C 216.925 85.821,217.630 86.001,218.400 86.142 C 219.385 86.323,219.622 86.282,219.200 86.006 C 218.658 85.650,216.437 85.403,216.833 85.743 M178.000 86.818 C 177.562 87.115,177.724 87.152,178.600 86.956 C 180.071 86.627,180.390 86.398,179.367 86.406 C 178.945 86.409,178.330 86.595,178.000 86.818 M220.000 86.555 C 220.000 86.640,220.530 86.787,221.179 86.882 C 221.827 86.977,222.267 86.908,222.155 86.728 C 221.957 86.407,220.000 86.250,220.000 86.555 M356.400 88.600 C 356.400 88.930,356.580 89.200,356.800 89.200 C 357.020 89.200,357.200 88.930,357.200 88.600 C 357.200 88.270,357.020 88.000,356.800 88.000 C 356.580 88.000,356.400 88.270,356.400 88.600 M276.000 88.800 C 276.330 89.013,277.050 89.173,277.600 89.154 L 278.600 89.120 277.600 88.800 C 276.058 88.306,275.236 88.306,276.000 88.800 M155.600 98.049 C 154.206 99.271,154.205 99.272,155.488 98.419 C 156.196 97.948,156.882 97.391,157.012 97.181 C 157.397 96.557,157.077 96.754,155.600 98.049 M247.782 100.888 C 248.672 101.706,249.549 102.381,249.731 102.388 C 249.913 102.395,249.463 101.916,248.731 101.324 C 246.487 99.511,246.083 99.325,247.782 100.888 M151.078 101.413 C 150.460 101.956,150.114 102.400,150.308 102.400 C 150.502 102.400,151.083 101.950,151.600 101.400 C 152.795 100.128,152.531 100.134,151.078 101.413 M147.186 105.100 L 145.000 107.400 147.391 105.200 C 148.706 103.990,149.861 102.955,149.957 102.900 C 150.054 102.845,149.962 102.800,149.753 102.800 C 149.544 102.800,148.389 103.835,147.186 105.100 M252.400 105.000 C 253.146 105.770,253.847 106.400,253.957 106.400 C 254.067 106.400,253.546 105.770,252.800 105.000 C 252.054 104.230,251.353 103.600,251.243 103.600 C 251.133 103.600,251.654 104.230,252.400 105.000 M142.600 109.720 C 141.296 111.318,141.190 111.654,142.315 110.625 C 143.022 109.979,143.600 109.394,143.600 109.325 C 143.600 109.022,142.965 109.274,142.600 109.720 M256.400 109.325 C 256.400 109.394,256.973 109.979,257.674 110.625 L 258.949 111.800 257.974 110.522 C 257.147 109.437,256.400 108.869,256.400 109.325 M138.723 114.700 C 137.730 115.858,135.513 119.247,135.661 119.381 C 135.738 119.449,136.658 118.266,137.707 116.753 C 139.550 114.092,139.966 113.252,138.723 114.700 M265.032 121.100 C 265.430 121.705,266.004 122.695,266.307 123.300 C 266.921 124.525,267.318 124.786,266.915 123.700 C 266.583 122.802,264.754 120.000,264.501 120.000 C 264.395 120.000,264.634 120.495,265.032 121.100 M133.814 122.235 C 133.441 122.804,133.205 123.338,133.289 123.422 C 133.373 123.507,133.758 123.041,134.144 122.388 C 135.006 120.928,134.748 120.809,133.814 122.235 M268.018 126.460 C 268.008 126.603,268.448 127.683,268.996 128.860 C 269.544 130.037,269.986 130.730,269.978 130.400 C 269.964 129.804,268.053 125.962,268.018 126.460 M206.378 146.700 L 205.000 148.200 206.500 146.822 C 207.896 145.538,208.184 145.200,207.878 145.200 C 207.812 145.200,207.137 145.875,206.378 146.700 M125.049 147.415 C 124.912 147.773,124.816 148.456,124.836 148.933 C 124.862 149.547,124.985 149.408,125.259 148.456 C 125.657 147.072,125.494 146.258,125.049 147.415 M216.181 151.700 L 214.600 153.400 216.300 151.819 C 217.881 150.348,218.184 150.000,217.881 150.000 C 217.816 150.000,217.051 150.765,216.181 151.700 M198.975 153.300 L 197.800 154.600 199.100 153.425 C 199.815 152.779,200.400 152.194,200.400 152.125 C 200.400 151.816,200.070 152.088,198.975 153.300 M124.259 154.500 C 123.934 157.207,123.968 162.561,124.323 164.558 C 124.477 165.423,124.605 163.068,124.611 159.258 C 124.622 151.631,124.615 151.536,124.259 154.500 M275.257 159.400 C 275.262 161.126,275.315 161.258,275.643 160.366 C 275.884 159.709,275.882 158.979,275.637 158.366 C 275.312 157.553,275.252 157.718,275.257 159.400 M192.901 169.000 C 192.905 169.880,192.987 170.193,193.083 169.695 C 193.179 169.198,193.175 168.478,193.075 168.095 C 192.975 167.713,192.896 168.120,192.901 169.000 M124.846 170.000 C 124.827 170.550,124.987 171.270,125.200 171.600 C 125.694 172.364,125.694 171.542,125.200 170.000 L 124.880 169.000 124.846 170.000 M192.893 173.200 C 192.893 173.970,192.975 174.285,193.076 173.900 C 193.176 173.515,193.176 172.885,193.076 172.500 C 192.975 172.115,192.893 172.430,192.893 173.200 M125.628 174.676 C 125.613 175.158,125.780 175.664,126.000 175.800 C 126.473 176.092,126.473 175.701,126.000 174.600 C 125.669 173.829,125.655 173.831,125.628 174.676 M126.428 177.876 C 126.413 178.358,126.580 178.864,126.800 179.000 C 127.273 179.292,127.273 178.901,126.800 177.800 C 126.469 177.029,126.455 177.031,126.428 177.876 M190.501 194.600 C 190.505 195.480,190.587 195.793,190.683 195.295 C 190.779 194.798,190.775 194.078,190.675 193.695 C 190.575 193.313,190.496 193.720,190.501 194.600 M133.949 196.600 C 134.165 197.040,134.634 197.760,134.993 198.200 L 135.644 199.000 135.251 198.200 C 135.035 197.760,134.566 197.040,134.207 196.600 L 133.556 195.800 133.949 196.600 M264.253 198.900 L 263.533 200.200 264.358 199.200 C 265.089 198.313,265.414 197.600,265.086 197.600 C 265.024 197.600,264.649 198.185,264.253 198.900 M140.840 206.639 C 141.685 207.905,144.031 210.504,144.182 210.342 C 144.255 210.264,143.407 209.210,142.297 208.000 C 141.187 206.790,140.531 206.177,140.840 206.639 M256.054 209.634 C 254.851 211.033,254.562 211.964,255.729 210.682 C 257.696 208.520,258.094 208.004,257.770 208.034 C 257.566 208.052,256.794 208.772,256.054 209.634 M249.715 216.010 C 248.789 216.885,248.167 217.600,248.334 217.600 C 248.501 217.600,249.341 216.880,250.200 216.000 C 252.210 213.941,251.900 213.948,249.715 216.010 M150.539 216.745 C 151.787 217.875,152.916 218.800,153.047 218.800 C 153.358 218.800,149.213 215.048,148.678 214.845 C 148.454 214.760,149.291 215.615,150.539 216.745 M156.800 221.527 C 156.800 221.716,157.250 222.077,157.800 222.327 C 158.350 222.578,158.800 222.717,158.800 222.637 C 158.800 222.557,158.350 222.197,157.800 221.837 C 157.250 221.476,156.800 221.337,156.800 221.527 M242.000 222.020 L 241.000 222.822 242.100 222.347 C 242.705 222.085,243.200 221.720,243.200 221.536 C 243.200 221.079,243.145 221.102,242.000 222.020 M178.400 231.982 C 178.730 232.205,179.345 232.391,179.767 232.394 C 180.790 232.402,180.471 232.173,179.000 231.844 C 178.124 231.648,177.962 231.685,178.400 231.982 M220.600 232.000 L 219.400 232.305 220.476 232.353 C 221.068 232.379,221.664 232.220,221.800 232.000 C 221.936 231.780,221.992 231.621,221.924 231.647 C 221.856 231.673,221.260 231.832,220.600 232.000 M181.141 232.901 C 181.343 233.103,181.933 233.201,182.454 233.119 C 183.255 232.993,183.198 232.937,182.087 232.752 C 181.293 232.621,180.919 232.679,181.141 232.901 M217.400 232.800 L 216.200 233.105 217.276 233.153 C 217.868 233.179,218.464 233.020,218.600 232.800 C 218.736 232.580,218.792 232.421,218.724 232.447 C 218.656 232.473,218.060 232.632,217.400 232.800 M213.400 233.600 L 211.400 233.874 213.200 233.931 C 214.190 233.962,215.270 233.813,215.600 233.600 C 215.930 233.387,216.020 233.238,215.800 233.269 C 215.580 233.300,214.500 233.449,213.400 233.600 M185.905 233.883 C 186.402 233.979,187.122 233.975,187.505 233.875 C 187.887 233.775,187.480 233.696,186.600 233.701 C 185.720 233.705,185.407 233.787,185.905 233.883 M191.312 234.695 C 192.364 234.777,193.984 234.776,194.912 234.692 C 195.840 234.608,194.980 234.541,193.000 234.542 C 191.020 234.543,190.260 234.612,191.312 234.695 M205.511 234.693 C 206.451 234.778,207.891 234.777,208.711 234.691 C 209.530 234.605,208.760 234.536,207.000 234.537 C 205.240 234.539,204.570 234.609,205.511 234.693 M201.300 235.076 C 201.685 235.176,202.315 235.176,202.700 235.076 C 203.085 234.975,202.770 234.893,202.000 234.893 C 201.230 234.893,200.915 234.975,201.300 235.076 " stroke="none" fill="#f2d5a8" fill-rule="evenodd"></path><path id="path8" d="M322.800 89.099 L 288.200 89.203 288.413 97.702 C 288.530 102.376,288.771 106.560,288.949 107.000 C 290.499 110.834,292.596 112.918,296.086 114.089 C 296.809 114.331,301.630 114.636,306.800 114.765 L 316.200 115.000 316.200 212.800 L 316.200 310.600 196.133 310.800 C 126.721 310.916,75.926 311.150,75.733 311.356 C 75.541 311.562,75.834 311.609,76.428 311.467 C 79.722 310.679,325.200 311.250,325.200 312.045 C 325.200 312.240,325.446 312.400,325.747 312.400 C 326.783 312.400,328.400 315.445,328.400 317.397 C 328.400 321.718,325.747 323.582,319.506 323.646 C 317.028 323.672,315.315 323.775,315.700 323.876 C 316.346 324.045,316.400 324.946,316.400 335.629 L 316.400 347.199 196.300 347.300 L 76.200 347.401 200.106 347.501 L 324.011 347.600 325.337 348.469 C 329.061 350.910,329.425 357.474,325.900 358.625 C 325.515 358.751,325.200 359.001,325.200 359.182 C 325.200 359.648,323.093 360.050,319.500 360.271 L 316.400 360.461 316.398 373.730 C 316.394 393.028,315.587 395.768,308.950 399.020 L 307.000 399.975 326.800 399.959 C 337.690 399.951,346.960 399.799,347.400 399.622 C 347.840 399.445,348.480 399.445,348.822 399.622 C 349.166 399.801,349.701 399.762,350.022 399.534 C 350.486 399.205,350.458 399.170,349.879 399.358 C 349.457 399.494,349.260 399.427,349.403 399.195 C 349.537 398.978,349.907 398.800,350.224 398.800 C 350.541 398.800,350.800 398.631,350.800 398.425 C 350.800 398.219,351.385 397.994,352.100 397.925 C 353.085 397.830,353.371 397.629,353.281 397.095 C 353.216 396.707,353.441 396.282,353.781 396.152 C 354.122 396.021,354.403 395.709,354.406 395.457 C 354.420 394.420,355.169 393.754,355.595 394.400 C 355.872 394.821,355.921 394.491,355.759 393.299 C 355.580 391.976,355.648 391.643,356.064 391.803 C 356.511 391.975,356.583 367.011,356.499 240.804 C 356.432 140.071,356.532 89.600,356.798 89.600 C 357.065 89.600,357.233 139.705,357.300 239.300 L 357.401 389.000 357.501 238.900 C 357.555 156.345,357.555 88.844,357.500 88.898 C 357.445 88.952,341.830 89.042,322.800 89.099 M203.709 172.800 C 203.709 173.790,203.787 174.195,203.882 173.700 C 203.978 173.205,203.978 172.395,203.882 171.900 C 203.787 171.405,203.709 171.810,203.709 172.800 M204.457 277.212 C 205.644 278.690,205.798 279.157,205.786 281.226 C 205.779 282.514,205.911 283.350,206.080 283.084 C 207.037 281.578,205.703 277.147,203.968 276.070 C 203.347 275.684,203.481 275.997,204.457 277.212 M72.254 277.373 C 71.319 278.800,71.446 279.104,72.446 277.833 C 72.911 277.242,73.205 276.672,73.100 276.566 C 72.995 276.461,72.614 276.824,72.254 277.373 M71.067 279.867 C 70.675 280.259,70.742 281.917,71.160 282.175 C 71.358 282.298,71.520 281.768,71.520 280.999 C 71.520 279.520,71.490 279.444,71.067 279.867 M204.178 285.338 C 203.506 286.044,202.246 286.834,201.378 287.094 C 199.926 287.530,199.907 287.553,201.134 287.387 C 202.638 287.183,204.596 285.929,205.215 284.772 C 205.765 283.744,205.622 283.822,204.178 285.338 M72.403 285.080 C 72.408 285.680,75.025 287.185,76.414 287.387 L 77.800 287.588 76.400 287.131 C 75.630 286.880,74.415 286.243,73.700 285.717 C 72.985 285.190,72.401 284.903,72.403 285.080 M72.384 313.623 C 71.905 314.296,71.579 314.913,71.661 314.994 C 71.743 315.076,72.214 314.526,72.708 313.771 C 73.823 312.071,73.571 311.956,72.384 313.623 M71.067 316.267 C 70.675 316.659,70.742 318.317,71.160 318.575 C 71.358 318.698,71.520 318.168,71.520 317.399 C 71.520 315.920,71.490 315.844,71.067 316.267 M71.745 320.000 C 71.885 320.330,72.101 320.879,72.225 321.220 C 72.350 321.561,72.820 322.070,73.269 322.351 C 73.931 322.764,73.872 322.569,72.960 321.331 C 71.503 319.353,71.442 319.286,71.745 320.000 M73.506 348.850 L 72.200 350.101 73.600 349.113 C 74.370 348.569,75.270 348.021,75.600 347.894 C 76.082 347.709,76.063 347.657,75.506 347.632 C 75.125 347.614,74.225 348.163,73.506 348.850 M71.067 352.667 C 70.675 353.059,70.742 354.717,71.160 354.975 C 71.358 355.098,71.520 354.568,71.520 353.799 C 71.520 352.320,71.490 352.244,71.067 352.667 M71.602 356.233 C 71.603 356.435,72.068 357.140,72.635 357.800 L 73.666 359.000 72.763 357.600 C 71.604 355.804,71.600 355.799,71.602 356.233 M75.862 360.100 C 75.964 360.265,129.992 360.356,195.924 360.303 C 261.856 360.249,303.200 360.159,287.800 360.103 C 214.450 359.835,75.697 359.833,75.862 360.100 " stroke="none" fill="#dcd4c4" fill-rule="evenodd"></path></g></svg>